<svg xmlns="http://www.w3.org/2000/svg" width="67.7" height="67.7">
  <defs>
    <path id="a" d="M351-390.6l540 1.5V252l-540-1.5z"/>
  </defs>
  <defs>
    <path id="b" d="M351-390.6l540 1.5V252l-540-1.5z"/>
  </defs>
  <path fill="none" d="M.1 200.1V-441M.1 200.1V-441M.1 200.1V-441M.1 200.1V-441M.1 200.1V-441M.1 200.1V-441M.1 200.1V-441M.1 200.1V-441M.1 200.1V-441M.1 200.1V-441M.1 200.1V-441M.1 200.1V-441M.1 200.1V-441M.1 200.1V-441M.1 200.1V-441"/>
  <path fill="#3D2877" d="M15.8 17.5h25.5v4.1H15.8zM25.5 24.3H51v4.1H25.5zM25.5 31.1H51v4.1H25.5zM15.8 37.9h25.5V42H15.8zM24.4 45h25.5v4.1H24.4z"/>
  <path fill="none" stroke="#3E2779" stroke-miterlimit="10" d="M9.1 9h48.6v48.6H9.1z"/>
</svg>