<svg xmlns="http://www.w3.org/2000/svg" xmlns:xlink="http://www.w3.org/1999/xlink" width="67.67" height="67.67">
  <defs>
    <path id="a" d="M431.67 59.15l540 1.46v641.14l-540-1.46z"/>
  </defs>
  <clipPath id="b">
    <use xlink:href="#a" overflow="visible"/>
  </clipPath>
  <path clip-path="url(#b)" fill="#FFF" d="M26.44 32.42a6.57 6.57 0 00-1.33 2.05c-.44 1-1.07 2.7-1.27 3.65-1.93-3.06 1.65-6.18 2.52-8.52-3.26.58-6.22 1.8-6.59 5.45-1.53-2.84.72-5.79 3.57-6.25-1.9-.4-3.6-.44-5.2-.01a15.4 15.4 0 008.3 18.2V32.42z"/>
  <path clip-path="url(#b)" fill="none" stroke="#236666" stroke-miterlimit="10" d="M26.44 32.42a6.57 6.57 0 00-1.33 2.05c-.44 1-1.07 2.7-1.27 3.65-1.93-3.06 1.65-6.18 2.52-8.52-3.26.58-6.22 1.8-6.59 5.45-1.53-2.84.72-5.79 3.57-6.25-1.9-.4-3.6-.44-5.2-.01a15.4 15.4 0 008.3 18.2V32.42z"/>
  <path clip-path="url(#b)" fill="none" stroke="#236666" stroke-miterlimit="10" d="M32.95 17.62a15.41 15.41 0 00-14.14 9.3c2.2-.83 4.85-.92 6.55-.43 0 0-.37-.04.27-1.16.63-1.1 1.28-1.66 3.64-2.6-1.02 1.11-.95 2.74-.73 4.05 3.67-2.69 8.79-1.33 11.3 2.34-2.39-1.5-6.76-.93-7.57-.89 2.08.46 3.7.9 5.07 1.86.94.66 1.33 1.8 2.11 3.86-2.7-2.06-5.5-3.97-9.26-3.92a6.95 6.95 0 013.4 3.86c.9 2.02 1.15 1.58 1.27 4.69-1.54-1.32-2.19-3.02-3.7-4.59-.95-.97-1.8-1.8-2.47-2.82v16.67a15.42 15.42 0 104.26-30.22zM22.33 44.2l4.11.08M28.69 44.28l14 .71"/>
  <path clip-path="url(#b)" fill="#FFF" d="M29.93 37.79l3.02 4.13 11.73 1.1"/>
  <path clip-path="url(#b)" fill="none" stroke="#236666" stroke-miterlimit="10" d="M29.93 37.79l3.02 4.13 11.73 1.1M34.74 42.09l-.79 2.64"/>
  <ellipse clip-path="url(#b)" fill="none" stroke="#236666" stroke-miterlimit="10" cx="32.91" cy="33.04" rx="15.37" ry="15.41"/>
  <path clip-path="url(#b)" fill="none" stroke="#236666" stroke-miterlimit="10" d="M8.67 8.75h48.57v48.57H8.67z"/>
  <g>
    <defs>
      <path id="c" d="M431.67 59.15l540 1.46v641.14l-540-1.46z"/>
    </defs>
    <clipPath id="d">
      <use xlink:href="#c" overflow="visible"/>
    </clipPath>
    <path clip-path="url(#d)" fill="#236666" d="M39.12 33.04a6.17 6.17 0 10-12.34 0 6.17 6.17 0 0012.34 0"/>
    <path clip-path="url(#d)" fill="none" stroke="#236666" stroke-width=".25" stroke-miterlimit="10" d="M39.12 33.04a6.17 6.17 0 10-12.34 0 6.17 6.17 0 0012.34 0z"/>
    <path clip-path="url(#d)" fill="none" stroke="#236666" stroke-miterlimit="10" d="M8.67 8.75h48.57v48.57H8.67z"/>
  </g>
  <path fill="none" stroke="#236666" stroke-miterlimit="10" d="M26.44 32.42a6.57 6.57 0 00-1.33 2.05c-.44 1-1.07 2.7-1.27 3.65-1.93-3.06 1.65-6.18 2.52-8.52-3.26.58-6.22 1.8-6.59 5.45-1.53-2.84.72-5.79 3.57-6.25-1.9-.4-3.6-.44-5.2-.01a15.4 15.4 0 008.3 18.2V32.42z"/>
  <path fill="none" stroke="#236666" stroke-miterlimit="10" d="M32.95 17.62a15.41 15.41 0 00-14.14 9.3c2.2-.83 4.85-.92 6.55-.43 0 0-.37-.04.27-1.16.63-1.1 1.28-1.66 3.64-2.6-1.02 1.11-.95 2.74-.73 4.05 3.67-2.69 8.79-1.33 11.3 2.34-2.39-1.5-6.76-.93-7.57-.89 2.08.46 3.7.9 5.07 1.86.94.66 1.33 1.8 2.11 3.86-2.7-2.06-5.5-3.97-9.26-3.92a6.95 6.95 0 013.4 3.86c.9 2.02 1.15 1.58 1.27 4.69-1.54-1.32-2.19-3.02-3.7-4.59-.95-.97-1.8-1.8-2.47-2.82v16.67a15.42 15.42 0 104.26-30.22zM22.33 44.2l4.11.08M28.69 44.28l14 .71"/>
  <path fill="none" stroke="#236666" stroke-miterlimit="10" d="M29.93 37.79l3.02 4.13 11.73 1.1M34.74 42.09l-.79 2.64"/>
  <ellipse fill="none" stroke="#236666" stroke-miterlimit="10" cx="32.91" cy="33.04" rx="15.37" ry="15.41"/>
  <path fill="none" stroke="#236666" stroke-miterlimit="10" d="M8.67 8.75h48.57v48.57H8.67z"/>
</svg>