<svg xmlns="http://www.w3.org/2000/svg" width="67.7" height="67.7">
  <defs>
    <path id="a" d="M270-121l540 2v641l-540-1z"/>
  </defs>
  <defs>
    <path id="b" d="M270-121l540 2v641l-540-1z"/>
  </defs>
  <path fill="none" stroke="#B22D2B" stroke-miterlimit="10" d="M9 9h49v49H9z"/>
  <circle fill="none" stroke="#B32D2B" stroke-miterlimit="10" cx="33.8" cy="33" r="17.7"/>
  <path fill="none" stroke="#B32D2B" stroke-miterlimit="10" d="M34 51c-5 0-9-8-9-18s4-18 9-18"/>
  <path fill="none" stroke="#B32D2B" stroke-miterlimit="10" d="M51 33c0 5-7 9-17 9s-18-4-18-9"/>
  <g fill="#B32D2B">
    <path d="M17 33l-1-1v2h1v-1M19 30h-1-1v2l1-1 1-1M21 28h-1a12 12 0 00-1 1v1l1-1a10 10 0 011-1M24 27h-2v1h1l1-1M27 26h-2v1h1l1-1M30 26v-1h-1l-1 1h2zM33 26v-1h-2v1h2M36 26v-1h-2v1h2M39 26v-1h-2v1a27 27 0 002 0M42 27v-1h-1-1 1l1 1M45 28v-1h-1l-1-1v1a26 26 0 002 1M47 29l1-1h-1l-1-1v1a16 16 0 001 1M50 31v-1h-1v-1l-1 1a84 84 0 001 0v1h1M51 33h1l-1-1v-1l-1 1a5 5 0 001 1M36 16v-1h-1-1v1a59 59 0 001 0 17 17 0 001 0M38 18l1-1h-1l-1-1v1l1 1M40 20v-1l-1-1v1l1 1M41 23h1l-1-1v-1h-1a23 23 0 001 2M42 26h1l-1-1v-1h-1l1 1v1M42 29h1v-1-1h-1v2zM43 32v-1-1h-1a27 27 0 001 2M43 35v-1-1 2M42 38h1v-1-1h-1v2M42 41v-1l1-1h-1v2M41 44l1-1v-1h-1v2M39 47h1v-1l1-1h-1v1l-1 1M37 49h2v-2l-1 1v1h-1M35 50v1h1l1-1v-1l-1 1h-1"/>
  </g>
</svg>