<svg xmlns="http://www.w3.org/2000/svg" width="67.7" height="67.7">
  <defs>
    <path id="a" d="M432-211l540 2v641l-540-1z"/>
  </defs>
  <defs>
    <path id="b" d="M432-211l540 2v641l-540-1z"/>
  </defs>
  <path fill="none" stroke="#3E2779" stroke-miterlimit="10" d="M9 9h48v49H9z"/>
  <path fill="#3D2877" d="M15 27h8v5h-8zM24 27h8v5h-8zM34 27h8v5h-8zM44 27h7v5h-7zM15 34h8v6h-8zM24 34h8v6h-8zM34 34h8v6h-8zM44 34h7v6h-7zM15 42h8v6h-8zM24 42h8v6h-8zM34 42h8v6h-8zM44 42h7v6h-7zM15 19h8v5h-8zM24 19h8v5h-8zM34 19h8v5h-8zM44 19h7v5h-7z"/>
</svg>