<svg xmlns="http://www.w3.org/2000/svg" width="67.67" height="67.67">
  <path fill="#52702A" d="M34.63 26.15a1.51 1.51 0 11-.1 3.02 1.51 1.51 0 01.1-3.02"/>
  <path fill="none" stroke="#52702A" stroke-width="2" stroke-miterlimit="10" d="M34.63 26.15a1.51 1.51 0 11-.1 3.02 1.51 1.51 0 01.1-3.02z"/>
  <path fill="none" stroke="#52702A" stroke-width=".5" stroke-miterlimit="10" d="M24.62 26.4a5.29 5.29 0 11-.4 10.57 5.29 5.29 0 01.4-10.57z"/>
  <path fill="#52702A" d="M36.27 34.8a2.81 2.81 0 11-.22 5.62 2.81 2.81 0 01.22-5.62"/>
  <path fill="none" stroke="#52702A" stroke-width="2" stroke-miterlimit="10" d="M36.27 34.8a2.81 2.81 0 11-.22 5.62 2.81 2.81 0 01.22-5.62z"/>
  <path fill="#52702A" d="M24.48 30.1a1.59 1.59 0 11-.13 3.18 1.59 1.59 0 01.13-3.17"/>
  <circle fill="none" stroke="#52702A" stroke-width="2" stroke-miterlimit="10" cx="24.42" cy="31.69" r="1.58"/>
  <path fill="#52702A" d="M44.65 28.03a2.1 2.1 0 11-.16 4.2 2.1 2.1 0 01.16-4.2"/>
  <path fill="none" stroke="#52702A" stroke-width="2" stroke-miterlimit="10" d="M44.65 28.03a2.1 2.1 0 11-.16 4.2 2.1 2.1 0 01.16-4.2z"/>
  <path fill="none" stroke="#52702A" stroke-miterlimit="10" d="M9.08 9h48.57v48.57H9.08z"/>
</svg>