<?xml version="1.0" encoding="utf-8"?>
<!-- Generator: Adobe Illustrator 16.0.0, SVG Export Plug-In . SVG Version: 6.00 Build 0)  -->
<!DOCTYPE svg PUBLIC "-//W3C//DTD SVG 1.1//EN" "http://www.w3.org/Graphics/SVG/1.1/DTD/svg11.dtd">
<svg version="1.1" id="Ebene_1" xmlns="http://www.w3.org/2000/svg" xmlns:xlink="http://www.w3.org/1999/xlink" x="0px" y="0px"
	 width="67.667px" height="67.666px" viewBox="0 0 67.667 67.666" enable-background="new 0 0 67.667 67.666" xml:space="preserve">
<g>
	<defs>
		<polygon id="SVGID_7_" points="270.333,-480.601 810.333,-479.144 810.333,162 270.333,160.543 		"/>
	</defs>
	<clipPath id="SVGID_2_">
		<use xlink:href="#SVGID_7_"  overflow="visible"/>
	</clipPath>
</g>
<g>
	<defs>
		<polygon id="SVGID_9_" points="270.333,-480.601 810.333,-479.144 810.333,162 270.333,160.543 		"/>
	</defs>
	<clipPath id="SVGID_4_">
		<use xlink:href="#SVGID_9_"  overflow="visible"/>
	</clipPath>
</g>
<rect x="19.561" y="22.313" fill="none" stroke="#52702A" stroke-miterlimit="10" width="22.595" height="21.946"/>
<path fill="#52702A" stroke="#52702A" stroke-miterlimit="10" d="M36.03,25.886c0,0.82-0.665,1.484-1.486,1.484
	c-0.819,0-1.484-0.664-1.484-1.484c0-0.817,0.665-1.484,1.484-1.484C35.365,24.401,36.03,25.068,36.03,25.886"/>
<circle fill="none" stroke="#52702A" stroke-width="2" stroke-miterlimit="10" cx="34.545" cy="25.886" r="1.485"/>
<path fill="#52702A" stroke="#52702A" stroke-miterlimit="10" d="M34.521,34.365c0.156,0.908-0.453,1.772-1.363,1.931
	c-0.909,0.156-1.772-0.451-1.93-1.361c-0.157-0.909,0.452-1.775,1.36-1.932C33.498,32.846,34.362,33.455,34.521,34.365"/>
<circle fill="none" stroke="#52702A" stroke-width="2" stroke-miterlimit="10" cx="32.874" cy="34.65" r="1.671"/>
<path fill="#236666" d="M47.675,40.633c0,0.375-0.304,0.679-0.678,0.679c-0.375,0-0.679-0.304-0.679-0.679
	c0-0.376,0.304-0.679,0.679-0.679C47.371,39.954,47.675,40.257,47.675,40.633"/>
<circle fill="none" stroke="#52702A" stroke-width="2" stroke-miterlimit="10" cx="46.997" cy="40.633" r="0.678"/>
<path fill="#236666" d="M46.995,29.48c0,0.354-0.286,0.641-0.641,0.641c-0.354,0-0.64-0.287-0.64-0.641s0.286-0.641,0.64-0.641
	C46.709,28.84,46.995,29.127,46.995,29.48"/>
<circle fill="none" stroke="#52702A" stroke-width="2" stroke-miterlimit="10" cx="46.355" cy="29.48" r="0.64"/>
<path fill="#236666" d="M43.348,30.309c0,0.658-0.534,1.191-1.191,1.191c-0.661,0-1.194-0.533-1.194-1.191
	c0-0.66,0.533-1.195,1.194-1.195C42.813,29.113,43.348,29.648,43.348,30.309"/>
<circle fill="#52702A" stroke="#52702A" stroke-miterlimit="10" cx="42.155" cy="30.309" r="1.193"/>
<path fill="#236666" d="M45.171,25.395c0,0.373-0.303,0.674-0.673,0.674c-0.372,0-0.672-0.301-0.672-0.674
	c0-0.371,0.3-0.673,0.672-0.673C44.868,24.722,45.171,25.023,45.171,25.395"/>
<circle fill="none" stroke="#52702A" stroke-width="2" stroke-miterlimit="10" cx="44.499" cy="25.395" r="0.672"/>
<path fill="#52702A" stroke="#52702A" stroke-miterlimit="10" d="M26.626,40.565c0,0.944-0.766,1.709-1.711,1.709
	c-0.943,0-1.708-0.765-1.708-1.709c0-0.945,0.766-1.71,1.708-1.71C25.86,38.855,26.626,39.62,26.626,40.565"/>
<circle fill="none" stroke="#52702A" stroke-width="2" stroke-miterlimit="10" cx="24.916" cy="40.565" r="1.71"/>
<path fill="#52702A" stroke="#52702A" stroke-miterlimit="10" d="M44.498,39.608c0,0.699-0.569,1.267-1.269,1.267
	c-0.701,0-1.268-0.567-1.268-1.267c0-0.702,0.566-1.269,1.268-1.269C43.929,38.34,44.498,38.906,44.498,39.608"/>
<circle fill="none" stroke="#52702A" stroke-width="2" stroke-miterlimit="10" cx="43.23" cy="39.608" r="1.268"/>
<path fill="#52702A" stroke="#52702A" stroke-miterlimit="10" d="M38.315,40.822c0,0.826-0.668,1.496-1.495,1.496
	c-0.823,0-1.495-0.67-1.495-1.496s0.672-1.499,1.495-1.499C37.647,39.323,38.315,39.996,38.315,40.822"/>
<circle fill="none" stroke="#52702A" stroke-width="2" stroke-miterlimit="10" cx="36.82" cy="40.822" r="1.495"/>
<circle fill="#52702A" stroke="#52702A" stroke-miterlimit="10" cx="22.828" cy="26.226" r="1.865"/>
<path fill="#236666" d="M46.354,33.76c0,0.49-0.399,0.89-0.891,0.89c-0.488,0-0.888-0.399-0.888-0.89s0.399-0.89,0.888-0.89
	C45.955,32.87,46.354,33.27,46.354,33.76"/>
<path fill="none" stroke="#52702A" stroke-width="2" stroke-miterlimit="10" d="M46.354,33.76c0,0.49-0.399,0.89-0.891,0.89
	c-0.488,0-0.888-0.399-0.888-0.89s0.399-0.89,0.888-0.89C45.955,32.87,46.354,33.27,46.354,33.76z"/>
<rect x="9.333" y="9" fill="none" stroke="#52702A" stroke-miterlimit="10" width="48.571" height="48.571"/>
</svg>
