<svg xmlns="http://www.w3.org/2000/svg" width="67.7" height="67.7">
  <defs>
    <path id="a" d="M351-210.9l540 1.5v641.1l-540-1.4z"/>
  </defs>
  <defs>
    <path id="b" d="M351-210.9l540 1.5v641.1l-540-1.4z"/>
  </defs>
  <path fill="#3D2877" d="M38.6 26.6h7.5V32h-7.5zM20.6 34.1h7.5v5.4h-7.5zM29.6 34.1h7.5v5.4h-7.5zM20.6 41.6h7.5V47h-7.5zM29.6 41.6h7.5V47h-7.5zM38.6 34.2h7.5V47h-7.5zM20.6 19.1h16.5v13.6H20.6zM38.6 19.2h7.5v5.4h-7.5z"/>
  <path fill="none" stroke="#3E2779" stroke-miterlimit="10" d="M9.1 8.8h48.6v48.6H9.1z"/>
  <path fill="none" d="M.1 379.9v-641.2M.1 379.9v-641.2M.1 379.9v-641.2M.1 379.9v-641.2M.1 379.9v-641.2M.1 379.9v-641.2M.1 379.9v-641.2M.1 379.9v-641.2M.1 379.9v-641.2M.1 379.9v-641.2M.1 379.9v-641.2M.1 379.9v-641.2M.1 379.9v-641.2M.1 379.9v-641.2M.1 379.9v-641.2"/>
</svg>