<svg xmlns="http://www.w3.org/2000/svg" width="67.67" height="67.67">
  <defs>
    <path id="a" d="M351.08-570.6l540 1.46V72l-540-1.46z"/>
  </defs>
  <defs>
    <path id="b" d="M351.08-570.6l540 1.46V72l-540-1.46z"/>
  </defs>
  <path fill="none" d="M.08 20.14V-621M.08 20.14V-621M.08 20.14V-621M.08 20.14V-621M.08 20.14V-621M.08 20.14V-621M.08 20.14V-621M.08 20.14V-621M.08 20.14V-621M.08 20.14V-621M.08 20.14V-621M.08 20.14V-621M.08 20.14V-621M.08 20.14V-621M.08 20.14V-621"/>
  <path fill="none" stroke="#52702A" stroke-miterlimit="10" d="M32.31 35.46V22.44h13.02"/>
  <path fill="#52702A" d="M43.06 31.2v4.26H32.3V22.44h13.02v11.25z"/>
  <path fill="none" stroke="#52702A" stroke-miterlimit="10" d="M9.08 9h48.57v48.57H9.08z"/>
  <g fill-rule="evenodd" clip-rule="evenodd" fill="#52702A">
    <path d="M22.02 39.66h.54v.71h-.54zM22.02 40.93h.54v.71h-.54zM22.02 42.2h.54v.71h-.54zM22.02 35.84h.54v.71h-.54zM22.02 37.11h.54v.71h-.54zM22.02 38.38h.54v.71h-.54zM27.73 32.67h.71v.54h-.71zM26.45 32.67h.71v.54h-.71zM25.19 32.67h.71v.54h-.71zM31.55 32.67h.71v.54h-.71zM30.28 32.67h.71v.54h-.71zM29.01 32.67h.71v.54h-.71zM34.88 38.38h.54v.71h-.54zM34.88 37.11h.54v.71h-.54zM34.88 35.84h.54v.71h-.54zM34.88 42.2h.54v.71h-.54zM34.88 40.93h.54v.71h-.54zM34.88 39.66h.54v.71h-.54zM29 45.53h.71v.54H29zM30.27 45.53h.71v.54h-.71zM31.54 45.53h.71v.54h-.71zM25.18 45.53h.71v.54h-.71zM26.45 45.53h.71v.54h-.71zM27.72 45.53h.71v.54h-.71zM21.98 34.29h.54v.9h-.54zM21.98 32.67v.9h.54v-.36h.36v-.54zM23.59 32.67h.9v.54h-.9zM32.91 32.64h.9v.54h-.9zM35.42 32.64h-.9v.54h.36v.35h.54zM34.88 34.25h.54v.9h-.54zM34.91 43.56h.54v.9h-.54zM35.45 46.07v-.9h-.54v.37h-.35v.53zM32.95 45.54h.9v.54h-.9zM23.63 45.57h.9v.54h-.9zM22.02 46.11h.9v-.54h-.37v-.35h-.53zM22.02 43.6h.54v.9h-.54z"/>
  </g>
  <path fill="none" stroke="#52702A" stroke-miterlimit="10" d="M49.69 37.93l-6.63-6.73.56 9.43 1.79-2.06 1.54 3.46 1.55-.7-1.53-3.45z"/>
  <path fill="none" stroke="#52702A" stroke-miterlimit="10" d="M49.69 37.93l-6.63-6.73.56 9.43 1.79-2.06 1.54 3.46 1.55-.7-1.53-3.45z"/>
</svg>