<?xml version="1.0" encoding="utf-8"?>
<!-- Generator: Adobe Illustrator 16.0.0, SVG Export Plug-In . SVG Version: 6.00 Build 0)  -->
<!DOCTYPE svg PUBLIC "-//W3C//DTD SVG 1.1//EN" "http://www.w3.org/Graphics/SVG/1.1/DTD/svg11.dtd">
<svg version="1.1" id="Ebene_1" xmlns="http://www.w3.org/2000/svg" xmlns:xlink="http://www.w3.org/1999/xlink" x="0px" y="0px"
	 width="67.667px" height="67.666px" viewBox="0 0 67.667 67.666" enable-background="new 0 0 67.667 67.666" xml:space="preserve">
<g>
	<defs>
		<polygon id="SVGID_7_" points="351.083,-480.601 891.083,-479.144 891.083,162 351.083,160.543 		"/>
	</defs>
	<clipPath id="SVGID_2_">
		<use xlink:href="#SVGID_7_"  overflow="visible"/>
	</clipPath>
</g>
<g>
	<defs>
		<polygon id="SVGID_9_" points="351.083,-480.601 891.083,-479.144 891.083,162 351.083,160.543 		"/>
	</defs>
	<clipPath id="SVGID_4_">
		<use xlink:href="#SVGID_9_"  overflow="visible"/>
	</clipPath>
</g>
<line fill="none" x1="0.083" y1="110.144" x2="0.083" y2="-531"/>
<line fill="none" x1="0.083" y1="110.144" x2="0.083" y2="-531"/>
<line fill="none" x1="0.083" y1="110.144" x2="0.083" y2="-531"/>
<line fill="none" x1="0.083" y1="110.144" x2="0.083" y2="-531"/>
<line fill="none" x1="0.083" y1="110.144" x2="0.083" y2="-531"/>
<line fill="none" x1="0.083" y1="110.144" x2="0.083" y2="-531"/>
<line fill="none" x1="0.083" y1="110.144" x2="0.083" y2="-531"/>
<line fill="none" x1="0.083" y1="110.144" x2="0.083" y2="-531"/>
<line fill="none" x1="0.083" y1="110.144" x2="0.083" y2="-531"/>
<line fill="none" x1="0.083" y1="110.144" x2="0.083" y2="-531"/>
<line fill="none" x1="0.083" y1="110.144" x2="0.083" y2="-531"/>
<line fill="none" x1="0.083" y1="110.144" x2="0.083" y2="-531"/>
<line fill="none" x1="0.083" y1="110.144" x2="0.083" y2="-531"/>
<line fill="none" x1="0.083" y1="110.144" x2="0.083" y2="-531"/>
<line fill="none" x1="0.083" y1="110.144" x2="0.083" y2="-531"/>
<line fill="#236666" x1="39.927" y1="36.288" x2="56.316" y2="41.106"/>
<line fill="none" stroke="#52702A" stroke-width="1.5" stroke-miterlimit="10" stroke-dasharray="2,2" x1="44.011" y1="37.488" x2="56.316" y2="41.106"/>
<polygon fill="#52702A" points="46.03,32.957 43.257,42.392 39.928,36.289 "/>
<line fill="#236666" x1="26.555" y1="31.085" x2="10.423" y2="25.464"/>
<line fill="none" stroke="#52702A" stroke-width="1.5" stroke-miterlimit="10" stroke-dasharray="2,2" x1="22.536" y1="29.686" x2="10.422" y2="25.464"/>
<polygon fill="#52702A" points="20.295,34.11 23.531,24.825 26.554,31.084 "/>
<rect x="29.051" y="29.02" transform="matrix(0.9836 -0.1803 0.1803 0.9836 -5.4989 6.6179)" fill="none" stroke="#52702A" stroke-width="1.5" stroke-miterlimit="10" width="9.226" height="9.091"/>
<rect x="9.083" y="9" fill="none" stroke="#52702A" stroke-miterlimit="10" width="48.572" height="48.571"/>
</svg>
