<?xml version="1.0" encoding="utf-8"?>
<!-- Generator: Adobe Illustrator 16.0.0, SVG Export Plug-In . SVG Version: 6.00 Build 0)  -->
<!DOCTYPE svg PUBLIC "-//W3C//DTD SVG 1.1//EN" "http://www.w3.org/Graphics/SVG/1.1/DTD/svg11.dtd">
<svg version="1.1" id="Ebene_1" xmlns="http://www.w3.org/2000/svg" xmlns:xlink="http://www.w3.org/1999/xlink" x="0px" y="0px"
	 width="67.667px" height="67.666px" viewBox="0 0 67.667 67.666" enable-background="new 0 0 67.667 67.666" xml:space="preserve">
<g>
	<defs>
		<polygon id="SVGID_7_" points="270.083,-300.851 810.083,-299.394 810.083,341.75 270.083,340.293 		"/>
	</defs>
	<clipPath id="SVGID_2_">
		<use xlink:href="#SVGID_7_"  overflow="visible"/>
	</clipPath>
</g>
<g>
	<defs>
		<polygon id="SVGID_9_" points="270.083,-300.851 810.083,-299.394 810.083,341.75 270.083,340.293 		"/>
	</defs>
	<clipPath id="SVGID_4_">
		<use xlink:href="#SVGID_9_"  overflow="visible"/>
	</clipPath>
</g>
<path fill="none" stroke="#3D2877" stroke-miterlimit="10" d="M54.782,37.051c0,2.259-0.001,4.517,0.004,6.774
	c0,0.127-0.028,0.153-0.154,0.153c-10.646-0.004-21.291-0.004-31.936-0.004c-0.079-0.193-0.076-0.377,0.055-0.548
	c0.019-0.023,0.034-0.056,0.029-0.079c-0.01-0.128,0.047-0.29-0.097-0.357c-0.165-0.08-0.183-0.093-0.084-0.249
	c0.162-0.259,0.164-0.259-0.02-0.511c-0.031-0.044-0.054-0.086-0.017-0.132c0.037-0.051,0.075-0.015,0.118,0
	c0.16,0.057,0.215,0.014,0.222-0.154c0.001-0.036,0.001-0.067,0-0.099c-0.001-0.135,0.049-0.197,0.184-0.131
	c0.074,0.042,0.144,0.044,0.198-0.021c0.083-0.097,0.159-0.2,0.235-0.304c0.059-0.073,0.035-0.133-0.048-0.175
	c-0.079-0.035-0.159-0.076-0.219-0.149c-0.029-0.031-0.067-0.073-0.038-0.118c0.038-0.055,0.08,0,0.115,0.015
	c0.302,0.128,0.397,0.069,0.591-0.196c0.148-0.202,0.272-0.396,0.312-0.645c0.012-0.067,0.072-0.124,0.11-0.188
	c0.064-0.106,0.109-0.219,0.093-0.348c-0.035-0.251-0.013-0.286,0.243-0.353c0.206-0.056,0.412-0.1,0.6-0.201
	c0.065-0.032,0.103-0.076,0.135-0.135c0.175-0.359,0.219-0.746,0.267-1.135c0.043-0.362,0.108-0.725,0.396-0.999
	c0.092-0.089,0.134-0.205,0.163-0.326c0.036-0.138,0.021-0.262-0.134-0.334C26,36.05,25.897,35.998,25.802,35.93
	c-0.207-0.149-0.429-0.251-0.688-0.254c-0.219-0.005-0.432-0.024-0.588-0.203c-0.039-0.045-0.088-0.091-0.155-0.093
	c-0.209-0.005-0.405-0.158-0.63-0.025c0.012-0.109,0.077-0.151,0.11-0.215c0.038-0.07,0.071-0.14,0.032-0.222
	c-0.043-0.091-0.084-0.184-0.137-0.27c-0.076-0.125-0.198-0.252-0.334-0.253c-0.263-0.016-0.433-0.154-0.595-0.325
	c-0.112-0.122-0.238-0.213-0.407-0.247c-0.147-0.027-0.288-0.12-0.348-0.24c-0.057-0.117-0.126-0.117-0.22-0.117
	c-0.221,0-0.439,0.024-0.649-0.089c-0.081-0.045-0.18-0.156-0.264-0.097c-0.069,0.05-0.079,0.177-0.12,0.27
	c-0.023,0.049-0.035,0.137-0.112,0.12c-0.061-0.016-0.023-0.087-0.025-0.133c-0.005-0.138-0.074-0.266-0.173-0.325
	c-0.091-0.057-0.088,0.106-0.151,0.154c-0.003,0.005-0.007,0.011-0.011,0.011c-0.213,0.044-0.302,0.236-0.442,0.366
	c-0.177,0.161-0.191,0.254-0.07,0.458c0.031,0.053,0.063,0.101,0.027,0.165c-0.173,0.332-0.357,0.655-0.58,0.957
	c-0.085,0.113-0.112,0.208-0.01,0.326c0.05,0.06,0.065,0.12,0.004,0.191c-0.156,0.178-0.159,0.25-0.007,0.429
	c0.206,0.244,0.374,0.508,0.482,0.812c0.08,0.219,0.196,0.413,0.384,0.561c0.131,0.095,0.25,0.207,0.376,0.306
	c0.11,0.082,0.212,0.182,0.345,0.23c0.289,0.113,0.36,0.241,0.3,0.541c-0.015,0.071-0.021,0.146-0.02,0.215
	c0.007,0.361,0.04,0.719,0.054,1.084c0.026,0.562,0.095,1.13,0.116,1.697c0.002,0.071,0.006,0.162,0.047,0.207
	c0.155,0.183,0.241,0.398,0.344,0.604c0.061,0.133,0.061,0.217-0.017,0.316c-0.062,0.074-0.067,0.149-0.021,0.229
	c0.089,0.147,0.183,0.295,0.262,0.449c0.114,0.226,0.332,0.318,0.521,0.453c-3.448,0-6.894,0-10.34,0.006
	c-0.115,0-0.137-0.022-0.137-0.141c0.003-6.131,0.003-12.263,0.003-18.402c0.13,0.049,0.33,0.013,0.303,0.249
	c0.313-0.063,0.627-0.116,0.881-0.332c0.028-0.022,0.082-0.05,0.101-0.005c0.052,0.118,0.115,0.042,0.177,0.027
	c0.121-0.034,0.217-0.146,0.358-0.12c0.263,0.042,0.526,0.081,0.789,0.124c0.295,0.046,0.504,0.284,0.498,0.577
	c-0.005,0.308-0.085,0.616,0.026,0.926c0.045,0.129,0.098,0.293-0.116,0.354c-0.015,0.003-0.027,0.032-0.032,0.056
	c-0.069,0.255-0.266,0.432-0.407,0.643c-0.203,0.298-0.511,0.557-0.406,0.984c0.004,0.015,0.001,0.034,0.002,0.051
	c0.04,0.283,0.095,0.555,0.38,0.702c0.093,0.051,0.131,0.133,0.121,0.236c-0.028,0.274,0.081,0.516,0.152,0.768
	c0.048,0.172,0.152,0.322,0.274,0.472c-0.026-0.354-0.142-0.666-0.268-0.977c-0.033-0.084-0.021-0.164,0.063-0.204
	c0.09-0.039,0.1,0.059,0.139,0.107c0.111,0.137,0.092,0.319,0.163,0.468c0.105,0.225,0.258,0.418,0.372,0.635
	c0.121,0.227,0.318,0.441,0.243,0.738c-0.013,0.044,0.005,0.104,0.055,0.132c0.247,0.148,0.465,0.346,0.736,0.454
	c0.161,0.063,0.329,0.135,0.503,0.081c0.164-0.047,0.288-0.009,0.41,0.101c0.136,0.118,0.279,0.248,0.463,0.247
	c0.195,0,0.322,0.067,0.436,0.214c0.067,0.085,0.127,0.169,0.137,0.276c0.007,0.066,0.028,0.118,0.071,0.167
	c0.168,0.194,0.424,0.217,0.634,0.365c0.008-0.12-0.053-0.167-0.111-0.205c-0.231-0.135-0.31-0.342-0.285-0.593
	c0.007-0.085,0.021-0.164,0.03-0.25c0.034-0.338-0.068-0.433-0.41-0.395c-0.021,0.004-0.044,0.01-0.065,0.01
	c-0.161,0.025-0.171,0.012-0.119-0.137c0.072-0.188,0.146-0.377,0.217-0.561c0.043-0.114-0.008-0.173-0.114-0.192
	c-0.191-0.04-0.269,0.005-0.361,0.227c-0.103,0.229-0.273,0.309-0.56,0.27c-0.243-0.033-0.42-0.207-0.464-0.415
	c-0.052-0.269,0.09-0.488,0.16-0.724c0.041-0.137,0.037-0.313,0.161-0.413c0.239-0.181,0.504-0.327,0.81-0.371
	c0.06-0.011,0.086,0.027,0.124,0.063c0.11,0.113,0.267,0.105,0.358-0.005c0.148-0.188,0.217-0.207,0.465-0.13
	c0.23,0.071,0.35,0.204,0.368,0.396c0.009,0.124,0.027,0.245,0.082,0.356c0.05,0.103,0.103,0.114,0.186,0.026
	c0.116-0.13,0.111-0.265,0.068-0.421c-0.118-0.422-0.087-0.509,0.265-0.757c0.2-0.14,0.407-0.274,0.609-0.413
	c0.051-0.032,0.113-0.063,0.135-0.12c0.068-0.178,0.217-0.295,0.338-0.431c0.135-0.155,0.277-0.34,0.455-0.402
	c0.195-0.066,0.31-0.158,0.432-0.314c0.195-0.244,0.502-0.325,0.791-0.418c-0.014,0.03-0.039,0.045-0.057,0.064
	c-0.074,0.084-0.122,0.206-0.054,0.281c0.061,0.068,0.149-0.035,0.205-0.094c0.106-0.104,0.219-0.178,0.377-0.192
	c0.09-0.009,0.178-0.06,0.265-0.097c0.046-0.021,0.078-0.065,0.05-0.125c-0.026-0.057-0.074-0.033-0.116-0.019
	c-0.08,0.025-0.155,0.063-0.242,0.055c-0.087-0.006-0.207,0.003-0.238-0.08c-0.034-0.086,0.09-0.107,0.142-0.163
	c0.022-0.026,0.076-0.039,0.054-0.088c-0.017-0.044-0.067-0.037-0.103-0.034c-0.128,0.005-0.254,0.022-0.382,0.03
	c-0.055,0.002-0.143,0.032-0.156-0.053c-0.013-0.075,0.072-0.087,0.127-0.105c0.335-0.137,0.69-0.188,1.05-0.162
	c0.34,0.027,0.571-0.133,0.779-0.369c0.042-0.046,0.08-0.104,0.042-0.163c-0.041-0.061-0.079-0.149-0.179-0.115
	c-0.06,0.021-0.082-0.004-0.11-0.046c-0.114-0.165-0.235-0.331-0.16-0.559c0.011-0.034,0.011-0.076,0.014-0.114
	c0.006-0.118-0.054-0.155-0.158-0.11c-0.117,0.054-0.229,0.116-0.344,0.176c-0.163,0.078-0.238,0.032-0.244-0.148
	c-0.001-0.192-0.061-0.271-0.249-0.317c-0.063-0.017-0.135-0.015-0.194-0.038c-0.136-0.06-0.23-0.011-0.323,0.091
	c-0.073,0.08-0.142,0.192-0.257,0.2c-0.132,0.007-0.145,0.084-0.151,0.171c-0.008,0.103-0.015,0.206,0.008,0.302
	c0.038,0.157-0.005,0.229-0.169,0.271c-0.229,0.055-0.464,0.12-0.487,0.432c-0.007,0.12-0.11,0.173-0.24,0.131
	c-0.123-0.038-0.197-0.104-0.173-0.238c0.006-0.044,0.007-0.099,0.033-0.131c0.125-0.166,0.003-0.181-0.121-0.203
	c-0.241-0.037-0.481-0.067-0.682-0.234c-0.17-0.14-0.199-0.323-0.044-0.483c0.292-0.306,0.675-0.444,1.07-0.555
	c0.149-0.037,0.261-0.091,0.267-0.265c0.003-0.12,0.06-0.118,0.128-0.045c0.059,0.06,0.105,0.089,0.18,0.02
	c0.136-0.124,0.3-0.184,0.48-0.211c0.12-0.018,0.222-0.076,0.305-0.162c0.042-0.045,0.06-0.104,0.025-0.156
	c-0.042-0.058-0.101-0.038-0.148-0.002c-0.1,0.082-0.22,0.099-0.337,0.143c-0.113,0.043-0.233,0.13-0.247-0.093
	c-0.003-0.025-0.043-0.05-0.071-0.067c-0.053-0.031-0.069-0.077-0.072-0.137c-0.009-0.171-0.038-0.186-0.2-0.14
	c-0.096,0.025-0.149,0.095-0.183,0.179c-0.06,0.152-0.166,0.262-0.281,0.37c-0.057,0.05-0.122,0.084-0.198,0.048
	c-0.295-0.149-0.608-0.156-0.93-0.147c-0.143,0.003-0.261,0.032-0.355,0.146c-0.026,0.03-0.066,0.09-0.105,0.05
	c-0.174-0.164-0.479-0.038-0.616-0.282c-0.006-0.016-0.042-0.016-0.061-0.016c-0.353-0.012-0.697-0.059-1.045-0.099
	c-0.381-0.045-0.751,0.055-1.115,0.175c-0.311,0.104-0.471,0.059-0.644-0.211c-0.073-0.118-0.156-0.13-0.272-0.142
	c-0.461-0.035-0.908,0.112-1.363,0.112c-0.305,0-0.582,0.131-0.881,0.144c-0.124,0.007-0.235,0.065-0.347,0.116
	c-0.059,0.027-0.092,0.067-0.04,0.129c0.045,0.057,0.075,0.115,0.024,0.183c-0.06,0.078-0.129,0.035-0.2,0.021
	c-0.112-0.031-0.223-0.091-0.339-0.04c-0.072,0.033-0.184,0.069-0.138,0.173c0.043,0.102,0.138,0.146,0.247,0.061
	c0.022-0.015,0.049-0.029,0.074-0.033c0.037-0.014,0.083-0.03,0.109,0.002C13.04,24.67,13,24.7,12.975,24.729
	c-0.131,0.163-0.315,0.178-0.502,0.174c-0.239-0.009-0.394,0.12-0.518,0.304c0-0.993,0.002-1.984-0.003-2.979
	c-0.001-0.111,0.022-0.137,0.137-0.137c4.304,0.005,8.61,0.002,12.915,0.002c-0.066,0.048-0.145,0.054-0.221,0.072
	c-0.132,0.04-0.279,0.04-0.392,0.133c-0.11,0.088-0.234,0.118-0.373,0.13c-0.242,0.026-0.485,0.058-0.727,0.1
	c-0.108,0.018-0.21,0.097-0.207,0.202c0.001,0.105,0.106,0.162,0.214,0.177c0.119,0.018,0.225,0.054,0.333,0.107
	c0.112,0.063,0.229,0.067,0.349,0c0.066-0.039,0.138-0.077,0.221-0.051c0.05,0.018,0.074-0.014,0.094-0.05
	c0.058-0.11,0.163-0.146,0.274-0.173c0.428-0.093,0.858-0.186,1.29-0.28c0.044-0.007,0.107-0.051,0.125,0.025
	c0.011,0.053,0.024,0.12-0.048,0.164c-0.099,0.057-0.2,0.091-0.318,0.067c-0.11-0.023-0.222-0.025-0.332-0.004
	c-0.038,0.011-0.086,0.011-0.089,0.062c-0.002,0.052,0.045,0.07,0.089,0.082c0.037,0.012,0.079,0.011,0.115,0.017
	c0.143,0.042,0.304,0.021,0.433,0.111c0.297,0.209,0.471,0.491,0.523,0.856c0.021,0.147-0.062,0.268-0.209,0.284
	c-0.058,0.011-0.122,0.009-0.183-0.002c-0.115-0.02-0.141,0.038-0.119,0.136c0.026,0.117,0.059,0.235,0.09,0.353
	c0.071,0.269,0.196,0.489,0.455,0.631c0.127,0.066,0.21,0.039,0.288-0.059c0.102-0.131,0.211-0.262,0.28-0.415
	c0.069-0.15,0.185-0.231,0.34-0.269c0.122-0.023,0.238-0.061,0.356-0.095c0.063-0.017,0.143-0.033,0.173-0.095
	c0.069-0.131,0.194-0.173,0.317-0.191c0.308-0.043,0.607-0.147,0.92-0.156c0.178-0.002,0.327-0.165,0.321-0.322
	c-0.019-0.384-0.007-0.386,0.365-0.445c0.134-0.02,0.318-0.038,0.329-0.204c0.016-0.249,0.174-0.342,0.355-0.432
	c0.047-0.028,0.137-0.039,0.118-0.1c-0.016-0.065-0.064-0.148-0.148-0.16c-0.2-0.025-0.392-0.125-0.6-0.032
	c-0.071,0.036-0.167,0.025-0.249,0.025c-0.396,0.002-0.792,0.002-1.188,0c-0.229,0-0.458,0.005-0.667-0.113
	c-0.042-0.02-0.085-0.011-0.129,0c-0.638,0.164-1.273,0.044-1.912-0.005c-0.13-0.012-0.266-0.023-0.391-0.082
	c9.788,0,19.575,0.003,29.361-0.002c0.126,0,0.154,0.027,0.154,0.156c-0.004,4.921-0.004,9.848-0.004,14.771
	c-0.093-0.081-0.194-0.149-0.278-0.236c-0.115-0.122-0.359-0.157-0.269-0.411c0.003-0.013-0.014-0.033-0.027-0.042
	c-0.088-0.044-0.11-0.133-0.162-0.207c-0.042-0.059-0.086-0.115-0.159-0.141c-0.312-0.118-0.626-0.228-0.932-0.36
	c-0.147-0.06-0.225-0.049-0.31,0.097c-0.112,0.198-0.288,0.184-0.415-0.008c-0.051-0.078-0.049-0.168-0.066-0.251
	c-0.014-0.06-0.043-0.118-0.11-0.104c-0.072,0.015-0.178-0.013-0.216,0.057c-0.038,0.063,0.063,0.089,0.099,0.129
	c0.036,0.041,0.127,0.064,0.086,0.139c-0.098,0.178,0.034,0.206,0.149,0.227c0.149,0.024,0.298,0.061,0.43,0.13
	c0.117,0.065,0.272,0.125,0.264,0.293c-0.008,0.147-0.037,0.272,0.18,0.255c0.029-0.004,0.058,0.049,0.091,0.069
	c0.132,0.093,0.416,0.104,0.511,0.007c0.114-0.114,0.196-0.086,0.309,0.015C54.188,36.887,54.415,37.13,54.782,37.051z
	 M34.723,29.72c-0.073,0.348-0.177,0.438-0.434,0.398c-0.083-0.011-0.142-0.063-0.208-0.1c-0.14-0.08-0.274-0.188-0.439-0.188
	c-0.106,0.003-0.182-0.014-0.237-0.108c-0.025-0.046-0.068-0.071-0.12-0.087c-0.088-0.025-0.114-0.095-0.113-0.182
	c0.002-0.09,0.021-0.177,0.068-0.252c0.029-0.046,0.052-0.09,0.014-0.138c-0.039-0.048-0.09-0.048-0.139-0.027
	c-0.3,0.119-0.621,0.118-0.937,0.15c-0.233,0.019-0.428,0.206-0.686,0.135c-0.111-0.031-0.23-0.017-0.34,0.044
	c-0.048,0.029-0.111,0.032-0.155-0.014c-0.079-0.077-0.125-0.033-0.173,0.034c-0.1,0.14-0.231,0.256-0.381,0.346
	c-0.126,0.074-0.199,0.207-0.195,0.346c0.005,0.125-0.045,0.186-0.128,0.249c-0.262,0.196-0.499,0.424-0.664,0.704
	c-0.153,0.266-0.34,0.531-0.26,0.868c0.058,0.254,0.016,0.495-0.094,0.729c-0.03,0.06-0.052,0.118-0.036,0.19
	c0.045,0.233,0.081,0.468,0.331,0.593c0.054,0.025,0.081,0.113,0.119,0.177c0.071,0.12,0.125,0.25,0.214,0.358
	c0.241,0.29,0.498,0.562,0.929,0.533c0.131-0.011,0.229-0.129,0.343-0.118c0.273,0.019,0.508-0.104,0.761-0.158
	c0.291-0.067,0.59-0.118,0.784,0.211c0.033,0.059,0.097,0.059,0.164,0.055c0.135-0.013,0.248,0.039,0.327,0.154
	c0.13,0.186,0.123,0.388,0.05,0.59c-0.038,0.112-0.112,0.243,0,0.327c0.309,0.235,0.394,0.601,0.545,0.921
	c0.11,0.228,0.082,0.497,0.103,0.745c0.015,0.155-0.096,0.288-0.17,0.427c-0.133,0.232-0.177,0.46-0.022,0.719
	c0.213,0.367,0.406,0.747,0.401,1.192c-0.002,0.126,0.004,0.286,0.093,0.385c0.222,0.236,0.333,0.509,0.392,0.827
	c0.052,0.265,0.163,0.308,0.419,0.228c0.022-0.007,0.044-0.011,0.066-0.011c0.405-0.025,0.752-0.164,1.021-0.484
	c0.094-0.104,0.194-0.213,0.308-0.3c0.11-0.082,0.175-0.18,0.232-0.3c0.097-0.195,0.174-0.417,0.376-0.535
	c0.176-0.104,0.166-0.262,0.115-0.394c-0.073-0.182-0.015-0.325,0.073-0.469c0.133-0.215,0.326-0.377,0.542-0.513
	c0.183-0.116,0.223-0.306,0.228-0.492c0.006-0.347-0.076-0.675-0.179-0.996c-0.079-0.248-0.044-0.446,0.128-0.634
	c0.333-0.354,0.573-0.793,0.941-1.122c0.184-0.162,0.282-0.413,0.443-0.604c0.161-0.2,0.207-0.429,0.263-0.664
	c0.026-0.118-0.027-0.118-0.115-0.104c-0.108,0.029-0.207,0.088-0.325,0.069c-0.205-0.029-0.41-0.011-0.612,0.03
	c-0.118,0.019-0.196-0.02-0.221-0.144c-0.067-0.325-0.265-0.576-0.487-0.802c-0.205-0.209-0.342-0.451-0.465-0.707
	c-0.172-0.376-0.303-0.769-0.502-1.133c-0.04-0.074-0.081-0.15-0.145-0.272c0.112,0.065,0.184,0.095,0.271,0.078
	c0.05-0.013,0.095,0.03,0.126,0.066c0.125,0.166,0.278,0.319,0.362,0.499c0.164,0.366,0.337,0.719,0.603,1.016
	c0.193,0.221,0.251,0.502,0.334,0.777c0.05,0.162,0.179,0.241,0.329,0.216c0.113-0.02,0.229-0.04,0.331-0.107
	c0.202-0.134,0.416-0.238,0.64-0.324c0.123-0.042,0.229-0.112,0.333-0.19c0.294-0.222,0.469-0.549,0.716-0.813
	c0.083-0.085,0.018-0.148-0.063-0.192c-0.149-0.086-0.267-0.194-0.354-0.348c-0.044-0.078-0.014-0.223-0.126-0.228
	c-0.103,0-0.143,0.13-0.207,0.204c-0.222,0.253-0.619,0.182-0.731-0.13c-0.063-0.178-0.131-0.346-0.193-0.517
	c-0.034-0.093-0.071-0.19-0.011-0.293c0.025,0.015,0.042,0.024,0.051,0.033c0.233,0.253,0.48,0.479,0.852,0.496
	c0.173,0.008,0.335,0.029,0.463,0.179c0.063,0.076,0.167,0.13,0.279,0.139c0.211,0.021,0.421,0.035,0.635,0.032
	c0.138-0.009,0.28-0.018,0.409,0.057c0.24,0.139,0.445,0.322,0.617,0.537c0.091,0.118,0.198,0.201,0.32,0.104
	c0.157-0.118,0.193-0.003,0.25,0.093c0.041,0.069,0.033,0.143,0.013,0.213c-0.03,0.121-0.004,0.237,0.044,0.357
	c0.109,0.26,0.252,0.502,0.332,0.782c0.052,0.175,0.124,0.342,0.186,0.517c0.066,0.188,0.17,0.215,0.331,0.097
	c0.141-0.104,0.235-0.229,0.206-0.422c-0.017-0.106-0.015-0.221-0.023-0.331c-0.029-0.317,0.09-0.612,0.326-0.781
	c0.233-0.16,0.444-0.334,0.633-0.536c0.075-0.077,0.161-0.164,0.277-0.171c0.283-0.024,0.535,0.125,0.657,0.396
	c0.047,0.111,0.095,0.229,0.195,0.286c0.159,0.09,0.231,0.204,0.243,0.382c0.003,0.087,0.062,0.137,0.148,0.061
	c0.133-0.116,0.185-0.042,0.242,0.081c0.112,0.231,0.112,0.474,0.105,0.719c-0.003,0.132-0.002,0.265,0.115,0.368
	c0.071-0.137,0.055-0.271,0.054-0.405c0-0.109-0.007-0.214,0.058-0.306c0.034-0.048,0.088-0.103,0.13-0.028
	c0.122,0.208,0.33,0.341,0.464,0.541c0.119,0.173,0.217,0.184,0.389,0.055c0.137-0.099,0.25-0.221,0.342-0.358
	c0.064-0.103,0.133-0.219,0.067-0.33c-0.152-0.26-0.283-0.533-0.52-0.732c-0.253-0.207-0.253-0.207-0.071-0.472
	c0.014-0.021,0.027-0.043,0.039-0.06c0.063-0.088,0.125-0.177,0.258-0.132c0.134,0.051,0.223,0.126,0.217,0.28
	c-0.004,0.073-0.001,0.146,0.001,0.221c0,0.029-0.006,0.074,0.031,0.088c0.051,0.016,0.068-0.028,0.086-0.059
	c0.069-0.119,0.142-0.231,0.2-0.354c0.105-0.211,0.258-0.354,0.5-0.396c0.216-0.032,0.361-0.179,0.461-0.358
	c0.095-0.161,0.208-0.334,0.163-0.545c-0.051-0.236-0.134-0.457-0.334-0.619c-0.089-0.074-0.157-0.172-0.231-0.265
	c-0.09-0.109-0.141-0.223-0.006-0.348c0.034-0.029,0.051-0.084,0.067-0.13c0.021-0.058-0.002-0.095-0.064-0.074
	c-0.166,0.054-0.332-0.014-0.498,0.008c-0.128,0.022-0.167-0.048-0.095-0.158c0.091-0.141,0.185-0.282,0.296-0.404
	c0.135-0.144,0.188-0.12,0.252,0.059c0.011,0.037,0.026,0.063,0.04,0.098c0.039,0.107,0.099,0.129,0.198,0.051
	c0.137-0.106,0.243-0.072,0.284,0.101c0.026,0.104,0.071,0.178,0.168,0.207c0.157,0.055,0.239,0.147,0.22,0.325
	c-0.008,0.084,0.03,0.151,0.116,0.183c0.081,0.031,0.151,0.013,0.216-0.044c0.059-0.051,0.105-0.112,0.149-0.18
	c0.07-0.105,0.05-0.188-0.045-0.258c-0.09-0.066-0.184-0.13-0.278-0.188c-0.273-0.186-0.283-0.229-0.127-0.511
	c0.013-0.023,0.031-0.05,0.03-0.078c-0.002-0.224,0.136-0.25,0.313-0.24c0.07,0.002,0.15,0.011,0.186-0.076
	c0.07-0.172,0.15-0.33,0.157-0.533c0.014-0.306-0.021-0.555-0.247-0.793c-0.135-0.145-0.252-0.241-0.441-0.246
	c-0.135-0.002-0.27,0.013-0.403-0.002c-0.11-0.008-0.242,0-0.284-0.147c-0.08-0.308,0.148-0.711,0.452-0.795
	c0.038-0.011,0.081-0.019,0.116-0.011c0.259,0.067,0.53,0.071,0.789,0.137c0.212,0.049,0.249,0.025,0.273-0.189
	c0.005-0.046,0.011-0.093,0.031-0.131c0.084-0.166,0.14-0.181,0.298-0.084c0.094,0.062,0.169,0.038,0.239-0.034
	c0.074-0.076,0.16-0.088,0.237-0.027c0.079,0.064,0.084,0.309,0.025,0.389c-0.183,0.251-0.121,0.521,0.158,0.67
	c0.044,0.021,0.096,0.04,0.105,0.093c0.046,0.258,0.286,0.348,0.436,0.515c0.085,0.093,0.136,0.029,0.139-0.074
	c0.001-0.147,0.017-0.297,0.03-0.444c0.025-0.253-0.111-0.469-0.321-0.527c-0.063-0.018-0.123-0.025-0.135-0.102
	c-0.016-0.078,0.005-0.152,0.072-0.189c0.104-0.065,0.213-0.124,0.322-0.175c0.087-0.04,0.092,0.02,0.085,0.082
	c-0.003,0.04-0.044,0.095,0.019,0.116c0.048,0.014,0.079-0.036,0.109-0.067c0.047-0.047,0.098-0.093,0.137-0.146
	c0.072-0.101,0.155-0.171,0.292-0.156c0.048,0.002,0.112-0.002,0.123-0.061c0.013-0.069-0.059-0.072-0.1-0.093
	c-0.155-0.092-0.314-0.178-0.46-0.26c0.209-0.28,0.449-0.179,0.691-0.105c0.094,0.029,0.191,0.057,0.289,0.076
	c0.04,0.011,0.09,0.027,0.12-0.032c-0.234-0.324-0.575-0.348-0.93-0.324c-0.083,0.002-0.166,0.018-0.245-0.017
	c-0.463-0.202-0.966-0.207-1.451-0.307c-0.077-0.014-0.132,0.005-0.166,0.074c-0.045,0.1-0.112,0.104-0.207,0.078
	c-0.414-0.113-0.84-0.166-1.271-0.169c-0.063,0-0.124-0.009-0.176-0.042c-0.112-0.076-0.237-0.093-0.368-0.09
	c-0.219,0-0.437-0.023-0.651,0.002c-0.354,0.037-0.656-0.104-0.959-0.237c-0.095-0.039-0.117-0.022-0.168,0.052
	c-0.102,0.153-0.237,0.286-0.441,0.235c-0.18-0.042-0.362-0.048-0.544-0.069c-0.154-0.02-0.315-0.013-0.457-0.087
	c-0.315-0.159-0.637-0.169-0.972-0.063c-0.173,0.053-0.362,0.065-0.524-0.013c-0.221-0.101-0.439-0.107-0.669-0.07
	c-0.073,0.014-0.171,0.043-0.212-0.044c-0.037-0.073,0.049-0.124,0.091-0.179c0.034-0.049,0.121-0.074,0.091-0.146
	c-0.028-0.067-0.11-0.072-0.174-0.084c-0.079-0.013-0.157-0.009-0.232,0.01c-0.058,0.016-0.131,0.032-0.183,0.002
	c-0.181-0.109-0.374-0.075-0.569-0.054c-0.132,0.012-0.267,0.037-0.398,0.021c-0.116-0.015-0.189,0.019-0.266,0.093
	c-0.104,0.105-0.236,0.162-0.38,0.193c-0.218,0.051-0.444,0.022-0.661,0.085c-0.317,0.1-0.324,0.086-0.221,0.398
	c0.033,0.093,0.016,0.167-0.064,0.219c-0.092,0.062-0.143-0.012-0.188-0.075c-0.076-0.114-0.146-0.231-0.219-0.35
	c-0.001,0.183,0.087,0.329,0.16,0.484c0.024,0.049,0.054,0.103,0.009,0.151c-0.051,0.058-0.12,0.058-0.188,0.047
	c-0.07-0.013-0.104-0.063-0.108-0.129c-0.006-0.055-0.002-0.111-0.007-0.169c-0.027-0.299-0.262-0.517-0.544-0.498
	c-0.104,0.01-0.139,0.056-0.113,0.155c0.035,0.146,0.135,0.265,0.245,0.348c0.145,0.111,0.06,0.153-0.033,0.186
	c-0.276,0.101-0.521,0-0.733-0.156c-0.127-0.093-0.224-0.104-0.325-0.015c-0.206,0.175-0.43,0.173-0.668,0.106
	c-0.069-0.021-0.137-0.017-0.196,0.021c-0.133,0.086-0.287,0.12-0.433,0.17c-0.263,0.082-0.465,0.257-0.673,0.426
	c-0.067,0.053-0.134,0.135-0.233,0.056c-0.109-0.088-0.217-0.174-0.325-0.262c-0.099-0.082-0.077-0.133,0.042-0.165
	c0.109-0.031,0.205-0.031,0.309,0.024c0.119,0.06,0.229,0.035,0.275-0.092c0.053-0.144-0.083-0.144-0.164-0.173
	c-0.083-0.029-0.176-0.035-0.259-0.072c-0.48-0.195-0.996-0.212-1.505-0.249c-0.133-0.006-0.26,0.041-0.376,0.117
	c-0.322,0.217-0.629,0.444-0.93,0.688c-0.073,0.059-0.162,0.116-0.18,0.211c-0.033,0.179-0.158,0.214-0.307,0.217
	c-0.051,0.002-0.107-0.011-0.127,0.051c-0.047,0.149-0.072,0.303,0,0.454c0.075-0.017,0.104-0.13,0.177-0.09
	c0.208,0.11,0.475,0.137,0.57,0.414c0.044,0.132,0.206,0.193,0.327,0.135c0.209-0.102,0.302-0.296,0.417-0.481
	c0.07-0.109-0.05-0.156-0.051-0.242c-0.001-0.04-0.005-0.077,0-0.118c0.031-0.251,0.282-0.501,0.538-0.535
	c0.046-0.01,0.088-0.003,0.118,0.035c0.033,0.045,0.017,0.087-0.006,0.129c-0.044,0.069-0.088,0.14-0.139,0.209
	c-0.051,0.068-0.046,0.13,0.001,0.195c0.05,0.07,0.099,0.118,0.193,0.104c0.087-0.017,0.178-0.019,0.264-0.033
	c0.087-0.015,0.188-0.031,0.205,0.075c0.022,0.116-0.088,0.142-0.172,0.163c-0.033,0.011-0.072,0.013-0.101,0
	c-0.17-0.07-0.212-0.031-0.156,0.147c0.048,0.158-0.021,0.218-0.181,0.181c-0.121-0.025-0.126,0.046-0.141,0.127
	c-0.031,0.189-0.106,0.251-0.291,0.251c-0.139,0-0.279-0.002-0.398,0.089c-0.061,0.051-0.125,0.019-0.183-0.026
	c-0.102-0.077-0.224-0.101-0.333-0.051c-0.125,0.062-0.228-0.012-0.339-0.014c-0.112-0.003-0.162,0.177-0.296,0.194
	c-0.01,0.002-0.021,0.003-0.033,0.008c-0.122,0.021-0.229,0.052-0.249,0.203c-0.004,0.047-0.051,0.073-0.098,0.077
	c-0.089,0.002-0.152,0.051-0.193,0.113c-0.129,0.201-0.336,0.223-0.542,0.248c-0.077,0.008-0.196-0.037-0.213,0.064
	c-0.018,0.086,0.115,0.082,0.168,0.137c0.006,0.005,0.008,0.019,0.01,0.034c-0.083,0.06-0.197-0.006-0.296,0.063
	c0.074,0.065,0.146,0.116,0.208,0.175c0.12,0.115,0.163,0.34,0.087,0.44c-0.074,0.104-0.271,0.133-0.428,0.065
	c-0.065-0.027-0.132-0.055-0.205-0.069c-0.261-0.055-0.392,0.05-0.393,0.322c0,0.135,0,0.264-0.037,0.396
	c-0.032,0.112-0.002,0.224,0.067,0.318c0.053,0.063,0.626,0.179,0.701,0.14c0.117-0.065,0.233-0.131,0.345-0.202
	c0.083-0.056,0.135-0.125,0.142-0.232c0.009-0.15,0.091-0.263,0.236-0.316c0.065-0.023,0.119-0.057,0.155-0.121
	c0.104-0.17,0.235-0.29,0.464-0.212c0.067,0.02,0.177,0.029,0.18-0.089c0.005-0.118,0.046-0.109,0.145-0.097
	c0.105,0.017,0.172,0.053,0.217,0.147c0.048,0.105,0.146,0.155,0.245,0.188c0.213,0.072,0.364,0.206,0.511,0.366
	c0.072,0.076,0.054,0.127,0.005,0.199c-0.062,0.097-0.173,0.101-0.261,0.153c0.052,0.067,0.111,0.091,0.167,0.047
	c0.098-0.079,0.207-0.16,0.256-0.281c0.032-0.073,0.013-0.162,0.149-0.126c0.063,0.014,0.031-0.062,0.001-0.09
	c-0.1-0.106-0.196-0.211-0.337-0.271c-0.18-0.074-0.302-0.221-0.417-0.371c-0.031-0.042-0.066-0.105-0.012-0.154
	c0.042-0.036,0.096-0.019,0.14,0.009c0.119,0.063,0.228,0.139,0.333,0.224c0.096,0.084,0.177,0.192,0.31,0.217
	c0.119,0.018,0.169,0.089,0.186,0.2c0.039,0.274,0.235,0.462,0.376,0.678c0.052,0.086,0.14,0.084,0.206-0.03
	c0.067-0.111,0.128-0.211-0.01-0.314c-0.039-0.029-0.042-0.089-0.021-0.143c0.015-0.036,0.047-0.049,0.083-0.034
	c0.11,0.06,0.199,0.007,0.295-0.044c0.12-0.074,0.153-0.045,0.146,0.09c-0.024,0.433,0.143,0.588,0.566,0.632
	c0.026,0,0.057,0.003,0.084,0c0.201-0.036,0.4,0.014,0.599,0c0.126-0.001,0.166,0.066,0.152,0.185
	c-0.021,0.181-0.083,0.346-0.167,0.506c-0.082,0.152-0.194,0.222-0.362,0.21c-0.207-0.014-0.413-0.032-0.619-0.03
	C35.395,30.026,35.048,29.938,34.723,29.72z M53.368,37.216c-0.054,0.275-0.138,0.525-0.271,0.761
	c-0.068,0.122-0.234,0.218-0.345,0.162c-0.161-0.079-0.311-0.188-0.414-0.332c-0.079-0.11-0.006-0.25,0.047-0.363
	c0.051-0.109,0.005-0.144-0.092-0.156c-0.089-0.011-0.178-0.006-0.267-0.017c-0.239-0.034-0.644,0.249-0.678,0.489
	c-0.013,0.084-0.042,0.089-0.109,0.065c-0.066-0.023-0.129-0.038-0.168-0.118c-0.076-0.15-0.226-0.177-0.317-0.04
	c-0.096,0.137-0.265,0.224-0.301,0.402c-0.007,0.058-0.046,0.062-0.085,0.029c-0.097-0.102-0.133-0.004-0.149,0.06
	c-0.06,0.224-0.23,0.32-0.425,0.409c-0.171,0.073-0.353,0.106-0.52,0.181c-0.27,0.111-0.544,0.218-0.542,0.598
	c0.001,0.325-0.108,0.643-0.055,0.981c0.028,0.188,0.081,0.407-0.084,0.589c-0.057,0.061,0.015,0.112,0.08,0.12
	c0.064,0.01,0.135,0.008,0.199-0.009c0.426-0.107,0.861-0.184,1.278-0.339c0.244-0.091,0.482-0.184,0.751-0.157
	c0.009,0,0.021-0.003,0.032-0.006c0.179-0.029,0.412,0.126,0.434,0.307c0.017,0.148,0.089,0.146,0.192,0.098
	c0.106-0.056,0.21-0.115,0.329-0.174c0.004,0.137-0.128,0.236-0.052,0.339c0.072,0.104,0.071,0.203,0.071,0.316
	c0,0.191,0.162,0.304,0.35,0.259c0.096-0.026,0.189-0.013,0.269,0.049c0.039,0.028,0.074,0.051,0.119,0.025
	c0.299-0.147,0.629-0.236,0.846-0.517c0.048-0.059,0.099-0.122,0.159-0.168c0.36-0.274,0.625-0.602,0.762-1.042
	c0.086-0.272,0.086-0.533,0.028-0.808c-0.012-0.051-0.038-0.093-0.092-0.107c-0.2-0.058-0.272-0.22-0.326-0.39
	c-0.037-0.127-0.089-0.229-0.209-0.287c-0.058-0.025-0.082-0.061-0.073-0.128C53.807,37.878,53.56,37.559,53.368,37.216z
	 M24.274,24.389c0.086-0.024,0.156,0.092,0.226,0c0.07-0.091,0.023-0.178-0.008-0.27c-0.029-0.088-0.101-0.143-0.163-0.21
	c-0.04-0.038-0.081-0.076-0.05-0.141c0.052-0.118-0.032-0.148-0.119-0.169c-0.102-0.021-0.225-0.013-0.306-0.081
	c-0.245-0.202-0.505-0.145-0.774-0.074c-0.054,0.016-0.105,0.039-0.164,0.014c-0.141-0.065-0.273-0.023-0.342,0.111
	c-0.056,0.111,0.033,0.182,0.094,0.245c0.057,0.063,0.109,0.01,0.15-0.042c0.067-0.089,0.153-0.074,0.245-0.049
	c0.121,0.031,0.244,0.078,0.37,0.097c0.119,0.021,0.192,0.078,0.227,0.188c0.021,0.065,0.043,0.132,0.069,0.19
	c0.069,0.149,0.008,0.249-0.126,0.31c-0.075,0.042-0.156,0.067-0.229,0.103c-0.073,0.043-0.097,0.106-0.021,0.161
	c0.202,0.14,0.419,0.256,0.669,0.286c0.123,0.018,0.155-0.046,0.097-0.162c-0.028-0.054-0.066-0.107-0.016-0.167
	c0.049-0.059,0.1-0.017,0.15,0.003c0.035,0.015,0.072,0.044,0.107,0.011c0.032-0.036,0.011-0.074,0.002-0.116
	C24.341,24.55,24.276,24.487,24.274,24.389z M49.8,34.484c0.003-0.163-0.089-0.236-0.198-0.287c-0.109-0.054-0.145,0.04-0.195,0.106
	c-0.096,0.121-0.21,0.211-0.37,0.234c-0.074,0.007-0.125,0.049-0.146,0.12c-0.039,0.116-0.11,0.216-0.161,0.327
	c-0.032,0.074-0.069,0.088-0.141,0.071c-0.139-0.042-0.167,0.047-0.162,0.156c0.009,0.142,0.067,0.271,0.131,0.392
	c0.064,0.117,0.151,0.186,0.296,0.178c0.127-0.013,0.254,0,0.383,0.023c0.098,0.021,0.206-0.009,0.227-0.118
	c0.037-0.2,0.23-0.302,0.276-0.496c0.019-0.073,0.065-0.139,0.021-0.208c-0.076-0.131-0.069-0.252,0.004-0.382
	C49.789,34.562,49.795,34.508,49.8,34.484z M39.139,37.373c-0.103,0.357-0.387,0.441-0.64,0.556
	c-0.122,0.052-0.151,0.111-0.13,0.242c0.028,0.188,0.085,0.422-0.06,0.559c-0.172,0.158-0.143,0.324-0.12,0.498
	c0.016,0.123,0.053,0.265,0.215,0.272c0.206,0.011,0.371-0.126,0.391-0.294c0.009-0.115,0.012-0.236,0.07-0.34
	c0.177-0.318,0.294-0.653,0.365-1.012C39.261,37.698,39.238,37.559,39.139,37.373z M18.728,23.576
	c0.142,0.017,0.254,0.095,0.392,0.092c0.081-0.001,0.124,0.028,0.108,0.119c-0.019,0.144,0.072,0.218,0.188,0.234
	c0.128,0.022,0.263,0.042,0.394-0.016c0.068-0.029,0.148-0.061,0.208-0.029c0.24,0.133,0.442-0.027,0.659-0.064
	c0.081-0.02,0.146-0.376,0.083-0.42c-0.018-0.016-0.054-0.016-0.079-0.007c-0.047,0.013-0.093,0.044-0.14,0.048
	c-0.265,0.024-0.524,0.165-0.782-0.073C19.431,23.156,19.042,23.21,18.728,23.576z M46.383,34.396
	c0.113,0.255,0.295,0.448,0.429,0.673c0.192,0.326,0.407,0.638,0.609,0.954c0.044,0.069,0.092,0.144,0.163,0.189
	c0.133,0.1,0.261,0.056,0.3-0.104c0.021-0.089,0.004-0.165-0.037-0.245c-0.14-0.264-0.316-0.508-0.487-0.757
	c-0.05-0.076-0.108-0.164-0.205-0.184c-0.205-0.046-0.331-0.175-0.433-0.345C46.649,34.452,46.542,34.394,46.383,34.396z"/>
<path fill-rule="evenodd" clip-rule="evenodd" fill="none" stroke="#FFFFFF" stroke-miterlimit="10" d="M11.955,25.206
	c0.125-0.184,0.279-0.313,0.518-0.304c0.187,0.004,0.372-0.011,0.503-0.174C13,24.7,13.04,24.67,13.013,24.626
	c-0.027-0.032-0.072-0.016-0.109-0.002c-0.027,0.004-0.051,0.02-0.074,0.033c-0.11,0.085-0.205,0.041-0.249-0.061
	c-0.045-0.104,0.067-0.14,0.138-0.173c0.117-0.05,0.227,0.011,0.34,0.041c0.07,0.014,0.14,0.056,0.199-0.022
	c0.051-0.067,0.021-0.126-0.023-0.183c-0.052-0.062-0.019-0.102,0.04-0.129c0.11-0.051,0.224-0.109,0.345-0.116
	c0.301-0.013,0.578-0.144,0.883-0.144c0.455,0,0.902-0.147,1.363-0.111c0.116,0.011,0.199,0.022,0.272,0.141
	c0.172,0.27,0.332,0.315,0.643,0.211c0.363-0.12,0.735-0.22,1.115-0.175c0.349,0.04,0.694,0.087,1.045,0.099
	c0.022,0,0.056,0,0.063,0.016c0.137,0.244,0.442,0.118,0.615,0.282c0.04,0.041,0.081-0.02,0.105-0.049
	c0.094-0.115,0.212-0.145,0.355-0.147c0.323-0.009,0.635-0.002,0.931,0.147c0.075,0.036,0.14,0.002,0.197-0.048
	c0.116-0.108,0.223-0.218,0.282-0.37c0.034-0.084,0.087-0.153,0.184-0.179c0.162-0.046,0.189-0.031,0.199,0.14
	c0.003,0.06,0.019,0.105,0.072,0.137c0.027,0.018,0.069,0.042,0.072,0.067c0.013,0.224,0.133,0.136,0.246,0.093
	c0.117-0.044,0.238-0.061,0.338-0.143c0.046-0.036,0.105-0.056,0.147,0.002c0.035,0.052,0.016,0.111-0.025,0.156
	c-0.083,0.086-0.185,0.145-0.305,0.162c-0.182,0.028-0.344,0.088-0.48,0.211c-0.076,0.069-0.122,0.041-0.18-0.02
	c-0.069-0.073-0.125-0.074-0.13,0.045c-0.005,0.174-0.118,0.228-0.267,0.265c-0.395,0.11-0.778,0.249-1.071,0.555
	c-0.153,0.16-0.125,0.344,0.044,0.483c0.202,0.168,0.443,0.197,0.684,0.234c0.123,0.022,0.245,0.037,0.12,0.204
	c-0.026,0.031-0.026,0.086-0.033,0.13c-0.022,0.135,0.051,0.2,0.174,0.238c0.129,0.042,0.231-0.011,0.24-0.131
	c0.022-0.312,0.256-0.377,0.486-0.432c0.164-0.042,0.208-0.114,0.169-0.271c-0.021-0.096-0.015-0.199-0.007-0.302
	c0.006-0.087,0.019-0.164,0.152-0.171c0.115-0.007,0.183-0.12,0.257-0.2c0.092-0.102,0.186-0.15,0.322-0.091
	c0.06,0.023,0.131,0.021,0.194,0.038c0.189,0.046,0.248,0.125,0.25,0.317c0.004,0.181,0.082,0.228,0.243,0.148
	c0.116-0.06,0.228-0.122,0.346-0.176c0.103-0.044,0.162-0.008,0.156,0.11c-0.001,0.038-0.001,0.08-0.014,0.114
	c-0.076,0.228,0.046,0.394,0.161,0.559c0.028,0.042,0.05,0.067,0.109,0.046c0.1-0.034,0.138,0.056,0.178,0.116
	c0.039,0.059,0.001,0.116-0.041,0.162c-0.208,0.236-0.438,0.396-0.779,0.369c-0.359-0.025-0.714,0.025-1.05,0.162
	c-0.054,0.019-0.139,0.03-0.126,0.105c0.014,0.086,0.1,0.055,0.155,0.053c0.128-0.008,0.254-0.025,0.382-0.03
	c0.036-0.003,0.086-0.01,0.104,0.034c0.02,0.049-0.032,0.062-0.055,0.089c-0.05,0.055-0.176,0.076-0.142,0.162
	c0.031,0.083,0.151,0.074,0.237,0.08c0.087,0.008,0.163-0.029,0.243-0.055c0.042-0.015,0.089-0.038,0.116,0.019
	c0.026,0.06-0.004,0.104-0.051,0.125c-0.086,0.037-0.175,0.088-0.264,0.097c-0.159,0.015-0.272,0.089-0.376,0.192
	c-0.057,0.059-0.146,0.162-0.207,0.094c-0.067-0.075-0.021-0.197,0.055-0.281c0.017-0.02,0.042-0.034,0.057-0.064
	c-0.289,0.093-0.597,0.174-0.791,0.418c-0.122,0.156-0.237,0.249-0.433,0.314c-0.177,0.063-0.319,0.248-0.454,0.402
	c-0.122,0.136-0.271,0.253-0.338,0.431c-0.022,0.058-0.085,0.088-0.135,0.121c-0.203,0.138-0.41,0.272-0.61,0.412
	c-0.351,0.248-0.382,0.335-0.265,0.757c0.043,0.156,0.049,0.291-0.068,0.421c-0.083,0.089-0.136,0.076-0.186-0.026
	c-0.055-0.11-0.072-0.232-0.082-0.356c-0.019-0.192-0.137-0.325-0.368-0.396c-0.248-0.076-0.316-0.058-0.465,0.13
	c-0.092,0.11-0.248,0.118-0.357,0.005c-0.038-0.036-0.064-0.074-0.125-0.063c-0.305,0.044-0.57,0.19-0.809,0.371
	c-0.124,0.1-0.121,0.276-0.162,0.413c-0.069,0.236-0.211,0.455-0.159,0.724c0.042,0.208,0.22,0.382,0.464,0.415
	c0.287,0.039,0.456-0.04,0.558-0.27c0.095-0.222,0.172-0.267,0.362-0.227c0.106,0.02,0.158,0.078,0.114,0.192
	c-0.071,0.184-0.145,0.373-0.216,0.561c-0.054,0.148-0.043,0.162,0.118,0.137c0.021,0,0.044-0.006,0.065-0.01
	c0.342-0.038,0.444,0.057,0.41,0.395c-0.009,0.086-0.021,0.165-0.029,0.25c-0.026,0.251,0.054,0.458,0.285,0.593
	c0.057,0.038,0.118,0.085,0.11,0.206c-0.21-0.149-0.466-0.172-0.635-0.366c-0.042-0.049-0.063-0.101-0.069-0.167
	c-0.01-0.107-0.07-0.191-0.138-0.276c-0.114-0.146-0.24-0.214-0.435-0.214c-0.185,0.001-0.328-0.129-0.464-0.247
	c-0.122-0.109-0.246-0.147-0.409-0.101c-0.174,0.054-0.343-0.018-0.502-0.081c-0.272-0.107-0.49-0.306-0.737-0.454
	c-0.049-0.028-0.067-0.088-0.055-0.132c0.075-0.297-0.123-0.511-0.242-0.738c-0.114-0.217-0.268-0.41-0.373-0.635
	c-0.07-0.148-0.051-0.331-0.163-0.468c-0.038-0.049-0.047-0.146-0.138-0.107c-0.083,0.04-0.096,0.12-0.063,0.204
	c0.125,0.311,0.242,0.622,0.268,0.977c-0.122-0.149-0.227-0.298-0.275-0.472c-0.072-0.252-0.181-0.493-0.153-0.768
	c0.012-0.104-0.028-0.186-0.121-0.236c-0.285-0.147-0.339-0.419-0.38-0.702c-0.001-0.017,0.002-0.036-0.001-0.051
	c-0.106-0.428,0.202-0.687,0.405-0.984c0.142-0.211,0.339-0.388,0.407-0.643c0.005-0.023,0.017-0.053,0.033-0.056
	c0.213-0.061,0.161-0.225,0.115-0.354c-0.112-0.31-0.031-0.618-0.025-0.926c0.005-0.293-0.204-0.531-0.498-0.577
	c-0.264-0.043-0.527-0.082-0.79-0.124c-0.141-0.025-0.237,0.086-0.358,0.12c-0.061,0.015-0.125,0.091-0.176-0.027
	c-0.021-0.045-0.073-0.018-0.101,0.005c-0.254,0.216-0.568,0.269-0.881,0.332c0.025-0.236-0.173-0.2-0.304-0.249V25.206z"/>
<path fill="none" stroke="#3D2877" stroke-miterlimit="10" d="M11.955,25.206c0.125-0.184,0.279-0.313,0.518-0.304
	c0.187,0.004,0.372-0.011,0.503-0.174C13,24.7,13.04,24.67,13.013,24.626c-0.027-0.032-0.072-0.016-0.109-0.002
	c-0.027,0.004-0.051,0.02-0.074,0.033c-0.11,0.085-0.205,0.041-0.249-0.061c-0.045-0.104,0.067-0.14,0.138-0.173
	c0.117-0.05,0.227,0.011,0.34,0.041c0.07,0.014,0.14,0.056,0.199-0.022c0.051-0.067,0.021-0.126-0.023-0.183
	c-0.052-0.062-0.019-0.102,0.04-0.129c0.11-0.051,0.224-0.109,0.345-0.116c0.301-0.013,0.578-0.144,0.883-0.144
	c0.455,0,0.902-0.147,1.363-0.111c0.116,0.011,0.199,0.022,0.272,0.141c0.172,0.27,0.332,0.315,0.643,0.211
	c0.363-0.12,0.735-0.22,1.115-0.175c0.349,0.04,0.694,0.087,1.045,0.099c0.022,0,0.056,0,0.063,0.016
	c0.137,0.244,0.442,0.118,0.615,0.282c0.04,0.041,0.081-0.02,0.105-0.049c0.094-0.115,0.212-0.145,0.355-0.147
	c0.323-0.009,0.635-0.002,0.931,0.147c0.075,0.036,0.14,0.002,0.197-0.048c0.116-0.108,0.223-0.218,0.282-0.37
	c0.034-0.084,0.087-0.153,0.184-0.179c0.162-0.046,0.189-0.031,0.199,0.14c0.003,0.06,0.019,0.105,0.072,0.137
	c0.027,0.018,0.069,0.042,0.072,0.067c0.013,0.224,0.133,0.136,0.246,0.093c0.117-0.044,0.238-0.061,0.338-0.143
	c0.046-0.036,0.105-0.056,0.147,0.002c0.035,0.052,0.016,0.111-0.025,0.156c-0.083,0.086-0.185,0.145-0.305,0.162
	c-0.182,0.028-0.344,0.088-0.48,0.211c-0.076,0.069-0.122,0.041-0.18-0.02c-0.069-0.073-0.125-0.074-0.13,0.045
	c-0.005,0.174-0.118,0.228-0.267,0.265c-0.395,0.11-0.778,0.249-1.071,0.555c-0.153,0.16-0.125,0.344,0.044,0.483
	c0.202,0.168,0.443,0.197,0.684,0.234c0.123,0.022,0.245,0.037,0.12,0.204c-0.026,0.031-0.026,0.086-0.033,0.13
	c-0.022,0.135,0.051,0.2,0.174,0.238c0.129,0.042,0.231-0.011,0.24-0.131c0.022-0.312,0.256-0.377,0.486-0.432
	c0.164-0.042,0.208-0.114,0.169-0.271c-0.021-0.096-0.015-0.199-0.007-0.302c0.006-0.087,0.019-0.164,0.152-0.171
	c0.115-0.007,0.183-0.12,0.257-0.2c0.092-0.102,0.186-0.15,0.322-0.091c0.06,0.023,0.131,0.021,0.194,0.038
	c0.189,0.046,0.248,0.125,0.25,0.317c0.004,0.181,0.082,0.228,0.243,0.148c0.116-0.06,0.228-0.122,0.346-0.176
	c0.103-0.044,0.162-0.008,0.156,0.11c-0.001,0.038-0.001,0.08-0.014,0.114c-0.076,0.228,0.046,0.394,0.161,0.559
	c0.028,0.042,0.05,0.067,0.109,0.046c0.1-0.034,0.138,0.056,0.178,0.116c0.039,0.059,0.001,0.116-0.041,0.162
	c-0.208,0.236-0.438,0.396-0.779,0.369c-0.359-0.025-0.714,0.025-1.05,0.162c-0.054,0.019-0.139,0.03-0.126,0.105
	c0.014,0.086,0.1,0.055,0.155,0.053c0.128-0.008,0.254-0.025,0.382-0.03c0.036-0.003,0.086-0.01,0.104,0.034
	c0.02,0.049-0.032,0.062-0.055,0.089c-0.05,0.055-0.176,0.076-0.142,0.162c0.031,0.083,0.151,0.074,0.237,0.08
	c0.087,0.008,0.163-0.029,0.243-0.055c0.042-0.015,0.089-0.038,0.116,0.019c0.026,0.06-0.004,0.104-0.051,0.125
	c-0.086,0.037-0.175,0.088-0.264,0.097c-0.159,0.015-0.272,0.089-0.376,0.192c-0.057,0.059-0.146,0.162-0.207,0.094
	c-0.067-0.075-0.021-0.197,0.055-0.281c0.017-0.02,0.042-0.034,0.057-0.064c-0.289,0.093-0.597,0.174-0.791,0.418
	c-0.122,0.156-0.237,0.249-0.433,0.314c-0.177,0.063-0.319,0.248-0.454,0.402c-0.122,0.136-0.271,0.253-0.338,0.431
	c-0.022,0.058-0.085,0.088-0.135,0.121c-0.203,0.138-0.41,0.272-0.61,0.412c-0.351,0.248-0.382,0.335-0.265,0.757
	c0.043,0.156,0.049,0.291-0.068,0.421c-0.083,0.089-0.136,0.076-0.186-0.026c-0.055-0.11-0.072-0.232-0.082-0.356
	c-0.019-0.192-0.137-0.325-0.368-0.396c-0.248-0.076-0.316-0.058-0.465,0.13c-0.092,0.11-0.248,0.118-0.357,0.005
	c-0.038-0.036-0.064-0.074-0.125-0.063c-0.305,0.044-0.57,0.19-0.809,0.371c-0.124,0.1-0.121,0.276-0.162,0.413
	c-0.069,0.236-0.211,0.455-0.159,0.724c0.042,0.208,0.22,0.382,0.464,0.415c0.287,0.039,0.456-0.04,0.558-0.27
	c0.095-0.222,0.172-0.267,0.362-0.227c0.106,0.02,0.158,0.078,0.114,0.192c-0.071,0.184-0.145,0.373-0.216,0.561
	c-0.054,0.148-0.043,0.162,0.118,0.137c0.021,0,0.044-0.006,0.065-0.01c0.342-0.038,0.444,0.057,0.41,0.395
	c-0.009,0.086-0.021,0.165-0.029,0.25c-0.026,0.251,0.054,0.458,0.285,0.593c0.057,0.038,0.118,0.085,0.11,0.206
	c-0.21-0.149-0.466-0.172-0.635-0.366c-0.042-0.049-0.063-0.101-0.069-0.167c-0.01-0.107-0.07-0.191-0.138-0.276
	c-0.114-0.146-0.24-0.214-0.435-0.214c-0.185,0.001-0.328-0.129-0.464-0.247c-0.122-0.109-0.246-0.147-0.409-0.101
	c-0.174,0.054-0.343-0.018-0.502-0.081c-0.272-0.107-0.49-0.306-0.737-0.454c-0.049-0.028-0.067-0.088-0.055-0.132
	c0.075-0.297-0.123-0.511-0.242-0.738c-0.114-0.217-0.268-0.41-0.373-0.635c-0.07-0.148-0.051-0.331-0.163-0.468
	c-0.038-0.049-0.047-0.146-0.138-0.107c-0.083,0.04-0.096,0.12-0.063,0.204c0.125,0.311,0.242,0.622,0.268,0.977
	c-0.122-0.149-0.227-0.298-0.275-0.472c-0.072-0.252-0.181-0.493-0.153-0.768c0.012-0.104-0.028-0.186-0.121-0.236
	c-0.285-0.147-0.339-0.419-0.38-0.702c-0.001-0.017,0.002-0.036-0.001-0.051c-0.106-0.428,0.202-0.687,0.405-0.984
	c0.142-0.211,0.339-0.388,0.407-0.643c0.005-0.023,0.017-0.053,0.033-0.056c0.213-0.061,0.161-0.225,0.115-0.354
	c-0.112-0.31-0.031-0.618-0.025-0.926c0.005-0.293-0.204-0.531-0.498-0.577c-0.264-0.043-0.527-0.082-0.79-0.124
	c-0.141-0.025-0.237,0.086-0.358,0.12c-0.061,0.015-0.125,0.091-0.176-0.027c-0.021-0.045-0.073-0.018-0.101,0.005
	c-0.254,0.216-0.568,0.269-0.881,0.332c0.025-0.236-0.173-0.2-0.304-0.249V25.206z"/>
<path fill-rule="evenodd" clip-rule="evenodd" fill="none" stroke="#FFFFFF" stroke-miterlimit="10" d="M22.429,43.975
	c-0.188-0.135-0.406-0.228-0.521-0.453c-0.078-0.154-0.172-0.302-0.261-0.449c-0.047-0.08-0.042-0.155,0.02-0.229
	c0.079-0.1,0.078-0.184,0.016-0.316c-0.103-0.206-0.189-0.422-0.344-0.604c-0.039-0.045-0.045-0.136-0.046-0.207
	c-0.021-0.567-0.09-1.136-0.115-1.697c-0.015-0.365-0.047-0.723-0.054-1.084c-0.001-0.069,0.003-0.144,0.019-0.215
	c0.06-0.3-0.011-0.428-0.299-0.541c-0.132-0.049-0.236-0.148-0.346-0.23c-0.126-0.099-0.245-0.211-0.376-0.306
	c-0.188-0.147-0.305-0.342-0.383-0.561c-0.107-0.304-0.277-0.567-0.482-0.812c-0.152-0.179-0.15-0.251,0.006-0.429
	c0.063-0.071,0.046-0.132-0.003-0.191c-0.103-0.118-0.074-0.213,0.011-0.326c0.222-0.302,0.408-0.625,0.579-0.957
	c0.036-0.064,0.005-0.112-0.027-0.165c-0.121-0.204-0.106-0.297,0.07-0.458c0.142-0.13,0.23-0.322,0.443-0.366
	c0.004,0,0.007-0.006,0.011-0.011c0.063-0.048,0.061-0.211,0.151-0.154c0.1,0.06,0.169,0.188,0.174,0.325
	c0.003,0.046-0.036,0.117,0.025,0.133c0.078,0.017,0.088-0.071,0.113-0.12c0.041-0.093,0.05-0.22,0.119-0.27
	c0.086-0.06,0.184,0.052,0.265,0.097c0.209,0.113,0.428,0.089,0.65,0.089c0.094,0,0.162,0,0.22,0.117
	c0.059,0.12,0.2,0.213,0.347,0.24c0.169,0.034,0.295,0.125,0.408,0.247c0.161,0.171,0.332,0.31,0.596,0.325
	c0.136,0.001,0.257,0.128,0.333,0.253c0.052,0.086,0.094,0.179,0.136,0.27c0.04,0.082,0.007,0.151-0.031,0.222
	c-0.031,0.063-0.098,0.105-0.109,0.215c0.225-0.133,0.42,0.021,0.629,0.025c0.067,0.002,0.118,0.048,0.155,0.093
	c0.157,0.179,0.371,0.198,0.588,0.204c0.26,0.002,0.481,0.104,0.689,0.253c0.095,0.068,0.198,0.12,0.303,0.173
	c0.154,0.072,0.17,0.196,0.133,0.334c-0.029,0.121-0.071,0.237-0.163,0.326c-0.287,0.274-0.351,0.637-0.396,0.999
	c-0.046,0.389-0.092,0.775-0.266,1.135c-0.031,0.059-0.069,0.103-0.134,0.135c-0.19,0.102-0.396,0.146-0.602,0.201
	c-0.254,0.066-0.276,0.102-0.242,0.353c0.017,0.129-0.029,0.241-0.094,0.348c-0.037,0.064-0.098,0.121-0.11,0.188
	c-0.04,0.248-0.164,0.442-0.313,0.645c-0.193,0.266-0.288,0.324-0.591,0.196c-0.036-0.015-0.076-0.069-0.114-0.015
	c-0.029,0.045,0.007,0.087,0.038,0.118c0.058,0.073,0.138,0.114,0.219,0.149c0.081,0.042,0.104,0.102,0.047,0.175
	c-0.077,0.104-0.152,0.207-0.235,0.304c-0.055,0.065-0.124,0.063-0.199,0.021c-0.135-0.066-0.184-0.004-0.184,0.131
	c0.001,0.031,0.001,0.063,0,0.099c-0.006,0.168-0.062,0.211-0.222,0.154c-0.042-0.015-0.08-0.051-0.116,0
	c-0.038,0.046-0.015,0.088,0.016,0.132c0.183,0.252,0.181,0.252,0.021,0.511c-0.101,0.156-0.082,0.169,0.084,0.249
	c0.144,0.067,0.086,0.229,0.097,0.357c0.004,0.023-0.012,0.056-0.029,0.079c-0.132,0.171-0.134,0.354-0.055,0.548H22.429z"/>
<path fill="none" stroke="#3D2877" stroke-miterlimit="10" d="M22.429,43.975c-0.188-0.135-0.406-0.228-0.521-0.453
	c-0.078-0.154-0.172-0.302-0.261-0.449c-0.047-0.08-0.042-0.155,0.02-0.229c0.079-0.1,0.078-0.184,0.016-0.316
	c-0.103-0.206-0.189-0.422-0.344-0.604c-0.039-0.045-0.045-0.136-0.046-0.207c-0.021-0.567-0.09-1.136-0.115-1.697
	c-0.015-0.365-0.047-0.723-0.054-1.084c-0.001-0.069,0.003-0.144,0.019-0.215c0.06-0.3-0.011-0.428-0.299-0.541
	c-0.132-0.049-0.236-0.148-0.346-0.23c-0.126-0.099-0.245-0.211-0.376-0.306c-0.188-0.147-0.305-0.342-0.383-0.561
	c-0.107-0.304-0.277-0.567-0.482-0.812c-0.152-0.179-0.15-0.251,0.006-0.429c0.063-0.071,0.046-0.132-0.003-0.191
	c-0.103-0.118-0.074-0.213,0.011-0.326c0.222-0.302,0.408-0.625,0.579-0.957c0.036-0.064,0.005-0.112-0.027-0.165
	c-0.121-0.204-0.106-0.297,0.07-0.458c0.142-0.13,0.23-0.322,0.443-0.366c0.004,0,0.007-0.006,0.011-0.011
	c0.063-0.048,0.061-0.211,0.151-0.154c0.1,0.06,0.169,0.188,0.174,0.325c0.003,0.046-0.036,0.117,0.025,0.133
	c0.078,0.017,0.088-0.071,0.113-0.12c0.041-0.093,0.05-0.22,0.119-0.27c0.086-0.06,0.184,0.052,0.265,0.097
	c0.209,0.113,0.428,0.089,0.65,0.089c0.094,0,0.162,0,0.22,0.117c0.059,0.12,0.2,0.213,0.347,0.24
	c0.169,0.034,0.295,0.125,0.408,0.247c0.161,0.171,0.332,0.31,0.596,0.325c0.136,0.001,0.257,0.128,0.333,0.253
	c0.052,0.086,0.094,0.179,0.136,0.27c0.04,0.082,0.007,0.151-0.031,0.222c-0.031,0.063-0.098,0.105-0.109,0.215
	c0.225-0.133,0.42,0.021,0.629,0.025c0.067,0.002,0.118,0.048,0.155,0.093c0.157,0.179,0.371,0.198,0.588,0.204
	c0.26,0.002,0.481,0.104,0.689,0.253c0.095,0.068,0.198,0.12,0.303,0.173c0.154,0.072,0.17,0.196,0.133,0.334
	c-0.029,0.121-0.071,0.237-0.163,0.326c-0.287,0.274-0.351,0.637-0.396,0.999c-0.046,0.389-0.092,0.775-0.266,1.135
	c-0.031,0.059-0.069,0.103-0.134,0.135c-0.19,0.102-0.396,0.146-0.602,0.201c-0.254,0.066-0.276,0.102-0.242,0.353
	c0.017,0.129-0.029,0.241-0.094,0.348c-0.037,0.064-0.098,0.121-0.11,0.188c-0.04,0.248-0.164,0.442-0.313,0.645
	c-0.193,0.266-0.288,0.324-0.591,0.196c-0.036-0.015-0.076-0.069-0.114-0.015c-0.029,0.045,0.007,0.087,0.038,0.118
	c0.058,0.073,0.138,0.114,0.219,0.149c0.081,0.042,0.104,0.102,0.047,0.175c-0.077,0.104-0.152,0.207-0.235,0.304
	c-0.055,0.065-0.124,0.063-0.199,0.021c-0.135-0.066-0.184-0.004-0.184,0.131c0.001,0.031,0.001,0.063,0,0.099
	c-0.006,0.168-0.062,0.211-0.222,0.154c-0.042-0.015-0.08-0.051-0.116,0c-0.038,0.046-0.015,0.088,0.016,0.132
	c0.183,0.252,0.181,0.252,0.021,0.511c-0.101,0.156-0.082,0.169,0.084,0.249c0.144,0.067,0.086,0.229,0.097,0.357
	c0.004,0.023-0.012,0.056-0.029,0.079c-0.132,0.171-0.134,0.354-0.055,0.548H22.429z"/>
<path fill="none" stroke="#3D2877" stroke-miterlimit="10" d="M25.272,22.092c0.125,0.059,0.259,0.07,0.391,0.082
	c0.637,0.049,1.274,0.169,1.91,0.005c0.044-0.011,0.089-0.02,0.131,0c0.209,0.118,0.438,0.113,0.667,0.113
	c0.396,0.002,0.792,0.002,1.188,0c0.083,0,0.177,0.011,0.249-0.025c0.209-0.093,0.401,0.007,0.6,0.032
	c0.085,0.012,0.133,0.095,0.15,0.16c0.018,0.061-0.072,0.071-0.118,0.1c-0.183,0.09-0.342,0.183-0.355,0.432
	c-0.012,0.166-0.196,0.186-0.329,0.204c-0.372,0.06-0.384,0.062-0.366,0.445c0.006,0.157-0.143,0.32-0.32,0.322
	c-0.314,0.009-0.614,0.113-0.92,0.156c-0.125,0.019-0.25,0.061-0.317,0.191c-0.031,0.062-0.109,0.078-0.174,0.095
	c-0.117,0.034-0.234,0.071-0.356,0.095c-0.155,0.037-0.271,0.118-0.339,0.269c-0.07,0.153-0.178,0.284-0.281,0.415
	c-0.077,0.098-0.16,0.125-0.287,0.059c-0.26-0.142-0.384-0.362-0.455-0.631c-0.032-0.117-0.065-0.235-0.09-0.353
	c-0.023-0.098,0.004-0.155,0.119-0.136c0.061,0.011,0.123,0.013,0.183,0.002c0.148-0.017,0.229-0.137,0.208-0.284
	c-0.051-0.365-0.225-0.647-0.522-0.856c-0.128-0.091-0.292-0.069-0.434-0.111c-0.036-0.006-0.079-0.005-0.115-0.017
	c-0.043-0.012-0.09-0.03-0.088-0.082c0.003-0.051,0.051-0.051,0.089-0.062c0.11-0.021,0.22-0.02,0.331,0.004
	c0.118,0.023,0.22-0.011,0.317-0.067c0.073-0.044,0.06-0.111,0.049-0.164c-0.017-0.076-0.08-0.032-0.125-0.025
	c-0.431,0.095-0.86,0.188-1.29,0.28c-0.11,0.027-0.216,0.063-0.275,0.173c-0.019,0.036-0.043,0.067-0.094,0.05
	c-0.082-0.026-0.154,0.012-0.221,0.051c-0.118,0.067-0.235,0.063-0.347,0c-0.108-0.054-0.215-0.09-0.333-0.106
	c-0.108-0.016-0.214-0.072-0.214-0.178c-0.003-0.105,0.097-0.184,0.207-0.202c0.24-0.042,0.484-0.072,0.727-0.1
	c0.137-0.012,0.262-0.042,0.373-0.13c0.112-0.093,0.259-0.093,0.392-0.133c0.075-0.019,0.155-0.023,0.22-0.072H25.272z"/>
<path fill-rule="evenodd" clip-rule="evenodd" fill="#FFFFFF" d="M54.783,37.051c-0.367,0.079-0.593-0.164-0.826-0.377
	c-0.114-0.101-0.194-0.129-0.309-0.015c-0.096,0.097-0.379,0.086-0.511-0.007c-0.034-0.021-0.063-0.072-0.091-0.069
	c-0.217,0.018-0.188-0.107-0.18-0.255c0.007-0.168-0.148-0.228-0.265-0.293c-0.13-0.069-0.279-0.105-0.428-0.13
	c-0.114-0.021-0.248-0.049-0.149-0.226c0.041-0.075-0.051-0.099-0.086-0.14c-0.036-0.039-0.139-0.065-0.1-0.129
	c0.038-0.069,0.145-0.042,0.216-0.057c0.067-0.015,0.097,0.044,0.11,0.104c0.017,0.084,0.015,0.174,0.067,0.251
	c0.125,0.191,0.302,0.206,0.415,0.008c0.085-0.146,0.162-0.156,0.31-0.097c0.304,0.133,0.619,0.242,0.931,0.36
	c0.072,0.025,0.116,0.082,0.159,0.141c0.052,0.074,0.074,0.163,0.162,0.207c0.013,0.009,0.03,0.029,0.027,0.042
	c-0.091,0.255,0.153,0.289,0.269,0.411c0.083,0.087,0.186,0.156,0.278,0.236V37.051z"/>
<path fill="none" stroke="#3D2877" stroke-miterlimit="10" d="M54.783,37.051c-0.367,0.079-0.593-0.164-0.826-0.377
	c-0.114-0.101-0.194-0.129-0.309-0.015c-0.096,0.097-0.379,0.086-0.511-0.007c-0.034-0.021-0.063-0.072-0.091-0.069
	c-0.217,0.018-0.188-0.107-0.18-0.255c0.007-0.168-0.148-0.228-0.265-0.293c-0.13-0.069-0.279-0.105-0.428-0.13
	c-0.114-0.021-0.248-0.049-0.149-0.226c0.041-0.075-0.051-0.099-0.086-0.14c-0.036-0.039-0.139-0.065-0.1-0.129
	c0.038-0.069,0.145-0.042,0.216-0.057c0.067-0.015,0.097,0.044,0.11,0.104c0.017,0.084,0.015,0.174,0.067,0.251
	c0.125,0.191,0.302,0.206,0.415,0.008c0.085-0.146,0.162-0.156,0.31-0.097c0.304,0.133,0.619,0.242,0.931,0.36
	c0.072,0.025,0.116,0.082,0.159,0.141c0.052,0.074,0.074,0.163,0.162,0.207c0.013,0.009,0.03,0.029,0.027,0.042
	c-0.091,0.255,0.153,0.289,0.269,0.411c0.083,0.087,0.186,0.156,0.278,0.236V37.051z"/>
<path fill-rule="evenodd" clip-rule="evenodd" fill="none" stroke="#FFFFFF" stroke-miterlimit="10" d="M34.723,29.72
	c0.325,0.219,0.671,0.307,1.048,0.306c0.206-0.002,0.413,0.017,0.618,0.03c0.168,0.012,0.282-0.058,0.362-0.21
	c0.084-0.16,0.146-0.325,0.168-0.506c0.012-0.118-0.027-0.186-0.152-0.184c-0.2,0.013-0.4-0.037-0.6,0c-0.027,0.002-0.058,0-0.084,0
	c-0.423-0.044-0.591-0.2-0.566-0.633c0.008-0.135-0.025-0.164-0.144-0.09c-0.096,0.051-0.185,0.104-0.296,0.044
	c-0.036-0.015-0.067-0.002-0.083,0.034c-0.021,0.054-0.018,0.113,0.021,0.143c0.138,0.104,0.076,0.203,0.01,0.314
	c-0.066,0.114-0.153,0.116-0.206,0.03c-0.14-0.216-0.337-0.403-0.375-0.678c-0.016-0.111-0.066-0.183-0.186-0.2
	c-0.133-0.024-0.213-0.133-0.309-0.217c-0.105-0.085-0.214-0.16-0.332-0.224c-0.044-0.027-0.099-0.045-0.14-0.008
	c-0.056,0.048-0.021,0.111,0.011,0.153c0.114,0.15,0.237,0.297,0.418,0.371c0.139,0.06,0.235,0.164,0.336,0.271
	c0.03,0.028,0.061,0.104-0.001,0.09c-0.137-0.036-0.119,0.053-0.149,0.126c-0.05,0.121-0.157,0.203-0.257,0.281
	c-0.056,0.044-0.116,0.021-0.167-0.047c0.088-0.053,0.2-0.057,0.261-0.153c0.05-0.072,0.068-0.123-0.005-0.199
	c-0.145-0.16-0.298-0.294-0.51-0.366c-0.1-0.032-0.197-0.082-0.246-0.188c-0.043-0.095-0.11-0.131-0.217-0.147
	c-0.097-0.013-0.139-0.021-0.144,0.097c-0.001,0.118-0.113,0.108-0.179,0.089c-0.229-0.078-0.359,0.042-0.465,0.212
	c-0.036,0.064-0.09,0.098-0.155,0.121c-0.145,0.055-0.228,0.166-0.235,0.316c-0.008,0.107-0.061,0.177-0.143,0.232
	c-0.112,0.071-0.228,0.137-0.345,0.202c-0.073,0.039-0.648-0.077-0.699-0.14c-0.07-0.095-0.1-0.206-0.068-0.318
	c0.038-0.133,0.038-0.262,0.038-0.396c0-0.272,0.132-0.377,0.391-0.322c0.073,0.015,0.139,0.042,0.205,0.069
	c0.157,0.067,0.355,0.038,0.428-0.065c0.076-0.101,0.035-0.325-0.087-0.44c-0.062-0.059-0.134-0.109-0.208-0.175
	c0.102-0.069,0.215-0.004,0.297-0.063c-0.002-0.015-0.004-0.029-0.01-0.034c-0.054-0.055-0.184-0.051-0.168-0.137
	c0.018-0.102,0.136-0.057,0.214-0.064c0.206-0.025,0.413-0.047,0.542-0.248c0.041-0.063,0.105-0.111,0.194-0.113
	c0.046-0.004,0.093-0.03,0.098-0.077c0.019-0.15,0.126-0.183,0.247-0.203c0.011-0.005,0.022-0.006,0.032-0.008
	c0.134-0.018,0.185-0.197,0.297-0.194c0.11,0.002,0.212,0.075,0.338,0.014c0.109-0.05,0.232-0.026,0.332,0.051
	c0.059,0.045,0.124,0.077,0.185,0.026c0.12-0.091,0.258-0.089,0.397-0.089c0.186,0,0.26-0.062,0.291-0.251
	c0.017-0.081,0.021-0.152,0.142-0.127c0.161,0.037,0.23-0.022,0.181-0.181c-0.056-0.179-0.014-0.218,0.155-0.147
	c0.029,0.013,0.068,0.011,0.102,0c0.084-0.021,0.194-0.047,0.173-0.163c-0.017-0.106-0.12-0.09-0.206-0.075
	c-0.085,0.015-0.176,0.017-0.263,0.033c-0.095,0.015-0.145-0.033-0.195-0.104c-0.046-0.065-0.051-0.126,0-0.195
	c0.05-0.069,0.094-0.14,0.139-0.209c0.023-0.042,0.04-0.084,0.008-0.129c-0.031-0.038-0.073-0.044-0.119-0.035
	c-0.255,0.034-0.504,0.284-0.538,0.535c-0.005,0.042-0.001,0.078,0,0.118c0.001,0.086,0.123,0.133,0.052,0.242
	c-0.115,0.186-0.209,0.38-0.419,0.481c-0.12,0.059-0.283-0.003-0.327-0.135c-0.096-0.277-0.362-0.304-0.57-0.414
	c-0.072-0.04-0.102,0.073-0.177,0.09c-0.072-0.151-0.047-0.305,0-0.454c0.02-0.062,0.076-0.049,0.127-0.051
	c0.149-0.003,0.273-0.038,0.308-0.217c0.017-0.095,0.105-0.152,0.179-0.211c0.3-0.243,0.608-0.471,0.931-0.688
	c0.115-0.076,0.242-0.123,0.375-0.116c0.509,0.036,1.024,0.053,1.506,0.248c0.081,0.037,0.175,0.043,0.257,0.072
	c0.081,0.029,0.217,0.029,0.164,0.173c-0.046,0.127-0.156,0.151-0.275,0.093c-0.102-0.057-0.2-0.057-0.307-0.025
	c-0.12,0.032-0.143,0.083-0.043,0.165c0.107,0.088,0.216,0.174,0.324,0.262c0.101,0.079,0.167-0.003,0.233-0.056
	c0.209-0.169,0.412-0.344,0.674-0.426c0.146-0.05,0.3-0.084,0.433-0.17c0.058-0.037,0.126-0.041,0.195-0.02
	c0.239,0.065,0.463,0.067,0.668-0.107c0.102-0.089,0.199-0.078,0.325,0.015c0.212,0.156,0.458,0.257,0.732,0.156
	c0.093-0.032,0.179-0.074,0.034-0.186c-0.11-0.083-0.211-0.201-0.244-0.348c-0.027-0.1,0.008-0.146,0.113-0.155
	c0.28-0.019,0.516,0.199,0.544,0.498c0.003,0.058,0.001,0.114,0.005,0.169c0.005,0.065,0.04,0.116,0.109,0.129
	c0.068,0.011,0.137,0.011,0.188-0.047c0.045-0.049,0.016-0.103-0.008-0.151c-0.072-0.154-0.16-0.302-0.159-0.484
	c0.072,0.118,0.142,0.235,0.22,0.35c0.044,0.063,0.096,0.137,0.187,0.075c0.081-0.052,0.096-0.126,0.065-0.219
	c-0.105-0.313-0.097-0.299,0.22-0.398c0.217-0.063,0.442-0.034,0.661-0.085c0.146-0.031,0.276-0.088,0.381-0.193
	c0.076-0.074,0.151-0.107,0.267-0.093c0.131,0.017,0.265-0.009,0.397-0.021c0.195-0.021,0.388-0.056,0.569,0.054
	c0.051,0.03,0.124,0.014,0.183-0.002c0.075-0.019,0.155-0.022,0.231-0.01c0.064,0.012,0.146,0.017,0.175,0.084
	c0.03,0.071-0.057,0.097-0.091,0.146c-0.042,0.055-0.128,0.105-0.091,0.179c0.042,0.087,0.138,0.058,0.211,0.044
	c0.23-0.037,0.449-0.03,0.669,0.07c0.163,0.078,0.353,0.065,0.526,0.013c0.333-0.106,0.656-0.097,0.971,0.063
	c0.141,0.074,0.302,0.067,0.457,0.087c0.182,0.021,0.364,0.027,0.544,0.069c0.204,0.051,0.339-0.082,0.442-0.235
	c0.05-0.074,0.071-0.091,0.167-0.051c0.303,0.133,0.605,0.273,0.959,0.236c0.214-0.025,0.432-0.002,0.651-0.002
	c0.131-0.003,0.255,0.014,0.367,0.09c0.054,0.033,0.113,0.042,0.176,0.042c0.431,0.003,0.857,0.056,1.271,0.169
	c0.096,0.025,0.163,0.021,0.207-0.078c0.033-0.069,0.09-0.088,0.165-0.074c0.486,0.1,0.988,0.104,1.451,0.307
	c0.079,0.034,0.163,0.019,0.246,0.017c0.354-0.023,0.695,0,0.929,0.324c-0.029,0.06-0.08,0.043-0.119,0.032
	c-0.1-0.02-0.196-0.047-0.29-0.076c-0.243-0.073-0.483-0.175-0.692,0.105c0.146,0.082,0.305,0.169,0.461,0.26
	c0.039,0.021,0.112,0.023,0.099,0.093c-0.011,0.059-0.074,0.063-0.124,0.061c-0.136-0.015-0.219,0.056-0.291,0.156
	c-0.038,0.053-0.09,0.099-0.138,0.146c-0.03,0.031-0.06,0.082-0.107,0.067c-0.063-0.021-0.022-0.076-0.02-0.116
	c0.007-0.063,0.002-0.122-0.085-0.082c-0.109,0.051-0.219,0.109-0.322,0.175c-0.066,0.038-0.087,0.111-0.072,0.189
	c0.013,0.076,0.073,0.084,0.134,0.102c0.211,0.059,0.347,0.274,0.323,0.527c-0.014,0.147-0.03,0.297-0.032,0.444
	c-0.003,0.104-0.053,0.167-0.139,0.074c-0.149-0.167-0.389-0.257-0.434-0.515c-0.011-0.053-0.063-0.071-0.107-0.093
	c-0.277-0.149-0.34-0.419-0.158-0.67c0.061-0.08,0.054-0.324-0.025-0.389c-0.077-0.061-0.163-0.049-0.237,0.027
	c-0.07,0.072-0.146,0.096-0.238,0.034c-0.158-0.097-0.215-0.082-0.299,0.084c-0.02,0.038-0.026,0.086-0.032,0.131
	c-0.024,0.215-0.062,0.238-0.273,0.189c-0.259-0.065-0.53-0.069-0.789-0.137c-0.036-0.008-0.079,0-0.115,0.011
	c-0.306,0.084-0.533,0.487-0.452,0.795c0.041,0.147,0.172,0.14,0.282,0.147c0.133,0.015,0.268,0,0.403,0.002
	c0.19,0.005,0.308,0.102,0.442,0.246c0.226,0.238,0.26,0.487,0.247,0.793c-0.008,0.203-0.087,0.361-0.157,0.533
	c-0.036,0.087-0.115,0.078-0.186,0.076c-0.177-0.01-0.315,0.017-0.312,0.24c0.001,0.028-0.018,0.055-0.031,0.078
	c-0.156,0.282-0.145,0.325,0.128,0.511c0.093,0.059,0.187,0.122,0.276,0.188c0.096,0.07,0.116,0.152,0.045,0.258
	c-0.044,0.067-0.09,0.129-0.148,0.18c-0.065,0.057-0.136,0.075-0.217,0.044c-0.086-0.031-0.124-0.099-0.114-0.183
	c0.018-0.178-0.065-0.271-0.222-0.325c-0.097-0.029-0.142-0.104-0.167-0.207c-0.041-0.173-0.149-0.207-0.285-0.101
	c-0.099,0.079-0.158,0.057-0.199-0.051c-0.013-0.034-0.029-0.061-0.04-0.098c-0.064-0.179-0.118-0.202-0.253-0.059
	c-0.111,0.122-0.205,0.264-0.295,0.404c-0.07,0.11-0.032,0.181,0.095,0.158c0.167-0.021,0.332,0.046,0.497-0.008
	c0.062-0.021,0.085,0.017,0.063,0.074c-0.015,0.046-0.031,0.101-0.066,0.13c-0.135,0.125-0.084,0.238,0.006,0.348
	c0.075,0.093,0.142,0.19,0.231,0.265c0.2,0.162,0.283,0.383,0.335,0.619c0.044,0.211-0.069,0.384-0.165,0.545
	c-0.099,0.181-0.245,0.326-0.46,0.359c-0.244,0.04-0.396,0.184-0.501,0.395c-0.059,0.122-0.13,0.236-0.2,0.354
	c-0.018,0.03-0.036,0.074-0.085,0.059c-0.038-0.014-0.032-0.059-0.032-0.088c-0.003-0.074-0.006-0.147-0.002-0.221
	c0.008-0.154-0.082-0.229-0.216-0.28c-0.132-0.045-0.195,0.044-0.258,0.132c-0.012,0.017-0.025,0.038-0.039,0.06
	c-0.181,0.266-0.181,0.266,0.071,0.472c0.236,0.199,0.368,0.473,0.52,0.732c0.066,0.111-0.002,0.228-0.066,0.33
	c-0.092,0.138-0.205,0.26-0.343,0.358c-0.172,0.129-0.27,0.118-0.389-0.055c-0.134-0.2-0.342-0.333-0.464-0.541
	c-0.04-0.074-0.096-0.02-0.13,0.028c-0.065,0.092-0.058,0.196-0.058,0.306c0.001,0.134,0.016,0.269-0.054,0.405
	c-0.117-0.104-0.119-0.236-0.115-0.368c0.006-0.245,0.006-0.487-0.106-0.719c-0.056-0.123-0.109-0.197-0.242-0.081
	c-0.086,0.076-0.145,0.027-0.146-0.061c-0.014-0.178-0.085-0.292-0.244-0.382c-0.099-0.057-0.146-0.175-0.196-0.286
	c-0.121-0.271-0.372-0.42-0.656-0.396c-0.116,0.007-0.203,0.094-0.277,0.171c-0.19,0.202-0.4,0.376-0.632,0.536
	c-0.237,0.169-0.355,0.464-0.327,0.781c0.01,0.11,0.009,0.225,0.023,0.331c0.03,0.192-0.065,0.317-0.206,0.422
	c-0.16,0.118-0.265,0.091-0.331-0.097c-0.06-0.175-0.134-0.342-0.186-0.517c-0.078-0.28-0.224-0.522-0.332-0.782
	c-0.048-0.12-0.074-0.236-0.044-0.357c0.02-0.07,0.029-0.144-0.013-0.213c-0.057-0.096-0.093-0.211-0.249-0.093
	c-0.124,0.097-0.23,0.014-0.322-0.104c-0.17-0.215-0.376-0.398-0.616-0.537c-0.129-0.074-0.271-0.065-0.409-0.057
	C40.959,31,40.75,30.986,40.54,30.965c-0.113-0.009-0.218-0.063-0.281-0.139c-0.126-0.149-0.29-0.171-0.462-0.179
	c-0.372-0.018-0.619-0.243-0.851-0.496c-0.01-0.009-0.026-0.019-0.052-0.033c-0.06,0.103-0.024,0.2,0.011,0.293
	c0.063,0.171,0.131,0.339,0.194,0.517c0.11,0.312,0.507,0.383,0.729,0.13c0.065-0.074,0.104-0.204,0.206-0.204
	c0.112,0.005,0.083,0.149,0.126,0.228c0.088,0.153,0.206,0.262,0.354,0.348c0.081,0.044,0.146,0.107,0.063,0.192
	c-0.247,0.265-0.42,0.592-0.714,0.813c-0.105,0.078-0.212,0.148-0.334,0.19c-0.225,0.086-0.438,0.19-0.641,0.324
	c-0.1,0.067-0.217,0.088-0.331,0.107c-0.149,0.025-0.279-0.054-0.329-0.216c-0.083-0.275-0.14-0.557-0.334-0.777
	c-0.266-0.297-0.438-0.649-0.603-1.016c-0.083-0.18-0.236-0.333-0.362-0.498c-0.031-0.037-0.075-0.08-0.126-0.067
	c-0.086,0.017-0.158-0.013-0.271-0.078c0.063,0.122,0.104,0.198,0.146,0.272c0.198,0.364,0.33,0.757,0.5,1.133
	c0.125,0.256,0.261,0.498,0.465,0.707c0.222,0.226,0.421,0.477,0.487,0.802c0.025,0.124,0.102,0.162,0.221,0.144
	c0.202-0.041,0.407-0.06,0.613-0.03c0.118,0.019,0.215-0.04,0.324-0.069c0.088-0.015,0.141-0.015,0.115,0.104
	c-0.056,0.235-0.101,0.464-0.262,0.664c-0.162,0.191-0.26,0.442-0.442,0.604c-0.369,0.329-0.609,0.768-0.942,1.122
	c-0.173,0.188-0.207,0.386-0.128,0.634c0.104,0.321,0.186,0.649,0.179,0.996c-0.004,0.187-0.044,0.376-0.227,0.492
	c-0.216,0.136-0.408,0.298-0.542,0.513c-0.089,0.144-0.146,0.287-0.073,0.47c0.05,0.131,0.06,0.289-0.114,0.393
	c-0.203,0.118-0.281,0.34-0.376,0.535c-0.059,0.12-0.122,0.218-0.233,0.3c-0.113,0.087-0.214,0.196-0.308,0.301
	c-0.269,0.319-0.615,0.458-1.021,0.483c-0.022,0-0.044,0.004-0.066,0.011c-0.257,0.08-0.369,0.037-0.419-0.228
	c-0.06-0.318-0.17-0.591-0.393-0.827c-0.087-0.099-0.095-0.259-0.093-0.384c0.006-0.446-0.187-0.826-0.4-1.193
	c-0.154-0.259-0.11-0.486,0.021-0.719c0.075-0.139,0.185-0.271,0.17-0.427c-0.021-0.248,0.006-0.518-0.104-0.745
	c-0.151-0.32-0.235-0.686-0.545-0.921c-0.112-0.084-0.038-0.215,0-0.327c0.073-0.202,0.081-0.404-0.049-0.59
	c-0.08-0.115-0.193-0.167-0.328-0.154c-0.067,0.004-0.129,0.004-0.164-0.055c-0.192-0.329-0.493-0.278-0.784-0.211
	c-0.252,0.055-0.487,0.177-0.761,0.158c-0.114-0.011-0.211,0.107-0.343,0.118c-0.431,0.028-0.686-0.243-0.927-0.533
	c-0.088-0.108-0.143-0.238-0.216-0.358c-0.036-0.063-0.064-0.151-0.119-0.177c-0.249-0.125-0.285-0.359-0.33-0.593
	c-0.015-0.072,0.007-0.131,0.036-0.19c0.111-0.233,0.153-0.476,0.094-0.729c-0.079-0.338,0.107-0.604,0.261-0.869
	c0.164-0.28,0.401-0.508,0.663-0.704c0.084-0.063,0.133-0.124,0.128-0.249c-0.002-0.139,0.069-0.271,0.196-0.346
	c0.147-0.09,0.28-0.206,0.381-0.346c0.048-0.067,0.093-0.111,0.171-0.034c0.044,0.046,0.108,0.043,0.155,0.014
	c0.11-0.061,0.229-0.074,0.34-0.044c0.259,0.071,0.454-0.116,0.687-0.135c0.317-0.032,0.637-0.03,0.937-0.15
	c0.049-0.021,0.101-0.021,0.139,0.027c0.037,0.049,0.015,0.093-0.015,0.138c-0.046,0.075-0.067,0.162-0.068,0.252
	c-0.001,0.087,0.024,0.156,0.113,0.182c0.051,0.016,0.094,0.041,0.119,0.087c0.056,0.095,0.131,0.111,0.238,0.109
	c0.165,0,0.299,0.107,0.439,0.188c0.067,0.037,0.126,0.089,0.21,0.1C34.546,30.158,34.651,30.067,34.723,29.72"/>
<path fill="none" stroke="#3D2877" stroke-miterlimit="10" d="M34.723,29.72c0.325,0.219,0.671,0.307,1.048,0.306
	c0.206-0.002,0.413,0.017,0.618,0.03c0.168,0.012,0.282-0.058,0.362-0.21c0.084-0.16,0.146-0.325,0.168-0.506
	c0.012-0.118-0.027-0.186-0.152-0.184c-0.2,0.013-0.4-0.037-0.6,0c-0.027,0.002-0.058,0-0.084,0c-0.423-0.044-0.591-0.2-0.566-0.633
	c0.008-0.135-0.025-0.164-0.144-0.09c-0.096,0.051-0.185,0.104-0.296,0.044c-0.036-0.015-0.067-0.002-0.083,0.034
	c-0.021,0.054-0.018,0.113,0.021,0.143c0.138,0.104,0.076,0.203,0.01,0.314c-0.066,0.114-0.153,0.116-0.206,0.03
	c-0.14-0.216-0.337-0.403-0.375-0.678c-0.016-0.111-0.066-0.183-0.186-0.2c-0.133-0.024-0.213-0.133-0.309-0.217
	c-0.105-0.085-0.214-0.16-0.332-0.224c-0.044-0.027-0.099-0.045-0.14-0.008c-0.056,0.048-0.021,0.111,0.011,0.153
	c0.114,0.15,0.237,0.297,0.418,0.371c0.139,0.06,0.235,0.164,0.336,0.271c0.03,0.028,0.061,0.104-0.001,0.09
	c-0.137-0.036-0.119,0.053-0.149,0.126c-0.05,0.121-0.157,0.203-0.257,0.281c-0.056,0.044-0.116,0.021-0.167-0.047
	c0.088-0.053,0.2-0.057,0.261-0.153c0.05-0.072,0.068-0.123-0.005-0.199c-0.145-0.16-0.298-0.294-0.51-0.366
	c-0.1-0.032-0.197-0.082-0.246-0.188c-0.043-0.095-0.11-0.131-0.217-0.147c-0.097-0.013-0.139-0.021-0.144,0.097
	c-0.001,0.118-0.113,0.108-0.179,0.089c-0.229-0.078-0.359,0.042-0.465,0.212c-0.036,0.064-0.09,0.098-0.155,0.121
	c-0.145,0.055-0.228,0.166-0.235,0.316c-0.008,0.107-0.061,0.177-0.143,0.232c-0.112,0.071-0.228,0.137-0.345,0.202
	c-0.073,0.039-0.648-0.077-0.699-0.14c-0.07-0.095-0.1-0.206-0.068-0.318c0.038-0.133,0.038-0.262,0.038-0.396
	c0-0.272,0.132-0.377,0.391-0.322c0.073,0.015,0.139,0.042,0.205,0.069c0.157,0.067,0.355,0.038,0.428-0.065
	c0.076-0.101,0.035-0.325-0.087-0.44c-0.062-0.059-0.134-0.109-0.208-0.175c0.102-0.069,0.215-0.004,0.297-0.063
	c-0.002-0.015-0.004-0.029-0.01-0.034c-0.054-0.055-0.184-0.051-0.168-0.137c0.018-0.102,0.136-0.057,0.214-0.064
	c0.206-0.025,0.413-0.047,0.542-0.248c0.041-0.063,0.105-0.111,0.194-0.113c0.046-0.004,0.093-0.03,0.098-0.077
	c0.019-0.15,0.126-0.183,0.247-0.203c0.011-0.005,0.022-0.006,0.032-0.008c0.134-0.018,0.185-0.197,0.297-0.194
	c0.11,0.002,0.212,0.075,0.338,0.014c0.109-0.05,0.232-0.026,0.332,0.051c0.059,0.045,0.124,0.077,0.185,0.026
	c0.12-0.091,0.258-0.089,0.397-0.089c0.186,0,0.26-0.062,0.291-0.251c0.017-0.081,0.021-0.152,0.142-0.127
	c0.161,0.037,0.23-0.022,0.181-0.181c-0.056-0.179-0.014-0.218,0.155-0.147c0.029,0.013,0.068,0.011,0.102,0
	c0.084-0.021,0.194-0.047,0.173-0.163c-0.017-0.106-0.12-0.09-0.206-0.075c-0.085,0.015-0.176,0.017-0.263,0.033
	c-0.095,0.015-0.145-0.033-0.195-0.104c-0.046-0.065-0.051-0.126,0-0.195c0.05-0.069,0.094-0.14,0.139-0.209
	c0.023-0.042,0.04-0.084,0.008-0.129c-0.031-0.038-0.073-0.044-0.119-0.035c-0.255,0.034-0.504,0.284-0.538,0.535
	c-0.005,0.042-0.001,0.078,0,0.118c0.001,0.086,0.123,0.133,0.052,0.242c-0.115,0.186-0.209,0.38-0.419,0.481
	c-0.12,0.059-0.283-0.003-0.327-0.135c-0.096-0.277-0.362-0.304-0.57-0.414c-0.072-0.04-0.102,0.073-0.177,0.09
	c-0.072-0.151-0.047-0.305,0-0.454c0.02-0.062,0.076-0.049,0.127-0.051c0.149-0.003,0.273-0.038,0.308-0.217
	c0.017-0.095,0.105-0.152,0.179-0.211c0.3-0.243,0.608-0.471,0.931-0.688c0.115-0.076,0.242-0.123,0.375-0.116
	c0.509,0.036,1.024,0.053,1.506,0.248c0.081,0.037,0.175,0.043,0.257,0.072c0.081,0.029,0.217,0.029,0.164,0.173
	c-0.046,0.127-0.156,0.151-0.275,0.093c-0.102-0.057-0.2-0.057-0.307-0.025c-0.12,0.032-0.143,0.083-0.043,0.165
	c0.107,0.088,0.216,0.174,0.324,0.262c0.101,0.079,0.167-0.003,0.233-0.056c0.209-0.169,0.412-0.344,0.674-0.426
	c0.146-0.05,0.3-0.084,0.433-0.17c0.058-0.037,0.126-0.041,0.195-0.02c0.239,0.065,0.463,0.067,0.668-0.107
	c0.102-0.089,0.199-0.078,0.325,0.015c0.212,0.156,0.458,0.257,0.732,0.156c0.093-0.032,0.179-0.074,0.034-0.186
	c-0.11-0.083-0.211-0.201-0.244-0.348c-0.027-0.1,0.008-0.146,0.113-0.155c0.28-0.019,0.516,0.199,0.544,0.498
	c0.003,0.058,0.001,0.114,0.005,0.169c0.005,0.065,0.04,0.116,0.109,0.129c0.068,0.011,0.137,0.011,0.188-0.047
	c0.045-0.049,0.016-0.103-0.008-0.151c-0.072-0.154-0.16-0.302-0.159-0.484c0.072,0.118,0.142,0.235,0.22,0.35
	c0.044,0.063,0.096,0.137,0.187,0.075c0.081-0.052,0.096-0.126,0.065-0.219c-0.105-0.313-0.097-0.299,0.22-0.398
	c0.217-0.063,0.442-0.034,0.661-0.085c0.146-0.031,0.276-0.088,0.381-0.193c0.076-0.074,0.151-0.107,0.267-0.093
	c0.131,0.017,0.265-0.009,0.397-0.021c0.195-0.021,0.388-0.056,0.569,0.054c0.051,0.03,0.124,0.014,0.183-0.002
	c0.075-0.019,0.155-0.022,0.231-0.01c0.064,0.012,0.146,0.017,0.175,0.084c0.03,0.071-0.057,0.097-0.091,0.146
	c-0.042,0.055-0.128,0.105-0.091,0.179c0.042,0.087,0.138,0.058,0.211,0.044c0.23-0.037,0.449-0.03,0.669,0.07
	c0.163,0.078,0.353,0.065,0.526,0.013c0.333-0.106,0.656-0.097,0.971,0.063c0.141,0.074,0.302,0.067,0.457,0.087
	c0.182,0.021,0.364,0.027,0.544,0.069c0.204,0.051,0.339-0.082,0.442-0.235c0.05-0.074,0.071-0.091,0.167-0.051
	c0.303,0.133,0.605,0.273,0.959,0.236c0.214-0.025,0.432-0.002,0.651-0.002c0.131-0.003,0.255,0.014,0.367,0.09
	c0.054,0.033,0.113,0.042,0.176,0.042c0.431,0.003,0.857,0.056,1.271,0.169c0.096,0.025,0.163,0.021,0.207-0.078
	c0.033-0.069,0.09-0.088,0.165-0.074c0.486,0.1,0.988,0.104,1.451,0.307c0.079,0.034,0.163,0.019,0.246,0.017
	c0.354-0.023,0.695,0,0.929,0.324c-0.029,0.06-0.08,0.043-0.119,0.032c-0.1-0.02-0.196-0.047-0.29-0.076
	c-0.243-0.073-0.483-0.175-0.692,0.105c0.146,0.082,0.305,0.169,0.461,0.26c0.039,0.021,0.112,0.023,0.099,0.093
	c-0.011,0.059-0.074,0.063-0.124,0.061c-0.136-0.015-0.219,0.056-0.291,0.156c-0.038,0.053-0.09,0.099-0.138,0.146
	c-0.03,0.031-0.06,0.082-0.107,0.067c-0.063-0.021-0.022-0.076-0.02-0.116c0.007-0.063,0.002-0.122-0.085-0.082
	c-0.109,0.051-0.219,0.109-0.322,0.175c-0.066,0.038-0.087,0.111-0.072,0.189c0.013,0.076,0.073,0.084,0.134,0.102
	c0.211,0.059,0.347,0.274,0.323,0.527c-0.014,0.147-0.03,0.297-0.032,0.444c-0.003,0.104-0.053,0.167-0.139,0.074
	c-0.149-0.167-0.389-0.257-0.434-0.515c-0.011-0.053-0.063-0.071-0.107-0.093c-0.277-0.149-0.34-0.419-0.158-0.67
	c0.061-0.08,0.054-0.324-0.025-0.389c-0.077-0.061-0.163-0.049-0.237,0.027c-0.07,0.072-0.146,0.096-0.238,0.034
	c-0.158-0.097-0.215-0.082-0.299,0.084c-0.02,0.038-0.026,0.086-0.032,0.131c-0.024,0.215-0.062,0.238-0.273,0.189
	c-0.259-0.065-0.53-0.069-0.789-0.137c-0.036-0.008-0.079,0-0.115,0.011c-0.306,0.084-0.533,0.487-0.452,0.795
	c0.041,0.147,0.172,0.14,0.282,0.147c0.133,0.015,0.268,0,0.403,0.002c0.19,0.005,0.308,0.102,0.442,0.246
	c0.226,0.238,0.26,0.487,0.247,0.793c-0.008,0.203-0.087,0.361-0.157,0.533c-0.036,0.087-0.115,0.078-0.186,0.076
	c-0.177-0.01-0.315,0.017-0.312,0.24c0.001,0.028-0.018,0.055-0.031,0.078c-0.156,0.282-0.145,0.325,0.128,0.511
	c0.093,0.059,0.187,0.122,0.276,0.188c0.096,0.07,0.116,0.152,0.045,0.258c-0.044,0.067-0.09,0.129-0.148,0.18
	c-0.065,0.057-0.136,0.075-0.217,0.044c-0.086-0.031-0.124-0.099-0.114-0.183c0.018-0.178-0.065-0.271-0.222-0.325
	c-0.097-0.029-0.142-0.104-0.167-0.207c-0.041-0.173-0.149-0.207-0.285-0.101c-0.099,0.079-0.158,0.057-0.199-0.051
	c-0.013-0.034-0.029-0.061-0.04-0.098c-0.064-0.179-0.118-0.202-0.253-0.059c-0.111,0.122-0.205,0.264-0.295,0.404
	c-0.07,0.11-0.032,0.181,0.095,0.158c0.167-0.021,0.332,0.046,0.497-0.008c0.062-0.021,0.085,0.017,0.063,0.074
	c-0.015,0.046-0.031,0.101-0.066,0.13c-0.135,0.125-0.084,0.238,0.006,0.348c0.075,0.093,0.142,0.19,0.231,0.265
	c0.2,0.162,0.283,0.383,0.335,0.619c0.044,0.211-0.069,0.384-0.165,0.545c-0.099,0.181-0.245,0.326-0.46,0.359
	c-0.244,0.04-0.396,0.184-0.501,0.395c-0.059,0.122-0.13,0.236-0.2,0.354c-0.018,0.03-0.036,0.074-0.085,0.059
	c-0.038-0.014-0.032-0.059-0.032-0.088c-0.003-0.074-0.006-0.147-0.002-0.221c0.008-0.154-0.082-0.229-0.216-0.28
	c-0.132-0.045-0.195,0.044-0.258,0.132c-0.012,0.017-0.025,0.038-0.039,0.06c-0.181,0.266-0.181,0.266,0.071,0.472
	c0.236,0.199,0.368,0.473,0.52,0.732c0.066,0.111-0.002,0.228-0.066,0.33c-0.092,0.138-0.205,0.26-0.343,0.358
	c-0.172,0.129-0.27,0.118-0.389-0.055c-0.134-0.2-0.342-0.333-0.464-0.541c-0.04-0.074-0.096-0.02-0.13,0.028
	c-0.065,0.092-0.058,0.196-0.058,0.306c0.001,0.134,0.016,0.269-0.054,0.405c-0.117-0.104-0.119-0.236-0.115-0.368
	c0.006-0.245,0.006-0.487-0.106-0.719c-0.056-0.123-0.109-0.197-0.242-0.081c-0.086,0.076-0.145,0.027-0.146-0.061
	c-0.014-0.178-0.085-0.292-0.244-0.382c-0.099-0.057-0.146-0.175-0.196-0.286c-0.121-0.271-0.372-0.42-0.656-0.396
	c-0.116,0.007-0.203,0.094-0.277,0.171c-0.19,0.202-0.4,0.376-0.632,0.536c-0.237,0.169-0.355,0.464-0.327,0.781
	c0.01,0.11,0.009,0.225,0.023,0.331c0.03,0.192-0.065,0.317-0.206,0.422c-0.16,0.118-0.265,0.091-0.331-0.097
	c-0.06-0.175-0.134-0.342-0.186-0.517c-0.078-0.28-0.224-0.522-0.332-0.782c-0.048-0.12-0.074-0.236-0.044-0.357
	c0.02-0.07,0.029-0.144-0.013-0.213c-0.057-0.096-0.093-0.211-0.249-0.093c-0.124,0.097-0.23,0.014-0.322-0.104
	c-0.17-0.215-0.376-0.398-0.616-0.537c-0.129-0.074-0.271-0.065-0.409-0.057C40.959,31,40.75,30.986,40.54,30.965
	c-0.113-0.009-0.218-0.063-0.281-0.139c-0.126-0.149-0.29-0.171-0.462-0.179c-0.372-0.018-0.619-0.243-0.851-0.496
	c-0.01-0.009-0.026-0.019-0.052-0.033c-0.06,0.103-0.024,0.2,0.011,0.293c0.063,0.171,0.131,0.339,0.194,0.517
	c0.11,0.312,0.507,0.383,0.729,0.13c0.065-0.074,0.104-0.204,0.206-0.204c0.112,0.005,0.083,0.149,0.126,0.228
	c0.088,0.153,0.206,0.262,0.354,0.348c0.081,0.044,0.146,0.107,0.063,0.192c-0.247,0.265-0.42,0.592-0.714,0.813
	c-0.105,0.078-0.212,0.148-0.334,0.19c-0.225,0.086-0.438,0.19-0.641,0.324c-0.1,0.067-0.217,0.088-0.331,0.107
	c-0.149,0.025-0.279-0.054-0.329-0.216c-0.083-0.275-0.14-0.557-0.334-0.777c-0.266-0.297-0.438-0.649-0.603-1.016
	c-0.083-0.18-0.236-0.333-0.362-0.498c-0.031-0.037-0.075-0.08-0.126-0.067c-0.086,0.017-0.158-0.013-0.271-0.078
	c0.063,0.122,0.104,0.198,0.146,0.272c0.198,0.364,0.33,0.757,0.5,1.133c0.125,0.256,0.261,0.498,0.465,0.707
	c0.222,0.226,0.421,0.477,0.487,0.802c0.025,0.124,0.102,0.162,0.221,0.144c0.202-0.041,0.407-0.06,0.613-0.03
	c0.118,0.019,0.215-0.04,0.324-0.069c0.088-0.015,0.141-0.015,0.115,0.104c-0.056,0.235-0.101,0.464-0.262,0.664
	c-0.162,0.191-0.26,0.442-0.442,0.604c-0.369,0.329-0.609,0.768-0.942,1.122c-0.173,0.188-0.207,0.386-0.128,0.634
	c0.104,0.321,0.186,0.649,0.179,0.996c-0.004,0.187-0.044,0.376-0.227,0.492c-0.216,0.136-0.408,0.298-0.542,0.513
	c-0.089,0.144-0.146,0.287-0.073,0.47c0.05,0.131,0.06,0.289-0.114,0.393c-0.203,0.118-0.281,0.34-0.376,0.535
	c-0.059,0.12-0.122,0.218-0.233,0.3c-0.113,0.087-0.214,0.196-0.308,0.301c-0.269,0.319-0.615,0.458-1.021,0.483
	c-0.022,0-0.044,0.004-0.066,0.011c-0.257,0.08-0.369,0.037-0.419-0.228c-0.06-0.318-0.17-0.591-0.393-0.827
	c-0.087-0.099-0.095-0.259-0.093-0.384c0.006-0.446-0.187-0.826-0.4-1.193c-0.154-0.259-0.11-0.486,0.021-0.719
	c0.075-0.139,0.185-0.271,0.17-0.427c-0.021-0.248,0.006-0.518-0.104-0.745c-0.151-0.32-0.235-0.686-0.545-0.921
	c-0.112-0.084-0.038-0.215,0-0.327c0.073-0.202,0.081-0.404-0.049-0.59c-0.08-0.115-0.193-0.167-0.328-0.154
	c-0.067,0.004-0.129,0.004-0.164-0.055c-0.192-0.329-0.493-0.278-0.784-0.211c-0.252,0.055-0.487,0.177-0.761,0.158
	c-0.114-0.011-0.211,0.107-0.343,0.118c-0.431,0.028-0.686-0.243-0.927-0.533c-0.088-0.108-0.143-0.238-0.216-0.358
	c-0.036-0.063-0.064-0.151-0.119-0.177c-0.249-0.125-0.285-0.359-0.33-0.593c-0.015-0.072,0.007-0.131,0.036-0.19
	c0.111-0.233,0.153-0.476,0.094-0.729c-0.079-0.338,0.107-0.604,0.261-0.869c0.164-0.28,0.401-0.508,0.663-0.704
	c0.084-0.063,0.133-0.124,0.128-0.249c-0.002-0.139,0.069-0.271,0.196-0.346c0.147-0.09,0.28-0.206,0.381-0.346
	c0.048-0.067,0.093-0.111,0.171-0.034c0.044,0.046,0.108,0.043,0.155,0.014c0.11-0.061,0.229-0.074,0.34-0.044
	c0.259,0.071,0.454-0.116,0.687-0.135c0.317-0.032,0.637-0.03,0.937-0.15c0.049-0.021,0.101-0.021,0.139,0.027
	c0.037,0.049,0.015,0.093-0.015,0.138c-0.046,0.075-0.067,0.162-0.068,0.252c-0.001,0.087,0.024,0.156,0.113,0.182
	c0.051,0.016,0.094,0.041,0.119,0.087c0.056,0.095,0.131,0.111,0.238,0.109c0.165,0,0.299,0.107,0.439,0.188
	c0.067,0.037,0.126,0.089,0.21,0.1C34.546,30.158,34.651,30.067,34.723,29.72z"/>
<path fill="none" stroke="#3D2877" stroke-miterlimit="10" d="M53.368,37.216c0.192,0.343,0.438,0.662,0.373,1.082
	c-0.011,0.067,0.014,0.103,0.072,0.128c0.119,0.058,0.172,0.16,0.209,0.287c0.053,0.17,0.126,0.332,0.326,0.39
	c0.053,0.015,0.08,0.057,0.092,0.107c0.058,0.274,0.058,0.535-0.028,0.808c-0.138,0.44-0.401,0.768-0.762,1.042
	c-0.06,0.046-0.111,0.109-0.159,0.168c-0.217,0.28-0.548,0.369-0.846,0.517c-0.044,0.025-0.081,0.004-0.119-0.025
	c-0.08-0.062-0.173-0.075-0.269-0.049c-0.189,0.045-0.351-0.067-0.351-0.259c0-0.112,0.001-0.213-0.07-0.316
	c-0.077-0.103,0.056-0.202,0.052-0.339c-0.119,0.059-0.224,0.118-0.328,0.174c-0.104,0.049-0.176,0.051-0.193-0.098
	c-0.022-0.181-0.254-0.336-0.433-0.307c-0.011,0.003-0.022,0.006-0.032,0.006c-0.269-0.026-0.507,0.066-0.751,0.157
	c-0.417,0.155-0.852,0.231-1.279,0.339c-0.063,0.017-0.133,0.019-0.199,0.009c-0.063-0.007-0.137-0.06-0.078-0.12
	c0.164-0.182,0.112-0.401,0.084-0.589c-0.054-0.339,0.056-0.656,0.055-0.981c-0.002-0.38,0.271-0.486,0.541-0.598
	c0.167-0.074,0.349-0.107,0.519-0.181c0.197-0.089,0.367-0.186,0.426-0.409c0.017-0.063,0.052-0.161,0.149-0.06
	c0.037,0.032,0.077,0.028,0.085-0.029c0.036-0.179,0.206-0.266,0.301-0.402c0.092-0.137,0.241-0.11,0.317,0.04
	c0.039,0.08,0.102,0.095,0.168,0.118c0.067,0.023,0.097,0.019,0.108-0.065c0.036-0.24,0.44-0.523,0.679-0.489
	c0.087,0.011,0.177,0.006,0.267,0.017c0.097,0.013,0.143,0.047,0.092,0.156c-0.054,0.113-0.126,0.253-0.047,0.363
	c0.104,0.145,0.253,0.253,0.415,0.332c0.11,0.056,0.276-0.04,0.344-0.162C53.23,37.741,53.315,37.491,53.368,37.216z"/>
<path fill-rule="evenodd" clip-rule="evenodd" fill="#FFFFFF" d="M24.273,24.39c0.002,0.098,0.067,0.16,0.09,0.236
	c0.009,0.042,0.029,0.08-0.002,0.116c-0.035,0.033-0.072,0.004-0.107-0.011c-0.051-0.02-0.101-0.062-0.149-0.003
	c-0.051,0.06-0.013,0.113,0.015,0.167c0.059,0.116,0.026,0.18-0.096,0.162c-0.25-0.03-0.469-0.146-0.67-0.286
	c-0.074-0.055-0.052-0.118,0.021-0.161c0.074-0.035,0.155-0.061,0.229-0.103c0.135-0.061,0.195-0.16,0.126-0.31
	c-0.026-0.059-0.047-0.124-0.068-0.19c-0.036-0.109-0.108-0.166-0.228-0.188c-0.126-0.019-0.248-0.065-0.371-0.097
	c-0.092-0.025-0.177-0.04-0.245,0.049c-0.04,0.052-0.093,0.105-0.149,0.042c-0.061-0.063-0.149-0.134-0.093-0.245
	c0.069-0.135,0.201-0.177,0.343-0.111c0.057,0.025,0.108,0.002,0.162-0.013c0.269-0.071,0.531-0.129,0.774,0.073
	c0.081,0.068,0.205,0.06,0.306,0.081c0.088,0.021,0.171,0.051,0.119,0.169c-0.03,0.064,0.01,0.103,0.051,0.141
	c0.062,0.067,0.134,0.122,0.164,0.211c0.029,0.091,0.076,0.18,0.006,0.27C24.431,24.48,24.36,24.364,24.273,24.39"/>
<path fill="none" stroke="#3D2877" stroke-miterlimit="10" d="M24.273,24.39c0.002,0.098,0.067,0.16,0.09,0.236
	c0.009,0.042,0.029,0.08-0.002,0.116c-0.035,0.033-0.072,0.004-0.107-0.011c-0.051-0.02-0.101-0.062-0.149-0.003
	c-0.051,0.06-0.013,0.113,0.015,0.167c0.059,0.116,0.026,0.18-0.096,0.162c-0.25-0.03-0.469-0.146-0.67-0.286
	c-0.074-0.055-0.052-0.118,0.021-0.161c0.074-0.035,0.155-0.061,0.229-0.103c0.135-0.061,0.195-0.16,0.126-0.31
	c-0.026-0.059-0.047-0.124-0.068-0.19c-0.036-0.109-0.108-0.166-0.228-0.188c-0.126-0.019-0.248-0.065-0.371-0.097
	c-0.092-0.025-0.177-0.04-0.245,0.049c-0.04,0.052-0.093,0.105-0.149,0.042c-0.061-0.063-0.149-0.134-0.093-0.245
	c0.069-0.135,0.201-0.177,0.343-0.111c0.057,0.025,0.108,0.002,0.162-0.013c0.269-0.071,0.531-0.129,0.774,0.073
	c0.081,0.068,0.205,0.06,0.306,0.081c0.088,0.021,0.171,0.051,0.119,0.169c-0.03,0.064,0.01,0.103,0.051,0.141
	c0.062,0.067,0.134,0.122,0.164,0.211c0.029,0.091,0.076,0.18,0.006,0.27C24.431,24.48,24.36,24.364,24.273,24.39z"/>
<path fill-rule="evenodd" clip-rule="evenodd" fill="#FFFFFF" d="M49.799,34.484c-0.005,0.025-0.009,0.077-0.032,0.117
	c-0.073,0.131-0.08,0.251-0.004,0.382c0.043,0.069-0.002,0.135-0.021,0.208c-0.047,0.194-0.24,0.296-0.276,0.496
	c-0.021,0.109-0.13,0.139-0.228,0.118c-0.129-0.023-0.256-0.036-0.382-0.023c-0.145,0.008-0.232-0.06-0.297-0.178
	c-0.064-0.121-0.12-0.25-0.13-0.392c-0.005-0.109,0.023-0.198,0.162-0.156c0.071,0.017,0.108,0.003,0.141-0.071
	c0.05-0.111,0.12-0.21,0.16-0.327c0.021-0.071,0.072-0.113,0.147-0.12c0.159-0.023,0.274-0.113,0.371-0.234
	c0.05-0.064,0.085-0.16,0.194-0.106C49.71,34.248,49.803,34.321,49.799,34.484"/>
<path fill="none" stroke="#3D2877" stroke-miterlimit="10" d="M49.799,34.484c-0.005,0.025-0.009,0.077-0.032,0.117
	c-0.073,0.131-0.08,0.251-0.004,0.382c0.043,0.069-0.002,0.135-0.021,0.208c-0.047,0.194-0.24,0.296-0.276,0.496
	c-0.021,0.109-0.13,0.139-0.228,0.118c-0.129-0.023-0.256-0.036-0.382-0.023c-0.145,0.008-0.232-0.06-0.297-0.178
	c-0.064-0.121-0.12-0.25-0.13-0.392c-0.005-0.109,0.023-0.198,0.162-0.156c0.071,0.017,0.108,0.003,0.141-0.071
	c0.05-0.111,0.12-0.21,0.16-0.327c0.021-0.071,0.072-0.113,0.147-0.12c0.159-0.023,0.274-0.113,0.371-0.234
	c0.05-0.064,0.085-0.16,0.194-0.106C49.71,34.248,49.803,34.321,49.799,34.484z"/>
<path fill-rule="evenodd" clip-rule="evenodd" fill="#FFFFFF" d="M39.139,37.373c0.099,0.186,0.122,0.325,0.092,0.481
	c-0.07,0.358-0.188,0.693-0.365,1.012c-0.059,0.104-0.062,0.225-0.07,0.34c-0.021,0.168-0.185,0.305-0.391,0.295
	c-0.163-0.009-0.2-0.15-0.215-0.273c-0.023-0.174-0.052-0.34,0.119-0.498c0.146-0.137,0.088-0.371,0.061-0.559
	c-0.021-0.131,0.008-0.191,0.131-0.242C38.752,37.814,39.037,37.73,39.139,37.373"/>
<path fill="none" stroke="#3D2877" stroke-miterlimit="10" d="M39.139,37.373c0.099,0.186,0.122,0.325,0.092,0.481
	c-0.07,0.358-0.188,0.693-0.365,1.012c-0.059,0.104-0.062,0.225-0.07,0.34c-0.021,0.168-0.185,0.305-0.391,0.295
	c-0.163-0.009-0.2-0.15-0.215-0.273c-0.023-0.174-0.052-0.34,0.119-0.498c0.146-0.137,0.088-0.371,0.061-0.559
	c-0.021-0.131,0.008-0.191,0.131-0.242C38.752,37.814,39.037,37.73,39.139,37.373z"/>
<path fill-rule="evenodd" clip-rule="evenodd" fill="#FFFFFF" d="M18.729,23.576c0.314-0.366,0.702-0.42,1.03-0.116
	c0.257,0.238,0.518,0.098,0.782,0.074c0.046-0.005,0.093-0.036,0.14-0.049c0.025-0.009,0.059-0.009,0.078,0.007
	c0.065,0.044-0.002,0.402-0.083,0.42c-0.216,0.037-0.418,0.197-0.658,0.064c-0.06-0.031-0.14,0-0.208,0.029
	c-0.131,0.058-0.266,0.038-0.395,0.016c-0.116-0.017-0.206-0.091-0.187-0.234c0.015-0.091-0.028-0.12-0.109-0.118
	C18.982,23.671,18.869,23.593,18.729,23.576"/>
<path fill="none" stroke="#3D2877" stroke-miterlimit="10" d="M18.729,23.576c0.314-0.366,0.702-0.42,1.03-0.116
	c0.257,0.238,0.518,0.098,0.782,0.074c0.046-0.005,0.093-0.036,0.14-0.049c0.025-0.009,0.059-0.009,0.078,0.007
	c0.065,0.044-0.002,0.402-0.083,0.42c-0.216,0.037-0.418,0.197-0.658,0.064c-0.06-0.031-0.14,0-0.208,0.029
	c-0.131,0.058-0.266,0.038-0.395,0.016c-0.116-0.017-0.206-0.091-0.187-0.234c0.015-0.091-0.028-0.12-0.109-0.118
	C18.982,23.671,18.869,23.593,18.729,23.576z"/>
<path fill-rule="evenodd" clip-rule="evenodd" fill="#FFFFFF" d="M46.383,34.396c0.159-0.002,0.267,0.057,0.34,0.182
	c0.102,0.17,0.228,0.299,0.433,0.345c0.097,0.02,0.155,0.107,0.205,0.184c0.171,0.249,0.347,0.493,0.487,0.757
	c0.042,0.08,0.059,0.156,0.037,0.245c-0.039,0.16-0.167,0.204-0.3,0.104c-0.071-0.046-0.119-0.12-0.163-0.189
	c-0.203-0.316-0.417-0.628-0.609-0.954C46.678,34.844,46.496,34.65,46.383,34.396"/>
<path fill="none" stroke="#3D2877" stroke-miterlimit="10" d="M46.383,34.396c0.159-0.002,0.267,0.057,0.34,0.182
	c0.102,0.17,0.228,0.299,0.433,0.345c0.097,0.02,0.155,0.107,0.205,0.184c0.171,0.249,0.347,0.493,0.487,0.757
	c0.042,0.08,0.059,0.156,0.037,0.245c-0.039,0.16-0.167,0.204-0.3,0.104c-0.071-0.046-0.119-0.12-0.163-0.189
	c-0.203-0.316-0.417-0.628-0.609-0.954C46.678,34.844,46.496,34.65,46.383,34.396z"/>
<rect x="9.083" y="8.75" fill="none" stroke="#3E2779" stroke-miterlimit="10" width="48.572" height="48.571"/>
</svg>
