<?xml version="1.0" encoding="utf-8"?>
<!-- Generator: Adobe Illustrator 16.0.0, SVG Export Plug-In . SVG Version: 6.00 Build 0)  -->
<!DOCTYPE svg PUBLIC "-//W3C//DTD SVG 1.1//EN" "http://www.w3.org/Graphics/SVG/1.1/DTD/svg11.dtd">
<svg version="1.1" id="Ebene_1" xmlns="http://www.w3.org/2000/svg" xmlns:xlink="http://www.w3.org/1999/xlink" x="0px" y="0px"
	 width="67.667px" height="67.666px" viewBox="0 0 67.667 67.666" enable-background="new 0 0 67.667 67.666" xml:space="preserve">
<g>
	<defs>
		<polygon id="SVGID_7_" points="351.083,-570.601 891.083,-569.144 891.083,72 351.083,70.543 		"/>
	</defs>
	<clipPath id="SVGID_2_">
		<use xlink:href="#SVGID_7_"  overflow="visible"/>
	</clipPath>
</g>
<g>
	<defs>
		<polygon id="SVGID_9_" points="351.083,-570.601 891.083,-569.144 891.083,72 351.083,70.543 		"/>
	</defs>
	<clipPath id="SVGID_4_">
		<use xlink:href="#SVGID_9_"  overflow="visible"/>
	</clipPath>
</g>
<line fill="none" x1="0.083" y1="20.144" x2="0.083" y2="-621"/>
<line fill="none" x1="0.083" y1="20.144" x2="0.083" y2="-621"/>
<line fill="none" x1="0.083" y1="20.144" x2="0.083" y2="-621"/>
<line fill="none" x1="0.083" y1="20.144" x2="0.083" y2="-621"/>
<line fill="none" x1="0.083" y1="20.144" x2="0.083" y2="-621"/>
<line fill="none" x1="0.083" y1="20.144" x2="0.083" y2="-621"/>
<line fill="none" x1="0.083" y1="20.144" x2="0.083" y2="-621"/>
<line fill="none" x1="0.083" y1="20.144" x2="0.083" y2="-621"/>
<line fill="none" x1="0.083" y1="20.144" x2="0.083" y2="-621"/>
<line fill="none" x1="0.083" y1="20.144" x2="0.083" y2="-621"/>
<line fill="none" x1="0.083" y1="20.144" x2="0.083" y2="-621"/>
<line fill="none" x1="0.083" y1="20.144" x2="0.083" y2="-621"/>
<line fill="none" x1="0.083" y1="20.144" x2="0.083" y2="-621"/>
<line fill="none" x1="0.083" y1="20.144" x2="0.083" y2="-621"/>
<line fill="none" x1="0.083" y1="20.144" x2="0.083" y2="-621"/>
<polyline fill="none" stroke="#52702A" stroke-miterlimit="10" points="32.312,35.459 32.312,22.44 45.329,22.44 "/>
<polygon fill="#52702A" points="43.057,31.195 43.057,35.459 32.312,35.459 32.312,22.44 45.329,22.44 45.329,33.688 "/>
<rect x="9.083" y="9" fill="none" stroke="#52702A" stroke-miterlimit="10" width="48.571" height="48.571"/>
<g>
	<rect x="22.019" y="39.655" fill-rule="evenodd" clip-rule="evenodd" fill="#52702A" width="0.537" height="0.71"/>
	<rect x="22.019" y="40.929" fill-rule="evenodd" clip-rule="evenodd" fill="#52702A" width="0.537" height="0.709"/>
	<rect x="22.019" y="42.196" fill-rule="evenodd" clip-rule="evenodd" fill="#52702A" width="0.537" height="0.71"/>
	<rect x="22.019" y="35.835" fill-rule="evenodd" clip-rule="evenodd" fill="#52702A" width="0.537" height="0.709"/>
	<rect x="22.019" y="37.106" fill-rule="evenodd" clip-rule="evenodd" fill="#52702A" width="0.537" height="0.709"/>
	<rect x="22.019" y="38.375" fill-rule="evenodd" clip-rule="evenodd" fill="#52702A" width="0.537" height="0.708"/>
	<rect x="27.726" y="32.675" fill-rule="evenodd" clip-rule="evenodd" fill="#52702A" width="0.709" height="0.537"/>
	<rect x="26.453" y="32.675" fill-rule="evenodd" clip-rule="evenodd" fill="#52702A" width="0.709" height="0.537"/>
	<rect x="25.186" y="32.675" fill-rule="evenodd" clip-rule="evenodd" fill="#52702A" width="0.709" height="0.537"/>
	<rect x="31.547" y="32.675" fill-rule="evenodd" clip-rule="evenodd" fill="#52702A" width="0.71" height="0.537"/>
	<rect x="30.276" y="32.675" fill-rule="evenodd" clip-rule="evenodd" fill="#52702A" width="0.709" height="0.537"/>
	<rect x="29.008" y="32.675" fill-rule="evenodd" clip-rule="evenodd" fill="#52702A" width="0.709" height="0.537"/>
	<rect x="34.879" y="38.383" fill-rule="evenodd" clip-rule="evenodd" fill="#52702A" width="0.537" height="0.708"/>
	<rect x="34.879" y="37.109" fill-rule="evenodd" clip-rule="evenodd" fill="#52702A" width="0.537" height="0.71"/>
	<rect x="34.879" y="35.841" fill-rule="evenodd" clip-rule="evenodd" fill="#52702A" width="0.537" height="0.709"/>
	<rect x="34.879" y="42.203" fill-rule="evenodd" clip-rule="evenodd" fill="#52702A" width="0.537" height="0.71"/>
	<rect x="34.879" y="40.932" fill-rule="evenodd" clip-rule="evenodd" fill="#52702A" width="0.537" height="0.709"/>
	<rect x="34.879" y="39.664" fill-rule="evenodd" clip-rule="evenodd" fill="#52702A" width="0.537" height="0.709"/>
	<rect x="29.001" y="45.535" fill-rule="evenodd" clip-rule="evenodd" fill="#52702A" width="0.708" height="0.538"/>
	<rect x="30.271" y="45.535" fill-rule="evenodd" clip-rule="evenodd" fill="#52702A" width="0.711" height="0.538"/>
	<rect x="31.541" y="45.535" fill-rule="evenodd" clip-rule="evenodd" fill="#52702A" width="0.709" height="0.538"/>
	<rect x="25.178" y="45.535" fill-rule="evenodd" clip-rule="evenodd" fill="#52702A" width="0.71" height="0.538"/>
	<rect x="26.45" y="45.535" fill-rule="evenodd" clip-rule="evenodd" fill="#52702A" width="0.709" height="0.538"/>
	<rect x="27.718" y="45.535" fill-rule="evenodd" clip-rule="evenodd" fill="#52702A" width="0.71" height="0.538"/>
	<rect x="21.98" y="34.286" fill-rule="evenodd" clip-rule="evenodd" fill="#52702A" width="0.54" height="0.896"/>
	<polygon fill-rule="evenodd" clip-rule="evenodd" fill="#52702A" points="21.98,32.675 21.98,33.569 22.521,33.569 22.521,33.212 
		22.877,33.212 22.877,32.675 	"/>
	<rect x="23.593" y="32.675" fill-rule="evenodd" clip-rule="evenodd" fill="#52702A" width="0.896" height="0.537"/>
	<rect x="32.908" y="32.637" fill-rule="evenodd" clip-rule="evenodd" fill="#52702A" width="0.896" height="0.54"/>
	<polygon fill-rule="evenodd" clip-rule="evenodd" fill="#52702A" points="35.417,32.637 34.521,32.637 34.521,33.177 34.88,33.177 
		34.88,33.531 35.417,33.531 	"/>
	<rect x="34.88" y="34.249" fill-rule="evenodd" clip-rule="evenodd" fill="#52702A" width="0.537" height="0.896"/>
	<rect x="34.915" y="43.564" fill-rule="evenodd" clip-rule="evenodd" fill="#52702A" width="0.539" height="0.896"/>
	<polygon fill-rule="evenodd" clip-rule="evenodd" fill="#52702A" points="35.454,46.073 35.454,45.178 34.915,45.178 
		34.915,45.536 34.559,45.536 34.559,46.073 	"/>
	<rect x="32.947" y="45.536" fill-rule="evenodd" clip-rule="evenodd" fill="#52702A" width="0.895" height="0.537"/>
	<rect x="23.629" y="45.57" fill-rule="evenodd" clip-rule="evenodd" fill="#52702A" width="0.897" height="0.54"/>
	<polygon fill-rule="evenodd" clip-rule="evenodd" fill="#52702A" points="22.018,46.11 22.913,46.11 22.913,45.57 22.555,45.57 
		22.555,45.215 22.018,45.215 	"/>
	<rect x="22.018" y="43.603" fill-rule="evenodd" clip-rule="evenodd" fill="#52702A" width="0.537" height="0.896"/>
</g>
<polygon fill="none" stroke="#52702A" stroke-miterlimit="10" points="49.689,37.93 43.057,31.195 43.624,40.63 45.409,38.572 
	46.947,42.027 48.504,41.334 46.967,37.88 "/>
<polygon fill="none" stroke="#52702A" stroke-miterlimit="10" points="49.689,37.93 43.057,31.195 43.624,40.63 45.409,38.572 
	46.947,42.027 48.504,41.334 46.967,37.88 "/>
</svg>
