<svg xmlns="http://www.w3.org/2000/svg" width="67.67" height="67.67">
  <path fill="#52702A" d="M42.71 27.58h12.08v11.4H42.71zM11.95 27.72h3.12v3.12h-3.12zM16 27.72h3.12v3.12H16zM11.95 31.73h3.12v3.12h-3.12zM16 31.73h3.12v3.12H16zM11.95 35.71h3.12v3.12h-3.12zM16 35.71h3.12v3.12H16zM20.05 27.74h3.12v3.12h-3.12zM20.05 31.74h3.12v3.12h-3.12zM20.05 35.73h3.12v3.12h-3.12zM37.66 33.28H28.2"/>
  <path fill="none" stroke="#52702A" stroke-miterlimit="10" d="M34.82 33.28H28.2"/>
  <path fill="#52702A" d="M34.38 36.56v-6.55l3.27 3.27z"/>
  <path fill="none" stroke="#52702A" stroke-miterlimit="10" d="M9.08 9h48.57v48.57H9.08z"/>
</svg>