<?xml version="1.0" encoding="utf-8"?>
<!-- Generator: Adobe Illustrator 16.0.0, SVG Export Plug-In . SVG Version: 6.00 Build 0)  -->
<!DOCTYPE svg PUBLIC "-//W3C//DTD SVG 1.1//EN" "http://www.w3.org/Graphics/SVG/1.1/DTD/svg11.dtd">
<svg version="1.1" id="Ebene_1" xmlns="http://www.w3.org/2000/svg" xmlns:xlink="http://www.w3.org/1999/xlink" x="0px" y="0px"
	 width="67.667px" height="67.667px" viewBox="0 0 67.667 67.667" enable-background="new 0 0 67.667 67.667" xml:space="preserve">
<g>
	<defs>
		<polygon id="SVGID_7_" points="188.833,59.399 728.833,60.856 728.833,702 188.833,700.543 		"/>
	</defs>
	<clipPath id="SVGID_2_">
		<use xlink:href="#SVGID_7_"  overflow="visible"/>
	</clipPath>
</g>
<g>
	<defs>
		<polygon id="SVGID_9_" points="188.833,59.399 728.833,60.856 728.833,702 188.833,700.543 		"/>
	</defs>
	<clipPath id="SVGID_4_">
		<use xlink:href="#SVGID_9_"  overflow="visible"/>
	</clipPath>
</g>
<path fill="#236666" d="M34.568,28.543c0.154-2.936,0.439-5.927,0.244-8.819c-4.821,1.125-8.6,4.484-9.811,8.741
	C28.189,28.6,31.377,28.605,34.568,28.543"/>
<path fill="none" stroke="#236666" stroke-width="0.25" stroke-miterlimit="10" d="M34.568,28.543
	c0.154-2.936,0.439-5.927,0.244-8.819c-4.821,1.125-8.6,4.484-9.811,8.741C28.189,28.6,31.377,28.605,34.568,28.543z"/>
<path fill="#236666" d="M17.264,29.41c2.602,8.378,9,14.945,17.063,17.439V29.568C28.639,29.698,22.949,29.684,17.264,29.41"/>
<path fill="none" stroke="#37A5A2" stroke-width="0.25" stroke-miterlimit="10" d="M17.264,29.41
	c2.602,8.378,9,14.945,17.063,17.439V29.568C28.639,29.698,22.949,29.684,17.264,29.41z"/>
<path fill="#236666" d="M35.537,28.189c2-0.085,3.997-0.183,5.998-0.252c-0.833-2.713-3.065-4.837-5.89-5.59
	C35.771,24.258,35.644,26.237,35.537,28.189"/>
<path fill="none" stroke="#37A5A2" stroke-width="0.25" stroke-miterlimit="10" d="M35.537,28.189c2-0.085,3.997-0.183,5.998-0.252
	c-0.833-2.713-3.065-4.837-5.89-5.59C35.771,24.258,35.644,26.237,35.537,28.189z"/>
<path fill="#236666" d="M35.537,29.28v13.96c6.503-1.798,11.654-7.42,13.436-14.615C44.494,28.799,40.015,29.056,35.537,29.28"/>
<path fill="none" stroke="#236666" stroke-width="0.25" stroke-miterlimit="10" d="M35.537,29.28v13.96
	c6.503-1.798,11.654-7.42,13.436-14.615C44.494,28.799,40.015,29.056,35.537,29.28z"/>
<rect x="8.833" y="9" fill="none" stroke="#236666" stroke-miterlimit="10" width="48.571" height="48.572"/>
</svg>
