<svg xmlns="http://www.w3.org/2000/svg" width="68" height="68">
  <path fill="#236666" d="M19.072 25.105h2.651l5.327 16.362h-2.334l-1.179-3.897h-6.322l-1.224 3.897h-2.106l5.187-16.362zm1.27 1.926h-.045l-2.562 8.726h5.236l-2.629-8.726zM29.432 41.468V25.105h5.327c2.267 0 3.035.77 3.648 1.677.565.884.657 1.858.657 2.176 0 2.039-.702 3.399-2.81 3.875v.113c2.334.271 3.354 1.677 3.354 3.921 0 4.192-3.059 4.601-4.917 4.601h-5.259zm2.085-9.474h3.037c1.632-.021 2.425-1.019 2.425-2.606 0-1.359-.769-2.47-2.516-2.47h-2.946v5.076zm0 7.661h2.946c2.222 0 3.015-1.587 3.015-2.787 0-2.606-1.61-3.06-3.739-3.06h-2.222v5.847zM50.285 29.616c.023-.929-.046-1.86-.476-2.38-.43-.521-1.406-.701-1.837-.701-1.721 0-2.401 1.04-2.47 1.268-.068.182-.475.589-.475 3.4v4.374c0 4.012 1.314 4.487 2.923 4.487.635 0 2.561-.227 2.583-3.423h2.154c.09 5.166-3.558 5.166-4.625 5.166-2.038 0-5.167-.134-5.167-6.479v-4.623c0-4.623 2.042-5.938 5.258-5.938 3.241 0 4.489 1.678 4.284 4.851h-2.152z"/>
  <path fill="none" stroke="#236666" stroke-miterlimit="10" d="M9 9h48.571v48.572H9z"/>
</svg>