<?xml version="1.0" encoding="utf-8"?>
<!-- Generator: Adobe Illustrator 16.0.0, SVG Export Plug-In . SVG Version: 6.00 Build 0)  -->
<!DOCTYPE svg PUBLIC "-//W3C//DTD SVG 1.1//EN" "http://www.w3.org/Graphics/SVG/1.1/DTD/svg11.dtd">
<svg version="1.1" id="Ebene_1" xmlns="http://www.w3.org/2000/svg" xmlns:xlink="http://www.w3.org/1999/xlink" x="0px" y="0px"
	 width="67.667px" height="67.667px" viewBox="0 0 67.667 67.667" enable-background="new 0 0 67.667 67.667" xml:space="preserve">
<g>
	<defs>
		<polygon id="SVGID_7_" points="431.833,-210.601 971.833,-209.144 971.833,432 431.833,430.543 		"/>
	</defs>
	<clipPath id="SVGID_2_">
		<use xlink:href="#SVGID_7_"  overflow="visible"/>
	</clipPath>
</g>
<g>
	<defs>
		<polygon id="SVGID_9_" points="431.833,-210.601 971.833,-209.144 971.833,432 431.833,430.543 		"/>
	</defs>
	<clipPath id="SVGID_4_">
		<use xlink:href="#SVGID_9_"  overflow="visible"/>
	</clipPath>
</g>
<rect x="8.833" y="9" fill="none" stroke="#3E2779" stroke-miterlimit="10" width="48.571" height="48.571"/>
<rect x="14.924" y="26.547" fill="#3D2877" width="7.834" height="5.642"/>
<rect x="24.325" y="26.547" fill="#3D2877" width="7.834" height="5.642"/>
<rect x="33.767" y="26.547" fill="#3D2877" width="7.833" height="5.642"/>
<rect x="43.479" y="26.547" fill="#3D2877" width="7.835" height="5.642"/>
<rect x="14.924" y="34.381" fill="#3D2877" width="7.834" height="5.642"/>
<rect x="24.325" y="34.381" fill="#3D2877" width="7.834" height="5.642"/>
<rect x="33.767" y="34.381" fill="#3D2877" width="7.833" height="5.642"/>
<rect x="43.479" y="34.381" fill="#3D2877" width="7.835" height="5.642"/>
<rect x="14.924" y="42.218" fill="#3D2877" width="7.834" height="5.639"/>
<rect x="24.325" y="42.218" fill="#3D2877" width="7.834" height="5.639"/>
<rect x="33.767" y="42.218" fill="#3D2877" width="7.833" height="5.639"/>
<rect x="43.479" y="42.218" fill="#3D2877" width="7.835" height="5.639"/>
<rect x="14.924" y="18.714" fill="#3D2877" width="7.834" height="5.641"/>
<rect x="24.325" y="18.714" fill="#3D2877" width="7.834" height="5.641"/>
<rect x="33.767" y="18.714" fill="#3D2877" width="7.833" height="5.641"/>
<rect x="43.479" y="18.714" fill="#3D2877" width="7.835" height="5.641"/>
</svg>
