<?xml version="1.0" encoding="utf-8"?>
<!-- Generator: Adobe Illustrator 16.0.0, SVG Export Plug-In . SVG Version: 6.00 Build 0)  -->
<!DOCTYPE svg PUBLIC "-//W3C//DTD SVG 1.1//EN" "http://www.w3.org/Graphics/SVG/1.1/DTD/svg11.dtd">
<svg version="1.1" id="Ebene_1" xmlns="http://www.w3.org/2000/svg" xmlns:xlink="http://www.w3.org/1999/xlink" x="0px" y="0px"
	 width="67.667px" height="67.666px" viewBox="0 0 67.667 67.666" enable-background="new 0 0 67.667 67.666" xml:space="preserve">
<g>
	<defs>
		<polygon id="SVGID_7_" points="189.083,-570.601 729.083,-569.144 729.083,72 189.083,70.543 		"/>
	</defs>
	<clipPath id="SVGID_2_">
		<use xlink:href="#SVGID_7_"  overflow="visible"/>
	</clipPath>
</g>
<g>
	<defs>
		<polygon id="SVGID_9_" points="189.083,-570.601 729.083,-569.144 729.083,72 189.083,70.543 		"/>
	</defs>
	<clipPath id="SVGID_4_">
		<use xlink:href="#SVGID_9_"  overflow="visible"/>
	</clipPath>
</g>
<path fill="#52702A" d="M44.42,28.762c0.732-0.021,1.34,0.551,1.362,1.273c0.019,0.722-0.556,1.326-1.289,1.348
	c-0.728,0.021-1.337-0.552-1.356-1.275C43.115,29.387,43.692,28.782,44.42,28.762"/>
<path fill="none" stroke="#52702A" stroke-width="2" stroke-miterlimit="10" d="M44.42,28.762c0.732-0.021,1.34,0.551,1.362,1.273
	c0.019,0.722-0.556,1.326-1.289,1.348c-0.728,0.021-1.337-0.552-1.356-1.275C43.115,29.387,43.692,28.782,44.42,28.762z"/>
<path fill="#52702A" d="M51.367,30.957c1.014-0.03,1.861,0.765,1.889,1.771c0.028,1.003-0.771,1.842-1.786,1.87
	c-1.014,0.028-1.859-0.765-1.887-1.769C49.554,31.825,50.355,30.985,51.367,30.957"/>
<path fill="none" stroke="#52702A" stroke-width="2" stroke-miterlimit="10" d="M51.367,30.957c1.014-0.03,1.861,0.765,1.889,1.771
	c0.028,1.003-0.771,1.842-1.786,1.87c-1.014,0.028-1.859-0.765-1.887-1.769C49.554,31.825,50.355,30.985,51.367,30.957z"/>
<line fill="#52702A" x1="39.387" y1="31.202" x2="30.011" y2="31.202"/>
<line fill="none" stroke="#52702A" stroke-miterlimit="10" x1="36.549" y1="31.202" x2="30.011" y2="31.202"/>
<polygon fill="#52702A" points="36.11,34.48 36.11,27.924 39.387,31.202 "/>
<path fill="#52702A" d="M15.676,27.089c0.732-0.021,1.34,0.551,1.362,1.273c0.019,0.721-0.556,1.326-1.289,1.348
	c-0.728,0.021-1.337-0.552-1.357-1.275C14.37,27.714,14.948,27.109,15.676,27.089"/>
<path fill="none" stroke="#52702A" stroke-width="2" stroke-miterlimit="10" d="M15.676,27.089c0.732-0.021,1.34,0.551,1.362,1.273
	c0.019,0.721-0.556,1.326-1.289,1.348c-0.728,0.021-1.337-0.552-1.357-1.275C14.37,27.714,14.948,27.109,15.676,27.089z"/>
<path fill="#52702A" d="M16.855,34.599c1.358-0.038,2.49,1.025,2.526,2.372c0.038,1.351-1.033,2.473-2.391,2.51
	c-1.362,0.039-2.496-1.021-2.534-2.371C14.419,35.762,15.493,34.638,16.855,34.599"/>
<path fill="none" stroke="#52702A" stroke-width="2" stroke-miterlimit="10" d="M16.855,34.599c1.358-0.038,2.49,1.025,2.526,2.372
	c0.038,1.351-1.033,2.473-2.391,2.51c-1.362,0.039-2.496-1.021-2.534-2.371C14.419,35.762,15.493,34.638,16.855,34.599z"/>
<path fill="#52702A" d="M22.623,29.284c1.015-0.03,1.861,0.765,1.889,1.771c0.028,1.003-0.771,1.841-1.787,1.87
	c-1.013,0.028-1.858-0.765-1.886-1.769C20.809,30.153,21.61,29.313,22.623,29.284"/>
<path fill="none" stroke="#52702A" stroke-width="2" stroke-miterlimit="10" d="M22.623,29.284c1.015-0.03,1.861,0.765,1.889,1.771
	c0.028,1.003-0.771,1.841-1.787,1.87c-1.013,0.028-1.858-0.765-1.886-1.769C20.809,30.153,21.61,29.313,22.623,29.284z"/>
<rect x="9.083" y="9" fill="none" stroke="#52702A" stroke-miterlimit="10" width="48.571" height="48.571"/>
</svg>
