<?xml version="1.0" encoding="utf-8"?>
<!-- Generator: Adobe Illustrator 16.0.0, SVG Export Plug-In . SVG Version: 6.00 Build 0)  -->
<!DOCTYPE svg PUBLIC "-//W3C//DTD SVG 1.1//EN" "http://www.w3.org/Graphics/SVG/1.1/DTD/svg11.dtd">
<svg version="1.1" id="Ebene_1" xmlns="http://www.w3.org/2000/svg" xmlns:xlink="http://www.w3.org/1999/xlink" x="0px" y="0px"
	 width="67.667px" height="67.667px" viewBox="0 0 67.667 67.667" enable-background="new 0 0 67.667 67.667" xml:space="preserve">
<g>
	<defs>
		<polygon id="SVGID_7_" points="270.333,-120.601 810.333,-119.144 810.333,522 270.333,520.543 		"/>
	</defs>
	<clipPath id="SVGID_2_">
		<use xlink:href="#SVGID_7_"  overflow="visible"/>
	</clipPath>
</g>
<g>
	<defs>
		<polygon id="SVGID_9_" points="270.333,-120.601 810.333,-119.144 810.333,522 270.333,520.543 		"/>
	</defs>
	<clipPath id="SVGID_4_">
		<use xlink:href="#SVGID_9_"  overflow="visible"/>
	</clipPath>
</g>
<rect x="9.333" y="9" fill="none" stroke="#B22D2B" stroke-miterlimit="10" width="48.571" height="48.571"/>
<circle fill="none" stroke="#B32D2B" stroke-miterlimit="10" cx="33.819" cy="32.954" r="17.68"/>
<path fill="none" stroke="#B32D2B" stroke-miterlimit="10" d="M33.819,50.633c-5.043,0-9.132-7.915-9.132-17.68
	c0-9.763,4.089-17.679,9.132-17.679"/>
<path fill="none" stroke="#B32D2B" stroke-miterlimit="10" d="M51.499,32.954c0,5.045-7.915,9.131-17.68,9.131
	s-17.68-4.086-17.68-9.131"/>
<g>
	<g>
		<path fill="#B32D2B" d="M16.887,32.577l-0.609-0.323c0,0-0.013,0.031-0.036,0.084c-0.026,0.052-0.058,0.131-0.091,0.226
			c-0.032,0.094-0.071,0.207-0.112,0.325c-0.031,0.122-0.064,0.252-0.099,0.382c-0.052,0.262-0.101,0.528-0.107,0.729
			c-0.012,0.2-0.021,0.334-0.021,0.334l0.657,0.175c0,0,0.005-0.124,0.014-0.31c0.005-0.188,0.049-0.435,0.097-0.677
			c0.029-0.123,0.059-0.242,0.087-0.355c0.039-0.11,0.074-0.214,0.104-0.303c0.029-0.088,0.057-0.16,0.081-0.208
			C16.874,32.605,16.887,32.577,16.887,32.577"/>
		<path fill="#B32D2B" d="M18.642,30.216l-0.467-0.509c0,0-0.399,0.357-0.749,0.77c-0.185,0.198-0.336,0.419-0.46,0.577
			c-0.113,0.168-0.188,0.279-0.188,0.279l0.571,0.389c0,0,0.069-0.104,0.172-0.26c0.116-0.145,0.257-0.353,0.427-0.533
			C18.269,30.551,18.642,30.216,18.642,30.216"/>
		<path fill="#B32D2B" d="M21.088,28.493l-0.333-0.604c0.001,0-0.464,0.253-0.909,0.541c-0.222,0.145-0.443,0.291-0.603,0.412
			c-0.162,0.116-0.269,0.195-0.269,0.195l0.418,0.549c0,0,0.103-0.074,0.256-0.185c0.149-0.115,0.359-0.253,0.571-0.391
			C20.645,28.736,21.088,28.493,21.088,28.493"/>
		<path fill="#B32D2B" d="M23.851,27.259l-0.232-0.649c0,0-0.497,0.174-0.981,0.378c-0.485,0.201-0.962,0.428-0.962,0.428
			l0.298,0.624c0,0,0.459-0.218,0.93-0.413C23.37,27.428,23.851,27.259,23.851,27.259"/>
		<path fill="#B32D2B" d="M26.771,26.412l-0.152-0.673c0,0-0.513,0.111-1.018,0.252c-0.255,0.064-0.506,0.14-0.694,0.197
			c-0.188,0.056-0.314,0.094-0.314,0.094l0.205,0.659c0,0,0.123-0.036,0.306-0.091c0.184-0.055,0.429-0.129,0.676-0.191
			C26.272,26.521,26.771,26.412,26.771,26.412"/>
		<path fill="#B32D2B" d="M29.773,25.891l-0.083-0.685c0,0-0.13,0.015-0.324,0.038c-0.194,0.03-0.454,0.066-0.713,0.105
			c-0.517,0.082-1.032,0.177-1.032,0.177l0.131,0.679c0,0,0.502-0.094,1.008-0.175c0.254-0.036,0.507-0.074,0.696-0.102
			L29.773,25.891z"/>
		<path fill="#B32D2B" d="M32.815,25.662l-0.02-0.69c0,0-0.522,0.015-1.045,0.048c-0.522,0.029-1.044,0.079-1.044,0.079l0.063,0.688
			c0,0,0.511-0.047,1.022-0.077C32.303,25.676,32.815,25.662,32.815,25.662"/>
		<path fill="#B32D2B" d="M35.868,25.709l0.041-0.689c0,0-0.13-0.008-0.326-0.02c-0.195-0.007-0.457-0.018-0.717-0.028
			c-0.524-0.009-1.047-0.017-1.047-0.017v0.69c0,0,0.513,0.008,1.025,0.017c0.255,0.01,0.511,0.021,0.704,0.027
			C35.741,25.702,35.868,25.709,35.868,25.709"/>
		<path fill="#B32D2B" d="M38.901,26.034l0.105-0.682c0,0-0.129-0.019-0.323-0.047c-0.194-0.028-0.452-0.067-0.712-0.095
			c-0.521-0.067-1.041-0.112-1.041-0.112l-0.063,0.688c0,0,0.511,0.043,1.019,0.108c0.254,0.027,0.508,0.065,0.698,0.095
			C38.774,26.017,38.901,26.034,38.901,26.034"/>
		<path fill="#B32D2B" d="M41.88,26.663l0.181-0.667c0,0-0.506-0.14-1.019-0.253c-0.255-0.062-0.512-0.111-0.703-0.152
			c-0.193-0.039-0.32-0.065-0.32-0.065l-0.131,0.679c0,0,0.127,0.025,0.314,0.063s0.438,0.087,0.687,0.149
			C41.388,26.527,41.88,26.663,41.88,26.663"/>
		<path fill="#B32D2B" d="M44.758,27.635l0.266-0.639c0,0-0.485-0.206-0.981-0.378c-0.493-0.18-0.994-0.336-0.994-0.336
			l-0.206,0.659c0,0,0.488,0.153,0.967,0.327C44.289,27.437,44.758,27.635,44.758,27.635"/>
		<path fill="#B32D2B" d="M47.437,29.022l0.374-0.58c0,0-0.444-0.289-0.907-0.543c-0.461-0.259-0.938-0.484-0.938-0.484l-0.3,0.624
			c0,0,0.461,0.216,0.903,0.464C47.014,28.747,47.437,29.022,47.437,29.022"/>
		<path fill="#B32D2B" d="M49.704,30.945l0.524-0.451l-0.222-0.253c-0.144-0.141-0.325-0.34-0.525-0.517
			c-0.197-0.181-0.398-0.357-0.557-0.479c-0.156-0.125-0.261-0.208-0.261-0.208l-0.418,0.549c0,0,0.097,0.078,0.245,0.196
			c0.15,0.115,0.338,0.28,0.521,0.448c0.188,0.166,0.354,0.351,0.488,0.48C49.624,30.851,49.704,30.945,49.704,30.945"/>
		<path fill="#B32D2B" d="M51.042,33.489l0.676-0.144c0,0-0.112-0.545-0.336-1.047c-0.209-0.509-0.518-0.96-0.518-0.96l-0.579,0.375
			c0,0,0.278,0.408,0.461,0.858C50.945,33.016,51.042,33.489,51.042,33.489"/>
		<path fill="#B32D2B" d="M35.665,16.021l0.322-0.607c0,0-0.03-0.015-0.085-0.039c-0.052-0.026-0.131-0.057-0.227-0.089
			c-0.095-0.033-0.205-0.073-0.323-0.113c-0.123-0.031-0.253-0.065-0.382-0.097c-0.262-0.054-0.529-0.103-0.729-0.108
			c-0.2-0.013-0.335-0.021-0.335-0.021l-0.177,0.656c0,0,0.126,0.006,0.313,0.016c0.187,0.004,0.433,0.046,0.676,0.095
			c0.121,0.03,0.242,0.059,0.356,0.087c0.109,0.039,0.212,0.074,0.301,0.104c0.088,0.028,0.161,0.057,0.21,0.081
			C35.636,16.008,35.665,16.021,35.665,16.021"/>
		<path fill="#B32D2B" d="M38.025,17.777l0.509-0.468c0,0-0.356-0.399-0.769-0.749c-0.198-0.183-0.42-0.335-0.578-0.46
			c-0.167-0.113-0.279-0.187-0.279-0.187l-0.389,0.57c0,0,0.104,0.068,0.26,0.173c0.146,0.117,0.354,0.256,0.534,0.426
			C37.692,17.403,38.025,17.777,38.025,17.777"/>
		<path fill="#B32D2B" d="M39.748,20.224l0.605-0.334c0,0-0.254-0.464-0.541-0.909c-0.145-0.223-0.291-0.445-0.412-0.603
			c-0.117-0.161-0.195-0.269-0.195-0.269l-0.549,0.419c0,0,0.074,0.101,0.185,0.255c0.113,0.149,0.252,0.36,0.39,0.571
			C39.505,19.779,39.748,20.224,39.748,20.224"/>
		<path fill="#B32D2B" d="M40.982,22.986l0.65-0.234c0,0-0.175-0.496-0.38-0.98c-0.201-0.487-0.426-0.963-0.426-0.963l-0.624,0.298
			c0,0,0.218,0.458,0.413,0.929C40.813,22.506,40.982,22.986,40.982,22.986"/>
		<path fill="#B32D2B" d="M41.83,25.906l0.673-0.154c0,0-0.112-0.512-0.253-1.017c-0.063-0.255-0.14-0.505-0.196-0.694
			c-0.057-0.19-0.093-0.314-0.093-0.314l-0.659,0.207c0,0,0.036,0.121,0.091,0.305c0.054,0.183,0.129,0.429,0.19,0.677
			C41.719,25.406,41.83,25.906,41.83,25.906"/>
		<path fill="#B32D2B" d="M42.35,28.909l0.687-0.084c0,0-0.017-0.129-0.039-0.325c-0.028-0.193-0.065-0.453-0.104-0.712
			c-0.084-0.516-0.179-1.032-0.179-1.032l-0.677,0.131c0,0,0.093,0.501,0.173,1.008c0.038,0.252,0.074,0.505,0.104,0.697
			L42.35,28.909z"/>
		<path fill="#B32D2B" d="M42.58,31.95l0.69-0.02c0,0-0.015-0.521-0.048-1.044c-0.028-0.522-0.079-1.043-0.079-1.043l-0.688,0.063
			c0,0,0.05,0.51,0.078,1.021C42.566,31.438,42.58,31.95,42.58,31.95"/>
		<path fill="#B32D2B" d="M42.53,35.002l0.691,0.042c0,0,0.007-0.131,0.02-0.327c0.008-0.196,0.019-0.457,0.028-0.718
			c0.008-0.523,0.017-1.047,0.017-1.047h-0.69c0,0-0.008,0.512-0.017,1.026c-0.01,0.256-0.021,0.511-0.027,0.704
			C42.539,34.875,42.53,35.002,42.53,35.002"/>
		<path fill="#B32D2B" d="M42.207,38.036l0.683,0.106c0,0,0.02-0.129,0.047-0.323c0.03-0.194,0.067-0.454,0.097-0.713
			c0.067-0.519,0.11-1.041,0.11-1.041l-0.686-0.063c0,0-0.046,0.51-0.111,1.019c-0.026,0.254-0.064,0.507-0.092,0.699
			C42.226,37.91,42.207,38.036,42.207,38.036"/>
		<path fill="#B32D2B" d="M41.578,41.015l0.668,0.179c0,0,0.14-0.505,0.253-1.017c0.062-0.254,0.11-0.511,0.151-0.704
			c0.039-0.192,0.063-0.322,0.063-0.322l-0.677-0.129c0,0-0.025,0.126-0.064,0.314c-0.038,0.187-0.087,0.438-0.147,0.687
			C41.715,40.522,41.578,41.015,41.578,41.015"/>
		<path fill="#B32D2B" d="M40.607,43.892l0.637,0.265c0,0,0.205-0.484,0.38-0.98c0.18-0.494,0.337-0.994,0.337-0.994l-0.659-0.207
			c0,0-0.152,0.487-0.328,0.966C40.806,43.424,40.607,43.892,40.607,43.892"/>
		<path fill="#B32D2B" d="M39.22,46.572l0.58,0.373c0,0,0.288-0.444,0.543-0.907c0.259-0.461,0.483-0.938,0.483-0.938l-0.623-0.299
			c0,0-0.217,0.46-0.464,0.902C39.494,46.147,39.22,46.572,39.22,46.572"/>
		<path fill="#B32D2B" d="M37.298,48.839l0.449,0.524L38,49.141c0.142-0.144,0.342-0.325,0.52-0.524
			c0.18-0.198,0.355-0.4,0.478-0.558c0.125-0.156,0.208-0.259,0.208-0.259l-0.549-0.418c0,0-0.079,0.097-0.195,0.243
			c-0.116,0.151-0.279,0.337-0.449,0.522c-0.166,0.188-0.352,0.355-0.48,0.488C37.391,48.757,37.298,48.839,37.298,48.839"/>
		<path fill="#B32D2B" d="M34.752,50.177l0.144,0.675c0,0,0.544-0.112,1.048-0.336c0.508-0.208,0.96-0.517,0.96-0.517l-0.376-0.579
			c0,0-0.408,0.277-0.857,0.461C35.225,50.08,34.752,50.177,34.752,50.177"/>
	</g>
</g>
</svg>
