<?xml version="1.0" encoding="utf-8"?>
<!-- Generator: Adobe Illustrator 16.0.0, SVG Export Plug-In . SVG Version: 6.00 Build 0)  -->
<!DOCTYPE svg PUBLIC "-//W3C//DTD SVG 1.1//EN" "http://www.w3.org/Graphics/SVG/1.1/DTD/svg11.dtd">
<svg version="1.1" id="Ebene_1" xmlns="http://www.w3.org/2000/svg" xmlns:xlink="http://www.w3.org/1999/xlink" x="0px" y="0px"
	 width="67.667px" height="67.667px" viewBox="0 0 67.667 67.667" enable-background="new 0 0 67.667 67.667" xml:space="preserve">
<g>
	<defs>
		<polygon id="SVGID_7_" points="431.667,59.149 971.667,60.606 971.667,701.75 431.667,700.293 		"/>
	</defs>
	<clipPath id="SVGID_2_">
		<use xlink:href="#SVGID_7_"  overflow="visible"/>
	</clipPath>
	<path clip-path="url(#SVGID_2_)" fill="#FFFFFF" d="M26.44,32.418c-0.442,0.445-0.872,1.031-1.331,2.053
		c-0.443,0.99-1.067,2.698-1.266,3.647c-1.931-3.057,1.642-6.175,2.515-8.522c-3.256,0.58-6.22,1.795-6.588,5.453
		c-1.534-2.839,0.718-5.788,3.573-6.252c-1.909-0.398-3.607-0.436-5.199-0.009c-0.385,1.35-0.605,2.771-0.605,4.249
		c0,6.182,3.649,11.5,8.903,13.954V32.418z"/>
	<path clip-path="url(#SVGID_2_)" fill="none" stroke="#236666" stroke-miterlimit="10" d="M26.44,32.418
		c-0.442,0.445-0.872,1.031-1.331,2.053c-0.443,0.99-1.067,2.698-1.266,3.647c-1.931-3.057,1.642-6.175,2.515-8.522
		c-3.256,0.58-6.22,1.795-6.588,5.453c-1.534-2.839,0.718-5.788,3.573-6.252c-1.909-0.398-3.607-0.436-5.199-0.009
		c-0.385,1.35-0.605,2.771-0.605,4.249c0,6.182,3.649,11.5,8.903,13.954V32.418z"/>
	<path clip-path="url(#SVGID_2_)" fill="none" stroke="#236666" stroke-miterlimit="10" d="M32.953,17.621
		c-6.337,0-11.779,3.831-14.144,9.297c2.208-0.832,4.847-0.913,6.552-0.431c0,0-0.374-0.039,0.27-1.161
		c0.631-1.096,1.282-1.66,3.64-2.587c-1.019,1.101-0.949,2.733-0.727,4.044c3.665-2.688,8.781-1.335,11.288,2.34
		c-2.379-1.5-6.752-0.932-7.563-0.893c2.079,0.463,3.701,0.903,5.067,1.861c0.941,0.661,1.338,1.798,2.115,3.858
		c-2.692-2.056-5.5-3.973-9.263-3.917c2.104,1.145,2.766,2.398,3.409,3.856c0.892,2.021,1.147,1.582,1.264,4.691
		c-1.54-1.317-2.188-3.022-3.707-4.586c-0.948-0.977-1.786-1.794-2.465-2.822v16.667c1.354,0.389,2.782,0.611,4.265,0.611
		c8.512,0,15.415-6.902,15.415-15.414C48.368,24.521,41.465,17.621,32.953,17.621z"/>
	
		<line clip-path="url(#SVGID_2_)" fill="none" stroke="#236666" stroke-miterlimit="10" x1="22.333" y1="44.204" x2="26.44" y2="44.277"/>
	
		<line clip-path="url(#SVGID_2_)" fill="none" stroke="#236666" stroke-miterlimit="10" x1="28.688" y1="44.281" x2="42.689" y2="44.986"/>
	<polyline clip-path="url(#SVGID_2_)" fill="#FFFFFF" points="29.935,37.787 32.952,41.923 44.685,43.028 	"/>
	<polyline clip-path="url(#SVGID_2_)" fill="none" stroke="#236666" stroke-miterlimit="10" points="29.935,37.787 32.952,41.923 
		44.685,43.028 	"/>
	
		<line clip-path="url(#SVGID_2_)" fill="none" stroke="#236666" stroke-miterlimit="10" x1="34.743" y1="42.092" x2="33.951" y2="44.735"/>
	
		<ellipse clip-path="url(#SVGID_2_)" fill="none" stroke="#236666" stroke-miterlimit="10" cx="32.905" cy="33.036" rx="15.366" ry="15.414"/>
	
		<rect x="8.667" y="8.75" clip-path="url(#SVGID_2_)" fill="none" stroke="#236666" stroke-miterlimit="10" width="48.572" height="48.572"/>
</g>
<g>
	<defs>
		<polygon id="SVGID_9_" points="431.667,59.149 971.667,60.606 971.667,701.75 431.667,700.293 		"/>
	</defs>
	<clipPath id="SVGID_4_">
		<use xlink:href="#SVGID_9_"  overflow="visible"/>
	</clipPath>
	<path clip-path="url(#SVGID_4_)" fill="#236666" d="M39.124,33.036c0-3.408-2.767-6.17-6.178-6.17c-3.407,0-6.164,2.763-6.164,6.17
		c0,3.411,2.757,6.17,6.164,6.17C36.357,39.207,39.124,36.447,39.124,33.036"/>
	<path clip-path="url(#SVGID_4_)" fill="none" stroke="#236666" stroke-width="0.25" stroke-miterlimit="10" d="M39.124,33.036
		c0-3.408-2.767-6.17-6.178-6.17c-3.407,0-6.164,2.763-6.164,6.17c0,3.411,2.757,6.17,6.164,6.17
		C36.357,39.207,39.124,36.447,39.124,33.036z"/>
	
		<rect x="8.667" y="8.75" clip-path="url(#SVGID_4_)" fill="none" stroke="#236666" stroke-miterlimit="10" width="48.571" height="48.572"/>
</g>
<path fill="none" stroke="#236666" stroke-miterlimit="10" d="M26.44,32.418c-0.442,0.445-0.872,1.031-1.331,2.053
	c-0.443,0.99-1.067,2.698-1.266,3.647c-1.931-3.057,1.642-6.175,2.515-8.522c-3.256,0.58-6.22,1.795-6.588,5.453
	c-1.534-2.839,0.718-5.788,3.573-6.252c-1.909-0.398-3.607-0.436-5.199-0.009c-0.385,1.35-0.605,2.771-0.605,4.249
	c0,6.182,3.649,11.5,8.903,13.954V32.418z"/>
<path fill="none" stroke="#236666" stroke-miterlimit="10" d="M32.953,17.621c-6.337,0-11.779,3.831-14.144,9.297
	c2.208-0.832,4.847-0.913,6.552-0.431c0,0-0.374-0.039,0.27-1.161c0.631-1.096,1.282-1.66,3.64-2.587
	c-1.019,1.101-0.949,2.733-0.727,4.044c3.665-2.688,8.781-1.335,11.288,2.34c-2.379-1.5-6.752-0.932-7.563-0.893
	c2.079,0.463,3.701,0.903,5.067,1.861c0.941,0.661,1.338,1.798,2.115,3.858c-2.692-2.056-5.5-3.973-9.263-3.917
	c2.104,1.145,2.766,2.398,3.409,3.856c0.892,2.021,1.147,1.582,1.264,4.691c-1.54-1.317-2.188-3.022-3.707-4.586
	c-0.948-0.977-1.786-1.794-2.465-2.822v16.667c1.354,0.389,2.782,0.611,4.265,0.611c8.512,0,15.415-6.902,15.415-15.414
	C48.368,24.521,41.465,17.621,32.953,17.621z"/>
<line fill="none" stroke="#236666" stroke-miterlimit="10" x1="22.333" y1="44.204" x2="26.44" y2="44.277"/>
<line fill="none" stroke="#236666" stroke-miterlimit="10" x1="28.688" y1="44.281" x2="42.689" y2="44.986"/>
<polyline fill="none" stroke="#236666" stroke-miterlimit="10" points="29.935,37.787 32.952,41.923 44.685,43.028 "/>
<line fill="none" stroke="#236666" stroke-miterlimit="10" x1="34.743" y1="42.092" x2="33.951" y2="44.735"/>
<ellipse fill="none" stroke="#236666" stroke-miterlimit="10" cx="32.905" cy="33.036" rx="15.366" ry="15.414"/>
<rect x="8.667" y="8.75" fill="none" stroke="#236666" stroke-miterlimit="10" width="48.572" height="48.572"/>
</svg>
