<?xml version="1.0" encoding="utf-8"?>
<!-- Generator: Adobe Illustrator 16.0.0, SVG Export Plug-In . SVG Version: 6.00 Build 0)  -->
<!DOCTYPE svg PUBLIC "-//W3C//DTD SVG 1.1//EN" "http://www.w3.org/Graphics/SVG/1.1/DTD/svg11.dtd">
<svg version="1.1" id="Ebene_1" xmlns="http://www.w3.org/2000/svg" xmlns:xlink="http://www.w3.org/1999/xlink" x="0px" y="0px"
	 width="67.667px" height="67.667px" viewBox="0 0 67.667 67.667" enable-background="new 0 0 67.667 67.667" xml:space="preserve">
<g>
	<defs>
		<polygon id="SVGID_7_" points="270.083,-210.851 810.083,-209.394 810.083,431.75 270.083,430.293 		"/>
	</defs>
	<clipPath id="SVGID_2_">
		<use xlink:href="#SVGID_7_"  overflow="visible"/>
	</clipPath>
</g>
<g>
	<defs>
		<polygon id="SVGID_9_" points="270.083,-210.851 810.083,-209.394 810.083,431.75 270.083,430.293 		"/>
	</defs>
	<clipPath id="SVGID_4_">
		<use xlink:href="#SVGID_9_"  overflow="visible"/>
	</clipPath>
</g>
<path fill="#3D2877" d="M31.234,29.379c0,2.362-1.916,4.275-4.275,4.275c-2.362,0-4.275-1.913-4.275-4.275
	c0-2.361,1.914-4.275,4.275-4.275C29.318,25.104,31.234,27.018,31.234,29.379"/>
<circle fill="none" stroke="#3D2877" stroke-miterlimit="10" cx="26.959" cy="29.379" r="4.275"/>
<circle fill="none" stroke="#3D2877" stroke-miterlimit="10" stroke-dasharray="4,4.561" cx="26.958" cy="29.379" r="5.505"/>
<circle fill="none" stroke="#3D2877" stroke-miterlimit="10" cx="45.578" cy="21.475" r="4.366"/>
<circle fill="none" stroke="#3D2877" stroke-miterlimit="10" stroke-dasharray="4,4.561" cx="45.578" cy="21.475" r="5.623"/>
<path fill="#3D2877" d="M44.23,39.825c0,2.36-1.914,4.274-4.275,4.274c-2.36,0-4.273-1.914-4.273-4.274
	c0-2.361,1.913-4.275,4.273-4.275C42.316,35.549,44.23,37.463,44.23,39.825"/>
<circle fill="none" stroke="#3D2877" stroke-miterlimit="10" cx="39.956" cy="39.825" r="4.274"/>
<circle fill="none" stroke="#3D2877" stroke-miterlimit="10" stroke-dasharray="4,4.561" cx="39.957" cy="39.825" r="5.505"/>
<path fill="#3D2877" d="M31.234,41.77c0,2.36-1.916,4.273-4.275,4.273c-2.362,0-4.275-1.914-4.275-4.273
	c0-2.363,1.914-4.278,4.275-4.278C29.318,37.491,31.234,39.407,31.234,41.77"/>
<circle fill="none" stroke="#3D2877" stroke-miterlimit="10" cx="26.959" cy="41.77" r="4.275"/>
<circle fill="none" stroke="#3D2877" stroke-miterlimit="10" stroke-dasharray="4,4.561" cx="26.958" cy="41.77" r="5.505"/>
<path fill="#3D2877" d="M19.715,33.721c-0.608-5.595-1.808-11.653,4.786-14.02c5.039-1.808,9.112,1.088,11.461,5.306
	c1.19,2.135,2.539,4.179,4.643,5.535c3.828,2.468,11.144,4.475,10.279,10.479c-0.918,6.384-7.29,8.874-12.843,7.878
	c-2.122-0.382-4.423-0.032-6.543,0.167c-2.773,0.262-5.516,0.538-8.305,0.426c-8.172-0.328-9.579-9.409-3.386-14.12
	c0.683-0.519,0.011-1.692-0.681-1.165c-7.574,5.762-5.429,15.705,4.067,16.634c5.852,0.573,11.461-1.067,17.356-0.165
	c5.247,0.805,9.221-3.529,11.18-7.868c1.82-4.033-0.285-7.098-3.499-9.421c-2.92-2.109-6.235-3.186-8.891-5.724
	c-2.281-2.182-2.984-5.497-5.347-7.666c-2.737-2.512-7.956-2.724-11.159-1.121c-6.513,3.258-5.138,8.695-4.47,14.841
	C18.458,34.577,19.809,34.586,19.715,33.721"/>
<rect x="9.083" y="8.75" fill="none" stroke="#3E2779" stroke-miterlimit="10" width="48.571" height="48.571"/>
</svg>
