<?xml version="1.0" encoding="utf-8"?>
<!-- Generator: Adobe Illustrator 16.0.0, SVG Export Plug-In . SVG Version: 6.00 Build 0)  -->
<!DOCTYPE svg PUBLIC "-//W3C//DTD SVG 1.1//EN" "http://www.w3.org/Graphics/SVG/1.1/DTD/svg11.dtd">
<svg version="1.1" id="Ebene_1" xmlns="http://www.w3.org/2000/svg" xmlns:xlink="http://www.w3.org/1999/xlink" x="0px" y="0px"
	 width="67.667px" height="67.666px" viewBox="0 0 67.667 67.666" enable-background="new 0 0 67.667 67.666" xml:space="preserve">
<line fill="#52702A" x1="37.916" y1="33.19" x2="27.708" y2="33.19"/>
<line fill="none" stroke="#52702A" stroke-miterlimit="10" x1="35.079" y1="33.19" x2="27.708" y2="33.19"/>
<polygon fill="#52702A" points="34.639,36.469 34.639,29.912 37.916,33.19 "/>
<rect x="42.742" y="27.467" fill="#52702A" width="3.213" height="3.208"/>
<rect x="46.907" y="27.467" fill="#52702A" width="3.213" height="3.208"/>
<rect x="42.742" y="31.59" fill="#52702A" width="3.213" height="3.213"/>
<rect x="46.907" y="31.59" fill="#52702A" width="3.213" height="3.213"/>
<rect x="51.073" y="27.479" fill="#52702A" width="3.213" height="3.21"/>
<rect x="51.073" y="31.603" fill="#52702A" width="3.213" height="3.213"/>
<rect x="11.451" y="27.654" fill="#52702A" width="3.212" height="3.211"/>
<rect x="15.615" y="27.654" fill="#52702A" width="3.216" height="3.211"/>
<rect x="11.451" y="31.78" fill="#52702A" width="3.212" height="3.212"/>
<rect x="15.615" y="31.78" fill="#52702A" width="3.216" height="3.212"/>
<rect x="11.451" y="35.878" fill="#52702A" width="3.212" height="3.213"/>
<rect x="15.615" y="35.878" fill="#52702A" width="3.216" height="3.213"/>
<rect x="19.784" y="27.665" fill="#52702A" width="3.211" height="3.215"/>
<rect x="19.784" y="31.793" fill="#52702A" width="3.211" height="3.213"/>
<rect x="19.784" y="35.894" fill="#52702A" width="3.211" height="3.21"/>
<rect x="8.583" y="9" fill="none" stroke="#52702A" stroke-miterlimit="10" width="48.571" height="48.571"/>
</svg>
