<svg xmlns="http://www.w3.org/2000/svg" width="67.67" height="67.67">
  <defs>
    <path id="a" d="M270.08-570.6l540 1.46V72l-540-1.46z"/>
  </defs>
  <defs>
    <path id="b" d="M270.08-570.6l540 1.46V72l-540-1.46z"/>
  </defs>
  <path fill="#52702A" d="M40.5 27.39c.73-.02 1.34.55 1.36 1.27a1.32 1.32 0 01-2.65.08 1.32 1.32 0 011.29-1.35"/>
  <path fill="none" stroke="#52702A" stroke-width="2" stroke-miterlimit="10" d="M40.5 27.39c.73-.02 1.34.55 1.36 1.27a1.32 1.32 0 01-2.65.08 1.32 1.32 0 011.29-1.35z"/>
  <path fill="#52702A" d="M41.67 34.9a2.45 2.45 0 012.53 2.37 2.45 2.45 0 01-2.39 2.51 2.45 2.45 0 01-2.54-2.37 2.46 2.46 0 012.4-2.51"/>
  <path fill="none" stroke="#52702A" stroke-width="2" stroke-miterlimit="10" d="M41.67 34.9a2.45 2.45 0 012.53 2.37 2.45 2.45 0 01-2.39 2.51 2.45 2.45 0 01-2.54-2.37 2.46 2.46 0 012.4-2.51z"/>
  <path fill="#52702A" d="M18.76 26.79c.76-.02 1.4.58 1.42 1.34.03.76-.58 1.4-1.35 1.41-.76.02-1.4-.58-1.42-1.34-.02-.75.58-1.39 1.35-1.41"/>
  <ellipse transform="rotate(-91.59 18.8 28.17)" fill="none" stroke="#52702A" stroke-width="2" stroke-miterlimit="10" cx="18.8" cy="28.17" rx="1.38" ry="1.39"/>
  <path fill="#52702A" d="M47.44 29.58a1.83 1.83 0 011.9 1.77c.02 1-.78 1.85-1.8 1.87a1.83 1.83 0 01-1.88-1.76c-.03-1 .77-1.85 1.78-1.88"/>
  <path fill="none" stroke="#52702A" stroke-width="2" stroke-miterlimit="10" d="M47.44 29.58a1.83 1.83 0 011.9 1.77c.02 1-.78 1.85-1.8 1.87a1.83 1.83 0 01-1.88-1.76c-.03-1 .77-1.85 1.78-1.88z"/>
  <path fill="#52702A" d="M35.46 29.83h-9.37"/>
  <path fill="none" stroke="#52702A" stroke-miterlimit="10" d="M32.62 29.83h-6.53"/>
  <path fill="#52702A" d="M32.19 33.1v-6.55l3.27 3.28z"/>
  <path fill="none" stroke="#52702A" stroke-miterlimit="10" d="M9.08 9h48.57v48.57H9.08z"/>
</svg>