<?xml version="1.0" encoding="utf-8"?>
<!-- Generator: Adobe Illustrator 16.0.0, SVG Export Plug-In . SVG Version: 6.00 Build 0)  -->
<!DOCTYPE svg PUBLIC "-//W3C//DTD SVG 1.1//EN" "http://www.w3.org/Graphics/SVG/1.1/DTD/svg11.dtd">
<svg version="1.1" id="Ebene_1" xmlns="http://www.w3.org/2000/svg" xmlns:xlink="http://www.w3.org/1999/xlink" x="0px" y="0px"
	 width="67.667px" height="67.666px" viewBox="0 0 67.667 67.666" enable-background="new 0 0 67.667 67.666" xml:space="preserve">
<path fill="none" stroke="#52702A" stroke-width="0.75" stroke-miterlimit="10" d="M33.235,25.042
	c0.964,0.033,1.716,0.845,1.681,1.804c-0.034,0.961-0.846,1.713-1.809,1.678c-0.96-0.036-1.712-0.846-1.675-1.807
	C31.467,25.759,32.277,25.006,33.235,25.042z"/>
<path fill="none" stroke="#52702A" stroke-width="0.75" stroke-miterlimit="10" d="M35.122,35.04
	c1.79,0.067,3.186,1.576,3.119,3.367c-0.065,1.792-1.569,3.188-3.359,3.121c-1.792-0.066-3.192-1.571-3.126-3.364
	C31.821,36.376,33.328,34.974,35.122,35.04z"/>
<path fill="#52702A" d="M21.497,29.613c1.011,0.038,1.801,0.887,1.764,1.897c-0.039,1.009-0.888,1.796-1.9,1.759
	c-1.005-0.038-1.795-0.885-1.758-1.896C19.64,30.365,20.49,29.576,21.497,29.613"/>
<path fill="none" stroke="#52702A" stroke-width="3" stroke-miterlimit="10" d="M21.497,29.613c1.011,0.038,1.801,0.887,1.764,1.897
	c-0.039,1.009-0.888,1.796-1.9,1.759c-1.005-0.038-1.795-0.885-1.758-1.896C19.64,30.365,20.49,29.576,21.497,29.613z"/>
<circle fill="none" stroke="#52702A" stroke-width="0.75" stroke-miterlimit="10" cx="44.716" cy="29.633" r="2.422"/>
<rect x="9.083" y="9" fill="none" stroke="#52702A" stroke-miterlimit="10" width="48.571" height="48.571"/>
</svg>
