<svg xmlns="http://www.w3.org/2000/svg" width="67.7" height="67.7">
  <defs>
    <path id="a" d="M432-31l540 2v641l-540-1z"/>
  </defs>
  <defs>
    <path id="b" d="M432-31l540 2v641l-540-1z"/>
  </defs>
  <path fill="#236666" d="M28 42a6 6 0 10-13 0 6 6 0 0013 0"/>
  <path fill="none" stroke="#236666" stroke-width=".3" stroke-miterlimit="10" d="M28 42a6 6 0 10-13 0 6 6 0 0013 0z"/>
  <path fill="#236666" d="M51 40a9 9 0 10-18 0 9 9 0 0018 0"/>
  <path fill="none" stroke="#236666" stroke-width=".3" stroke-miterlimit="10" d="M51 40a9 9 0 10-18 0 9 9 0 0018 0z"/>
  <path fill="#236666" d="M22 18h11v11H22z"/>
  <path fill="none" stroke="#236666" stroke-width=".3" stroke-miterlimit="10" d="M22 18h11v11H22z"/>
  <path fill="none" stroke="#236666" stroke-miterlimit="10" d="M9 9h48v49H9z"/>
</svg>