<?xml version="1.0" encoding="utf-8"?>
<!-- Generator: Adobe Illustrator 16.0.0, SVG Export Plug-In . SVG Version: 6.00 Build 0)  -->
<!DOCTYPE svg PUBLIC "-//W3C//DTD SVG 1.1//EN" "http://www.w3.org/Graphics/SVG/1.1/DTD/svg11.dtd">
<svg version="1.1" id="Ebene_1" xmlns="http://www.w3.org/2000/svg" xmlns:xlink="http://www.w3.org/1999/xlink" x="0px" y="0px"
	 width="67.667px" height="67.667px" viewBox="0 0 67.667 67.667" enable-background="new 0 0 67.667 67.667" xml:space="preserve">
<g>
	<defs>
		<polygon id="SVGID_7_" points="351.083,-120.601 891.083,-119.144 891.083,522 351.083,520.543 		"/>
	</defs>
	<clipPath id="SVGID_2_">
		<use xlink:href="#SVGID_7_"  overflow="visible"/>
	</clipPath>
</g>
<g>
	<defs>
		<polygon id="SVGID_9_" points="351.083,-120.601 891.083,-119.144 891.083,522 351.083,520.543 		"/>
	</defs>
	<clipPath id="SVGID_4_">
		<use xlink:href="#SVGID_9_"  overflow="visible"/>
	</clipPath>
</g>
<rect x="9.083" y="9" fill="none" stroke="#B22D2B" stroke-miterlimit="10" width="48.571" height="48.571"/>
<circle fill="none" stroke="#B32D2B" stroke-miterlimit="10" cx="34.692" cy="32.899" r="17.68"/>
<line fill="none" stroke="#B32D2B" stroke-miterlimit="10" x1="34.692" y1="15.221" x2="34.692" y2="50.579"/>
<line fill="none" stroke="#B32D2B" stroke-miterlimit="10" x1="17.012" y1="32.899" x2="52.372" y2="32.899"/>
<line fill="none" x1="0.083" y1="470.144" x2="0.083" y2="-171"/>
<line fill="none" x1="0.083" y1="470.144" x2="0.083" y2="-171"/>
<line fill="none" x1="0.083" y1="470.144" x2="0.083" y2="-171"/>
<line fill="none" x1="0.083" y1="470.144" x2="0.083" y2="-171"/>
<line fill="none" x1="0.083" y1="470.144" x2="0.083" y2="-171"/>
<line fill="none" x1="0.083" y1="470.144" x2="0.083" y2="-171"/>
<line fill="none" x1="0.083" y1="470.144" x2="0.083" y2="-171"/>
<line fill="none" x1="0.083" y1="470.144" x2="0.083" y2="-171"/>
<line fill="none" x1="0.083" y1="470.144" x2="0.083" y2="-171"/>
<line fill="none" x1="0.083" y1="470.144" x2="0.083" y2="-171"/>
<line fill="none" x1="0.083" y1="470.144" x2="0.083" y2="-171"/>
<line fill="none" x1="0.083" y1="470.144" x2="0.083" y2="-171"/>
<line fill="none" x1="0.083" y1="470.144" x2="0.083" y2="-171"/>
<line fill="none" x1="0.083" y1="470.144" x2="0.083" y2="-171"/>
<line fill="none" x1="0.083" y1="470.144" x2="0.083" y2="-171"/>
</svg>
