<svg xmlns="http://www.w3.org/2000/svg" width="67.7" height="67.7">
  <defs>
    <path id="a" d="M189.3-300.6l540 1.5V342l-540-1.5z"/>
  </defs>
  <defs>
    <path id="b" d="M189.3-300.6l540 1.5V342l-540-1.5z"/>
  </defs>
  <path fill="#3D2877" d="M21.3 24h6.6v7.2h-6.6zM29.9 24h6.6v7.2h-6.6zM38.4 24H45v7.2h-6.6zM21.3 33.3h6.6v7.2h-6.6zM29.9 33.3h6.6v7.2h-6.6zM38.4 33.3H45v7.2h-6.6zM21.3 42.5h6.6v7.2h-6.6zM29.9 42.5h6.6v7.2h-6.6zM38.4 42.5H45v7.2h-6.6zM46.9 24h6.6v7.2h-6.6zM46.9 33.3h6.6v7.2h-6.6zM46.9 42.5h6.6v7.2h-6.6z"/>
  <text transform="matrix(1 0 0 1.1007 13.7 30.4)" fill="#3D2877" font-family="'UniversLTStd'" font-size="6.5">
    1
  </text>
  <text transform="matrix(1 0 0 1.1007 13.7 40)" fill="#3D2877" font-family="'UniversLTStd'" font-size="6.5">
    2
  </text>
  <text transform="matrix(1 0 0 1.1007 13.7 49.6)" fill="#3D2877" font-family="'UniversLTStd'" font-size="6.5">
    3
  </text>
  <text transform="matrix(1 0 0 1.1007 22.2 21.1)" fill="#3D2877" font-family="'UniversLTStd'" font-size="6.5">
    A
  </text>
  <text transform="matrix(1 0 0 1.1007 31 21.1)" fill="#3D2877" font-family="'UniversLTStd'" font-size="6.5">
    B
  </text>
  <text transform="matrix(1 0 0 1.1007 39.5 21.1)" fill="#3D2877" font-family="'UniversLTStd'" font-size="6.5">
    C
  </text>
  <text transform="matrix(1 0 0 1.1007 47.9 21.1)" fill="#3D2877" font-family="'UniversLTStd'" font-size="6.5">
    D
  </text>
  <path fill="none" stroke="#3E2779" stroke-miterlimit="10" d="M9.3 9h48.6v48.6H9.3z"/>
</svg>