<svg xmlns="http://www.w3.org/2000/svg" width="67.67" height="67.67">
  <path fill="#3D2877" d="M31.23 29.38a4.28 4.28 0 11-8.55 0 4.28 4.28 0 018.55 0"/>
  <circle fill="none" stroke="#3D2877" stroke-miterlimit="10" cx="26.96" cy="29.38" r="4.28"/>
  <circle fill="none" stroke="#3D2877" stroke-miterlimit="10" stroke-dasharray="4,4.561" cx="26.96" cy="29.38" r="5.5"/>
  <circle fill="none" stroke="#3D2877" stroke-miterlimit="10" cx="45.58" cy="21.48" r="4.37"/>
  <circle fill="none" stroke="#3D2877" stroke-miterlimit="10" stroke-dasharray="4,4.561" cx="45.58" cy="21.48" r="5.62"/>
  <path fill="#3D2877" d="M44.23 39.83a4.27 4.27 0 11-8.55 0 4.27 4.27 0 018.55 0"/>
  <circle fill="none" stroke="#3D2877" stroke-miterlimit="10" cx="39.96" cy="39.83" r="4.27"/>
  <circle fill="none" stroke="#3D2877" stroke-miterlimit="10" stroke-dasharray="4,4.561" cx="39.96" cy="39.83" r="5.5"/>
  <path fill="#3D2877" d="M31.23 41.77a4.28 4.28 0 11-8.55 0 4.28 4.28 0 018.55 0"/>
  <circle fill="none" stroke="#3D2877" stroke-miterlimit="10" cx="26.96" cy="41.77" r="4.28"/>
  <circle fill="none" stroke="#3D2877" stroke-miterlimit="10" stroke-dasharray="4,4.561" cx="26.96" cy="41.77" r="5.5"/>
  <path fill="#3D2877" d="M19.71 33.72c-.6-5.6-1.8-11.65 4.8-14.02 5.03-1.8 9.1 1.09 11.45 5.3 1.2 2.14 2.54 4.19 4.64 5.54 3.83 2.47 11.15 4.48 10.28 10.48-.91 6.38-7.29 8.87-12.84 7.88-2.12-.38-4.42-.03-6.54.17-2.78.26-5.52.53-8.3.42-8.18-.33-9.59-9.4-3.4-14.12.69-.52.02-1.69-.67-1.16-7.58 5.76-5.43 15.7 4.06 16.63 5.85.57 11.46-1.07 17.36-.16 5.25.8 9.22-3.53 11.18-7.87 1.82-4.03-.29-7.1-3.5-9.42-2.92-2.11-6.24-3.19-8.9-5.73-2.27-2.18-2.97-5.5-5.34-7.66-2.74-2.51-7.95-2.73-11.16-1.12-6.51 3.25-5.13 8.7-4.47 14.84.1.86 1.45.87 1.36 0"/>
  <path fill="none" stroke="#3E2779" stroke-miterlimit="10" d="M9.08 8.75h48.57v48.57H9.08z"/>
</svg>