<svg xmlns="http://www.w3.org/2000/svg" width="67.67" height="67.67">
  <path fill="none" stroke="#52702A" stroke-width=".75" stroke-miterlimit="10" d="M33.23 25.04a1.74 1.74 0 11-.12 3.49 1.74 1.74 0 01.13-3.49zM35.12 35.04a3.25 3.25 0 11-.25 6.49 3.25 3.25 0 01.25-6.49z"/>
  <path fill="#52702A" d="M21.5 29.61a1.83 1.83 0 11-.14 3.67 1.83 1.83 0 01.14-3.67"/>
  <path fill="none" stroke="#52702A" stroke-width="3" stroke-miterlimit="10" d="M21.5 29.61a1.83 1.83 0 11-.14 3.67 1.83 1.83 0 01.14-3.67z"/>
  <circle fill="none" stroke="#52702A" stroke-width=".75" stroke-miterlimit="10" cx="44.72" cy="29.63" r="2.42"/>
  <path fill="none" stroke="#52702A" stroke-miterlimit="10" d="M9.08 9h48.57v48.57H9.08z"/>
</svg>