<svg xmlns="http://www.w3.org/2000/svg" width="67.67" height="67.67">
  <defs>
    <path id="a" d="M270.33-480.6l540 1.46V162l-540-1.46z"/>
  </defs>
  <defs>
    <path id="b" d="M270.33-480.6l540 1.46V162l-540-1.46z"/>
  </defs>
  <path fill="none" stroke="#52702A" stroke-miterlimit="10" d="M19.56 22.31h22.59v21.95H19.56z"/>
  <path fill="#52702A" stroke="#52702A" stroke-miterlimit="10" d="M36.03 25.89a1.48 1.48 0 11-2.97 0 1.48 1.48 0 012.97 0"/>
  <circle fill="none" stroke="#52702A" stroke-width="2" stroke-miterlimit="10" cx="34.55" cy="25.89" r="1.49"/>
  <path fill="#52702A" stroke="#52702A" stroke-miterlimit="10" d="M34.52 34.37a1.67 1.67 0 11-3.3.56 1.67 1.67 0 013.3-.56"/>
  <circle fill="none" stroke="#52702A" stroke-width="2" stroke-miterlimit="10" cx="32.87" cy="34.65" r="1.67"/>
  <path fill="#236666" d="M47.67 40.63a.68.68 0 11-1.35 0 .68.68 0 011.35 0"/>
  <circle fill="none" stroke="#52702A" stroke-width="2" stroke-miterlimit="10" cx="47" cy="40.63" r=".68"/>
  <path fill="#236666" d="M47 29.48a.64.64 0 11-1.29 0 .64.64 0 011.28 0"/>
  <circle fill="none" stroke="#52702A" stroke-width="2" stroke-miterlimit="10" cx="46.35" cy="29.48" r=".64"/>
  <path fill="#236666" d="M43.35 30.3a1.2 1.2 0 11-2.38 0 1.2 1.2 0 012.38 0"/>
  <circle fill="#52702A" stroke="#52702A" stroke-miterlimit="10" cx="42.16" cy="30.31" r="1.19"/>
  <path fill="#236666" d="M45.17 25.4a.67.67 0 11-1.35 0 .67.67 0 011.35 0"/>
  <circle fill="none" stroke="#52702A" stroke-width="2" stroke-miterlimit="10" cx="44.5" cy="25.39" r=".67"/>
  <path fill="#52702A" stroke="#52702A" stroke-miterlimit="10" d="M26.63 40.56a1.71 1.71 0 11-3.42 0 1.71 1.71 0 013.42 0"/>
  <circle fill="none" stroke="#52702A" stroke-width="2" stroke-miterlimit="10" cx="24.92" cy="40.56" r="1.71"/>
  <path fill="#52702A" stroke="#52702A" stroke-miterlimit="10" d="M44.5 39.6a1.27 1.27 0 11-2.54 0 1.27 1.27 0 012.54 0"/>
  <circle fill="none" stroke="#52702A" stroke-width="2" stroke-miterlimit="10" cx="43.23" cy="39.61" r="1.27"/>
  <path fill="#52702A" stroke="#52702A" stroke-miterlimit="10" d="M38.31 40.82a1.5 1.5 0 11-2.98 0 1.5 1.5 0 012.98 0"/>
  <circle fill="none" stroke="#52702A" stroke-width="2" stroke-miterlimit="10" cx="36.82" cy="40.82" r="1.5"/>
  <circle fill="#52702A" stroke="#52702A" stroke-miterlimit="10" cx="22.83" cy="26.23" r="1.86"/>
  <path fill="#236666" d="M46.35 33.76a.9.9 0 01-1.77 0 .89.89 0 011.77 0"/>
  <path fill="none" stroke="#52702A" stroke-width="2" stroke-miterlimit="10" d="M46.35 33.76a.9.9 0 01-1.77 0 .89.89 0 011.77 0z"/>
  <path fill="none" stroke="#52702A" stroke-miterlimit="10" d="M9.33 9H57.9v48.57H9.33z"/>
</svg>