<?xml version="1.0" encoding="utf-8"?>
<!-- Generator: Adobe Illustrator 16.0.0, SVG Export Plug-In . SVG Version: 6.00 Build 0)  -->
<!DOCTYPE svg PUBLIC "-//W3C//DTD SVG 1.1//EN" "http://www.w3.org/Graphics/SVG/1.1/DTD/svg11.dtd">
<svg version="1.1" id="Ebene_1" xmlns="http://www.w3.org/2000/svg" xmlns:xlink="http://www.w3.org/1999/xlink" x="0px" y="0px"
	 width="67.667px" height="67.667px" viewBox="0 0 67.667 67.667" enable-background="new 0 0 67.667 67.667" xml:space="preserve">
<g>
	<defs>
		<polygon id="SVGID_7_" points="350.917,58.899 890.917,60.356 890.917,701.5 350.917,700.043 		"/>
	</defs>
	<clipPath id="SVGID_2_">
		<use xlink:href="#SVGID_7_"  overflow="visible"/>
	</clipPath>
</g>
<g>
	<defs>
		<polygon id="SVGID_9_" points="350.917,58.899 890.917,60.356 890.917,701.5 350.917,700.043 		"/>
	</defs>
	<clipPath id="SVGID_4_">
		<use xlink:href="#SVGID_9_"  overflow="visible"/>
	</clipPath>
</g>
<path fill="#236666" d="M39.374,32.786c0-3.408-2.767-6.17-6.178-6.17c-3.407,0-6.164,2.763-6.164,6.17
	c0,3.411,2.757,6.17,6.164,6.17C36.607,38.957,39.374,36.197,39.374,32.786"/>
<path fill="none" stroke="#236666" stroke-width="0.25" stroke-miterlimit="10" d="M39.374,32.786c0-3.408-2.767-6.17-6.178-6.17
	c-3.407,0-6.164,2.763-6.164,6.17c0,3.411,2.757,6.17,6.164,6.17C36.607,38.957,39.374,36.197,39.374,32.786z"/>
<rect x="8.917" y="8.5" fill="none" stroke="#236666" stroke-miterlimit="10" width="48.571" height="48.572"/>
</svg>
