<svg xmlns="http://www.w3.org/2000/svg" width="67.667" height="67.667">
  <defs>
    <path id="a" d="M188.833 59.399l540 1.457V702l-540-1.457z"/>
  </defs>
  <defs>
    <path id="b" d="M188.833 59.399l540 1.457V702l-540-1.457z"/>
  </defs>
  <path fill="#236666" d="M34.568 28.543c.154-2.936.439-5.927.244-8.819-4.821 1.125-8.6 4.484-9.811 8.741 3.188.135 6.376.14 9.567.078"/>
  <path fill="none" stroke="#236666" stroke-width=".25" stroke-miterlimit="10" d="M34.568 28.543c.154-2.936.439-5.927.244-8.819-4.821 1.125-8.6 4.484-9.811 8.741 3.188.135 6.376.14 9.567.078z"/>
  <path fill="#236666" d="M17.264 29.41c2.602 8.378 9 14.945 17.063 17.439V29.568c-5.688.13-11.378.116-17.063-.158"/>
  <path fill="none" stroke="#236666" stroke-width=".25" stroke-miterlimit="10" d="M17.264 29.41c2.602 8.378 9 14.945 17.063 17.439V29.568c-5.688.13-11.378.116-17.063-.158z"/>
  <path fill="#236666" d="M35.537 28.189c2-.085 3.997-.183 5.998-.252-.833-2.713-3.065-4.837-5.89-5.59.126 1.911-.001 3.89-.108 5.842"/>
  <path fill="none" stroke="#236666" stroke-width=".25" stroke-miterlimit="10" d="M35.537 28.189c2-.085 3.997-.183 5.998-.252-.833-2.713-3.065-4.837-5.89-5.59.126 1.911-.001 3.89-.108 5.842z"/>
  <path fill="#236666" d="M35.537 29.28v13.96c6.503-1.798 11.654-7.42 13.436-14.615-4.479.174-8.958.431-13.436.655"/>
  <path fill="none" stroke="#236666" stroke-width=".25" stroke-miterlimit="10" d="M35.537 29.28v13.96c6.503-1.798 11.654-7.42 13.436-14.615-4.479.174-8.958.431-13.436.655z"/>
  <path fill="none" stroke="#236666" stroke-miterlimit="10" d="M8.833 9h48.571v48.572H8.833z"/>
</svg>