<svg xmlns="http://www.w3.org/2000/svg" width="67.667" height="67.667">
  <defs>
    <path id="a" d="M270.333 59.649l540 1.457V702.25l-540-1.457z"/>
  </defs>
  <defs>
    <path id="b" d="M270.333 59.649l540 1.457V702.25l-540-1.457z"/>
  </defs>
  <path fill="#236666" d="M33.619 20.652a8.052 8.052 0 00-8.052 8.052 7.99 7.99 0 00.789 3.479c.028.061 7.263 14.237 7.263 14.237l7.176-14.061a7.993 7.993 0 00.876-3.655 8.05 8.05 0 00-8.052-8.052m0 12.884a4.832 4.832 0 010-9.662 4.832 4.832 0 010 9.662"/>
  <path fill="none" stroke="#236666" stroke-miterlimit="10" d="M9.333 9.25h48.572v48.572H9.333z"/>
</svg>