<svg xmlns="http://www.w3.org/2000/svg" width="67.67" height="67.67">
  <defs>
    <path id="a" d="M270.08-300.85l540 1.46v641.14l-540-1.46z"/>
  </defs>
  <defs>
    <path id="b" d="M270.08-300.85l540 1.46v641.14l-540-1.46z"/>
  </defs>
  <path fill="none" stroke="#3D2877" stroke-miterlimit="10" d="M54.78 37.05v6.78c0 .12-.02.15-.15.15H22.7c-.08-.2-.08-.38.05-.55l.03-.08c-.01-.13.05-.3-.1-.36-.16-.08-.18-.1-.08-.25.16-.26.16-.26-.02-.51-.03-.04-.06-.09-.02-.13.04-.05.08-.02.12 0 .16.05.21.01.22-.16v-.1c0-.13.05-.2.19-.13.07.05.14.05.2-.02l.23-.3c.06-.07.03-.13-.05-.18a.56.56 0 01-.22-.15c-.03-.03-.07-.07-.04-.11.04-.06.08 0 .12.01.3.13.4.07.59-.2.15-.2.27-.39.31-.64.01-.07.07-.12.11-.19.07-.1.11-.22.1-.35-.04-.25-.02-.28.24-.35.2-.05.41-.1.6-.2a.3.3 0 00.13-.13c.18-.36.22-.75.27-1.14.04-.36.1-.72.4-1 .09-.09.13-.2.16-.32.03-.14.02-.27-.14-.34-.1-.05-.2-.1-.3-.17-.2-.15-.43-.25-.69-.25-.21 0-.43-.03-.58-.2-.04-.05-.1-.1-.16-.1-.2 0-.4-.16-.63-.03.01-.1.08-.15.11-.21.04-.07.07-.14.03-.22-.04-.1-.08-.19-.13-.27-.08-.13-.2-.25-.34-.26-.26-.01-.43-.15-.6-.32a.74.74 0 00-.4-.25.5.5 0 01-.35-.24c-.05-.11-.12-.11-.22-.11-.22 0-.44.02-.65-.1-.08-.04-.18-.15-.26-.09-.07.05-.08.18-.12.27-.02.05-.04.14-.11.12-.06-.02-.03-.09-.03-.13a.4.4 0 00-.17-.33c-.1-.06-.09.1-.15.16h-.01c-.22.05-.3.24-.44.37-.18.16-.2.26-.07.46.03.05.06.1.02.17-.17.33-.35.65-.58.95-.08.12-.11.21 0 .33.04.06.06.12 0 .19-.16.18-.16.25-.01.43.2.24.37.5.48.81.08.22.2.41.39.56l.37.3c.11.09.21.19.35.24.29.11.36.24.3.54a.99.99 0 00-.02.21c0 .36.04.72.05 1.09.03.56.1 1.13.12 1.7 0 .07 0 .16.04.2.16.18.24.4.35.6.06.14.06.22-.02.32-.06.08-.07.15-.02.23l.26.45c.12.23.33.32.52.45H12.1c-.11 0-.13-.01-.13-.13v-18.4c.13.04.33 0 .3.24.31-.06.63-.11.88-.33.03-.02.08-.05.1 0 .06.12.12.04.18.02.12-.03.22-.14.36-.12l.79.13c.3.04.5.28.5.58-.01.3-.09.61.02.92.05.13.1.3-.11.36-.02 0-.03.03-.04.05-.07.26-.26.43-.4.64-.2.3-.51.56-.41.99v.05c.04.28.1.55.38.7.1.05.13.13.12.24-.02.27.08.51.16.77.04.17.15.32.27.47a3.2 3.2 0 00-.27-.98c-.03-.08-.02-.16.06-.2.1-.04.1.06.14.1.11.14.1.32.17.47.1.23.25.42.37.64.12.22.32.44.24.73-.01.05 0 .1.06.14.24.14.46.34.73.45.16.06.33.14.5.08.17-.05.3 0 .42.1.13.12.27.25.46.25.2 0 .32.07.43.21.07.09.13.17.14.28 0 .07.03.12.07.17.17.2.43.21.64.36 0-.12-.06-.17-.11-.2-.24-.14-.31-.35-.29-.6l.03-.25c.03-.33-.07-.43-.41-.4l-.06.02c-.17.02-.18.01-.12-.14l.21-.56c.05-.11 0-.17-.11-.2-.2-.03-.27.01-.36.24-.1.22-.27.3-.56.27a.54.54 0 01-.47-.42c-.05-.27.1-.49.16-.72.05-.14.04-.32.17-.42.23-.18.5-.32.8-.37.07 0 .1.03.13.07.1.1.27.1.36 0 .15-.2.21-.22.46-.14.23.07.35.2.37.4 0 .12.03.24.08.35.05.1.1.12.19.03.11-.13.1-.27.07-.42-.12-.42-.1-.51.26-.76l.61-.41c.05-.03.11-.07.14-.12.06-.18.21-.3.33-.43.14-.16.28-.34.46-.4.2-.07.3-.16.43-.32.2-.24.5-.32.8-.42l-.07.07c-.07.08-.12.2-.05.28.06.07.15-.04.2-.1a.6.6 0 01.38-.19c.1 0 .18-.06.27-.1.04-.02.08-.06.05-.12s-.08-.03-.12-.02c-.08.03-.15.06-.24.06-.09-.01-.2 0-.24-.08-.03-.09.1-.11.14-.17.03-.02.08-.04.06-.09-.02-.04-.07-.03-.1-.03l-.39.03c-.05 0-.14.03-.15-.05-.02-.08.07-.09.12-.1.34-.14.7-.2 1.05-.17.34.03.57-.13.78-.37.04-.04.08-.1.04-.16s-.07-.15-.17-.12c-.06.02-.09 0-.11-.04-.12-.17-.24-.33-.16-.56v-.12c.02-.11-.04-.15-.15-.1l-.34.17c-.17.08-.24.03-.25-.15 0-.19-.06-.27-.25-.31l-.19-.04c-.14-.06-.23-.01-.32.09-.08.08-.14.2-.26.2-.13 0-.14.08-.15.17 0 .1-.02.2 0 .3.05.16 0 .23-.16.27-.23.06-.47.12-.49.43 0 .12-.1.18-.24.14-.12-.04-.2-.1-.17-.24 0-.05 0-.1.03-.13.13-.17 0-.18-.12-.2-.24-.04-.48-.07-.68-.24-.17-.14-.2-.32-.05-.48.3-.3.68-.45 1.07-.56.15-.04.27-.09.27-.26 0-.12.06-.12.13-.05.06.06.1.1.18.02.14-.12.3-.18.48-.2a.53.53 0 00.3-.17c.05-.05.06-.1.03-.16-.04-.06-.1-.04-.15 0-.1.08-.22.1-.34.14-.1.05-.23.13-.24-.09 0-.02-.05-.05-.07-.07-.06-.03-.07-.07-.08-.13 0-.17-.03-.19-.2-.14-.1.02-.14.1-.18.18-.06.15-.16.26-.28.37-.06.05-.12.08-.2.04-.3-.15-.6-.15-.93-.14-.14 0-.26.03-.35.14-.03.03-.07.1-.1.05-.18-.16-.49-.04-.62-.28-.01-.02-.05-.02-.06-.02-.36 0-.7-.05-1.05-.1a2.6 2.6 0 00-1.11.18c-.32.1-.48.06-.65-.21-.07-.12-.15-.13-.27-.14-.46-.04-.9.11-1.36.11-.3 0-.59.13-.88.14-.13.01-.24.07-.35.12-.06.03-.1.07-.04.13.04.06.07.11.02.18-.06.08-.13.04-.2.02-.11-.03-.22-.09-.34-.04-.07.04-.18.07-.13.18.04.1.13.14.24.06a.2.2 0 01.08-.04c.03-.01.08-.03.1 0 .03.05-.01.08-.04.1-.13.17-.31.19-.5.18-.24 0-.4.12-.52.3v-2.97c0-.11.02-.14.14-.14H25c-.06.05-.14.06-.22.07-.13.04-.28.04-.39.14a.65.65 0 01-.37.13c-.24.02-.49.06-.73.1-.1.02-.2.1-.2.2s.1.16.2.18c.13.01.23.05.34.1.11.07.23.07.35 0 .07-.04.14-.07.22-.05.05.02.07-.01.1-.05.05-.1.16-.14.27-.17l1.29-.28c.04 0 .1-.05.12.02.01.06.03.12-.04.17-.1.06-.2.09-.32.07a.84.84 0 00-.33 0c-.04 0-.09 0-.1.05 0 .06.05.07.1.09l.11.01c.14.04.3.02.43.11.3.21.47.5.53.86.02.15-.07.27-.21.28a.51.51 0 01-.19 0c-.11-.02-.14.04-.11.14l.09.35c.07.27.2.49.45.63.13.07.21.04.29-.06.1-.13.21-.26.28-.41a.47.47 0 01.34-.27c.12-.02.24-.06.35-.1.07-.01.15-.03.18-.1.07-.12.2-.16.31-.18.31-.04.61-.15.92-.16.18 0 .33-.16.33-.32-.02-.38-.01-.39.36-.44.13-.02.32-.04.33-.2.02-.26.17-.35.35-.44.05-.03.14-.04.12-.1-.01-.07-.06-.15-.15-.16-.2-.03-.39-.13-.6-.03-.07.03-.16.02-.24.02h-1.2c-.22 0-.45 0-.66-.11-.04-.02-.08-.01-.13 0-.64.16-1.27.04-1.91 0-.13-.02-.27-.03-.4-.09h29.37c.13 0 .15.03.15.16v14.77c-.1-.08-.2-.15-.28-.24-.11-.12-.36-.16-.27-.41l-.02-.04c-.1-.05-.11-.13-.17-.2-.04-.07-.08-.12-.15-.15-.32-.12-.63-.23-.94-.36-.14-.06-.22-.05-.3.1-.12.2-.3.18-.42-.01-.05-.08-.05-.17-.07-.25-.01-.06-.04-.12-.1-.1-.08 0-.19-.02-.22.05-.04.06.06.09.1.13.03.04.12.06.08.14-.1.18.03.2.15.23.15.02.3.06.43.13.12.06.27.12.26.29 0 .15-.03.27.18.25.03 0 .06.05.1.07.13.1.41.1.5.01.12-.11.2-.09.32.02.23.2.45.45.82.37zm-20.06-7.33c-.07.35-.17.44-.43.4-.08-.01-.14-.07-.2-.1-.15-.08-.28-.19-.45-.19-.1 0-.18-.01-.23-.1-.03-.05-.07-.08-.12-.1-.1-.02-.12-.09-.12-.18s.02-.17.07-.25c.03-.04.05-.09.01-.14-.03-.04-.09-.04-.13-.02-.3.11-.63.11-.94.15-.23.01-.43.2-.69.13a.45.45 0 00-.34.04c-.05.03-.1.04-.15 0-.08-.09-.13-.04-.18.02-.1.14-.23.26-.38.35-.12.07-.2.2-.2.35.01.12-.04.18-.12.25-.26.2-.5.42-.66.7-.16.27-.34.53-.26.87.05.25.01.5-.1.73-.03.06-.05.11-.03.19.04.23.08.46.33.59.05.03.08.11.12.18.07.12.12.25.21.35.24.3.5.57.93.54.13-.01.23-.13.34-.12.27.02.51-.1.76-.16.3-.07.6-.12.79.21.03.06.1.06.16.06.14-.02.25.04.33.15.13.19.12.39.05.6-.04.1-.11.23 0 .32.3.23.4.6.54.92.11.23.08.5.1.74.02.16-.09.3-.16.43-.14.23-.18.46-.03.72.22.37.41.75.4 1.2 0 .12 0 .28.1.38.22.23.33.5.39.82.05.27.16.31.42.23h.07c.4-.03.75-.17 1.02-.5l.3-.3a.75.75 0 00.24-.3c.1-.19.17-.4.37-.53.18-.1.17-.26.12-.4-.08-.17-.02-.32.07-.46.13-.22.33-.38.54-.51.19-.12.23-.3.23-.5 0-.34-.08-.67-.18-1-.08-.24-.04-.44.13-.62.33-.36.57-.8.94-1.13.18-.16.28-.41.44-.6.16-.2.21-.43.27-.67.02-.11-.03-.11-.12-.1-.1.03-.2.09-.32.07a1.8 1.8 0 00-.62.03c-.11.02-.2-.02-.22-.14a1.63 1.63 0 00-.48-.8c-.2-.22-.35-.46-.47-.71-.17-.38-.3-.77-.5-1.14l-.15-.27c.12.07.19.1.27.08.05-.01.1.03.13.07.13.16.28.32.36.5.17.36.34.71.6 1.01.2.22.26.5.34.78.05.16.18.24.33.21.11-.02.23-.04.33-.1.2-.14.42-.24.64-.33.12-.04.23-.1.33-.19.3-.22.47-.55.72-.81.08-.08.02-.15-.06-.2a.91.91 0 01-.36-.34c-.04-.08-.01-.22-.12-.23-.1 0-.15.13-.21.2a.43.43 0 01-.73-.12l-.2-.52c-.03-.1-.07-.2 0-.3l.04.04c.24.25.49.48.86.5.17 0 .33.02.46.17.06.08.17.13.28.14.21.02.42.04.63.04.14-.01.28-.02.41.05.24.14.45.32.62.54.1.12.2.2.32.1.16-.11.2 0 .25.1.04.07.03.14.01.2-.03.13 0 .25.05.37.1.26.25.5.33.78l.18.52c.07.18.17.21.34.1.14-.11.23-.24.2-.43-.02-.1-.01-.22-.02-.33a.85.85 0 01.32-.78c.24-.16.45-.34.64-.54.07-.07.16-.16.27-.17.29-.02.54.13.66.4.05.1.1.23.2.28.16.1.23.2.24.39 0 .08.06.13.15.06.13-.12.18-.05.24.08.11.23.11.47.1.72 0 .13 0 .26.12.36.07-.13.06-.27.05-.4 0-.11 0-.21.06-.3.04-.05.09-.11.13-.03.12.2.33.34.47.54.12.17.21.18.39.05.13-.1.25-.22.34-.36.06-.1.13-.22.06-.33-.15-.26-.28-.53-.52-.73-.25-.2-.25-.2-.07-.47l.04-.06c.07-.09.13-.18.26-.13.13.05.22.12.22.28v.22c0 .03 0 .07.03.09.05.01.07-.03.09-.06.06-.12.14-.23.2-.36.1-.2.25-.35.5-.4.21-.02.36-.17.46-.35.1-.16.2-.33.16-.55a1.02 1.02 0 00-.34-.61l-.23-.27c-.09-.1-.14-.22 0-.35.03-.03.05-.08.06-.13.03-.06 0-.1-.06-.07-.17.05-.33-.02-.5 0-.13.03-.16-.04-.1-.15l.3-.4c.14-.15.2-.13.26.05 0 .04.02.07.04.1.03.1.1.13.2.05.13-.1.24-.07.28.1.02.1.07.18.17.21.15.06.23.15.22.33-.01.08.03.15.11.18s.15.01.22-.05c.06-.05.1-.1.15-.18.07-.1.05-.18-.05-.25a4.24 4.24 0 00-.28-.2c-.27-.18-.28-.22-.12-.5.01-.03.03-.05.03-.08 0-.22.13-.25.31-.24.07 0 .15.01.19-.08.07-.17.15-.33.15-.53.02-.3-.02-.55-.24-.8-.14-.14-.26-.23-.45-.24h-.4c-.1 0-.24 0-.28-.15-.08-.3.15-.7.45-.8a.25.25 0 01.12 0c.25.06.53.07.78.13.22.05.25.03.28-.19 0-.04 0-.09.03-.13.08-.16.14-.18.3-.08.1.06.17.04.24-.03.07-.08.16-.1.23-.03.08.06.09.3.03.39-.19.25-.12.52.16.67.04.02.1.04.1.09.05.26.29.35.44.52.08.09.13.02.14-.08 0-.15.01-.3.03-.44.02-.26-.12-.47-.33-.53-.06-.02-.12-.02-.13-.1-.02-.08 0-.15.07-.2l.32-.17c.1-.04.1.02.09.09 0 .04-.04.1.02.11.05.02.08-.03.1-.06l.14-.15c.08-.1.16-.17.3-.16.04 0 .1 0 .12-.06.01-.07-.06-.07-.1-.1l-.46-.25c.2-.28.45-.18.69-.1l.29.07c.04.01.09.03.12-.03-.23-.33-.58-.35-.93-.33-.08 0-.17.02-.25-.01-.46-.2-.96-.21-1.45-.31-.07-.01-.13 0-.16.07-.05.1-.11.1-.21.08a4.95 4.95 0 00-1.27-.17c-.06 0-.12 0-.18-.04a.6.6 0 00-.36-.09c-.22 0-.44-.02-.66 0-.35.04-.65-.1-.95-.23-.1-.04-.12-.03-.17.05-.1.15-.24.28-.44.23-.18-.04-.37-.04-.55-.07-.15-.02-.31 0-.45-.08a1.24 1.24 0 00-.98-.07.72.72 0 01-.52 0c-.22-.11-.44-.12-.67-.08-.07.02-.17.04-.21-.04-.04-.08.05-.13.09-.18.03-.05.12-.08.09-.15-.03-.06-.11-.07-.17-.08a.57.57 0 00-.24 0c-.05.02-.13.04-.18.01-.18-.1-.37-.07-.57-.05-.13 0-.27.03-.4.02-.11-.02-.19.02-.26.09-.1.1-.24.16-.38.2-.22.04-.45.02-.66.08-.32.1-.33.08-.22.4.03.09.01.16-.07.22-.09.06-.14-.02-.19-.08l-.22-.35c0 .18.1.33.16.48.03.05.06.1.01.16-.05.05-.12.05-.18.04-.07-.01-.1-.06-.11-.13V24c-.04-.3-.27-.51-.55-.5-.1.02-.14.06-.12.16.04.15.14.27.25.35.14.11.06.15-.03.19-.28.1-.53 0-.74-.16-.12-.1-.22-.1-.32-.02-.2.18-.43.18-.67.11a.23.23 0 00-.2.02c-.13.09-.28.12-.43.17-.26.08-.46.26-.67.43-.07.05-.14.13-.24.05l-.32-.26c-.1-.08-.08-.13.04-.16.11-.03.2-.03.31.02.12.06.23.04.28-.1.05-.14-.09-.14-.17-.16-.08-.03-.17-.04-.26-.08-.48-.2-1-.2-1.5-.25a.64.64 0 00-.38.12c-.32.22-.63.45-.93.69-.07.06-.16.12-.18.21-.03.18-.16.21-.3.22-.06 0-.11-.01-.13.05-.05.15-.07.3 0 .45.07-.01.1-.13.17-.09.21.11.48.14.57.42.05.13.21.19.33.13.21-.1.3-.3.42-.48.07-.1-.05-.16-.05-.24v-.12c.03-.25.28-.5.54-.53.04-.01.08 0 .11.03.04.05.02.09 0 .13l-.14.2c-.05.08-.05.14 0 .2.05.07.1.12.2.1l.26-.03c.08-.01.18-.03.2.08.02.12-.09.14-.17.16a.15.15 0 01-.1 0c-.17-.07-.21-.03-.16.15.05.16-.02.22-.18.18-.12-.02-.12.05-.14.13-.03.19-.1.25-.29.25-.14 0-.28 0-.4.09-.06.05-.12.02-.18-.03-.1-.08-.23-.1-.33-.05-.13.06-.23-.01-.34-.01-.12 0-.17.17-.3.19h-.03c-.12.03-.23.06-.25.21 0 .05-.05.07-.1.08a.23.23 0 00-.2.11c-.12.2-.33.22-.53.25-.08 0-.2-.04-.22.06-.02.09.12.09.17.14l.01.03c-.08.06-.2 0-.3.07l.21.17c.12.12.17.34.09.44-.07.1-.27.14-.43.07-.06-.03-.13-.06-.2-.07-.26-.06-.4.05-.4.32 0 .14 0 .26-.03.4-.04.1 0 .22.06.31.06.07.63.18.7.14l.35-.2a.29.29 0 00.14-.23c.01-.15.1-.26.24-.32a.27.27 0 00.15-.12c.1-.17.24-.29.47-.2.06.01.17.02.18-.1 0-.12.04-.1.14-.1.1.02.17.06.22.15.05.1.14.16.24.19.22.07.37.2.51.37.08.07.06.12.01.2-.06.1-.17.1-.26.15.05.07.11.09.17.05.1-.08.2-.16.25-.29.03-.07.01-.16.15-.12.06.01.03-.06 0-.1-.1-.1-.2-.2-.34-.26-.18-.08-.3-.22-.41-.37-.03-.05-.07-.1-.01-.16.04-.03.1-.02.14.01.11.06.22.14.33.23.1.08.18.19.3.21.13.02.18.1.2.2.03.28.23.46.37.68.05.09.14.08.2-.03.07-.11.13-.21 0-.31-.04-.03-.05-.1-.02-.15.01-.03.04-.05.08-.03.1.06.2 0 .3-.04.11-.08.15-.05.14.09-.02.43.14.58.57.63h.08c.2-.04.4.01.6 0 .12 0 .16.06.15.18-.02.18-.08.35-.17.5-.08.16-.19.23-.36.22-.2-.02-.41-.03-.62-.03-.38 0-.72-.1-1.05-.31zm18.65 7.5a2.5 2.5 0 01-.27.76c-.07.12-.24.22-.35.16a1.1 1.1 0 01-.41-.33c-.08-.11 0-.25.04-.37.06-.1.01-.14-.09-.15-.09-.01-.17 0-.26-.02-.24-.03-.65.25-.68.49-.02.08-.04.09-.11.07-.07-.03-.13-.04-.17-.12-.08-.15-.23-.18-.32-.04-.1.13-.26.22-.3.4 0 .06-.04.06-.08.03-.1-.1-.14 0-.15.06-.06.22-.23.32-.43.4-.17.08-.35.11-.52.19-.27.1-.54.22-.54.6 0 .32-.1.64-.05.98.02.18.08.4-.09.59-.05.06.02.1.08.12a.5.5 0 00.2-.01c.43-.11.86-.19 1.28-.34.24-.1.48-.19.75-.16h.03c.18-.03.41.12.44.3.01.15.09.15.19.1.1-.06.2-.12.33-.17 0 .13-.13.23-.05.34.07.1.07.2.07.31 0 .2.16.3.35.26a.3.3 0 01.27.05c.03.03.07.05.11.02.3-.14.63-.23.85-.51.05-.06.1-.13.16-.17.36-.28.62-.6.76-1.04.09-.28.09-.54.03-.81-.01-.05-.04-.1-.1-.1-.2-.07-.26-.23-.32-.4-.04-.13-.09-.23-.2-.29-.07-.02-.09-.06-.08-.12.07-.42-.18-.74-.37-1.08zm-29.1-12.83c.09-.03.16.1.23 0s.02-.18 0-.27c-.04-.09-.1-.14-.17-.21-.04-.04-.08-.08-.05-.14.05-.12-.03-.15-.12-.17-.1-.02-.23-.01-.3-.08-.25-.2-.51-.15-.78-.08-.05.02-.1.04-.16.02-.15-.07-.28-.03-.35.1-.05.12.04.2.1.25.05.07.1.01.15-.04.06-.09.15-.07.24-.05.12.03.25.08.37.1.12.02.2.08.23.19l.07.19c.07.15 0 .25-.13.3-.07.05-.15.07-.23.11-.07.04-.1.1-.02.16.2.14.42.26.67.29.12.02.16-.05.1-.16-.03-.06-.07-.11-.02-.17.05-.06.1-.02.15 0 .04.02.08.05.11.01.03-.03.01-.07 0-.11-.02-.08-.08-.14-.09-.24zm25.53 10.1c0-.17-.09-.24-.2-.3-.1-.05-.14.05-.2.11a.57.57 0 01-.36.24.16.16 0 00-.15.12c-.04.11-.1.21-.16.32-.03.08-.07.1-.14.08-.14-.05-.17.04-.16.15 0 .14.06.27.13.4.06.11.15.18.3.17.12-.01.25 0 .38.02.1.03.2 0 .22-.11.04-.2.23-.3.28-.5.02-.07.07-.14.02-.2-.07-.14-.07-.26 0-.39.03-.04.04-.1.04-.12zm-10.66 2.88c-.1.36-.39.44-.64.56-.12.05-.15.11-.13.24.03.19.08.42-.06.56-.17.16-.14.32-.12.5.02.12.05.26.21.27.21.01.38-.13.4-.3 0-.1 0-.23.07-.33.17-.32.29-.66.36-1.02.03-.15 0-.3-.1-.48zm-20.41-13.8c.14.02.25.1.39.1.08 0 .12.03.1.12-.01.14.08.21.2.23.12.02.26.04.39-.01.07-.03.15-.07.2-.03.25.13.45-.03.67-.07.08-.02.14-.37.08-.42h-.08c-.05 0-.1.04-.14.04-.26.03-.52.17-.78-.07-.33-.3-.72-.25-1.03.12zM46.38 34.4c.12.25.3.44.43.67.2.33.4.64.61.95.05.07.1.15.16.2.14.1.27.05.3-.11a.34.34 0 00-.03-.25c-.14-.26-.32-.5-.49-.75-.05-.08-.1-.17-.2-.19-.21-.04-.34-.17-.44-.34-.07-.13-.18-.19-.34-.18z"/>
  <path clip-rule="evenodd" fill="none" stroke="#FFF" stroke-miterlimit="10" d="M11.96 25.2c.12-.18.27-.3.51-.3.19 0 .38 0 .5-.17.03-.03.07-.06.04-.1-.02-.04-.07-.02-.1 0-.03 0-.06.01-.08.03-.11.08-.2.04-.25-.06-.04-.1.07-.14.14-.18.12-.05.23.01.34.04.07.02.14.06.2-.02.05-.06.02-.12-.03-.18s-.01-.1.04-.13c.11-.05.23-.1.35-.12.3 0 .58-.14.88-.14.46 0 .9-.15 1.37-.11.11.01.2.02.27.14.17.27.33.32.64.21a2.6 2.6 0 011.12-.17c.34.04.69.08 1.04.1l.06.01c.14.25.45.12.62.28.04.04.08-.02.1-.05.1-.11.22-.14.36-.14.32-.01.63 0 .93.14.07.04.14 0 .2-.04.11-.11.22-.22.28-.37.03-.09.09-.16.18-.18.16-.05.2-.03.2.14 0 .06.02.1.07.13l.08.07c0 .23.13.14.24.1.12-.05.24-.07.34-.15.05-.03.1-.05.15 0 .03.06.01.11-.03.16a.52.52 0 01-.3.16.89.89 0 00-.48.21c-.08.07-.13.04-.18-.02-.07-.07-.13-.07-.13.05 0 .17-.12.23-.27.26-.4.11-.78.25-1.07.56-.15.16-.13.34.04.48.2.17.45.2.69.23.12.03.24.04.12.2-.03.04-.03.1-.04.14-.02.13.05.2.18.24.13.04.23-.01.24-.13.02-.32.25-.38.48-.44.17-.04.21-.11.17-.27-.02-.1-.01-.2 0-.3 0-.09.01-.16.15-.17.11 0 .18-.12.25-.2.1-.1.2-.15.33-.1.06.03.13.03.2.05.18.04.24.12.24.31 0 .18.08.23.24.15l.35-.17c.1-.05.16-.01.16.1 0 .04 0 .09-.02.12-.07.23.05.4.16.56.03.04.05.07.11.04.1-.03.14.06.18.12.04.06 0 .12-.04.16-.2.24-.44.4-.78.37-.36-.02-.71.03-1.05.16-.05.02-.14.03-.13.1.02.1.1.06.16.06.13 0 .25-.02.38-.03.04 0 .09 0 .1.04.02.04-.03.06-.05.08-.05.06-.18.08-.14.17.03.08.15.07.23.08.1 0 .17-.03.25-.06.04-.01.09-.04.11.02.03.06 0 .1-.05.13-.08.03-.17.08-.26.1a.6.6 0 00-.38.18c-.05.06-.14.17-.2.1-.07-.08-.03-.2.05-.28l.06-.07c-.3.1-.6.18-.8.42a.84.84 0 01-.43.32c-.17.06-.32.24-.45.4-.12.13-.27.25-.34.43-.02.06-.08.09-.13.12l-.61.41c-.35.25-.39.34-.27.76.04.15.05.29-.07.42-.08.09-.13.08-.18-.03a.96.96 0 01-.08-.35c-.02-.2-.14-.33-.37-.4-.25-.07-.32-.06-.47.13-.09.11-.25.12-.35 0-.04-.03-.07-.07-.13-.06-.3.05-.57.2-.8.37-.13.1-.13.28-.17.42-.07.23-.21.45-.16.72.04.2.22.38.46.42.3.03.46-.04.56-.27.1-.23.17-.27.36-.23.11.02.16.08.12.2l-.22.55c-.05.15-.04.16.12.14l.07-.01c.34-.04.44.06.4.4l-.02.24c-.03.26.05.46.28.6.06.03.12.08.11.2-.2-.15-.46-.17-.63-.36a.28.28 0 01-.07-.17.53.53 0 00-.14-.28.5.5 0 00-.44-.21c-.18 0-.32-.13-.46-.25-.12-.1-.25-.14-.4-.1-.18.06-.35-.02-.51-.08-.27-.1-.49-.3-.74-.45a.12.12 0 01-.05-.14c.07-.3-.13-.5-.24-.73-.12-.22-.27-.41-.38-.64-.07-.15-.05-.33-.16-.47-.04-.05-.05-.14-.14-.1-.08.04-.1.12-.06.2.12.31.24.62.27.98-.13-.15-.23-.3-.28-.47-.07-.26-.18-.5-.15-.77a.22.22 0 00-.12-.24c-.29-.15-.34-.42-.38-.7v-.05c-.1-.43.2-.69.4-.99.14-.2.34-.38.4-.64l.04-.05c.21-.07.16-.23.12-.36-.12-.3-.03-.62-.03-.92 0-.3-.2-.54-.5-.58l-.79-.13c-.14-.02-.23.1-.35.12-.07.02-.13.1-.18-.02-.02-.05-.07-.02-.1 0-.26.22-.57.27-.88.33.02-.23-.18-.2-.3-.24v-.23z"/>
  <path fill="none" stroke="#3D2877" stroke-miterlimit="10" d="M11.96 25.2c.12-.18.27-.3.51-.3.19 0 .38 0 .5-.17.03-.03.07-.06.04-.1-.02-.04-.07-.02-.1 0-.03 0-.06.01-.08.03-.11.08-.2.04-.25-.06-.04-.1.07-.14.14-.18.12-.05.23.01.34.04.07.02.14.06.2-.02.05-.06.02-.12-.03-.18s-.01-.1.04-.13c.11-.05.23-.1.35-.12.3 0 .58-.14.88-.14.46 0 .9-.15 1.37-.11.11.01.2.02.27.14.17.27.33.32.64.21a2.6 2.6 0 011.12-.17c.34.04.69.08 1.04.1l.06.01c.14.25.45.12.62.28.04.04.08-.02.1-.05.1-.11.22-.14.36-.14.32-.01.63 0 .93.14.07.04.14 0 .2-.04.11-.11.22-.22.28-.37.03-.09.09-.16.18-.18.16-.05.2-.03.2.14 0 .06.02.1.07.13l.08.07c0 .23.13.14.24.1.12-.05.24-.07.34-.15.05-.03.1-.05.15 0 .03.06.01.11-.03.16a.52.52 0 01-.3.16.89.89 0 00-.48.21c-.08.07-.13.04-.18-.02-.07-.07-.13-.07-.13.05 0 .17-.12.23-.27.26-.4.11-.78.25-1.07.56-.15.16-.13.34.04.48.2.17.45.2.69.23.12.03.24.04.12.2-.03.04-.03.1-.04.14-.02.13.05.2.18.24.13.04.23-.01.24-.13.02-.32.25-.38.48-.44.17-.04.21-.11.17-.27-.02-.1-.01-.2 0-.3 0-.09.01-.16.15-.17.11 0 .18-.12.25-.2.1-.1.2-.15.33-.1.06.03.13.03.2.05.18.04.24.12.24.31 0 .18.08.23.24.15l.35-.17c.1-.05.16-.01.16.1 0 .04 0 .09-.02.12-.07.23.05.4.16.56.03.04.05.07.11.04.1-.03.14.06.18.12.04.06 0 .12-.04.16-.2.24-.44.4-.78.37-.36-.02-.71.03-1.05.16-.05.02-.14.03-.13.1.02.1.1.06.16.06.13 0 .25-.02.38-.03.04 0 .09 0 .1.04.02.04-.03.06-.05.08-.05.06-.18.08-.14.17.03.08.15.07.23.08.1 0 .17-.03.25-.06.04-.01.09-.04.11.02.03.06 0 .1-.05.13-.08.03-.17.08-.26.1a.6.6 0 00-.38.18c-.05.06-.14.17-.2.1-.07-.08-.03-.2.05-.28l.06-.07c-.3.1-.6.18-.8.42a.84.84 0 01-.43.32c-.17.06-.32.24-.45.4-.12.13-.27.25-.34.43-.02.06-.08.09-.13.12l-.61.41c-.35.25-.39.34-.27.76.04.15.05.29-.07.42-.08.09-.13.08-.18-.03a.96.96 0 01-.08-.35c-.02-.2-.14-.33-.37-.4-.25-.07-.32-.06-.47.13-.09.11-.25.12-.35 0-.04-.03-.07-.07-.13-.06-.3.05-.57.2-.8.37-.13.1-.13.28-.17.42-.07.23-.21.45-.16.72.04.2.22.38.46.42.3.03.46-.04.56-.27.1-.23.17-.27.36-.23.11.02.16.08.12.2l-.22.55c-.05.15-.04.16.12.14l.07-.01c.34-.04.44.06.4.4l-.02.24c-.03.26.05.46.28.6.06.03.12.08.11.2-.2-.15-.46-.17-.63-.36a.28.28 0 01-.07-.17.53.53 0 00-.14-.28.5.5 0 00-.44-.21c-.18 0-.32-.13-.46-.25-.12-.1-.25-.14-.4-.1-.18.06-.35-.02-.51-.08-.27-.1-.49-.3-.74-.45a.12.12 0 01-.05-.14c.07-.3-.13-.5-.24-.73-.12-.22-.27-.41-.38-.64-.07-.15-.05-.33-.16-.47-.04-.05-.05-.14-.14-.1-.08.04-.1.12-.06.2.12.31.24.62.27.98-.13-.15-.23-.3-.28-.47-.07-.26-.18-.5-.15-.77a.22.22 0 00-.12-.24c-.29-.15-.34-.42-.38-.7v-.05c-.1-.43.2-.69.4-.99.14-.2.34-.38.4-.64l.04-.05c.21-.07.16-.23.12-.36-.12-.3-.03-.62-.03-.92 0-.3-.2-.54-.5-.58l-.79-.13c-.14-.02-.23.1-.35.12-.07.02-.13.1-.18-.02-.02-.05-.07-.02-.1 0-.26.22-.57.27-.88.33.02-.23-.18-.2-.3-.24v-.23z"/>
  <path clip-rule="evenodd" fill="none" stroke="#FFF" stroke-miterlimit="10" d="M22.43 43.98c-.19-.14-.4-.23-.52-.46l-.26-.45c-.05-.08-.05-.15.02-.23.08-.1.07-.18.01-.31-.1-.2-.19-.42-.34-.6-.04-.05-.05-.14-.05-.21-.02-.57-.09-1.14-.11-1.7l-.06-1.08c0-.07 0-.15.02-.22.06-.3 0-.43-.3-.54-.13-.05-.23-.15-.34-.23l-.38-.3a1.2 1.2 0 01-.38-.57c-.1-.3-.28-.56-.48-.8-.16-.19-.15-.26 0-.44.07-.07.05-.13 0-.19-.1-.12-.07-.21.01-.33.22-.3.4-.62.58-.95.04-.07 0-.11-.03-.17-.12-.2-.1-.3.07-.46.14-.13.23-.32.45-.36v-.01c.07-.05.07-.21.16-.16.1.06.17.2.17.33 0 .04-.03.12.03.13.07.02.08-.07.11-.12.04-.1.05-.22.12-.27.08-.06.18.05.26.1.21.11.43.09.65.09.1 0 .17 0 .22.11.06.12.2.22.35.24.17.04.3.13.4.25.17.17.34.31.6.33.14 0 .26.12.34.25.05.09.1.18.13.27.04.08.01.15-.03.22-.03.07-.1.1-.1.22.22-.14.41.02.62.02.07 0 .12.05.16.1.15.17.37.2.59.2.26 0 .48.1.68.25l.3.18c.16.07.18.2.14.33a.64.64 0 01-.16.33c-.29.27-.35.63-.4 1-.04.38-.09.77-.26 1.13a.29.29 0 01-.14.13c-.19.1-.4.15-.6.2-.25.07-.28.1-.24.36a.53.53 0 01-.1.35c-.03.06-.1.12-.1.18-.05.25-.17.45-.32.65-.2.27-.29.32-.59.2-.04-.02-.08-.07-.11-.02s0 .09.03.12c.06.07.14.11.22.15.08.04.1.1.05.17l-.24.3c-.05.07-.12.07-.2.03-.13-.07-.18 0-.18.13v.1c0 .17-.06.2-.22.15-.04-.01-.08-.05-.12 0-.03.05-.01.09.02.13.18.26.18.26.02.51-.1.16-.08.17.08.25.15.07.1.23.1.36 0 .02-.01.06-.03.08-.13.17-.13.35-.05.55h-.27z"/>
  <path fill="none" stroke="#3D2877" stroke-miterlimit="10" d="M22.43 43.98c-.19-.14-.4-.23-.52-.46l-.26-.45c-.05-.08-.05-.15.02-.23.08-.1.07-.18.01-.31-.1-.2-.19-.42-.34-.6-.04-.05-.05-.14-.05-.21-.02-.57-.09-1.14-.11-1.7l-.06-1.08c0-.07 0-.15.02-.22.06-.3 0-.43-.3-.54-.13-.05-.23-.15-.34-.23l-.38-.3a1.2 1.2 0 01-.38-.57c-.1-.3-.28-.56-.48-.8-.16-.19-.15-.26 0-.44.07-.07.05-.13 0-.19-.1-.12-.07-.21.01-.33.22-.3.4-.62.58-.95.04-.07 0-.11-.03-.17-.12-.2-.1-.3.07-.46.14-.13.23-.32.45-.36v-.01c.07-.05.07-.21.16-.16.1.06.17.2.17.33 0 .04-.03.12.03.13.07.02.08-.07.11-.12.04-.1.05-.22.12-.27.08-.06.18.05.26.1.21.11.43.09.65.09.1 0 .17 0 .22.11.06.12.2.22.35.24.17.04.3.13.4.25.17.17.34.31.6.33.14 0 .26.12.34.25.05.09.1.18.13.27.04.08.01.15-.03.22-.03.07-.1.1-.1.22.22-.14.41.02.62.02.07 0 .12.05.16.1.15.17.37.2.59.2.26 0 .48.1.68.25l.3.18c.16.07.18.2.14.33a.64.64 0 01-.16.33c-.29.27-.35.63-.4 1-.04.38-.09.77-.26 1.13a.29.29 0 01-.14.13c-.19.1-.4.15-.6.2-.25.07-.28.1-.24.36a.53.53 0 01-.1.35c-.03.06-.1.12-.1.18-.05.25-.17.45-.32.65-.2.27-.29.32-.59.2-.04-.02-.08-.07-.11-.02s0 .09.03.12c.06.07.14.11.22.15.08.04.1.1.05.17l-.24.3c-.05.07-.12.07-.2.03-.13-.07-.18 0-.18.13v.1c0 .17-.06.2-.22.15-.04-.01-.08-.05-.12 0-.03.05-.01.09.02.13.18.26.18.26.02.51-.1.16-.08.17.08.25.15.07.1.23.1.36 0 .02-.01.06-.03.08-.13.17-.13.35-.05.55h-.27zM25.27 22.1c.13.05.26.06.4.07.63.05 1.27.17 1.9 0h.13c.21.13.44.12.67.12h1.19c.08 0 .18.01.25-.02.2-.1.4 0 .6.03.08.01.13.1.15.16.02.06-.07.07-.12.1-.18.09-.34.18-.36.43 0 .17-.2.19-.32.2-.38.06-.39.07-.37.45 0 .16-.14.32-.32.32-.31.01-.61.11-.92.16-.13.02-.25.06-.32.19-.03.06-.1.08-.17.1l-.36.09a.46.46 0 00-.34.27c-.07.15-.17.28-.28.41-.07.1-.16.13-.28.06a.93.93 0 01-.46-.63l-.09-.35c-.02-.1 0-.16.12-.14h.18c.15-.01.23-.13.21-.28a1.2 1.2 0 00-.52-.86c-.13-.09-.3-.07-.44-.1l-.11-.02c-.04-.02-.09-.03-.09-.09 0-.05.05-.05.1-.06a.82.82 0 01.32 0c.12.03.22 0 .32-.06.07-.05.06-.11.05-.17-.02-.07-.08-.03-.13-.02l-1.29.28c-.1.03-.21.06-.27.17-.02.04-.05.07-.1.05-.08-.02-.15.01-.22.05a.33.33 0 01-.34 0c-.11-.05-.22-.09-.34-.1-.1-.02-.21-.07-.21-.18 0-.1.1-.18.2-.2l.73-.1a.66.66 0 00.38-.13c.1-.1.26-.1.39-.14.07-.01.15-.02.22-.07h.26z"/>
  <path fill-rule="evenodd" clip-rule="evenodd" fill="#FFF" d="M54.78 37.05c-.36.08-.59-.16-.82-.38-.12-.1-.2-.13-.31-.01-.1.1-.38.09-.51 0-.04-.03-.07-.08-.1-.08-.21.02-.18-.1-.17-.25 0-.17-.15-.23-.27-.3a1.4 1.4 0 00-.43-.13c-.11-.02-.24-.04-.15-.22.04-.08-.05-.1-.08-.14-.04-.04-.14-.07-.1-.13.04-.07.14-.04.21-.06.07-.01.1.05.11.1.02.1.02.18.07.26.13.19.3.2.42 0 .08-.14.16-.15.3-.1.31.14.63.25.94.37.07.02.11.08.16.14.05.07.07.16.16.2.01.02.03.04.02.05-.09.25.16.29.27.41l.28.24v.03z"/>
  <path fill="none" stroke="#3D2877" stroke-miterlimit="10" d="M54.78 37.05c-.36.08-.59-.16-.82-.38-.12-.1-.2-.13-.31-.01-.1.1-.38.09-.51 0-.04-.03-.07-.08-.1-.08-.21.02-.18-.1-.17-.25 0-.17-.15-.23-.27-.3a1.4 1.4 0 00-.43-.13c-.11-.02-.24-.04-.15-.22.04-.08-.05-.1-.08-.14-.04-.04-.14-.07-.1-.13.04-.07.14-.04.21-.06.07-.01.1.05.11.1.02.1.02.18.07.26.13.19.3.2.42 0 .08-.14.16-.15.3-.1.31.14.63.25.94.37.07.02.11.08.16.14.05.07.07.16.16.2.01.02.03.04.02.05-.09.25.16.29.27.41l.28.24v.03z"/>
  <path clip-rule="evenodd" fill="none" stroke="#FFF" stroke-miterlimit="10" d="M34.72 29.72c.33.22.67.3 1.05.3.2 0 .41.02.62.04.17 0 .28-.06.36-.21.09-.16.15-.33.17-.51.01-.12-.03-.19-.15-.18-.2 0-.4-.04-.6 0h-.09c-.42-.05-.59-.2-.56-.64 0-.13-.03-.16-.15-.09-.1.05-.18.1-.3.05-.03-.02-.06 0-.08.03-.02.05-.01.11.02.14.14.1.08.2.02.32-.07.11-.16.11-.21.03-.14-.22-.34-.4-.38-.68-.01-.11-.06-.18-.18-.2-.14-.02-.22-.13-.31-.22-.1-.08-.22-.16-.33-.22-.05-.03-.1-.05-.14 0-.06.04-.02.1 0 .14.12.15.25.3.43.38.14.06.23.16.33.27.03.02.06.1 0 .09-.14-.04-.12.05-.15.12-.05.12-.16.2-.26.28-.05.05-.11.02-.16-.04.09-.06.2-.06.26-.16.05-.07.07-.12 0-.2a1.2 1.2 0 00-.52-.36c-.1-.03-.2-.08-.24-.19-.05-.1-.11-.13-.22-.15-.1-.01-.14-.02-.14.1 0 .12-.12.1-.18.09-.23-.08-.36.04-.47.21a.27.27 0 01-.15.12.34.34 0 00-.24.32.3.3 0 01-.14.23l-.35.2c-.07.04-.64-.07-.7-.14a.36.36 0 01-.06-.32c.04-.13.04-.26.04-.4 0-.26.13-.37.39-.31.07.01.14.04.2.06.16.07.36.04.43-.06.08-.1.03-.33-.09-.44-.06-.06-.13-.1-.2-.18.1-.06.21 0 .3-.06l-.02-.03c-.05-.06-.18-.05-.17-.14.02-.1.14-.06.22-.06.2-.03.41-.05.54-.25.04-.06.1-.11.2-.11.04 0 .09-.03.1-.08.01-.15.12-.18.24-.2l.03-.01c.13-.02.19-.2.3-.2.1 0 .21.08.34.02.1-.05.23-.03.33.05.06.04.12.08.18.02.12-.09.26-.08.4-.08.19 0 .26-.07.3-.26 0-.08.01-.15.13-.12.16.03.23-.02.18-.18-.05-.18-.01-.22.16-.15h.1c.08-.02.2-.05.17-.16-.01-.1-.12-.1-.2-.08l-.27.03c-.09.02-.14-.03-.19-.1-.05-.06-.05-.13 0-.2l.14-.2c.02-.05.04-.09 0-.13-.02-.04-.07-.05-.11-.04a.68.68 0 00-.54.54v.12c0 .08.12.13.05.24-.11.18-.2.38-.42.48a.24.24 0 01-.32-.14c-.1-.27-.37-.3-.57-.41-.08-.04-.1.07-.18.09-.07-.15-.05-.3 0-.45.02-.07.08-.05.13-.06.15 0 .27-.03.3-.21.02-.1.1-.15.18-.21.3-.25.61-.47.93-.7a.62.62 0 01.38-.1c.5.03 1.02.05 1.5.24.09.04.18.04.26.07.08.03.22.03.17.18-.05.12-.16.15-.28.09a.37.37 0 00-.3-.03c-.13.04-.15.09-.05.17l.33.26c.1.08.16 0 .23-.05.2-.17.41-.35.67-.43.15-.05.3-.08.44-.17a.23.23 0 01.19-.02c.24.06.46.07.67-.1.1-.1.2-.09.32 0 .22.16.46.26.74.16.09-.03.17-.07.03-.18a.62.62 0 01-.24-.35c-.03-.1 0-.15.1-.16.29-.01.52.2.55.5v.17c.01.07.05.12.12.13.06.01.13.01.18-.05.05-.05.02-.1 0-.15-.08-.15-.16-.3-.16-.48l.22.35c.04.06.1.14.18.07.08-.05.1-.12.07-.22-.1-.3-.1-.3.22-.4.22-.06.44-.03.66-.08a.74.74 0 00.38-.2.3.3 0 01.27-.08c.13.01.26-.01.4-.03.19-.02.38-.05.56.06.05.03.13.01.19 0a.58.58 0 01.23-.01c.06 0 .14.01.17.08s-.05.1-.09.15c-.04.05-.13.1-.09.17.04.1.14.06.21.05.23-.04.45-.03.67.07.16.08.35.06.53.01.33-.1.65-.1.97.06.14.08.3.07.45.1.19.01.37.02.55.06.2.05.34-.08.44-.23.05-.08.07-.1.17-.06.3.14.6.28.96.24.21-.02.43 0 .65 0a.6.6 0 01.36.09c.06.03.12.04.18.04.43 0 .86.06 1.27.17.1.03.16.02.2-.08.04-.07.1-.09.17-.07.49.1 1 .1 1.45.3.08.04.17.02.25.02.35-.02.7 0 .93.33-.03.06-.08.04-.12.03l-.29-.08c-.24-.07-.48-.17-.7.1l.47.27c.04.02.11.02.1.09-.01.06-.08.06-.13.06-.13-.01-.21.06-.29.16-.03.05-.09.1-.13.14-.03.03-.06.09-.11.07-.06-.02-.02-.08-.02-.12 0-.06 0-.12-.09-.08-.1.05-.22.11-.32.18-.06.04-.09.1-.07.19.01.07.07.08.13.1.21.06.35.27.33.53l-.04.44c0 .1-.05.17-.13.07-.15-.16-.4-.25-.44-.51 0-.05-.06-.07-.1-.1-.28-.14-.35-.41-.16-.66.06-.08.05-.33-.03-.4-.08-.05-.16-.04-.24.03-.07.08-.14.1-.23.04-.16-.1-.22-.08-.3.08-.02.04-.03.09-.03.13-.03.22-.07.24-.28.2-.26-.07-.53-.08-.79-.15-.03 0-.08 0-.11.02-.3.08-.53.48-.45.79.04.15.17.14.28.15h.4c.2 0 .31.1.44.25.23.23.26.48.25.79 0 .2-.09.36-.16.53-.03.09-.11.08-.18.08-.18-.01-.32.01-.31.24l-.04.07c-.15.29-.14.33.13.52.1.05.19.12.28.18.1.07.12.16.04.26a.87.87 0 01-.14.18c-.07.06-.14.08-.22.05a.16.16 0 01-.11-.19c.01-.18-.07-.27-.23-.32-.1-.03-.14-.1-.16-.2-.04-.18-.15-.22-.29-.11-.1.08-.16.06-.2-.05l-.04-.1c-.06-.18-.12-.2-.25-.06-.11.12-.2.27-.3.4-.07.12-.03.19.1.16.17-.02.33.05.5 0 .06-.02.08.01.06.07-.02.05-.03.1-.07.13-.13.13-.08.24 0 .35.08.1.15.19.24.26.2.17.28.39.34.62.04.21-.07.39-.17.55-.1.18-.24.32-.46.36-.24.04-.4.18-.5.4l-.2.34c-.02.04-.04.08-.09.06-.03-.01-.03-.05-.03-.08v-.22c0-.16-.08-.23-.22-.28-.13-.05-.2.04-.25.13-.02.01-.03.03-.04.06-.18.26-.18.26.07.47.23.2.37.47.52.73.06.11 0 .23-.07.33-.09.14-.2.26-.34.36-.17.13-.27.12-.39-.06-.13-.2-.34-.33-.46-.54-.04-.07-.1-.02-.13.03-.07.1-.06.2-.06.3 0 .14.01.28-.06.41-.11-.1-.12-.23-.11-.37 0-.24 0-.48-.1-.72-.06-.12-.12-.2-.25-.08-.09.08-.14.03-.15-.06a.44.44 0 00-.24-.38c-.1-.06-.15-.17-.2-.29a.64.64 0 00-.65-.4c-.12.02-.2.1-.28.18-.19.2-.4.38-.63.54a.85.85 0 00-.33.78l.03.33c.03.19-.07.31-.21.42-.16.12-.27.1-.33-.1-.06-.17-.14-.34-.19-.51-.08-.28-.22-.53-.33-.79a.57.57 0 01-.04-.35c.02-.07.03-.15-.02-.22-.05-.1-.09-.2-.25-.09-.12.1-.23.01-.32-.1-.17-.22-.37-.4-.61-.54-.13-.07-.27-.07-.41-.06-.21.01-.42 0-.63-.02a.41.41 0 01-.28-.14c-.13-.15-.3-.17-.46-.18-.38-.02-.62-.25-.85-.5a.28.28 0 00-.06-.03c-.06.1-.02.2.01.3l.2.5c.1.32.5.4.73.14.06-.08.1-.2.2-.2.12 0 .09.14.13.22.09.16.2.26.35.35.09.04.15.1.07.2-.25.26-.42.58-.72.8-.1.08-.2.15-.33.2-.23.08-.44.18-.64.32a.82.82 0 01-.33.1c-.15.03-.28-.05-.33-.21-.08-.28-.14-.56-.34-.78-.26-.3-.43-.65-.6-1.01-.08-.18-.24-.34-.36-.5-.03-.04-.08-.08-.13-.07-.08.02-.15-.01-.27-.08l.15.28c.2.36.33.75.5 1.13.12.25.26.5.46.7.23.23.42.48.49.8.03.13.1.17.22.15.2-.04.4-.06.61-.03.12.02.22-.04.33-.07.09-.01.14-.01.11.1-.05.24-.1.47-.26.67-.16.2-.26.44-.44.6-.37.33-.61.77-.94 1.13-.18.18-.21.38-.13.63.1.32.18.65.18 1 0 .18-.05.37-.23.49-.21.13-.4.3-.54.51-.09.15-.15.29-.07.47.05.13.06.3-.12.4-.2.11-.28.33-.37.53a.76.76 0 01-.24.3c-.11.09-.21.2-.3.3-.27.32-.62.46-1.03.48l-.06.01c-.26.08-.37.04-.42-.22-.06-.32-.17-.6-.4-.83-.08-.1-.09-.26-.09-.38 0-.45-.18-.83-.4-1.2-.15-.26-.1-.48.02-.72.08-.14.19-.27.17-.42-.02-.25.01-.52-.1-.75-.15-.32-.23-.68-.54-.92-.12-.08-.04-.21 0-.33.07-.2.08-.4-.05-.59a.34.34 0 00-.33-.15c-.07 0-.13 0-.17-.06-.19-.32-.49-.27-.78-.2-.25.05-.49.17-.76.15-.11 0-.21.1-.34.12-.43.03-.69-.24-.93-.53-.09-.11-.14-.24-.22-.36-.03-.06-.06-.15-.12-.18-.24-.12-.28-.36-.33-.6-.01-.06.01-.12.04-.18.11-.23.15-.48.1-.73-.08-.34.1-.6.26-.87.16-.28.4-.5.66-.7.08-.07.13-.13.13-.25a.4.4 0 01.2-.35c.14-.09.27-.2.37-.34.05-.07.1-.12.17-.04.05.05.11.04.16.02a.45.45 0 01.34-.05c.26.07.45-.11.69-.13.31-.04.63-.03.93-.15.05-.02.1-.02.14.02.04.05.02.1-.01.14a.49.49 0 00-.07.25c0 .1.02.16.11.19.05.01.1.04.12.08.06.1.13.11.24.11.16 0 .3.1.44.19.07.04.12.09.2.1.27.04.37-.05.44-.4"/>
  <path fill="none" stroke="#3D2877" stroke-miterlimit="10" d="M34.72 29.72c.33.22.67.3 1.05.3.2 0 .41.02.62.04.17 0 .28-.06.36-.21.09-.16.15-.33.17-.51.01-.12-.03-.19-.15-.18-.2 0-.4-.04-.6 0h-.09c-.42-.05-.59-.2-.56-.64 0-.13-.03-.16-.15-.09-.1.05-.18.1-.3.05-.03-.02-.06 0-.08.03-.02.05-.01.11.02.14.14.1.08.2.02.32-.07.11-.16.11-.21.03-.14-.22-.34-.4-.38-.68-.01-.11-.06-.18-.18-.2-.14-.02-.22-.13-.31-.22-.1-.08-.22-.16-.33-.22-.05-.03-.1-.05-.14 0-.06.04-.02.1 0 .14.12.15.25.3.43.38.14.06.23.16.33.27.03.02.06.1 0 .09-.14-.04-.12.05-.15.12-.05.12-.16.2-.26.28-.05.05-.11.02-.16-.04.09-.06.2-.06.26-.16.05-.07.07-.12 0-.2a1.2 1.2 0 00-.52-.36c-.1-.03-.2-.08-.24-.19-.05-.1-.11-.13-.22-.15-.1-.01-.14-.02-.14.1 0 .12-.12.1-.18.09-.23-.08-.36.04-.47.21a.27.27 0 01-.15.12.34.34 0 00-.24.32.3.3 0 01-.14.23l-.35.2c-.07.04-.64-.07-.7-.14a.36.36 0 01-.06-.32c.04-.13.04-.26.04-.4 0-.26.13-.37.39-.31.07.01.14.04.2.06.16.07.36.04.43-.06.08-.1.03-.33-.09-.44-.06-.06-.13-.1-.2-.18.1-.06.21 0 .3-.06l-.02-.03c-.05-.06-.18-.05-.17-.14.02-.1.14-.06.22-.06.2-.03.41-.05.54-.25.04-.06.1-.11.2-.11.04 0 .09-.03.1-.08.01-.15.12-.18.24-.2l.03-.01c.13-.02.19-.2.3-.2.1 0 .21.08.34.02.1-.05.23-.03.33.05.06.04.12.08.18.02.12-.09.26-.08.4-.08.19 0 .26-.07.3-.26 0-.08.01-.15.13-.12.16.03.23-.02.18-.18-.05-.18-.01-.22.16-.15h.1c.08-.02.2-.05.17-.16-.01-.1-.12-.1-.2-.08l-.27.03c-.09.02-.14-.03-.19-.1-.05-.06-.05-.13 0-.2l.14-.2c.02-.05.04-.09 0-.13-.02-.04-.07-.05-.11-.04a.68.68 0 00-.54.54v.12c0 .08.12.13.05.24-.11.18-.2.38-.42.48a.24.24 0 01-.32-.14c-.1-.27-.37-.3-.57-.41-.08-.04-.1.07-.18.09-.07-.15-.05-.3 0-.45.02-.07.08-.05.13-.06.15 0 .27-.03.3-.21.02-.1.1-.15.18-.21.3-.25.61-.47.93-.7a.62.62 0 01.38-.1c.5.03 1.02.05 1.5.24.09.04.18.04.26.07.08.03.22.03.17.18-.05.12-.16.15-.28.09a.37.37 0 00-.3-.03c-.13.04-.15.09-.05.17l.33.26c.1.08.16 0 .23-.05.2-.17.41-.35.67-.43.15-.05.3-.08.44-.17a.23.23 0 01.19-.02c.24.06.46.07.67-.1.1-.1.2-.09.32 0 .22.16.46.26.74.16.09-.03.17-.07.03-.18a.62.62 0 01-.24-.35c-.03-.1 0-.15.1-.16.29-.01.52.2.55.5v.17c.01.07.05.12.12.13.06.01.13.01.18-.05.05-.05.02-.1 0-.15-.08-.15-.16-.3-.16-.48l.22.35c.04.06.1.14.18.07.08-.05.1-.12.07-.22-.1-.3-.1-.3.22-.4.22-.06.44-.03.66-.08a.74.74 0 00.38-.2.3.3 0 01.27-.08c.13.01.26-.01.4-.03.19-.02.38-.05.56.06.05.03.13.01.19 0a.58.58 0 01.23-.01c.06 0 .14.01.17.08s-.05.1-.09.15c-.04.05-.13.1-.09.17.04.1.14.06.21.05.23-.04.45-.03.67.07.16.08.35.06.53.01.33-.1.65-.1.97.06.14.08.3.07.45.1.19.01.37.02.55.06.2.05.34-.08.44-.23.05-.08.07-.1.17-.06.3.14.6.28.96.24.21-.02.43 0 .65 0a.6.6 0 01.36.09c.06.03.12.04.18.04.43 0 .86.06 1.27.17.1.03.16.02.2-.08.04-.07.1-.09.17-.07.49.1 1 .1 1.45.3.08.04.17.02.25.02.35-.02.7 0 .93.33-.03.06-.08.04-.12.03l-.29-.08c-.24-.07-.48-.17-.7.1l.47.27c.04.02.11.02.1.09-.01.06-.08.06-.13.06-.13-.01-.21.06-.29.16-.03.05-.09.1-.13.14-.03.03-.06.09-.11.07-.06-.02-.02-.08-.02-.12 0-.06 0-.12-.09-.08-.1.05-.22.11-.32.18-.06.04-.09.1-.07.19.01.07.07.08.13.1.21.06.35.27.33.53l-.04.44c0 .1-.05.17-.13.07-.15-.16-.4-.25-.44-.51 0-.05-.06-.07-.1-.1-.28-.14-.35-.41-.16-.66.06-.08.05-.33-.03-.4-.08-.05-.16-.04-.24.03-.07.08-.14.1-.23.04-.16-.1-.22-.08-.3.08-.02.04-.03.09-.03.13-.03.22-.07.24-.28.2-.26-.07-.53-.08-.79-.15-.03 0-.08 0-.11.02-.3.08-.53.48-.45.79.04.15.17.14.28.15h.4c.2 0 .31.1.44.25.23.23.26.48.25.79 0 .2-.09.36-.16.53-.03.09-.11.08-.18.08-.18-.01-.32.01-.31.24l-.04.07c-.15.29-.14.33.13.52.1.05.19.12.28.18.1.07.12.16.04.26a.87.87 0 01-.14.18c-.07.06-.14.08-.22.05a.16.16 0 01-.11-.19c.01-.18-.07-.27-.23-.32-.1-.03-.14-.1-.16-.2-.04-.18-.15-.22-.29-.11-.1.08-.16.06-.2-.05l-.04-.1c-.06-.18-.12-.2-.25-.06-.11.12-.2.27-.3.4-.07.12-.03.19.1.16.17-.02.33.05.5 0 .06-.02.08.01.06.07-.02.05-.03.1-.07.13-.13.13-.08.24 0 .35.08.1.15.19.24.26.2.17.28.39.34.62.04.21-.07.39-.17.55-.1.18-.24.32-.46.36-.24.04-.4.18-.5.4l-.2.34c-.02.04-.04.08-.09.06-.03-.01-.03-.05-.03-.08v-.22c0-.16-.08-.23-.22-.28-.13-.05-.2.04-.25.13-.02.01-.03.03-.04.06-.18.26-.18.26.07.47.23.2.37.47.52.73.06.11 0 .23-.07.33-.09.14-.2.26-.34.36-.17.13-.27.12-.39-.06-.13-.2-.34-.33-.46-.54-.04-.07-.1-.02-.13.03-.07.1-.06.2-.06.3 0 .14.01.28-.06.41-.11-.1-.12-.23-.11-.37 0-.24 0-.48-.1-.72-.06-.12-.12-.2-.25-.08-.09.08-.14.03-.15-.06a.44.44 0 00-.24-.38c-.1-.06-.15-.17-.2-.29a.64.64 0 00-.65-.4c-.12.02-.2.1-.28.18-.19.2-.4.38-.63.54a.85.85 0 00-.33.78l.03.33c.03.19-.07.31-.21.42-.16.12-.27.1-.33-.1-.06-.17-.14-.34-.19-.51-.08-.28-.22-.53-.33-.79a.57.57 0 01-.04-.35c.02-.07.03-.15-.02-.22-.05-.1-.09-.2-.25-.09-.12.1-.23.01-.32-.1-.17-.22-.37-.4-.61-.54-.13-.07-.27-.07-.41-.06-.21.01-.42 0-.63-.02a.41.41 0 01-.28-.14c-.13-.15-.3-.17-.46-.18-.38-.02-.62-.25-.85-.5a.28.28 0 00-.06-.03c-.06.1-.02.2.01.3l.2.5c.1.32.5.4.73.14.06-.08.1-.2.2-.2.12 0 .09.14.13.22.09.16.2.26.35.35.09.04.15.1.07.2-.25.26-.42.58-.72.8-.1.08-.2.15-.33.2-.23.08-.44.18-.64.32a.82.82 0 01-.33.1c-.15.03-.28-.05-.33-.21-.08-.28-.14-.56-.34-.78-.26-.3-.43-.65-.6-1.01-.08-.18-.24-.34-.36-.5-.03-.04-.08-.08-.13-.07-.08.02-.15-.01-.27-.08l.15.28c.2.36.33.75.5 1.13.12.25.26.5.46.7.23.23.42.48.49.8.03.13.1.17.22.15.2-.04.4-.06.61-.03.12.02.22-.04.33-.07.09-.01.14-.01.11.1-.05.24-.1.47-.26.67-.16.2-.26.44-.44.6-.37.33-.61.77-.94 1.13-.18.18-.21.38-.13.63.1.32.18.65.18 1 0 .18-.05.37-.23.49-.21.13-.4.3-.54.51-.09.15-.15.29-.07.47.05.13.06.3-.12.4-.2.11-.28.33-.37.53a.76.76 0 01-.24.3c-.11.09-.21.2-.3.3-.27.32-.62.46-1.03.48l-.06.01c-.26.08-.37.04-.42-.22-.06-.32-.17-.6-.4-.83-.08-.1-.09-.26-.09-.38 0-.45-.18-.83-.4-1.2-.15-.26-.1-.48.02-.72.08-.14.19-.27.17-.42-.02-.25.01-.52-.1-.75-.15-.32-.23-.68-.54-.92-.12-.08-.04-.21 0-.33.07-.2.08-.4-.05-.59a.34.34 0 00-.33-.15c-.07 0-.13 0-.17-.06-.19-.32-.49-.27-.78-.2-.25.05-.49.17-.76.15-.11 0-.21.1-.34.12-.43.03-.69-.24-.93-.53-.09-.11-.14-.24-.22-.36-.03-.06-.06-.15-.12-.18-.24-.12-.28-.36-.33-.6-.01-.06.01-.12.04-.18.11-.23.15-.48.1-.73-.08-.34.1-.6.26-.87.16-.28.4-.5.66-.7.08-.07.13-.13.13-.25a.4.4 0 01.2-.35c.14-.09.27-.2.37-.34.05-.07.1-.12.17-.04.05.05.11.04.16.02a.45.45 0 01.34-.05c.26.07.45-.11.69-.13.31-.04.63-.03.93-.15.05-.02.1-.02.14.02.04.05.02.1-.01.14a.49.49 0 00-.07.25c0 .1.02.16.11.19.05.01.1.04.12.08.06.1.13.11.24.11.16 0 .3.1.44.19.07.04.12.09.2.1.27.04.37-.05.44-.4zM53.37 37.22c.19.34.44.66.37 1.08-.01.07.01.1.07.13.12.05.18.16.21.28.06.17.13.34.33.4.05 0 .08.05.09.1.06.27.06.54-.03.8-.14.45-.4.78-.76 1.05-.06.05-.11.1-.16.17-.22.28-.55.37-.84.52-.05.02-.09 0-.12-.03a.3.3 0 00-.27-.05c-.2.05-.35-.07-.35-.26 0-.11 0-.21-.07-.31-.08-.1.05-.2.05-.34l-.33.17c-.1.05-.18.05-.2-.1-.01-.18-.25-.33-.43-.3h-.03c-.27-.02-.5.07-.75.16-.42.15-.85.23-1.28.34a.5.5 0 01-.2 0c-.06 0-.13-.05-.07-.11.16-.19.1-.4.08-.6-.05-.33.06-.65.05-.97 0-.38.28-.49.55-.6.16-.07.34-.1.51-.18.2-.1.37-.19.43-.41.02-.06.05-.16.15-.06.04.03.08.03.08-.03.04-.18.21-.27.3-.4.1-.14.25-.11.32.04.04.08.1.1.17.12.07.02.1.02.1-.07.04-.24.45-.52.69-.49.08.01.17 0 .26.02.1.01.15.05.1.16-.06.1-.13.25-.05.36.1.14.25.25.41.33.11.06.28-.04.35-.16.13-.24.21-.49.27-.76z"/>
  <path fill-rule="evenodd" clip-rule="evenodd" fill="#FFF" d="M24.27 24.39c0 .1.07.16.1.24 0 .04.02.08 0 .11-.04.04-.08 0-.12 0-.05-.03-.1-.07-.14-.01-.06.06-.02.11.01.17.06.11.03.18-.1.16a1.5 1.5 0 01-.67-.29c-.07-.05-.05-.12.02-.16l.23-.1c.14-.06.2-.16.13-.31a1.92 1.92 0 01-.07-.2c-.03-.1-.1-.16-.23-.18-.12-.02-.24-.07-.37-.1-.09-.02-.17-.04-.24.05-.04.05-.1.1-.15.04-.06-.06-.15-.13-.1-.24.07-.14.2-.18.35-.11.06.02.1 0 .16-.02.27-.07.53-.13.77.08.09.06.21.06.31.08.09.02.17.05.12.17-.03.06.01.1.05.14.06.06.13.12.16.2.03.1.08.19.01.28-.07.09-.14-.03-.23 0"/>
  <path fill="none" stroke="#3D2877" stroke-miterlimit="10" d="M24.27 24.39c0 .1.07.16.1.24 0 .04.02.08 0 .11-.04.04-.08 0-.12 0-.05-.03-.1-.07-.14-.01-.06.06-.02.11.01.17.06.11.03.18-.1.16a1.5 1.5 0 01-.67-.29c-.07-.05-.05-.12.02-.16l.23-.1c.14-.06.2-.16.13-.31a1.92 1.92 0 01-.07-.2c-.03-.1-.1-.16-.23-.18-.12-.02-.24-.07-.37-.1-.09-.02-.17-.04-.24.05-.04.05-.1.1-.15.04-.06-.06-.15-.13-.1-.24.07-.14.2-.18.35-.11.06.02.1 0 .16-.02.27-.07.53-.13.77.08.09.06.21.06.31.08.09.02.17.05.12.17-.03.06.01.1.05.14.06.06.13.12.16.2.03.1.08.19.01.28-.07.09-.14-.03-.23 0z"/>
  <path fill-rule="evenodd" clip-rule="evenodd" fill="#FFF" d="M49.8 34.48l-.03.12c-.08.13-.08.25 0 .38.04.07 0 .14-.03.21-.04.2-.24.3-.27.5-.02.1-.13.14-.23.11a1.37 1.37 0 00-.38-.02c-.15.01-.24-.06-.3-.18a1 1 0 01-.13-.39c0-.1.02-.2.16-.15.07.01.1 0 .14-.08.05-.1.12-.2.16-.32a.16.16 0 01.15-.12.57.57 0 00.37-.24c.05-.06.09-.16.2-.1.1.05.2.12.19.28"/>
  <path fill="none" stroke="#3D2877" stroke-miterlimit="10" d="M49.8 34.48l-.03.12c-.08.13-.08.25 0 .38.04.07 0 .14-.03.21-.04.2-.24.3-.27.5-.02.1-.13.14-.23.11a1.37 1.37 0 00-.38-.02c-.15.01-.24-.06-.3-.18a1 1 0 01-.13-.39c0-.1.02-.2.16-.15.07.01.1 0 .14-.08.05-.1.12-.2.16-.32a.16.16 0 01.15-.12.57.57 0 00.37-.24c.05-.06.09-.16.2-.1.1.05.2.12.19.28z"/>
  <path fill-rule="evenodd" clip-rule="evenodd" fill="#FFF" d="M39.14 37.37c.1.19.12.33.1.48-.08.36-.2.7-.37 1.02-.06.1-.07.22-.07.34-.02.16-.19.3-.4.3-.16-.02-.2-.16-.21-.28-.02-.18-.05-.34.12-.5.14-.14.09-.37.06-.56-.02-.13 0-.19.13-.24.25-.12.54-.2.64-.56"/>
  <path fill="none" stroke="#3D2877" stroke-miterlimit="10" d="M39.14 37.37c.1.19.12.33.1.48-.08.36-.2.7-.37 1.02-.06.1-.07.22-.07.34-.02.16-.19.3-.4.3-.16-.02-.2-.16-.21-.28-.02-.18-.05-.34.12-.5.14-.14.09-.37.06-.56-.02-.13 0-.19.13-.24.25-.12.54-.2.64-.56z"/>
  <path fill-rule="evenodd" clip-rule="evenodd" fill="#FFF" d="M18.73 23.58c.31-.37.7-.42 1.03-.12.26.24.52.1.78.07.05 0 .1-.03.14-.04h.08c.06.05 0 .4-.08.42-.22.04-.42.2-.66.07-.06-.03-.14 0-.21.03-.13.05-.27.03-.4.01-.11-.02-.2-.09-.18-.23.01-.1-.03-.12-.11-.12-.14 0-.25-.08-.4-.1"/>
  <path fill="none" stroke="#3D2877" stroke-miterlimit="10" d="M18.73 23.58c.31-.37.7-.42 1.03-.12.26.24.52.1.78.07.05 0 .1-.03.14-.04h.08c.06.05 0 .4-.08.42-.22.04-.42.2-.66.07-.06-.03-.14 0-.21.03-.13.05-.27.03-.4.01-.11-.02-.2-.09-.18-.23.01-.1-.03-.12-.11-.12-.14 0-.25-.08-.4-.1z"/>
  <path fill-rule="evenodd" clip-rule="evenodd" fill="#FFF" d="M46.38 34.4c.16 0 .27.05.34.18.1.17.23.3.44.34.1.02.15.11.2.19.17.25.35.49.49.75.04.08.06.16.04.25-.04.16-.17.2-.3.1a.6.6 0 01-.17-.19c-.2-.31-.41-.62-.6-.95-.14-.23-.32-.42-.44-.67"/>
  <path fill="none" stroke="#3D2877" stroke-miterlimit="10" d="M46.38 34.4c.16 0 .27.05.34.18.1.17.23.3.44.34.1.02.15.11.2.19.17.25.35.49.49.75.04.08.06.16.04.25-.04.16-.17.2-.3.1a.6.6 0 01-.17-.19c-.2-.31-.41-.62-.6-.95-.14-.23-.32-.42-.44-.67z"/>
  <path fill="none" stroke="#3E2779" stroke-miterlimit="10" d="M9.08 8.75h48.57v48.57H9.08z"/>
</svg>