<svg xmlns="http://www.w3.org/2000/svg" width="67.67" height="67.67">
  <defs>
    <path id="a" d="M432.33-570.6l540 1.46V72l-540-1.46z"/>
  </defs>
  <defs>
    <path id="b" d="M432.33-570.6l540 1.46V72l-540-1.46z"/>
  </defs>
  <path fill="#52702A" d="M37.1 25.6a1.64 1.64 0 11.1 3.28 1.64 1.64 0 01-.1-3.28"/>
  <path fill="none" stroke="#52702A" stroke-width="2" stroke-miterlimit="10" d="M37.1 25.6a1.64 1.64 0 11.1 3.28 1.64 1.64 0 01-.1-3.28z"/>
  <path fill="#52702A" d="M39.5 34.87a3.05 3.05 0 11.16 6.1 3.05 3.05 0 01-.17-6.1"/>
  <path fill="none" stroke="#52702A" stroke-width="2" stroke-miterlimit="10" d="M39.5 34.87a3.05 3.05 0 11.16 6.1 3.05 3.05 0 01-.17-6.1z"/>
  <circle fill="none" stroke="#52702A" stroke-width=".75" stroke-miterlimit="10" cx="19.4" cy="31.18" r="2.61"/>
  <path fill="#52702A" d="M48.1 26.93a2.28 2.28 0 11.13 4.56 2.28 2.28 0 01-.13-4.56"/>
  <path fill="none" stroke="#52702A" stroke-width="2" stroke-miterlimit="10" d="M48.1 26.93a2.28 2.28 0 11.13 4.56 2.28 2.28 0 01-.13-4.56z"/>
  <path fill="none" stroke="#52702A" stroke-miterlimit="10" d="M9.33 9H57.9v48.57H9.33z"/>
</svg>