<svg xmlns="http://www.w3.org/2000/svg" width="67.7" height="67.7">
  <defs>
    <path id="a" d="M351-121l540 2v641l-540-1z"/>
  </defs>
  <defs>
    <path id="b" d="M351-121l540 2v641l-540-1z"/>
  </defs>
  <path fill="none" stroke="#B22D2B" stroke-miterlimit="10" d="M9 9h49v49H9z"/>
  <circle fill="none" stroke="#B32D2B" stroke-miterlimit="10" cx="34.7" cy="32.9" r="17.7"/>
  <path fill="none" stroke="#B32D2B" stroke-miterlimit="10" d="M35 15v36M17 33h35"/>
  <path fill="none" d="M0 470v-641M0 470v-641M0 470v-641M0 470v-641M0 470v-641M0 470v-641M0 470v-641M0 470v-641M0 470v-641M0 470v-641M0 470v-641M0 470v-641M0 470v-641M0 470v-641M0 470v-641"/>
</svg>