<?xml version="1.0" encoding="utf-8"?>
<!-- Generator: Adobe Illustrator 16.0.0, SVG Export Plug-In . SVG Version: 6.00 Build 0)  -->
<!DOCTYPE svg PUBLIC "-//W3C//DTD SVG 1.1//EN" "http://www.w3.org/Graphics/SVG/1.1/DTD/svg11.dtd">
<svg version="1.1" id="Ebene_1" xmlns="http://www.w3.org/2000/svg" xmlns:xlink="http://www.w3.org/1999/xlink" x="0px" y="0px"
	 width="67.667px" height="67.667px" viewBox="0 0 67.667 67.667" enable-background="new 0 0 67.667 67.667" xml:space="preserve">
<g>
	<defs>
		<polygon id="SVGID_7_" points="270.333,59.649 810.333,61.106 810.333,702.25 270.333,700.793 		"/>
	</defs>
	<clipPath id="SVGID_2_">
		<use xlink:href="#SVGID_7_"  overflow="visible"/>
	</clipPath>
</g>
<g>
	<defs>
		<polygon id="SVGID_9_" points="270.333,59.649 810.333,61.106 810.333,702.25 270.333,700.793 		"/>
	</defs>
	<clipPath id="SVGID_4_">
		<use xlink:href="#SVGID_9_"  overflow="visible"/>
	</clipPath>
</g>
<path fill="#236666" d="M33.619,20.652c-4.447,0-8.052,3.605-8.052,8.052c0,1.247,0.282,2.427,0.789,3.479
	c0.028,0.061,7.263,14.237,7.263,14.237l7.176-14.061c0.561-1.095,0.876-2.338,0.876-3.655
	C41.671,24.257,38.068,20.652,33.619,20.652 M33.619,33.536c-2.668,0-4.831-2.164-4.831-4.832c0-2.666,2.163-4.83,4.831-4.83
	c2.667,0,4.832,2.165,4.832,4.83C38.451,31.373,36.287,33.536,33.619,33.536"/>
<rect x="9.333" y="9.25" fill="none" stroke="#236666" stroke-miterlimit="10" width="48.572" height="48.572"/>
</svg>
