<?xml version="1.0" encoding="utf-8"?>
<!-- Generator: Adobe Illustrator 16.0.0, SVG Export Plug-In . SVG Version: 6.00 Build 0)  -->
<!DOCTYPE svg PUBLIC "-//W3C//DTD SVG 1.1//EN" "http://www.w3.org/Graphics/SVG/1.1/DTD/svg11.dtd">
<svg version="1.1" id="Ebene_1" xmlns="http://www.w3.org/2000/svg" xmlns:xlink="http://www.w3.org/1999/xlink" x="0px" y="0px"
	 width="67.667px" height="67.666px" viewBox="0 0 67.667 67.666" enable-background="new 0 0 67.667 67.666" xml:space="preserve">
<g>
	<defs>
		<polygon id="SVGID_7_" points="270.083,-570.601 810.083,-569.144 810.083,72 270.083,70.543 		"/>
	</defs>
	<clipPath id="SVGID_2_">
		<use xlink:href="#SVGID_7_"  overflow="visible"/>
	</clipPath>
</g>
<g>
	<defs>
		<polygon id="SVGID_9_" points="270.083,-570.601 810.083,-569.144 810.083,72 270.083,70.543 		"/>
	</defs>
	<clipPath id="SVGID_4_">
		<use xlink:href="#SVGID_9_"  overflow="visible"/>
	</clipPath>
</g>
<path fill="#52702A" d="M40.496,27.389c0.732-0.021,1.34,0.551,1.361,1.272c0.019,0.723-0.556,1.327-1.289,1.349
	c-0.728,0.02-1.337-0.553-1.356-1.274C39.19,28.015,39.768,27.409,40.496,27.389"/>
<path fill="none" stroke="#52702A" stroke-width="2" stroke-miterlimit="10" d="M40.496,27.389c0.732-0.021,1.34,0.551,1.361,1.272
	c0.019,0.723-0.556,1.327-1.289,1.349c-0.728,0.02-1.337-0.553-1.356-1.274C39.19,28.015,39.768,27.409,40.496,27.389z"/>
<path fill="#52702A" d="M41.675,34.897c1.357-0.037,2.49,1.025,2.526,2.373c0.038,1.351-1.033,2.472-2.391,2.51
	c-1.362,0.039-2.497-1.021-2.535-2.372C39.238,36.062,40.312,34.938,41.675,34.897"/>
<path fill="none" stroke="#52702A" stroke-width="2" stroke-miterlimit="10" d="M41.675,34.897c1.357-0.037,2.49,1.025,2.526,2.373
	c0.038,1.351-1.033,2.472-2.391,2.51c-1.362,0.039-2.497-1.021-2.535-2.372C39.238,36.062,40.312,34.938,41.675,34.897z"/>
<path fill="#52702A" d="M18.757,26.79c0.767-0.023,1.408,0.577,1.428,1.336c0.021,0.761-0.583,1.395-1.352,1.416
	c-0.765,0.021-1.403-0.577-1.424-1.338C17.388,27.445,17.992,26.811,18.757,26.79"/>
<ellipse transform="matrix(-0.0277 -0.9996 0.9996 -0.0277 -8.8398 47.7335)" fill="none" stroke="#52702A" stroke-width="2" stroke-miterlimit="10" cx="18.795" cy="28.166" rx="1.377" ry="1.39"/>
<path fill="#52702A" d="M47.442,29.583c1.015-0.029,1.861,0.766,1.889,1.771c0.027,1.002-0.772,1.842-1.786,1.869
	c-1.014,0.028-1.859-0.764-1.887-1.768C45.629,30.452,46.43,29.612,47.442,29.583"/>
<path fill="none" stroke="#52702A" stroke-width="2" stroke-miterlimit="10" d="M47.442,29.583c1.015-0.029,1.861,0.766,1.889,1.771
	c0.027,1.002-0.772,1.842-1.786,1.869c-1.014,0.028-1.859-0.764-1.887-1.768C45.629,30.452,46.43,29.612,47.442,29.583z"/>
<line fill="#52702A" x1="35.462" y1="29.828" x2="26.086" y2="29.828"/>
<line fill="none" stroke="#52702A" stroke-miterlimit="10" x1="32.624" y1="29.828" x2="26.086" y2="29.828"/>
<polygon fill="#52702A" points="32.185,33.106 32.185,26.55 35.462,29.827 "/>
<rect x="9.083" y="9" fill="none" stroke="#52702A" stroke-miterlimit="10" width="48.571" height="48.571"/>
</svg>
