<?xml version="1.0" encoding="utf-8"?>
<!-- Generator: Adobe Illustrator 16.0.0, SVG Export Plug-In . SVG Version: 6.00 Build 0)  -->
<!DOCTYPE svg PUBLIC "-//W3C//DTD SVG 1.1//EN" "http://www.w3.org/Graphics/SVG/1.1/DTD/svg11.dtd">
<svg version="1.1" id="Ebene_1" xmlns="http://www.w3.org/2000/svg" xmlns:xlink="http://www.w3.org/1999/xlink" x="0px" y="0px"
	 width="67.667px" height="67.667px" viewBox="0 0 67.667 67.667" enable-background="new 0 0 67.667 67.667" xml:space="preserve">
<g>
	<defs>
		<polygon id="SVGID_7_" points="188.833,-30.851 728.833,-29.394 728.833,611.75 188.833,610.293 		"/>
	</defs>
	<clipPath id="SVGID_2_">
		<use xlink:href="#SVGID_7_"  overflow="visible"/>
	</clipPath>
</g>
<g>
	<defs>
		<polygon id="SVGID_9_" points="188.833,-30.851 728.833,-29.394 728.833,611.75 188.833,610.293 		"/>
	</defs>
	<clipPath id="SVGID_4_">
		<use xlink:href="#SVGID_9_"  overflow="visible"/>
	</clipPath>
</g>
<path fill="none" stroke="#B22D2B" stroke-miterlimit="10" d="M33.12,49.401c-9.046,0-16.366-7.32-16.366-16.364
	c0-9.047,7.32-16.367,16.366-16.367c9.044,0,16.364,7.319,16.364,16.367C49.484,42.081,42.164,49.401,33.12,49.401z"/>
<circle fill="none" stroke="#B22D2B" stroke-miterlimit="10" cx="33.12" cy="33.038" r="13.641"/>
<path fill="none" stroke="#B22D2B" stroke-miterlimit="10" d="M33.12,43.945c-6.034,0-10.907-4.876-10.907-10.907
	c0-6.035,4.873-10.909,10.907-10.909c6.033,0,10.907,4.874,10.907,10.909C44.027,39.068,39.153,43.945,33.12,43.945z"/>
<path fill="none" stroke="#B22D2B" stroke-miterlimit="10" d="M41.302,33.038c0-4.524-3.66-8.184-8.182-8.184
	c-4.523,0-8.184,3.66-8.184,8.184c0,4.521,3.661,8.182,8.184,8.182C37.642,41.219,41.302,37.559,41.302,33.038z"/>
<path fill="none" stroke="#B22D2B" stroke-miterlimit="10" d="M33.12,38.494c-3.013,0-5.459-2.446-5.459-5.458
	c0-3.012,2.447-5.458,5.459-5.458c3.012,0,5.458,2.446,5.458,5.458C38.578,36.048,36.132,38.494,33.12,38.494z"/>
<path fill="none" stroke="#B22D2B" stroke-miterlimit="10" d="M35.844,33.038c0-1.51-1.215-2.726-2.724-2.726
	c-1.511,0-2.726,1.215-2.726,2.726c0,1.509,1.215,2.723,2.726,2.723C34.629,35.76,35.844,34.546,35.844,33.038z"/>
<line fill="none" stroke="#B22D2B" stroke-width="0.5" stroke-miterlimit="10" x1="33.12" y1="33.038" x2="33.12" y2="49.401"/>
<line fill="none" stroke="#B22D2B" stroke-width="0.5" stroke-miterlimit="10" x1="33.12" y1="33.038" x2="48.686" y2="38.095"/>
<line fill="none" stroke="#B22D2B" stroke-width="0.5" stroke-miterlimit="10" x1="33.12" y1="33.038" x2="42.741" y2="19.795"/>
<line fill="none" stroke="#B22D2B" stroke-width="0.5" stroke-miterlimit="10" x1="33.12" y1="33.038" x2="23.498" y2="19.795"/>
<line fill="none" stroke="#B22D2B" stroke-width="0.5" stroke-miterlimit="10" x1="33.12" y1="33.038" x2="17.554" y2="38.095"/>
<rect x="8.833" y="8.75" fill="none" stroke="#B22D2B" stroke-miterlimit="10" width="48.572" height="48.572"/>
</svg>
