<svg xmlns="http://www.w3.org/2000/svg" width="67.667" height="67.667">
  <defs>
    <path id="a" d="M350.917 58.899l540 1.457V701.5l-540-1.457z"/>
  </defs>
  <defs>
    <path id="b" d="M350.917 58.899l540 1.457V701.5l-540-1.457z"/>
  </defs>
  <path fill="#236666" d="M39.374 32.786a6.174 6.174 0 00-6.178-6.17 6.166 6.166 0 00-6.164 6.17 6.163 6.163 0 006.164 6.17 6.172 6.172 0 006.178-6.17"/>
  <path fill="none" stroke="#236666" stroke-width=".25" stroke-miterlimit="10" d="M39.374 32.786a6.174 6.174 0 00-6.178-6.17 6.166 6.166 0 00-6.164 6.17 6.163 6.163 0 006.164 6.17 6.172 6.172 0 006.178-6.17z"/>
  <path fill="none" stroke="#236666" stroke-miterlimit="10" d="M8.917 8.5h48.571v48.572H8.917z"/>
</svg>