<?xml version="1.0" encoding="utf-8"?>
<!-- Generator: Adobe Illustrator 16.0.0, SVG Export Plug-In . SVG Version: 6.00 Build 0)  -->
<!DOCTYPE svg PUBLIC "-//W3C//DTD SVG 1.1//EN" "http://www.w3.org/Graphics/SVG/1.1/DTD/svg11.dtd">
<svg version="1.1" id="Ebene_1" xmlns="http://www.w3.org/2000/svg" xmlns:xlink="http://www.w3.org/1999/xlink" x="0px" y="0px"
	 width="67.667px" height="67.667px" viewBox="0 0 67.667 67.667" enable-background="new 0 0 67.667 67.667" xml:space="preserve">
<g>
	<defs>
		<polygon id="SVGID_7_" points="270.083,-30.851 810.083,-29.394 810.083,611.75 270.083,610.293 		"/>
	</defs>
	<clipPath id="SVGID_2_">
		<use xlink:href="#SVGID_7_"  overflow="visible"/>
	</clipPath>
</g>
<g>
	<defs>
		<polygon id="SVGID_9_" points="270.083,-30.851 810.083,-29.394 810.083,611.75 270.083,610.293 		"/>
	</defs>
	<clipPath id="SVGID_4_">
		<use xlink:href="#SVGID_9_"  overflow="visible"/>
	</clipPath>
</g>
<rect x="15.726" y="24.118" fill="none" stroke="#B22D2B" stroke-miterlimit="10" width="36.715" height="17.836"/>
<line fill="none" stroke="#B22D2B" stroke-miterlimit="10" x1="15.726" y1="38.981" x2="52.441" y2="38.981"/>
<line fill="none" stroke="#B22D2B" stroke-miterlimit="10" x1="15.726" y1="36.011" x2="52.441" y2="36.011"/>
<line fill="none" stroke="#B22D2B" stroke-miterlimit="10" x1="15.726" y1="33.036" x2="52.441" y2="33.036"/>
<line fill="none" stroke="#B22D2B" stroke-miterlimit="10" x1="15.726" y1="30.062" x2="52.441" y2="30.062"/>
<line fill="none" stroke="#B22D2B" stroke-miterlimit="10" x1="15.726" y1="27.092" x2="52.441" y2="27.092"/>
<line fill="none" stroke="#B22D2B" stroke-miterlimit="10" x1="46.318" y1="24.118" x2="46.318" y2="41.954"/>
<line fill="none" stroke="#B22D2B" stroke-miterlimit="10" x1="40.205" y1="24.118" x2="40.205" y2="41.954"/>
<line fill="none" stroke="#B22D2B" stroke-miterlimit="10" x1="34.083" y1="24.118" x2="34.083" y2="41.954"/>
<line fill="none" stroke="#B22D2B" stroke-miterlimit="10" x1="27.96" y1="24.118" x2="27.96" y2="41.954"/>
<line fill="none" stroke="#B22D2B" stroke-miterlimit="10" x1="21.847" y1="24.118" x2="21.847" y2="41.954"/>
<rect x="9.797" y="8.75" fill="none" stroke="#B22D2B" stroke-miterlimit="10" width="48.571" height="48.572"/>
</svg>
