<svg xmlns="http://www.w3.org/2000/svg" width="67.67" height="67.67">
  <defs>
    <path id="a" d="M351.08-480.6l540 1.46V162l-540-1.46z"/>
  </defs>
  <defs>
    <path id="b" d="M351.08-480.6l540 1.46V162l-540-1.46z"/>
  </defs>
  <path fill="none" d="M.08 110.14V-531M.08 110.14V-531M.08 110.14V-531M.08 110.14V-531M.08 110.14V-531M.08 110.14V-531M.08 110.14V-531M.08 110.14V-531M.08 110.14V-531M.08 110.14V-531M.08 110.14V-531M.08 110.14V-531M.08 110.14V-531M.08 110.14V-531M.08 110.14V-531"/>
  <path fill="#236666" d="M39.93 36.29l16.39 4.82"/>
  <path fill="none" stroke="#52702A" stroke-width="1.5" stroke-miterlimit="10" stroke-dasharray="2,2" d="M44.01 37.49l12.31 3.62"/>
  <path fill="#52702A" d="M46.03 32.96l-2.77 9.43-3.33-6.1z"/>
  <path fill="#236666" d="M26.55 31.09l-16.13-5.63"/>
  <path fill="none" stroke="#52702A" stroke-width="1.5" stroke-miterlimit="10" stroke-dasharray="2,2" d="M22.54 29.69l-12.12-4.23"/>
  <path fill="#52702A" d="M20.3 34.11l3.23-9.29 3.02 6.26z"/>
  <path fill="none" stroke="#52702A" stroke-width="1.4999850000000001" stroke-miterlimit="10" d="M28.3 29.92l9.09-1.66 1.63 8.94-9.07 1.67z"/>
  <path fill="none" stroke="#52702A" stroke-miterlimit="10" d="M9.08 9h48.57v48.57H9.08z"/>
</svg>