<svg xmlns="http://www.w3.org/2000/svg" width="67.67" height="67.67">
  <defs>
    <path id="a" d="M350.83-301.1l540 1.46V341.5l-540-1.46z"/>
  </defs>
  <defs>
    <path id="b" d="M350.83-301.1l540 1.46V341.5l-540-1.46z"/>
  </defs>
  <path fill="none" stroke="#3D2877" stroke-miterlimit="10" d="M13.95 16.41v33.44M33.83 16.41v33.44M53.72 15.72v33.44"/>
  <path fill="#3D2877" d="M18.25 18.91H29v9.86H18.25zM38.15 18.91H48.9v9.86H38.15zM21.54 43.78a1.3 1.3 0 01-1.28 1.32 1.3 1.3 0 01-1.28-1.32c0-.73.57-1.32 1.28-1.32.7 0 1.28.59 1.28 1.32"/>
  <ellipse fill="none" stroke="#3D2877" stroke-width=".25" stroke-miterlimit="10" cx="20.26" cy="43.78" rx="1.28" ry="1.32"/>
  <path fill="#3D2877" d="M21.54 40.3a1.3 1.3 0 01-1.28 1.3 1.3 1.3 0 01-1.28-1.3c0-.74.57-1.33 1.28-1.33.7 0 1.28.6 1.28 1.32"/>
  <path fill="none" stroke="#3D2877" stroke-width=".25" stroke-miterlimit="10" d="M21.54 40.3a1.3 1.3 0 01-1.28 1.3 1.3 1.3 0 01-1.28-1.3c0-.74.57-1.33 1.28-1.33.7 0 1.28.6 1.28 1.32z"/>
  <path fill="#3D2877" d="M21.54 36.7a1.3 1.3 0 01-1.28 1.32c-.71 0-1.28-.6-1.28-1.32 0-.73.57-1.32 1.28-1.32.7 0 1.28.6 1.28 1.32"/>
  <ellipse fill="none" stroke="#3D2877" stroke-width=".25" stroke-miterlimit="10" cx="20.26" cy="36.7" rx="1.28" ry="1.32"/>
  <path fill="#3D2877" d="M21.54 33.22a1.3 1.3 0 01-1.28 1.31c-.71 0-1.28-.59-1.28-1.31 0-.73.57-1.32 1.28-1.32.7 0 1.28.59 1.28 1.32"/>
  <path fill="none" stroke="#3D2877" stroke-width=".25" stroke-miterlimit="10" d="M21.54 33.22a1.3 1.3 0 01-1.28 1.31c-.71 0-1.28-.59-1.28-1.31 0-.73.57-1.32 1.28-1.32.7 0 1.28.59 1.28 1.32z"/>
  <path fill="#3D2877" d="M24.7 43.78a1.3 1.3 0 01-1.28 1.32 1.3 1.3 0 01-1.29-1.32c0-.73.58-1.32 1.29-1.32.7 0 1.28.59 1.28 1.32"/>
  <ellipse fill="none" stroke="#3D2877" stroke-width=".25" stroke-miterlimit="10" cx="23.41" cy="43.78" rx="1.28" ry="1.32"/>
  <path fill="#3D2877" d="M24.7 40.3a1.3 1.3 0 01-1.28 1.3 1.3 1.3 0 01-1.29-1.3c0-.74.58-1.33 1.29-1.33.7 0 1.28.6 1.28 1.32"/>
  <path fill="none" stroke="#3D2877" stroke-width=".25" stroke-miterlimit="10" d="M24.7 40.3a1.3 1.3 0 01-1.28 1.3 1.3 1.3 0 01-1.29-1.3c0-.74.58-1.33 1.29-1.33.7 0 1.28.6 1.28 1.32z"/>
  <path fill="#3D2877" d="M24.7 36.7a1.3 1.3 0 01-1.28 1.32 1.3 1.3 0 01-1.29-1.32c0-.73.58-1.32 1.29-1.32.7 0 1.28.6 1.28 1.32"/>
  <ellipse fill="none" stroke="#3D2877" stroke-width=".25" stroke-miterlimit="10" cx="23.41" cy="36.7" rx="1.28" ry="1.32"/>
  <path fill="#3D2877" d="M24.7 33.22a1.3 1.3 0 01-1.28 1.31 1.3 1.3 0 01-1.29-1.31c0-.73.58-1.32 1.29-1.32.7 0 1.28.59 1.28 1.32"/>
  <path fill="none" stroke="#3D2877" stroke-width=".25" stroke-miterlimit="10" d="M24.7 33.22a1.3 1.3 0 01-1.28 1.31 1.3 1.3 0 01-1.29-1.31c0-.73.58-1.32 1.29-1.32.7 0 1.28.59 1.28 1.32z"/>
  <path fill="#3D2877" d="M27.92 43.78c0 .73-.57 1.32-1.28 1.32s-1.28-.6-1.28-1.32c0-.73.57-1.32 1.28-1.32s1.28.59 1.28 1.32"/>
  <ellipse fill="none" stroke="#3D2877" stroke-width=".25" stroke-miterlimit="10" cx="26.64" cy="43.78" rx="1.28" ry="1.32"/>
  <path fill="#3D2877" d="M27.92 40.3c0 .72-.57 1.3-1.28 1.3s-1.28-.58-1.28-1.3c0-.74.57-1.33 1.28-1.33s1.28.6 1.28 1.32"/>
  <path fill="none" stroke="#3D2877" stroke-width=".25" stroke-miterlimit="10" d="M27.92 40.3c0 .72-.57 1.3-1.28 1.3s-1.28-.58-1.28-1.3c0-.74.57-1.33 1.28-1.33s1.28.6 1.28 1.32z"/>
  <path fill="#3D2877" d="M27.92 36.7c0 .73-.57 1.32-1.28 1.32s-1.28-.6-1.28-1.32c0-.73.57-1.32 1.28-1.32s1.28.6 1.28 1.32"/>
  <ellipse fill="none" stroke="#3D2877" stroke-width=".25" stroke-miterlimit="10" cx="26.64" cy="36.7" rx="1.28" ry="1.32"/>
  <path fill="#3D2877" d="M27.92 33.22c0 .72-.57 1.31-1.28 1.31s-1.28-.59-1.28-1.31c0-.73.57-1.32 1.28-1.32s1.28.59 1.28 1.32"/>
  <path fill="none" stroke="#3D2877" stroke-width=".25" stroke-miterlimit="10" d="M27.92 33.22c0 .72-.57 1.31-1.28 1.31s-1.28-.59-1.28-1.31c0-.73.57-1.32 1.28-1.32s1.28.59 1.28 1.32z"/>
  <path fill="#3D2877" d="M41.1 47.7a1.3 1.3 0 01-1.29 1.32c-.7 0-1.28-.6-1.28-1.32 0-.73.58-1.32 1.28-1.32.71 0 1.29.6 1.29 1.32"/>
  <ellipse fill="none" stroke="#3D2877" stroke-width=".25" stroke-miterlimit="10" cx="39.81" cy="47.7" rx="1.28" ry="1.32"/>
  <path fill="#3D2877" d="M41.1 44.1a1.3 1.3 0 01-1.29 1.32 1.3 1.3 0 01-1.28-1.31c0-.73.58-1.32 1.28-1.32.71 0 1.29.59 1.29 1.32"/>
  <path fill="none" stroke="#3D2877" stroke-width=".25" stroke-miterlimit="10" d="M41.1 44.1a1.3 1.3 0 01-1.29 1.32 1.3 1.3 0 01-1.28-1.31c0-.73.58-1.32 1.28-1.32.71 0 1.29.59 1.29 1.32z"/>
  <path fill="#3D2877" d="M41.1 40.62a1.3 1.3 0 01-1.29 1.31 1.3 1.3 0 01-1.28-1.31c0-.73.58-1.32 1.28-1.32.71 0 1.29.59 1.29 1.32"/>
  <path fill="none" stroke="#3D2877" stroke-width=".25" stroke-miterlimit="10" d="M41.1 40.62a1.3 1.3 0 01-1.29 1.31 1.3 1.3 0 01-1.28-1.31c0-.73.58-1.32 1.28-1.32.71 0 1.29.59 1.29 1.32z"/>
  <path fill="#3D2877" d="M41.1 37.03a1.3 1.3 0 01-1.29 1.32c-.7 0-1.28-.6-1.28-1.32 0-.73.58-1.32 1.28-1.32.71 0 1.29.6 1.29 1.32"/>
  <path fill="none" stroke="#3D2877" stroke-width=".25" stroke-miterlimit="10" d="M41.1 37.03a1.3 1.3 0 01-1.29 1.32c-.7 0-1.28-.6-1.28-1.32 0-.73.58-1.32 1.28-1.32.71 0 1.29.6 1.29 1.32z"/>
  <path fill="#3D2877" d="M41.1 33.54a1.3 1.3 0 01-1.29 1.32c-.7 0-1.28-.6-1.28-1.32 0-.72.58-1.31 1.28-1.31.71 0 1.29.59 1.29 1.31"/>
  <ellipse fill="none" stroke="#3D2877" stroke-width=".25" stroke-miterlimit="10" cx="39.81" cy="33.54" rx="1.28" ry="1.32"/>
  <path fill="#3D2877" d="M44.25 47.7a1.3 1.3 0 01-1.28 1.32c-.7 0-1.28-.6-1.28-1.32 0-.73.57-1.32 1.28-1.32.7 0 1.28.6 1.28 1.32"/>
  <ellipse fill="none" stroke="#3D2877" stroke-width=".25" stroke-miterlimit="10" cx="42.97" cy="47.7" rx="1.28" ry="1.32"/>
  <path fill="#3D2877" d="M44.25 44.1a1.3 1.3 0 01-1.28 1.32 1.3 1.3 0 01-1.28-1.31c0-.73.57-1.32 1.28-1.32.7 0 1.28.59 1.28 1.32"/>
  <path fill="none" stroke="#3D2877" stroke-width=".25" stroke-miterlimit="10" d="M44.25 44.1a1.3 1.3 0 01-1.28 1.32 1.3 1.3 0 01-1.28-1.31c0-.73.57-1.32 1.28-1.32.7 0 1.28.59 1.28 1.32z"/>
  <path fill="#3D2877" d="M44.25 40.62a1.3 1.3 0 01-1.28 1.31 1.3 1.3 0 01-1.28-1.31c0-.73.57-1.32 1.28-1.32.7 0 1.28.59 1.28 1.32"/>
  <path fill="none" stroke="#3D2877" stroke-width=".25" stroke-miterlimit="10" d="M44.25 40.62a1.3 1.3 0 01-1.28 1.31 1.3 1.3 0 01-1.28-1.31c0-.73.57-1.32 1.28-1.32.7 0 1.28.59 1.28 1.32z"/>
  <path fill="#3D2877" d="M44.25 37.03a1.3 1.3 0 01-1.28 1.32c-.7 0-1.28-.6-1.28-1.32 0-.73.57-1.32 1.28-1.32.7 0 1.28.6 1.28 1.32"/>
  <path fill="none" stroke="#3D2877" stroke-width=".25" stroke-miterlimit="10" d="M44.25 37.03a1.3 1.3 0 01-1.28 1.32c-.7 0-1.28-.6-1.28-1.32 0-.73.57-1.32 1.28-1.32.7 0 1.28.6 1.28 1.32z"/>
  <path fill="#3D2877" d="M44.25 33.54a1.3 1.3 0 01-1.28 1.32c-.7 0-1.28-.6-1.28-1.32 0-.72.57-1.31 1.28-1.31.7 0 1.28.59 1.28 1.31"/>
  <ellipse fill="none" stroke="#3D2877" stroke-width=".25" stroke-miterlimit="10" cx="42.97" cy="33.54" rx="1.28" ry="1.32"/>
  <path fill="#3D2877" d="M47.48 47.7a1.3 1.3 0 01-1.29 1.32c-.7 0-1.28-.6-1.28-1.32 0-.73.58-1.32 1.28-1.32.71 0 1.29.6 1.29 1.32"/>
  <ellipse fill="none" stroke="#3D2877" stroke-width=".25" stroke-miterlimit="10" cx="46.19" cy="47.7" rx="1.28" ry="1.32"/>
  <path fill="#3D2877" d="M47.48 44.1a1.3 1.3 0 01-1.29 1.32 1.3 1.3 0 01-1.28-1.31c0-.73.58-1.32 1.28-1.32.71 0 1.29.59 1.29 1.32"/>
  <path fill="none" stroke="#3D2877" stroke-width=".25" stroke-miterlimit="10" d="M47.48 44.1a1.3 1.3 0 01-1.29 1.32 1.3 1.3 0 01-1.28-1.31c0-.73.58-1.32 1.28-1.32.71 0 1.29.59 1.29 1.32z"/>
  <path fill="#3D2877" d="M47.48 40.62a1.3 1.3 0 01-1.29 1.31 1.3 1.3 0 01-1.28-1.31c0-.73.58-1.32 1.28-1.32.71 0 1.29.59 1.29 1.32"/>
  <path fill="none" stroke="#3D2877" stroke-width=".25" stroke-miterlimit="10" d="M47.48 40.62a1.3 1.3 0 01-1.29 1.31 1.3 1.3 0 01-1.28-1.31c0-.73.58-1.32 1.28-1.32.71 0 1.29.59 1.29 1.32z"/>
  <path fill="#3D2877" d="M47.48 37.03a1.3 1.3 0 01-1.29 1.32c-.7 0-1.28-.6-1.28-1.32 0-.73.58-1.32 1.28-1.32.71 0 1.29.6 1.29 1.32"/>
  <path fill="none" stroke="#3D2877" stroke-width=".25" stroke-miterlimit="10" d="M47.48 37.03a1.3 1.3 0 01-1.29 1.32c-.7 0-1.28-.6-1.28-1.32 0-.73.58-1.32 1.28-1.32.71 0 1.29.6 1.29 1.32z"/>
  <path fill="#3D2877" d="M47.48 33.54a1.3 1.3 0 01-1.29 1.32c-.7 0-1.28-.6-1.28-1.32 0-.72.58-1.31 1.28-1.31.71 0 1.29.59 1.29 1.31"/>
  <ellipse fill="none" stroke="#3D2877" stroke-width=".25" stroke-miterlimit="10" cx="46.19" cy="33.54" rx="1.28" ry="1.32"/>
  <path fill="none" stroke="#3E2779" stroke-miterlimit="10" d="M9.55 8.5h48.57v48.57H9.55z"/>
</svg>