<?xml version="1.0" encoding="utf-8"?>
<!-- Generator: Adobe Illustrator 16.0.0, SVG Export Plug-In . SVG Version: 6.00 Build 0)  -->
<!DOCTYPE svg PUBLIC "-//W3C//DTD SVG 1.1//EN" "http://www.w3.org/Graphics/SVG/1.1/DTD/svg11.dtd">
<svg version="1.1" id="Ebene_1" xmlns="http://www.w3.org/2000/svg" xmlns:xlink="http://www.w3.org/1999/xlink" x="0px" y="0px"
	 width="67.667px" height="67.666px" viewBox="0 0 67.667 67.666" enable-background="new 0 0 67.667 67.666" xml:space="preserve">
<g>
	<defs>
		<polygon id="SVGID_7_" points="350.833,-301.101 890.833,-299.644 890.833,341.5 350.833,340.043 		"/>
	</defs>
	<clipPath id="SVGID_2_">
		<use xlink:href="#SVGID_7_"  overflow="visible"/>
	</clipPath>
</g>
<g>
	<defs>
		<polygon id="SVGID_9_" points="350.833,-301.101 890.833,-299.644 890.833,341.5 350.833,340.043 		"/>
	</defs>
	<clipPath id="SVGID_4_">
		<use xlink:href="#SVGID_9_"  overflow="visible"/>
	</clipPath>
</g>
<line fill="none" stroke="#3D2877" stroke-miterlimit="10" x1="13.946" y1="16.411" x2="13.946" y2="49.854"/>
<line fill="none" stroke="#3D2877" stroke-miterlimit="10" x1="33.832" y1="16.411" x2="33.832" y2="49.854"/>
<line fill="none" stroke="#3D2877" stroke-miterlimit="10" x1="53.721" y1="15.718" x2="53.721" y2="49.159"/>
<rect x="18.246" y="18.905" fill="#3D2877" width="10.749" height="9.862"/>
<rect x="38.148" y="18.905" fill="#3D2877" width="10.75" height="9.862"/>
<path fill="#3D2877" d="M21.542,43.777c0,0.729-0.576,1.319-1.283,1.319c-0.709,0-1.282-0.59-1.282-1.319
	c0-0.728,0.573-1.315,1.282-1.315C20.967,42.462,21.542,43.05,21.542,43.777"/>
<ellipse fill="none" stroke="#3D2877" stroke-width="0.25" stroke-miterlimit="10" cx="20.26" cy="43.777" rx="1.283" ry="1.319"/>
<path fill="#3D2877" d="M21.542,40.292c0,0.729-0.576,1.315-1.283,1.315c-0.709,0-1.282-0.587-1.282-1.315
	c0-0.729,0.573-1.319,1.282-1.319C20.967,38.973,21.542,39.563,21.542,40.292"/>
<path fill="none" stroke="#3D2877" stroke-width="0.25" stroke-miterlimit="10" d="M21.542,40.292c0,0.729-0.576,1.315-1.283,1.315
	c-0.709,0-1.282-0.587-1.282-1.315c0-0.729,0.573-1.319,1.282-1.319C20.967,38.973,21.542,39.563,21.542,40.292z"/>
<path fill="#3D2877" d="M21.542,36.702c0,0.728-0.576,1.318-1.283,1.318c-0.709,0-1.282-0.591-1.282-1.318
	c0-0.727,0.573-1.317,1.282-1.317C20.967,35.385,21.542,35.976,21.542,36.702"/>
<ellipse fill="none" stroke="#3D2877" stroke-width="0.25" stroke-miterlimit="10" cx="20.26" cy="36.702" rx="1.283" ry="1.318"/>
<path fill="#3D2877" d="M21.542,33.216c0,0.725-0.576,1.317-1.283,1.317c-0.709,0-1.282-0.593-1.282-1.317
	c0-0.728,0.573-1.318,1.282-1.318C20.967,31.897,21.542,32.488,21.542,33.216"/>
<path fill="none" stroke="#3D2877" stroke-width="0.25" stroke-miterlimit="10" d="M21.542,33.216c0,0.725-0.576,1.317-1.283,1.317
	c-0.709,0-1.282-0.593-1.282-1.317c0-0.728,0.573-1.318,1.282-1.318C20.967,31.897,21.542,32.488,21.542,33.216z"/>
<path fill="#3D2877" d="M24.698,43.777c0,0.729-0.575,1.319-1.282,1.319c-0.711,0-1.284-0.59-1.284-1.319
	c0-0.728,0.573-1.315,1.284-1.315C24.123,42.462,24.698,43.05,24.698,43.777"/>
<ellipse fill="none" stroke="#3D2877" stroke-width="0.25" stroke-miterlimit="10" cx="23.415" cy="43.777" rx="1.283" ry="1.319"/>
<path fill="#3D2877" d="M24.698,40.292c0,0.729-0.575,1.315-1.282,1.315c-0.711,0-1.284-0.587-1.284-1.315
	c0-0.729,0.573-1.319,1.284-1.319C24.123,38.973,24.698,39.563,24.698,40.292"/>
<path fill="none" stroke="#3D2877" stroke-width="0.25" stroke-miterlimit="10" d="M24.698,40.292c0,0.729-0.575,1.315-1.282,1.315
	c-0.711,0-1.284-0.587-1.284-1.315c0-0.729,0.573-1.319,1.284-1.319C24.123,38.973,24.698,39.563,24.698,40.292z"/>
<path fill="#3D2877" d="M24.698,36.702c0,0.728-0.575,1.318-1.282,1.318c-0.711,0-1.284-0.591-1.284-1.318
	c0-0.727,0.573-1.317,1.284-1.317C24.123,35.385,24.698,35.976,24.698,36.702"/>
<ellipse fill="none" stroke="#3D2877" stroke-width="0.25" stroke-miterlimit="10" cx="23.415" cy="36.702" rx="1.283" ry="1.318"/>
<path fill="#3D2877" d="M24.698,33.216c0,0.725-0.575,1.317-1.282,1.317c-0.711,0-1.284-0.593-1.284-1.317
	c0-0.728,0.573-1.318,1.284-1.318C24.123,31.897,24.698,32.488,24.698,33.216"/>
<path fill="none" stroke="#3D2877" stroke-width="0.25" stroke-miterlimit="10" d="M24.698,33.216c0,0.725-0.575,1.317-1.282,1.317
	c-0.711,0-1.284-0.593-1.284-1.317c0-0.728,0.573-1.318,1.284-1.318C24.123,31.897,24.698,32.488,24.698,33.216z"/>
<path fill="#3D2877" d="M27.919,43.777c0,0.729-0.573,1.319-1.282,1.319s-1.281-0.59-1.281-1.319c0-0.728,0.572-1.315,1.281-1.315
	S27.919,43.05,27.919,43.777"/>
<ellipse fill="none" stroke="#3D2877" stroke-width="0.25" stroke-miterlimit="10" cx="26.637" cy="43.777" rx="1.281" ry="1.319"/>
<path fill="#3D2877" d="M27.919,40.292c0,0.729-0.573,1.315-1.282,1.315s-1.281-0.587-1.281-1.315c0-0.729,0.572-1.319,1.281-1.319
	S27.919,39.563,27.919,40.292"/>
<path fill="none" stroke="#3D2877" stroke-width="0.25" stroke-miterlimit="10" d="M27.919,40.292c0,0.729-0.573,1.315-1.282,1.315
	s-1.281-0.587-1.281-1.315c0-0.729,0.572-1.319,1.281-1.319S27.919,39.563,27.919,40.292z"/>
<path fill="#3D2877" d="M27.919,36.702c0,0.728-0.573,1.318-1.282,1.318s-1.281-0.591-1.281-1.318c0-0.727,0.572-1.317,1.281-1.317
	S27.919,35.976,27.919,36.702"/>
<ellipse fill="none" stroke="#3D2877" stroke-width="0.25" stroke-miterlimit="10" cx="26.637" cy="36.702" rx="1.281" ry="1.318"/>
<path fill="#3D2877" d="M27.919,33.216c0,0.725-0.573,1.317-1.282,1.317s-1.281-0.593-1.281-1.317c0-0.728,0.572-1.318,1.281-1.318
	S27.919,32.488,27.919,33.216"/>
<path fill="none" stroke="#3D2877" stroke-width="0.25" stroke-miterlimit="10" d="M27.919,33.216c0,0.725-0.573,1.317-1.282,1.317
	s-1.281-0.593-1.281-1.317c0-0.728,0.572-1.318,1.281-1.318S27.919,32.488,27.919,33.216z"/>
<path fill="#3D2877" d="M41.098,47.7c0,0.728-0.578,1.318-1.284,1.318c-0.708,0-1.281-0.591-1.281-1.318
	c0-0.727,0.573-1.317,1.281-1.317C40.52,46.383,41.098,46.974,41.098,47.7"/>
<ellipse fill="none" stroke="#3D2877" stroke-width="0.25" stroke-miterlimit="10" cx="39.815" cy="47.7" rx="1.283" ry="1.318"/>
<path fill="#3D2877" d="M41.098,44.106c0,0.728-0.578,1.317-1.284,1.317c-0.708,0-1.281-0.59-1.281-1.317
	c0-0.73,0.573-1.317,1.281-1.317C40.52,42.789,41.098,43.376,41.098,44.106"/>
<path fill="none" stroke="#3D2877" stroke-width="0.25" stroke-miterlimit="10" d="M41.098,44.106c0,0.728-0.578,1.317-1.284,1.317
	c-0.708,0-1.281-0.59-1.281-1.317c0-0.73,0.573-1.317,1.281-1.317C40.52,42.789,41.098,43.376,41.098,44.106z"/>
<path fill="#3D2877" d="M41.098,40.619c0,0.728-0.578,1.315-1.284,1.315c-0.708,0-1.281-0.588-1.281-1.315
	c0-0.729,0.573-1.319,1.281-1.319C40.52,39.3,41.098,39.89,41.098,40.619"/>
<path fill="none" stroke="#3D2877" stroke-width="0.25" stroke-miterlimit="10" d="M41.098,40.619c0,0.728-0.578,1.315-1.284,1.315
	c-0.708,0-1.281-0.588-1.281-1.315c0-0.729,0.573-1.319,1.281-1.319C40.52,39.3,41.098,39.89,41.098,40.619z"/>
<path fill="#3D2877" d="M41.098,37.028c0,0.728-0.578,1.318-1.284,1.318c-0.708,0-1.281-0.591-1.281-1.318
	c0-0.724,0.573-1.317,1.281-1.317C40.52,35.711,41.098,36.305,41.098,37.028"/>
<path fill="none" stroke="#3D2877" stroke-width="0.25" stroke-miterlimit="10" d="M41.098,37.028c0,0.728-0.578,1.318-1.284,1.318
	c-0.708,0-1.281-0.591-1.281-1.318c0-0.724,0.573-1.317,1.281-1.317C40.52,35.711,41.098,36.305,41.098,37.028z"/>
<path fill="#3D2877" d="M41.098,33.542c0,0.728-0.578,1.318-1.284,1.318c-0.708,0-1.281-0.591-1.281-1.318
	c0-0.727,0.573-1.317,1.281-1.317C40.52,32.225,41.098,32.815,41.098,33.542"/>
<ellipse fill="none" stroke="#3D2877" stroke-width="0.25" stroke-miterlimit="10" cx="39.815" cy="33.542" rx="1.283" ry="1.318"/>
<path fill="#3D2877" d="M44.251,47.7c0,0.728-0.575,1.318-1.282,1.318c-0.708,0-1.282-0.591-1.282-1.318
	c0-0.727,0.574-1.317,1.282-1.317C43.676,46.383,44.251,46.974,44.251,47.7"/>
<ellipse fill="none" stroke="#3D2877" stroke-width="0.25" stroke-miterlimit="10" cx="42.969" cy="47.7" rx="1.282" ry="1.318"/>
<path fill="#3D2877" d="M44.251,44.106c0,0.728-0.575,1.317-1.282,1.317c-0.708,0-1.282-0.59-1.282-1.317
	c0-0.73,0.574-1.317,1.282-1.317C43.676,42.789,44.251,43.376,44.251,44.106"/>
<path fill="none" stroke="#3D2877" stroke-width="0.25" stroke-miterlimit="10" d="M44.251,44.106c0,0.728-0.575,1.317-1.282,1.317
	c-0.708,0-1.282-0.59-1.282-1.317c0-0.73,0.574-1.317,1.282-1.317C43.676,42.789,44.251,43.376,44.251,44.106z"/>
<path fill="#3D2877" d="M44.251,40.619c0,0.728-0.575,1.315-1.282,1.315c-0.708,0-1.282-0.588-1.282-1.315
	c0-0.729,0.574-1.319,1.282-1.319C43.676,39.3,44.251,39.89,44.251,40.619"/>
<path fill="none" stroke="#3D2877" stroke-width="0.25" stroke-miterlimit="10" d="M44.251,40.619c0,0.728-0.575,1.315-1.282,1.315
	c-0.708,0-1.282-0.588-1.282-1.315c0-0.729,0.574-1.319,1.282-1.319C43.676,39.3,44.251,39.89,44.251,40.619z"/>
<path fill="#3D2877" d="M44.251,37.028c0,0.728-0.575,1.318-1.282,1.318c-0.708,0-1.282-0.591-1.282-1.318
	c0-0.724,0.574-1.317,1.282-1.317C43.676,35.711,44.251,36.305,44.251,37.028"/>
<path fill="none" stroke="#3D2877" stroke-width="0.25" stroke-miterlimit="10" d="M44.251,37.028c0,0.728-0.575,1.318-1.282,1.318
	c-0.708,0-1.282-0.591-1.282-1.318c0-0.724,0.574-1.317,1.282-1.317C43.676,35.711,44.251,36.305,44.251,37.028z"/>
<path fill="#3D2877" d="M44.251,33.542c0,0.728-0.575,1.318-1.282,1.318c-0.708,0-1.282-0.591-1.282-1.318
	c0-0.727,0.574-1.317,1.282-1.317C43.676,32.225,44.251,32.815,44.251,33.542"/>
<ellipse fill="none" stroke="#3D2877" stroke-width="0.25" stroke-miterlimit="10" cx="42.969" cy="33.542" rx="1.282" ry="1.318"/>
<path fill="#3D2877" d="M47.475,47.7c0,0.728-0.573,1.318-1.282,1.318c-0.708,0-1.283-0.591-1.283-1.318
	c0-0.727,0.576-1.317,1.283-1.317C46.902,46.383,47.475,46.974,47.475,47.7"/>
<ellipse fill="none" stroke="#3D2877" stroke-width="0.25" stroke-miterlimit="10" cx="46.192" cy="47.7" rx="1.283" ry="1.318"/>
<path fill="#3D2877" d="M47.475,44.106c0,0.728-0.573,1.317-1.282,1.317c-0.708,0-1.283-0.59-1.283-1.317
	c0-0.73,0.576-1.317,1.283-1.317C46.902,42.789,47.475,43.376,47.475,44.106"/>
<path fill="none" stroke="#3D2877" stroke-width="0.25" stroke-miterlimit="10" d="M47.475,44.106c0,0.728-0.573,1.317-1.282,1.317
	c-0.708,0-1.283-0.59-1.283-1.317c0-0.73,0.576-1.317,1.283-1.317C46.902,42.789,47.475,43.376,47.475,44.106z"/>
<path fill="#3D2877" d="M47.475,40.619c0,0.728-0.573,1.315-1.282,1.315c-0.708,0-1.283-0.588-1.283-1.315
	c0-0.729,0.576-1.319,1.283-1.319C46.902,39.3,47.475,39.89,47.475,40.619"/>
<path fill="none" stroke="#3D2877" stroke-width="0.25" stroke-miterlimit="10" d="M47.475,40.619c0,0.728-0.573,1.315-1.282,1.315
	c-0.708,0-1.283-0.588-1.283-1.315c0-0.729,0.576-1.319,1.283-1.319C46.902,39.3,47.475,39.89,47.475,40.619z"/>
<path fill="#3D2877" d="M47.475,37.028c0,0.728-0.573,1.318-1.282,1.318c-0.708,0-1.283-0.591-1.283-1.318
	c0-0.724,0.576-1.317,1.283-1.317C46.902,35.711,47.475,36.305,47.475,37.028"/>
<path fill="none" stroke="#3D2877" stroke-width="0.25" stroke-miterlimit="10" d="M47.475,37.028c0,0.728-0.573,1.318-1.282,1.318
	c-0.708,0-1.283-0.591-1.283-1.318c0-0.724,0.576-1.317,1.283-1.317C46.902,35.711,47.475,36.305,47.475,37.028z"/>
<path fill="#3D2877" d="M47.475,33.542c0,0.728-0.573,1.318-1.282,1.318c-0.708,0-1.283-0.591-1.283-1.318
	c0-0.727,0.576-1.317,1.283-1.317C46.902,32.225,47.475,32.815,47.475,33.542"/>
<ellipse fill="none" stroke="#3D2877" stroke-width="0.25" stroke-miterlimit="10" cx="46.192" cy="33.542" rx="1.283" ry="1.318"/>
<rect x="9.547" y="8.5" fill="none" stroke="#3E2779" stroke-miterlimit="10" width="48.571" height="48.571"/>
</svg>
