<?xml version="1.0" encoding="utf-8"?>
<!-- Generator: Adobe Illustrator 16.0.0, SVG Export Plug-In . SVG Version: 6.00 Build 0)  -->
<!DOCTYPE svg PUBLIC "-//W3C//DTD SVG 1.1//EN" "http://www.w3.org/Graphics/SVG/1.1/DTD/svg11.dtd">
<svg version="1.1" id="Ebene_1" xmlns="http://www.w3.org/2000/svg" xmlns:xlink="http://www.w3.org/1999/xlink" x="0px" y="0px"
	 width="67.667px" height="67.666px" viewBox="0 0 67.667 67.666" enable-background="new 0 0 67.667 67.666" xml:space="preserve">
<path fill="#52702A" d="M34.633,26.151c0.834,0.03,1.484,0.732,1.455,1.561c-0.031,0.832-0.731,1.483-1.566,1.452
	c-0.831-0.031-1.482-0.731-1.45-1.563C33.103,26.772,33.803,26.122,34.633,26.151"/>
<path fill="none" stroke="#52702A" stroke-width="2" stroke-miterlimit="10" d="M34.633,26.151c0.834,0.03,1.484,0.732,1.455,1.561
	c-0.031,0.832-0.731,1.483-1.566,1.452c-0.831-0.031-1.482-0.731-1.45-1.563C33.103,26.772,33.803,26.122,34.633,26.151z"/>
<path fill="none" stroke="#52702A" stroke-width="0.5" stroke-miterlimit="10" d="M24.619,26.402
	c2.917,0.109,5.193,2.566,5.085,5.483c-0.109,2.923-2.562,5.198-5.475,5.092c-2.925-0.107-5.207-2.561-5.099-5.483
	C19.238,28.577,21.696,26.294,24.619,26.402z"/>
<path fill="#52702A" d="M36.266,34.804c1.549,0.059,2.756,1.363,2.7,2.913c-0.058,1.55-1.359,2.759-2.907,2.702
	c-1.552-0.057-2.763-1.36-2.705-2.911C33.409,35.961,34.714,34.747,36.266,34.804"/>
<path fill="none" stroke="#52702A" stroke-width="2" stroke-miterlimit="10" d="M36.266,34.804c1.549,0.059,2.756,1.363,2.7,2.913
	c-0.058,1.55-1.359,2.759-2.907,2.702c-1.552-0.057-2.763-1.36-2.705-2.911C33.409,35.961,34.714,34.747,36.266,34.804z"/>
<path fill="#52702A" d="M24.476,30.106c0.874,0.033,1.557,0.769,1.525,1.644c-0.034,0.873-0.768,1.554-1.643,1.521
	c-0.873-0.031-1.554-0.766-1.523-1.639C22.868,30.758,23.603,30.077,24.476,30.106"/>
<circle fill="none" stroke="#52702A" stroke-width="2" stroke-miterlimit="10" cx="24.417" cy="31.689" r="1.584"/>
<path fill="#52702A" d="M44.646,28.031c1.155,0.042,2.059,1.017,2.017,2.172c-0.042,1.153-1.017,2.058-2.172,2.015
	c-1.154-0.042-2.057-1.017-2.016-2.171C42.52,28.894,43.492,27.986,44.646,28.031"/>
<path fill="none" stroke="#52702A" stroke-width="2" stroke-miterlimit="10" d="M44.646,28.031c1.155,0.042,2.059,1.017,2.017,2.172
	c-0.042,1.153-1.017,2.058-2.172,2.015c-1.154-0.042-2.057-1.017-2.016-2.171C42.52,28.894,43.492,27.986,44.646,28.031z"/>
<rect x="9.083" y="9" fill="none" stroke="#52702A" stroke-miterlimit="10" width="48.571" height="48.571"/>
</svg>
