<?xml version="1.0" encoding="utf-8"?>
<!-- Generator: Adobe Illustrator 16.0.3, SVG Export Plug-In . SVG Version: 6.00 Build 0)  -->
<!DOCTYPE svg PUBLIC "-//W3C//DTD SVG 1.1//EN" "http://www.w3.org/Graphics/SVG/1.1/DTD/svg11.dtd">
<svg version="1.1" id="Ebene_1" xmlns="http://www.w3.org/2000/svg" xmlns:xlink="http://www.w3.org/1999/xlink" x="0px" y="0px"
	 width="320px" height="180px" viewBox="0 0 320 180" enable-background="new 0 0 320 180" xml:space="preserve">
<g>
	<g>
		<g>
			<g>
				<path fill="none" stroke="#A1D5D3" stroke-width="1.067" stroke-miterlimit="10" d="M178.503,91.063
					c17.826,0,22.837,45.405,43.481,45.405"/>
			</g>
		</g>
	</g>
	<g>
		<g>
			<g>
				<path fill="none" stroke="#A1D5D3" stroke-width="3" stroke-miterlimit="10" d="M222.063,137.547
					c-18.944,0-22.063,13.828-44,13.828"/>
			</g>
		</g>
	</g>
	<g>
		<g>
			<g>
				<path fill="none" stroke="#A1D5D3" stroke-width="0.75" stroke-miterlimit="10" d="M178.765,42.772
					c18.069,0,22.326,94.947,43.251,94.947"/>
			</g>
		</g>
	</g>
	<g>
		<g>
			<g>
				<path fill="none" stroke="#A1D5D3" stroke-width="1.6" stroke-miterlimit="10" d="M113.417,69.75
					c27.35,0,16.575-27.25,48.25-27.25"/>
			</g>
		</g>
	</g>
	<g>
		<g>
			<g>
				<path fill="none" stroke="#A1D5D3" stroke-width="4" stroke-miterlimit="10" d="M113.563,113.375
					c22.666,0,22.011-22.375,48.25-22.375"/>
			</g>
		</g>
	</g>
	<g>
		<g>
			<g>
				<path fill="none" stroke="#A1D5D3" stroke-width="0.75" stroke-miterlimit="10" d="M113.667,71.167
					c21.751,0,22.708,18.271,47.896,18.271"/>
			</g>
		</g>
	</g>
	<g>
		<g>
			<g>
				<path fill="none" stroke="#A1D5D3" stroke-width="2.134" stroke-miterlimit="10" d="M113.249,73.494
					c23.836,0,27.251,76.756,48.439,76.819"/>
			</g>
		</g>
	</g>
	<g>
		<g>
			<g>
				<path fill="none" stroke="#A1D5D3" stroke-width="1.6" stroke-miterlimit="10" d="M113.563,112.5
					c20.802,0,24.013-68.833,48.104-68.833"/>
			</g>
		</g>
	</g>
	<g>
		<g>
			<g>
				<path fill="none" stroke="#A1D5D3" stroke-width="3" stroke-miterlimit="10" d="M113.438,114.688
					c25.357,0,21.563,40.434,48.563,37.647"/>
			</g>
		</g>
	</g>
	<g>
		<g>
			<g>
				<path fill="none" stroke="#A1D5D3" stroke-width="1.067" stroke-miterlimit="10" d="M178.271,89.664
					c19.877,0,20.632-43.997,43.646-43.997"/>
			</g>
		</g>
	</g>
	<g>
		<g>
			<g>
				<path fill="none" stroke="#A1D5D3" stroke-width="4" stroke-miterlimit="10" d="M178.5,90.813c18.913,0,21.6-1.646,43.5-1.646"
					/>
			</g>
		</g>
	</g>
	<g>
		<g>
			<g>
				<path fill="none" stroke="#A1D5D3" stroke-width="1.067" stroke-miterlimit="10" d="M178.438,149.938
					c17.417,0,23.521-62.583,43.688-62.583"/>
			</g>
		</g>
	</g>
	<g>
		<g>
			<g>
				<path fill="none" stroke="#A1D5D3" stroke-width="1.6" stroke-miterlimit="10" d="M177.813,153.25
					c14.625,1.5,21.433-106,44.188-106"/>
			</g>
		</g>
	</g>
	<g>
		<g>
			<g>
				<path fill="none" stroke="#A1D5D3" stroke-width="2.134" stroke-miterlimit="10" d="M178.417,42.583
					c19.731,0,22.333,52.979,44.427,48.698"/>
			</g>
		</g>
	</g>
	<g>
		<g>
			<g>
				<path fill="none" stroke="#A1D5D3" stroke-width="1.6" stroke-miterlimit="10" d="M178.5,44.167
					c19.014,0,21.889,0.083,43.906,0.083"/>
			</g>
		</g>
	</g>
	<path fill="none" stroke="#A1D5D3" stroke-width="0.75" stroke-miterlimit="10" d="M238.441,134.342
		c-1.278-4.458-5.924-7.031-10.383-5.753c-4.453,1.276-7.028,5.924-5.756,10.377c1.278,4.457,5.929,7.034,10.383,5.759
		C237.14,143.443,239.721,138.798,238.441,134.342"/>
	<path fill="none" stroke="#A1D5D3" stroke-width="0.75" stroke-miterlimit="10" d="M238.441,134.342
		c-1.278-4.458-5.924-7.031-10.383-5.753c-4.453,1.276-7.028,5.924-5.756,10.377c1.278,4.457,5.929,7.034,10.383,5.759
		C237.14,143.443,239.721,138.798,238.441,134.342z"/>
	<path fill="#A1D5D3" d="M237.229,134.691c-1.084-3.792-5.035-5.98-8.822-4.894c-3.785,1.087-5.978,5.036-4.889,8.825
		c1.083,3.785,5.031,5.978,8.82,4.891C236.127,142.425,238.317,138.475,237.229,134.691"/>
	<path fill="none" stroke="#A1D5D3" stroke-width="0.75" stroke-miterlimit="10" d="M178.11,152.213
		c-1.278,4.454-5.924,7.034-10.379,5.756c-4.456-1.278-7.035-5.923-5.756-10.384c1.276-4.453,5.925-7.028,10.38-5.755
		C176.808,143.108,179.389,147.758,178.11,152.213z"/>
	<path fill="none" stroke="#A1D5D3" stroke-width="0.75" stroke-miterlimit="10" d="M178.11,45.157
		c-1.278,4.455-5.924,7.031-10.377,5.754c-4.456-1.278-7.034-5.925-5.757-10.379c1.275-4.457,5.924-7.034,10.379-5.757
		C176.815,36.055,179.389,40.703,178.11,45.157z"/>
	<path fill="#A1D5D3" d="M176.9,44.808c-1.084,3.792-5.034,5.98-8.82,4.893c-3.789-1.083-5.98-5.035-4.893-8.823
		c1.087-3.786,5.037-5.975,8.823-4.888C175.796,37.072,177.988,41.021,176.9,44.808"/>
	<path fill="none" stroke="#A1D5D3" stroke-width="0.75" stroke-miterlimit="10" d="M178.11,92.132
		c-1.272,4.457-5.924,7.03-10.379,5.755c-4.454-1.275-7.033-5.927-5.753-10.381c1.275-4.456,5.922-7.034,10.383-5.753
		C176.815,83.026,179.392,87.678,178.11,92.132z"/>
	<path fill="#A1D5D3" d="M176.9,91.785c-1.081,3.789-5.032,5.979-8.82,4.892c-3.789-1.082-5.979-5.036-4.892-8.822
		c1.086-3.793,5.036-5.982,8.822-4.897C175.796,84.049,177.988,87.995,176.9,91.785"/>
	<path fill="#A1D5D3" d="M176.9,151.847c-1.081,3.789-5.032,5.979-8.82,4.892c-3.789-1.082-5.979-5.036-4.892-8.822
		c1.086-3.793,5.036-5.982,8.822-4.897C175.796,144.111,177.988,148.058,176.9,151.847"/>
	<path fill="none" stroke="#A1D5D3" stroke-width="0.75" stroke-miterlimit="10" d="M113.249,73.494
		c-1.278,4.456-5.925,7.03-10.38,5.755c-4.457-1.278-7.033-5.925-5.757-10.382c1.278-4.456,5.925-7.031,10.38-5.756
		C111.95,64.391,114.525,69.039,113.249,73.494"/>
	<circle fill="none" stroke="#A1D5D3" stroke-width="0.75" stroke-miterlimit="10" cx="105.18" cy="71.18" r="8.394"/>
	<path fill="#A1D5D3" d="M112.038,73.145c-1.085,3.789-5.038,5.979-8.825,4.895c-3.786-1.087-5.978-5.037-4.891-8.824
		c1.085-3.786,5.035-5.975,8.824-4.891C110.932,65.407,113.124,69.357,112.038,73.145"/>
	<circle fill="none" stroke="#A1D5D3" stroke-width="0.75" stroke-miterlimit="10" cx="105.18" cy="113.272" r="8.394"/>
	<path fill="#A1D5D3" d="M112.037,115.236c-1.085,3.79-5.035,5.98-8.825,4.894c-3.784-1.084-5.978-5.038-4.89-8.824
		c1.087-3.785,5.033-5.979,8.824-4.894C110.932,107.498,113.124,111.45,112.037,115.236"/>
	<path fill="none" stroke="#A1D5D3" stroke-width="0.75" stroke-miterlimit="10" d="M238.441,85.477
		c-1.278-4.458-5.924-7.031-10.381-5.756c-4.453,1.275-7.03,5.928-5.758,10.383c1.278,4.455,5.929,7.033,10.383,5.751
		C237.146,94.581,239.718,89.932,238.441,85.477"/>
	<path fill="none" stroke="#A1D5D3" stroke-width="0.75" stroke-miterlimit="10" d="M238.441,85.477
		c-1.278-4.458-5.924-7.031-10.381-5.756c-4.453,1.275-7.03,5.928-5.758,10.383c1.278,4.455,5.929,7.033,10.383,5.751
		C237.146,94.581,239.718,89.932,238.441,85.477z"/>
	<path fill="#A1D5D3" d="M237.232,85.826c-1.087-3.791-5.038-5.98-8.821-4.894c-3.789,1.084-5.981,5.034-4.896,8.823
		c1.087,3.787,5.035,5.981,8.824,4.895C236.127,93.559,238.319,89.612,237.232,85.826"/>
	<path fill="none" stroke="#A1D5D3" stroke-width="0.75" stroke-miterlimit="10" d="M238.441,44.435
		c-1.278-4.458-5.924-7.032-10.383-5.753c-4.453,1.275-7.028,5.92-5.756,10.38c1.278,4.455,5.929,7.03,10.383,5.756
		C237.14,53.538,239.721,48.89,238.441,44.435"/>
	<path fill="none" stroke="#A1D5D3" stroke-width="0.75" stroke-miterlimit="10" d="M238.441,44.435
		c-1.278-4.458-5.924-7.032-10.383-5.753c-4.453,1.275-7.028,5.92-5.756,10.38c1.278,4.455,5.929,7.03,10.383,5.756
		C237.14,53.538,239.721,48.89,238.441,44.435z"/>
	<path fill="#A1D5D3" d="M237.229,44.782c-1.084-3.789-5.035-5.976-8.822-4.892c-3.785,1.086-5.978,5.037-4.889,8.825
		c1.083,3.785,5.031,5.976,8.82,4.891C236.127,52.521,238.317,48.567,237.229,44.782"/>
</g>
</svg>
