<?xml version="1.0" encoding="utf-8"?>
<!-- Generator: Adobe Illustrator 16.0.3, SVG Export Plug-In . SVG Version: 6.00 Build 0)  -->
<!DOCTYPE svg PUBLIC "-//W3C//DTD SVG 1.1//EN" "http://www.w3.org/Graphics/SVG/1.1/DTD/svg11.dtd">
<svg version="1.1" id="Ebene_1" xmlns="http://www.w3.org/2000/svg" xmlns:xlink="http://www.w3.org/1999/xlink" x="0px" y="0px"
	 width="320px" height="180px" viewBox="0 0 320 180" enable-background="new 0 0 320 180" xml:space="preserve">
<g>
	<path fill="none" stroke="#A1D5D3" stroke-width="2" stroke-miterlimit="10" d="M171.223,80.946
		c-13.028,7.409,17.356,46.563-19.682,53.944c-18.352,3.657-41.316-16.979-49.167-31.414c-8.567-15.74-13.946-40.335-2.615-50.431
		c14.192-12.646,23.288-0.575,31.826-2.226c12.681-2.452,25.597-23.7,46.092-4.847C190.14,57.438,188.052,71.374,171.223,80.946z"/>
</g>
<path fill="#A1D5D3" stroke="#A1D5D3" stroke-width="1.598" stroke-miterlimit="10" d="M161.344,55.019
	c0.18-3.396,0.511-6.853,0.286-10.197c-5.575,1.303-9.946,5.185-11.346,10.107C153.972,55.084,157.657,55.092,161.344,55.019z"/>
<path fill="#A1D5D3" stroke="#A1D5D3" stroke-width="0.533" stroke-miterlimit="10" d="M142.167,56.022
	c3.008,9.686,10.41,17.28,19.731,20.167V56.205C155.319,56.354,148.742,56.34,142.167,56.022z"/>
<path fill="#A1D5D3" d="M162.468,55.441c2.312-0.098,4.622-0.213,6.934-0.293c-0.964-3.135-3.543-5.591-6.808-6.463
	C162.736,50.895,162.589,53.182,162.468,55.441z"/>
<path fill="#A1D5D3" stroke="#A1D5D3" stroke-width="1.598" stroke-miterlimit="10" d="M163.299,56.703v16.143
	c7.517-2.08,13.477-8.58,15.534-16.901C173.655,56.146,168.476,56.442,163.299,56.703z"/>
<path fill="#A1D5D3" stroke="#A1D5D3" stroke-width="1.598" stroke-miterlimit="10" d="M116.887,67.358
	c0.18-3.396,0.511-6.853,0.286-10.197c-5.575,1.303-9.946,5.185-11.346,10.107C109.516,67.424,113.201,67.432,116.887,67.358z"/>
<path fill="#A1D5D3" stroke="#A1D5D3" stroke-width="0.533" stroke-miterlimit="10" d="M97.71,68.362
	c3.008,9.686,10.41,17.28,19.731,20.167V68.545C110.863,68.693,104.285,68.68,97.71,68.362z"/>
<path fill="#A1D5D3" d="M118.011,67.781c2.312-0.098,4.622-0.213,6.934-0.293c-0.964-3.135-3.543-5.591-6.808-6.463
	C118.28,63.234,118.132,65.521,118.011,67.781z"/>
<path fill="#A1D5D3" stroke="#A1D5D3" stroke-width="1.598" stroke-miterlimit="10" d="M118.842,69.043v16.143
	c7.517-2.08,13.477-8.58,15.534-16.901C129.199,68.486,124.019,68.782,118.842,69.043z"/>
<path fill="#A1D5D3" stroke="#A1D5D3" stroke-width="1.598" stroke-miterlimit="10" d="M201.637,92.185
	c0.18-3.396,0.512-6.853,0.287-10.197c-5.576,1.303-9.946,5.185-11.347,10.107C194.266,92.25,197.951,92.258,201.637,92.185z"/>
<path fill="#A1D5D3" stroke="#A1D5D3" stroke-width="0.533" stroke-miterlimit="10" d="M182.46,93.188
	c3.009,9.686,10.41,17.28,19.731,20.167V93.371C195.613,93.52,189.035,93.506,182.46,93.188z"/>
<path fill="#A1D5D3" d="M202.762,92.607c2.311-0.098,4.621-0.213,6.934-0.293c-0.965-3.135-3.543-5.591-6.809-6.463
	C203.029,88.061,202.883,90.348,202.762,92.607z"/>
<path fill="#A1D5D3" stroke="#A1D5D3" stroke-width="1.598" stroke-miterlimit="10" d="M203.592,93.869v16.143
	c7.518-2.08,13.477-8.58,15.535-16.901C213.949,93.313,208.77,93.608,203.592,93.869z"/>
<path fill="#A1D5D3" stroke="#A1D5D3" stroke-width="1.598" stroke-miterlimit="10" d="M144.865,105.065
	c0.21-3.964,0.596-8,0.334-11.904c-6.509,1.521-11.611,6.052-13.246,11.799C136.26,105.142,140.562,105.15,144.865,105.065z"/>
<path fill="#A1D5D3" stroke="#A1D5D3" stroke-width="0.533" stroke-miterlimit="10" d="M122.478,106.237
	c3.512,11.307,12.152,20.172,23.033,23.542V106.45C137.832,106.623,130.154,106.607,122.478,106.237z"/>
<path fill="#A1D5D3" d="M146.177,105.559c2.698-0.114,5.396-0.248,8.094-0.342c-1.125-3.659-4.136-6.526-7.947-7.545
	C146.491,100.251,146.318,102.921,146.177,105.559z"/>
<path fill="#A1D5D3" stroke="#A1D5D3" stroke-width="1.598" stroke-miterlimit="10" d="M147.147,107.031v18.845
	c8.774-2.429,15.731-10.017,18.134-19.73C159.237,106.382,153.19,106.728,147.147,107.031z"/>
</svg>
