<?xml version="1.0" encoding="utf-8"?>
<!-- Generator: Adobe Illustrator 16.0.3, SVG Export Plug-In . SVG Version: 6.00 Build 0)  -->
<!DOCTYPE svg PUBLIC "-//W3C//DTD SVG 1.1//EN" "http://www.w3.org/Graphics/SVG/1.1/DTD/svg11.dtd">
<svg version="1.1" id="Ebene_1" xmlns="http://www.w3.org/2000/svg" xmlns:xlink="http://www.w3.org/1999/xlink" x="0px" y="0px"
	 width="320px" height="180px" viewBox="0 0 320 180" enable-background="new 0 0 320 180" xml:space="preserve">
<g>
	<path fill-rule="evenodd" clip-rule="evenodd" fill="#A1D5D3" d="M72.561,49.415c0.617-0.088,1.196,0.072,1.766,0.269
		c2.055,0.444,4.087,0.996,6.149,1.424c0.494,0.11,0.983,0.229,1.473,0.345c1.772,0.285,3.468,0.917,5.253,1.145
		c0.56,0.129,1.166-0.138,1.702,0.194c0.063,0.188,0.149,0.36,0.231,0.539c0.038,0.123,0.052,0.253,0.046,0.383
		c-0.72,1.276-0.942,2.695-1.179,4.111c-0.278,0.846-0.557,1.688,0.022,2.523c0.02,0.363-0.128,0.66-0.381,0.906
		c-0.208,0.166-0.486,0.183-0.69,0.354c-0.84,1.447-1.252,3.048-1.64,4.653c-0.429,0.752-0.334,1.527-0.099,2.31
		c-0.214,0.945-1.363,1.425-1.272,2.527c-0.927,2.907-1.866,5.811-2.469,8.813c-0.366,1.512-0.773,3.013-1.127,4.529
		c-0.234,1.354-0.618,2.681-0.796,4.049c-0.921,3.619-2.458,7.146-1.61,11.023c-0.155,0.55-0.281,1.118-0.854,1.409
		c-0.932,0.729-1.005,1.786-1.11,2.844c-0.051,0.546-0.014,1.104-0.168,1.64c-0.054,0.118-0.094,0.238-0.13,0.364
		c-0.627,1.087-0.431,2.353-0.77,3.501c-0.138,0.56-0.324,1.114-0.373,1.694c-0.193,1.241-0.396,2.478-0.727,3.688
		c-0.228,1.381-0.553,2.736-0.693,4.134c-0.933,5.045-0.872,10.169-1.221,15.264c-0.039,0.562,0.242,1.067,0.25,1.62
		c0.003,0.145-0.004,0.292-0.015,0.433c0.077,0.908,0.023,1.813,0.189,2.727c0.272,1.546-0.345,2.181-1.915,2.333
		c-2.175,0.214-4.36,0.209-6.536,0.384c-2.511,0.11-5.025,0.194-7.52,0.498c-2.866,0.352-3.392,0.032-3.401-2.788
		c0-1.327-0.246-2.643-0.085-3.961c0.115-0.551,0.15-1.108,0.151-1.666c-0.123-1.389,0.207-2.756,0.194-4.145
		c0.125-2.398,0.586-4.762,0.914-7.13c0.803-5.745,2.126-11.4,3.219-17.098c0.371-1.928,0.827-3.842,1.114-5.788
		c0.391-1.35,0.918-2.678,0.9-4.117c0.778-1.135,0.306-2.563,0.89-3.746c0.626-2.526,1.106-5.089,1.79-7.601
		c0.374-1.136,0.609-2.304,0.813-3.483c0.85-3.203,1.574-6.44,2.553-9.609c0.338-1.096,0.126-2.352,0.977-3.295
		c0.719-0.972,0.295-2.25,0.843-3.271c1.067-3.158,1.976-6.366,2.926-9.563c0.451-1.502,0.993-2.974,1.374-4.498
		C71.642,49.807,71.941,49.378,72.561,49.415"/>
	<path fill-rule="evenodd" clip-rule="evenodd" fill="#A1D5D3" d="M223.819,113.492c-1.087,0.563-2.17,1.127-3.26,1.69
		c-1.862,0.541-3.354,1.812-5.091,2.602c-0.294,0.131-0.557,0.315-0.84,0.466c-0.835,0.459-1.437,0.372-1.823-0.612
		c-0.395-1.026-0.937-1.99-1.497-2.935c-1.332-2.609-2.587-5.267-4.349-7.635c-0.366-0.578-0.733-1.162-1.104-1.741
		c-0.459-1.715-1.666-3.004-2.604-4.424c-1.855-2.805-3.922-5.465-6.083-8.045l0.014,0.011c-1.093-1.184-1.997-2.549-3.275-3.563
		l0.014,0.011c-1.515-1.696-3.09-3.325-4.904-4.703c-0.547-0.415-1.146-0.773-1.627-1.251c-2.34-2.354-5.308-3.834-7.943-5.774
		c0.417-1.331,1.451-2.122,2.521-2.886c0.711,0.146,1.423,0.289,2.137,0.438c1.461,0.278,2.85,0.969,4.389,0.832
		c0.443,0.12,0.887,0.244,1.328,0.366c0.853,0.646,1.95,0.431,2.877,0.821l-0.013-0.002c1.136,0.224,2.226,0.7,3.417,0.593
		c0.219,0.067,0.436,0.138,0.652,0.205c1.677,0.738,3.473,0.986,5.254,1.269c2.846,0.314,5.568,1.181,8.333,1.841
		c1.083,0.771,2.413,0.66,3.618,0.995c0.783,0.224,1.571,0.618,2.44,0.412c0.326,0.082,0.646,0.16,0.971,0.236
		c1.546,0.819,3.282,0.885,4.942,1.238c2.664,0.196,5.183,1.063,7.746,1.709c1.524,0.885,3.283,0.836,4.928,1.25
		c0.935-0.043,1.824,0.183,2.688,0.51c0.924,0.567,1.931,0.812,3.014,0.744c0.686,0.144,1.373,0.291,2.061,0.438
		c1.628,0.604,3.302,1.002,5.025,1.217c0.764,0.638,1.798,0.029,2.59,0.553c0.434,0.511,0.072,0.946-0.139,1.391
		c-0.72,1.534-1.523,3.03-2.219,4.577c-0.003,0.075-0.037,0.133-0.104,0.173c-1.264,1.466-2.28,3.166-3.937,4.275l0.022-0.017
		c-1.578,1.658-3.592,2.721-5.438,4.021c-1.28,0.566-2.298,1.606-3.661,2.013c-0.106,0.146-0.216,0.288-0.321,0.434
		c-3.543,1.845-6.92,3.989-10.492,5.796C223.912,113.12,223.865,113.313,223.819,113.492"/>
	<path fill-rule="evenodd" clip-rule="evenodd" fill="#A1D5D3" d="M258.912,77.354c-1.125,1.168-1.361,2.791-2.115,4.152
		c-0.486,0.881-1.016,1.707-1.798,2.353c-1.084-0.778-2.267-1.353-3.541-1.76c-0.196-0.034-9.106-5.869-10.52-6.107
		c-0.967-0.522-1.858-1.146-2.64-1.922c-1.141-1.742-2.884-2.749-4.629-3.751c-0.306-0.252-0.598-0.518-0.919-0.748
		c-0.822-0.734-1.236-1.906-2.421-2.258c-0.729-0.859-2.012-1.074-2.544-2.17c-0.822-1.086-1.172-2.511-2.407-3.294
		c-0.846-1.515-1.367-3.161-2-4.765c-0.366-0.932-1.005-1.728-1.354-2.673c-0.344-0.913-0.186-1.407,0.826-1.737
		c3.071-0.997,15.329-3.994,17.25-4.374c1.565-0.31,3.078-0.867,4.637-1.226c0.563-0.134,1.154-0.358,1.747-0.063l-0.014-0.006
		c1.604,1.778,3.373,3.394,5.2,4.94l-0.003-0.002c1.238,1.173,2.563,2.242,3.844,3.364c0.212,0.177,0.376,0.397,0.692,0.309
		c0.114,0.116,0.222,0.232,0.338,0.345c1.308,1.416,2.904,2.476,4.449,3.598l-0.008-0.009c0.993,0.889,2.104,1.624,3.172,2.424
		l-0.007-0.006c0.819,0.878,2.202,1.155,2.605,2.47c-1.124,1.014-1.417,2.605-2.512,3.643c-1.809,2.77-3.399,5.671-5.132,8.486
		C258.973,76.792,258.943,77.082,258.912,77.354"/>
	<path fill-rule="evenodd" clip-rule="evenodd" fill="#A1D5D3" d="M109.976,36.055c2.264,0.702,4.565,1.203,6.938,1.334
		c1.59,0.846,3.404,0.759,5.083,1.234h-0.01c1.265,0.304,2.57,0.384,3.823,0.744c1.434,0.285,2.867,0.573,4.301,0.854
		c1.117,0.2,2.22,0.491,3.359,0.565c0.651,0.173,1.299,0.351,1.953,0.525c0.984,0.261,2.078,0.123,2.965,0.762
		c1.464-0.236,2.784,0.553,4.212,0.576c0.921,0.277,1.867,0.425,2.827,0.506c0.408,0.205,0.84,0.221,1.281,0.196
		c0.932,0.516,1.977,0.576,2.999,0.676c0.851,0.083,1.109,0.442,0.824,1.233c-0.035,2.241-0.925,4.323-1.233,6.515
		c-0.693,0.987-0.918,4.98-1.811,5.729c-0.814,0.682-3.207,0.61-4.729,1.523c-0.813,0.489-1.686,0.846-2.601,1.089
		c-2.104-0.997-4.472-0.845-6.656-1.548c-1.857-0.599-3.785-0.985-5.684-1.465c-1.101-0.228-2.191-0.518-3.314-0.65
		c-1.657-0.383-3.315-0.769-4.976-1.15c-1.437-0.456-6.522-1.52-7.607-1.751c-1.687-0.541-3.412-0.932-5.159-1.238
		c-2.503-0.555-5.009-1.112-7.51-1.672c-0.458-0.309-0.974-0.447-1.512-0.503c-0.516-0.057-0.885-0.223-0.747-0.846
		c0.627-0.559,0.164-1.507,0.738-2.088c0.926-1.458,1.342-3.13,1.921-4.73l-0.005,0.006c0.551-1.415,1.377-2.741,1.419-4.323
		c0.459-1.228,0.993-2.416,1.756-3.491c0.372,0.34,0.84,0.387,1.307,0.443C106.089,35.373,107.961,36.153,109.976,36.055"/>
	<path fill-rule="evenodd" clip-rule="evenodd" fill="#A1D5D3" d="M160.596,127.773c-0.798,2.036-1.594,4.071-2.39,6.111
		c-0.538,0.834-0.761,1.782-1.159,2.665c-0.543,2.366-2.071,4.448-2.521,6.846c-0.13,0.684-0.589,1.235-1.063,1.764
		c-1.561-0.554-3.092-1.179-4.805-1.274c-1.74-0.224-3.139-1.33-4.897-1.496c-1.123-0.457-2.326-0.681-3.489-1.03
		c-0.923-0.342-1.988-0.239-2.882-0.672c-1.018-0.522-2.186-0.667-3.268-1.019l0.013,0.003c-0.803-0.323-1.662-0.482-2.488-0.729
		c-1.688-0.302-3.372-0.606-4.969-1.198c-0.219-0.321-0.6-0.323-0.948-0.414c-1.186-0.296-1.184-0.301-0.621-1.335
		c0.314-0.471,0.639-0.946,1.145-1.271c0.78-0.538,1.322-1.274,1.885-1.995c1.604-1.745,3.212-3.488,4.821-5.226
		c1.141-1.233,2.389-2.399,3.503-3.668c1.242-0.699,1.895-1.965,2.995-2.798c0.311-0.241,0.498-0.679,1.009-0.601
		c3.025,1.211,6.278,1.822,9.376,2.847c0.755,0.572,1.699,0.702,2.617,0.9c1.655,0.475,3.348,0.875,4.833,1.734
		c1.137,0.063,2.112,0.55,3.137,0.924C160.957,127.031,160.498,127.467,160.596,127.773"/>
	<path fill-rule="evenodd" clip-rule="evenodd" fill="#A1D5D3" d="M154.728,44.91c1.535,0.597,3.157,0.805,4.773,1.01
		c1.753,0.445,3.54,0.748,5.309,1.117c1.008,0.21,1.2,0.634,0.806,1.49c-0.303,1.068-0.604,2.141-0.904,3.213
		c-0.291,0.947,0.099,0.99,0.877,0.721c3.934-1.367,7.881-2.706,11.822-4.061c0.34-0.116,0.655-0.353,1.046-0.21
		c0.68,0.268,1.124,0.801,1.566,1.351c0.7,0.868,1.516,1.611,2.474,2.201c1.148,1.213,2.487,2.205,3.771,3.254
		c0.897,1.176,2.001,2.104,3.295,2.816c0.245,0.795,0.046,1.489-0.643,1.917c-0.894,0.553-1.446,1.369-1.997,2.208
		c-1.3,1.114-2.493,2.327-3.388,3.805c-0.687,0.835-1.615,1.452-2.146,2.432c-0.906,0.377-1.62,1.328-2.788,0.948
		c-3.388-0.927-6.769-1.894-10.236-2.479c-1.65-0.439-3.246-1.128-5.004-1.039c-2.168-0.608-4.336-1.214-6.504-1.823
		c-0.752-0.268-1.362-0.712-1.785-1.402c-0.809-1.325-1.921-2.339-3.27-3.089c-0.57-0.327-0.953-0.718-0.784-1.435
		c0.234-1.045,0.473-2.093,0.711-3.14c0.685-1.973,0.975-4.043,1.447-6.062c0.062-0.418,0.122-0.83,0.179-1.243
		c0.368-0.53,0.366-1.177,0.498-1.771C153.967,45.109,154.173,44.841,154.728,44.91"/>
	<path fill-rule="evenodd" clip-rule="evenodd" fill="#A1D5D3" d="M160.444,124.736c-1.077-0.396-2.155-0.785-3.235-1.178
		c-1.019-0.438-2.051-0.841-3.145-1.047c-3.146-1.111-6.391-1.946-9.445-3.316c-0.722-0.374-1.436-0.739-2.229-0.962
		c-1.016-0.293-1.021-0.524-0.283-1.37c0.549-0.634,1.388-1.037,1.61-1.938c0.408-0.578,0.827-1.143,1.581-1.29
		c0.489-1.018,1.702-1.464,2.051-2.592c0.426-0.853,1.416-1.086,1.976-1.796c1.023-1.211,2.275-2.205,3.252-3.463l-0.008,0.01
		c0.804-0.985,1.771-1.811,2.619-2.754c0.287-0.322,0.773-0.523,0.72-1.076c0.513-0.54,1.023-1.078,1.534-1.616
		c1.175-0.868,2.287-1.792,2.977-3.124c1.841-1.161,2.625-3.318,4.327-4.612c1.255-0.885,1.255-0.885,2.247,0.672l-0.025-0.023
		c1.14,1.854,2.242,3.734,3.387,5.587l-0.016-0.026c0.816,1.431,1.699,2.825,2.615,4.19c0.476,0.707,0.728,1.43,0.755,2.259
		c-1.025,2.667-2.044,5.331-3.07,7.993c-0.559,1.594-1.196,3.159-1.588,4.81c-1.089,2.511-1.814,5.149-2.605,7.762
		c-0.283,0.938-0.727,1.216-1.563,0.604C163.484,125.651,161.957,125.213,160.444,124.736"/>
	<path fill-rule="evenodd" clip-rule="evenodd" fill="#A1D5D3" d="M170.04,86.942c1.876-1.646,3.247-3.777,5.214-5.34
		c0.32-0.253,0.737-0.52,0.856-0.871c0.532-1.545,1.283-1.208,2.323-0.479c1.976,1.391,3.869,2.877,5.73,4.404
		c1.587,1.427,3.244,2.775,4.784,4.262c1.616,1.7,3.358,3.278,4.853,5.1l-0.009-0.014c1.068,1.165,1.966,2.472,3.009,3.656
		l-0.01-0.011c1.005,0.914,0.438,1.492-0.434,2.002c-3.608,2.041-7.19,4.13-10.768,6.236l0.014-0.01
		c-1.308,0.79-2.676,1.472-3.959,2.308c-0.552,0.359-1.189,0.774-1.727-0.075l0.009,0.005c-3.433-5.676-6.925-11.32-10.355-17
		c-1.16-1.921-1.182-1.909,0.268-3.674C169.958,87.289,170.027,87.132,170.04,86.942"/>
	<path fill-rule="evenodd" clip-rule="evenodd" fill="#A1D5D3" d="M192.961,129.921c-0.031-0.09-0.063-0.185-0.098-0.274
		c-0.225-1.367-1.228-2.322-1.891-3.438c-1.964-3.303-3.95-6.592-6.018-9.834c-0.079-0.126-0.158-0.209-0.301-0.225
		c-0.125-0.174-0.248-0.343-0.376-0.514c-0.115-1.102-0.886-1.894-1.444-2.743c-0.646-0.979-0.379-1.419,0.513-1.908
		c2.681-1.475,5.297-3.069,7.954-4.585c1.065-0.609,2.144-1.214,3.152-1.919c0.947-0.461,1.905-0.92,2.76-1.55
		c0.125-0.054,0.245-0.112,0.361-0.182c1.841-1.176,1.841-1.176,3.242,0.258c0.304,0.486,0.607,0.976,0.913,1.462
		c1.074,2.067,2.472,3.947,3.502,6.048c0.053,0.104,0.235,0.128,0.368,0.156c0.099,0.271,0.196,0.546,0.293,0.817
		c1.332,2.584,2.744,5.127,4.013,7.746c0.411,0.852,0.343,1.426-0.441,1.92c-3.325,1.619-6.499,3.512-9.76,5.256
		c-2.087,1.119-4.187,2.217-6.215,3.453C193.33,129.96,193.146,129.972,192.961,129.921"/>
	<path fill-rule="evenodd" clip-rule="evenodd" fill="#A1D5D3" d="M145.283,106.659c-0.274,0.25-0.542,0.501-0.814,0.751
		c-1.311,1.541-2.984,2.746-4.12,4.453c-0.439,0.382-0.878,0.762-1.315,1.145c-1.293,1.541-2.754,2.927-4.065,4.449
		c-0.858,0.964-1.716,1.924-2.569,2.886c-0.96,0.856-1.92,1.712-2.721,2.726c-0.583,0.84-1.397,1.467-2.079,2.219
		c-0.378,0.697-0.856,0.934-1.597,0.449c-0.36-0.236-0.754-0.48-1.227-0.477c-2.294-1.158-4.597-2.298-6.875-3.484
		c-0.911-0.478-0.897-1.355,0.151-2.467c1.083-1.147,1.888-2.473,2.721-3.791c1.26-1.523,2.418-3.121,3.423-4.825
		c0.284-0.533,0.644-1.009,1.116-1.399c1.262-1.496,2.602-2.94,3.468-4.736c0.582-0.62,1.266-1.154,1.586-1.985
		c1.049-1.058,1.661-2.451,2.683-3.527c0.776-2.154,2.399-3.816,3.413-5.827c0.58-0.834,1.133-0.928,1.69,0.029
		c0.201,0.351,0.396,0.731,0.851,0.825c0.271,0.319,0.546,0.639,0.817,0.957c0.593,1.518,1.955,2.466,2.803,3.798
		c0.267,0.415,0.602,0.807,0.922,1.193c0.896,1.12,1.784,2.243,2.753,3.297c0.806,0.85,0.758,1.592-0.2,2.311
		C145.753,105.882,145.399,106.198,145.283,106.659"/>
	<path fill-rule="evenodd" clip-rule="evenodd" fill="#A1D5D3" d="M230.523,81.155c-2.775-1.016-5.709-1.353-8.571-1.988
		c-1.536-0.753-3.269-0.813-4.857-1.364c-3.255-0.749-6.49-1.547-9.76-2.217c-2.173-0.442-4.319-1.044-6.554-1.163
		c-0.137,0-0.274-0.012-0.406-0.04c-1.469-0.772-0.598-1.737-0.225-2.664c0.207-0.276,0.465-0.506,0.691-0.759
		c1.02-0.653,1.657-1.641,2.25-2.657c0.212-0.255,0.369-0.553,0.634-0.756c1.315-0.695,2.187-1.813,2.928-3.058
		c0.555-0.593,1.06-1.229,1.542-1.885c1.215-0.88,2.292-2.098,4.051-1.639c2.619,0.92,5.201,1.95,7.725,3.127
		c0.793,0.708,1.758,1.062,2.762,1.347c1.668,0.496,2.615,1.925,3.863,2.964c0.801,0.971,1.682,1.854,2.79,2.479
		c0.184,0.179,2.118,2.017,3.149,2.419c1.752,1.273,3.413,2.655,5.156,3.938c0.892,1.229,2.144,1.967,3.504,2.557
		c1.521,0.935,2.909,2.067,4.465,2.947c0.911,1.074,0.931,1.234,0.306,1.888c-0.771-0.396-1.64-0.356-2.457-0.56
		c-1.971-0.76-4.093-0.937-6.108-1.533c-0.806-0.184-1.613-0.365-2.421-0.549C233.495,81.696,232.075,81.08,230.523,81.155"/>
	<path fill-rule="evenodd" clip-rule="evenodd" fill="#A1D5D3" d="M220.979,51.017c-0.7,0.26-1.148,0.079-1.272-0.665
		c-0.633-1.816-1.857-3.279-3.073-4.729c-0.426-0.511-1.992-1.959-2.339-2.185c0.009-0.089-1.83-1.878-1.386-2.734
		c0.092-0.116,1.836-1.622,2.462-1.816c5.137-1.613,10.354-2.962,15.423-4.793c2.512-0.905,2.602-0.908,3.842,1.241
		c1.731,2.999,3.733,5.81,6.002,8.441l-0.013-0.009c0.179,0.11,0.245,0.307,0.383,0.449c0.583,0.593,0.53,0.988-0.365,1.253
		c-0.629,0.186-1.292,0.313-1.841,0.711c-0.908,0.347-2.605,0.516-2.469,0.497c-3.509,1.025-7.064,2.022-10.638,2.962
		C224.115,50.059,222.5,50.387,220.979,51.017"/>
	<path fill-rule="evenodd" clip-rule="evenodd" fill="#A1D5D3" d="M169.586,80.477c-0.969,1.18-1.934,2.357-2.899,3.536
		c-1.037,0.39-1.378,1.616-2.429,1.987c-0.906,0.022-1.621-0.862-2.589-0.536c-1.959-0.589-3.915-1.176-5.87-1.767
		c-1.502-0.929-3.209-1.192-4.896-1.549c-0.392-0.358-0.855-0.492-1.376-0.476c-1.709-0.895-3.572-1.262-5.447-1.578
		c-0.632-0.149-0.868-0.529-0.496-1.084c0.784-1.18-0.131-3.088,1.215-2.739c6.796,1.759,9.475-2.876,10.256-6.295
		c0.167-0.736-0.313-0.873,0.075-1.573c1.903,0.028,8.002,1.841,8.652,2.014c1.735,0.433,3.449,0.979,5.247,1.138
		c0.238,0.021,2.504,0.557,3.368,0.885h-0.011c1.018,0.216,2.005,0.56,3.034,0.726c0.407,0.063,0.705,0.169,0.652,0.653
		l-1.054,1.225c-1.182,0.59-1.787,1.758-2.669,2.643C171.43,78.617,170.509,79.547,169.586,80.477"/>
	<path fill-rule="evenodd" clip-rule="evenodd" fill="#A1D5D3" d="M100.758,111.284c1.2,0.134,2.395,0,3.541-0.306
		c1.299-0.349,1.315-1.709,1.835-2.669c0.677-2.032,1.337-4.062,1.962-6.106c0.276-0.966,0.955-1.209,1.885-1.128
		c0.533,0.047,1.079,0.054,1.622,0.071l-0.033,0.003c1.099,0.02,2.194-0.108,3.29-0.005c0.957,0.099,1.914,0.016,2.868,0.013
		c0.99-0.005,1.247,0.419,1.21,1.337c-0.129,3.06-0.072,6.12-0.102,9.182c0.125,1.595-1.336,2.449-1.774,3.783
		c-0.513,0.718-1.021,1.438-1.535,2.158c-1.218,3.306-3.986,3.18-6.762,3.046c-2.231,0.256-4.477,0.26-6.719,0.403h0.019
		c-0.992,0.106-1.994,0.059-2.986,0.183c-0.724,0.089-1.054-0.077-1.012-0.962c0.136-2.724,0.313-5.445,0.4-8.174
		c0.017-0.616,0.238-0.93,0.918-0.832C99.839,111.341,100.301,111.299,100.758,111.284"/>
	<path fill-rule="evenodd" clip-rule="evenodd" fill="#A1D5D3" d="M107.539,65.456c0.439-0.014,0.76,0.22,1.059,0.494
		c0.914,1.066,2.307,1.271,3.478,1.851c2.122,1.043,4.157,2.293,6.457,2.948c0.622,0.153,1.065,0.442,0.896,1.192
		c-0.346,1.376-0.189,2.778-0.223,4.17c-0.02,0.77-0.089,1.538-0.083,2.314c0.158,0.877-0.141,1.278-1.089,1.149
		c-0.525-0.065-1.061,0.052-1.594,0.07c-0.475,0.05-0.943,0.099-1.415,0.147c-1.099-0.385-2.227,0.106-3.328-0.115
		c-1.874,0.3-3.789-0.093-5.652,0.34c-0.293-0.014-0.587-0.028-0.883-0.042c-2.596-0.061-5.192-0.029-7.784,0.164
		c-2.605-0.171-5.206,0.124-7.81,0.105c-1.438-0.009-1.443,0.01-1.101-1.384c0.046-0.181,0.088-0.357,0.169-0.524
		c0.084-0.719-0.021-1.479,0.37-2.149c0.18-0.152,0.349-0.347,0.366-0.564c0.091-1.158,0.872-1.334,1.822-1.373
		c2.326-0.092,4.621-0.38,6.843-1.14c1.094-0.371,2.108-0.862,3.019-1.567c1.791-1.198,3.045-2.861,3.985-4.764
		C105.867,65.101,105.84,65.086,107.539,65.456"/>
	<path fill-rule="evenodd" clip-rule="evenodd" fill="#A1D5D3" d="M125.21,61.556c1.134,0.256,2.27,0.511,3.4,0.769
		c1.414,0.448,2.957,0.403,4.272,1.187c1.314-0.112,1.283,0.035,2.512,0.376c1.03,0.31,1.079,7.996,3.029,10.061
		c0.492,0.523,0.712,1.424,1.91,1.536c0.44,0.04,1.054-0.157,1.413,0.52c-0.757,1.812-0.494,1.187-1.25,3
		c-1.169-0.064-2.328,0.085-3.497,0.135c-1.612-0.079-3.221-0.021-4.819,0.194c-2.697,0.02-5.401-0.234-8.079,0.29
		c-1.638,0.049-1.638,0.049-1.608-1.927c0.049-1.215,0.031-2.432-0.049-3.645c0.159-1.752-0.086-3.52,0.224-5.264
		c-0.162-2.365,0.01-4.724-0.006-7.088c-0.005-0.574,0.128-0.75,0.69-0.591C123.963,61.283,124.619,61.285,125.21,61.556"/>
	<path fill-rule="evenodd" clip-rule="evenodd" fill="#A1D5D3" d="M92.905,90.974c-0.005-0.312-0.007-0.622-0.011-0.932
		c-0.097-1.112,0.051-2.223,0-3.335c0.169-1.02-0.309-2.33,0.394-3.001c0.688-0.649,1.985-0.246,3.005-0.378
		c0.322-0.172,0.665-0.188,1.016-0.111c1.796,0.437,3.611,0.078,5.407,0.042c2.493-0.055,5.001,0.013,7.484-0.207
		c1.039-0.092,0.562,0.688,0.782,1.063c-0.717,2.107-1.431,4.219-2.149,6.331c-0.911,1.554-1.262,3.316-1.828,4.996l0.012-0.015
		c-0.888,2.289-0.888,2.24-3.386,2.254c-3.273,0.018-6.543-0.033-9.814-0.119c-0.423-0.008-0.769,0.293-1.186,0.176
		c-0.045-0.663-0.087-1.326-0.132-1.992C92.807,94.172,92.417,92.535,92.905,90.974"/>
	<path fill-rule="evenodd" clip-rule="evenodd" fill="#A1D5D3" d="M148.353,84.472c1.137,0.713,2.557,0.425,3.716,1.049
		c1.895,1.068,4.012,1.451,6.072,2.019c0.895,0.358,1.819,0.629,2.776,0.768c0.524,0.415,0.761,0.767,0.156,1.405
		c-0.938,0.983-1.835,2.009-2.825,2.945c-0.389,0.372-0.856,0.7-0.955,1.296c-0.466,0.19-0.785,0.537-1.042,0.958
		c-1.503,1.655-3.23,3.1-4.551,4.917c-0.135,0.096-0.267,0.188-0.396,0.277c-1.774,1.909-1.774,1.909-3.401-0.036
		c-0.44-0.526-0.848-1.075-1.333-1.558l0.008,0.012c-2.166-2.788-4.401-5.513-6.631-8.252c-0.65-0.798-0.863-1.438-0.253-2.43
		c0.757-1.248,1.42-2.575,1.888-3.98c0.248-1.505,1.234-0.868,2.052-0.707C145.184,83.684,146.744,84.165,148.353,84.472"/>
	<path fill-rule="evenodd" clip-rule="evenodd" fill="#A1D5D3" d="M98.932,139.649c-0.698,0.344-1.437,0.076-2.155,0.134
		c-1.278-0.166-2.55,0.032-3.825,0.085c-1.102,0.047-1.287-0.274-0.855-1.304c0.261-0.626,0.689-1.199,0.697-1.916
		c0.463-2.272,1.705-4.237,2.481-6.387c0.577-1.594,1.307-3.13,1.921-4.713c0.324-0.833,0.772-1.1,1.744-1.116
		c2.456-0.033,4.93,0.061,7.358-0.419c1.215,0.368,2.433,0.056,3.645,0c1.618-0.08,1.615-0.122,1,1.322
		c-0.089,0.211-0.189,0.417-0.159,0.657c-0.563,1.167-1.126,2.334-1.69,3.498c-1.177,1.627-1.85,3.47-2.319,5.403
		c-0.521,1.479-0.853,3.029-1.663,4.401C103.039,139.213,100.988,139.469,98.932,139.649"/>
	<path fill-rule="evenodd" clip-rule="evenodd" fill="#A1D5D3" d="M77.728,140.234c-0.059-1.589-0.138-3.174,0.063-4.758
		c0.429-1.461,0.477-2.945,0.24-4.444c0.059-0.617,0.116-1.231,0.172-1.851c0.317-0.898,0.3-1.854,0.447-2.778
		c0.083-0.533,0.298-0.763,0.859-0.813c1.027-0.088,2.065-0.036,3.093-0.219c1.027-0.077,2.058-0.159,3.088-0.24
		c2.021,0.217,4.02-0.165,6.031-0.223c2.506,0.015,2.482,0.007,1.512,2.401c-1.503,3.696-3.028,7.386-4.408,11.127
		c-0.496,1.342-1.129,2.147-2.625,2.026c-2.399-0.271-4.782,0.197-7.179,0.201C78.504,140.669,78.025,140.785,77.728,140.234"/>
	<path fill-rule="evenodd" clip-rule="evenodd" fill="#A1D5D3" d="M127.615,101.078c-0.389,0.568-0.777,1.138-1.163,1.702
		c-0.962,0.604-1.412,1.629-2.079,2.477l0.008-0.015c-0.467,0.511-0.845,1.08-1.233,1.648c-0.146,0.221-0.354,0.625-0.755,0.398
		c-0.27-0.147-0.27-0.463-0.246-0.737c0.035-0.321,0.053-0.642,0.057-0.963c0.067-1.5-0.047-3.005,0.023-4.505
		c-0.033-1.162,0.319-2.343-0.162-3.482c-0.101-0.713-0.061-1.424,0.064-2.126c0.404-2.427,0.11-4.876,0.253-7.315
		c0.041-0.719,0.083-1.446,0.018-2.173c0.048-0.759,0.035-1.517-0.013-2.274c-0.045-0.691,0.226-1.013,0.914-0.998
		c1.579,0.133,3.16-0.147,4.739-0.04l-0.026-0.003c1.14-0.175,1.924,0.221,2.619,1.204c1.054,1.479,2.134,2.964,3.413,4.258
		c0.777,0.787,0.993,1.572,0.534,2.555c-0.865,1.889-2.339,3.392-3.334,5.199C129.86,97.496,128.699,99.264,127.615,101.078"/>
	<path fill-rule="evenodd" clip-rule="evenodd" fill="#A1D5D3" d="M199.058,69.421c-0.283,0.298-0.565,0.595-0.847,0.893
		c-0.782,0.256-1.078,1.006-1.596,1.536c-0.394,0.396-0.684,0.965-1.344,1.035c-1.672-0.572-3.421-0.846-5.12-1.311
		c-0.49-0.064-0.989-0.127-1.483-0.191c-0.676-0.374-1.444-0.406-2.163-0.624c-0.618-0.187-0.73-0.553-0.473-1.098l0.438-0.546
		c0.894-0.564,1.666-1.242,2.074-2.257c0.447-0.683,1.411-0.853,1.696-1.694c0.591-0.67,1.484-1.084,1.695-2.063
		c1.038-0.797,1.753-1.873,2.556-2.878c0.952-0.323,1.411-1.166,1.99-1.88c0.421-0.541,0.835-1.081,1.252-1.62
		c0.519-0.474,0.998-0.613,1.705-0.228c0.707,0.389,1.459,0.762,2.264,0.945v-0.004c1.384,0.579,2.755,1.2,4.146,1.772
		c1.43,0.595,1.44,0.651,0.363,1.823c-1.483,1.625-2.914,3.295-4.377,4.941c-0.849,0.919-1.717,1.825-2.513,2.789
		C199.174,68.951,198.842,69.082,199.058,69.421"/>
	<path fill-rule="evenodd" clip-rule="evenodd" fill="#A1D5D3" d="M183.232,48.301c-0.398-0.448-0.787-0.892-1.178-1.342
		c0.361-0.4,0.89-0.444,1.357-0.604c7.293-2.511,14.591-5.006,21.889-7.503c1.163-0.262,0.603,0.432,0.378,0.775
		c-0.851,1.285-1.833,2.477-2.663,3.773c-1.723,2.012-3.448,4.022-5.168,6.031c-1.123,1.219-2.281,2.412-3.128,3.854
		c-0.283,0.329-0.574,0.658-0.862,0.986c-0.425,0.101-0.692,0.429-0.911,0.745c-0.569,0.824-1.127,0.708-1.727,0.066
		c-0.42-0.411-0.845-0.82-1.265-1.232c-0.826-0.407-1.289-1.354-2.268-1.536c-0.702-0.632-1.41-1.269-2.114-1.9
		C184.912,49.581,184.181,48.82,183.232,48.301"/>
	<path fill-rule="evenodd" clip-rule="evenodd" fill="#A1D5D3" d="M85.326,111.317c2.146-0.032,4.288-0.066,6.436-0.098
		c0.677,0.179,1.367,0.112,2.045,0.063c1.096-0.078,1.427,0.411,1.341,1.448c-0.245,2.737-0.229,5.483-0.417,8.22l0.002-0.011
		c-0.124,0.603-0.553,0.573-1.041,0.573c-1.493-0.005-2.975,0.18-4.463,0.272c-1.191-0.048-2.393,0.361-3.578-0.071
		c-1.82,0.784-3.768,0.396-5.652,0.575c-0.74,0.073-0.872-0.665-0.813-1.196c0.159-1.352,0.131-2.748,0.747-4.017
		c0.056-1.597,0.358-3.151,0.622-4.718c0.144-0.852,0.593-1.066,1.404-1.066C83.081,111.296,84.201,111.428,85.326,111.317"/>
	<path fill-rule="evenodd" clip-rule="evenodd" fill="#A1D5D3" d="M218.879,61.202c-3.009-1.224-6.084-2.307-9.002-3.72
		c-2.223-1.077-4.533-1.886-6.81-2.812c-0.339-0.385-0.789-0.587-1.252-0.747c-0.864-0.304-0.87-0.773-0.318-1.385
		c0.134-0.125,0.266-0.25,0.404-0.375c0.797-0.855,1.422-1.869,2.349-2.608c1.147-1.828,2.649-3.386,3.977-5.071
		c0.451-0.566,0.955-0.679,1.524-0.169c1.207,1.078,2.429,2.141,3.365,3.482c0.951,1.161,1.461,2.612,2.453,3.746
		c0.771,1.085,1.414,2.239,1.903,3.476c0.477,1.821,1.4,3.448,2.22,5.122C220.132,61.048,219.89,61.42,218.879,61.202"/>
	<path fill-rule="evenodd" clip-rule="evenodd" fill="#A1D5D3" d="M103.076,61.82c-0.399,3-1.543,5.567-4.243,7.218
		c-1.167,0.771-2.524,1.042-3.826,1.458c-0.831,0.288-1.71,0.258-2.566,0.347c-1.523,0.157-1.526,0.136-1.604-1.366
		c0.242-1.596,1.396-2.927,1.483-4.526c0.089-1.659,0.879-3.122,1.026-4.752c0.108-1.172,0.563-2.29,1.041-3.376
		c0.081-0.105,0.158-0.215,0.205-0.343c0.709-2.034,0.709-2.034,2.742-1.39c1.166,0.15,2.277,0.536,3.439,0.732
		c0.705,0.205,1.4,0.464,2.155,0.436c0.394,0.211,0.578,0.499,0.543,0.983C103.359,58.768,103.425,60.313,103.076,61.82"/>
	<path fill-rule="evenodd" clip-rule="evenodd" fill="#A1D5D3" d="M113.665,126.949c0.019-0.089,0.013-0.189,0.053-0.27
		c1.926-3.563,1.046-3.184,4.374-1.573c1.983,0.97,3.917,2.037,5.897,3.018c0.81,0.399,0.877,0.841,0.273,1.453
		c-0.544,0.561-1.096,1.115-1.645,1.668c-1.179,1.063-2.12,2.321-2.938,3.671c-0.623,0.774-1.251,1.557-1.877,2.336
		c-0.963,1.506-2.647,1.266-4.063,1.684c-1.266,0.067-2.538,0.136-3.806,0.206c-1.102-0.128-1.239-0.693-0.828-1.631
		c0.638-1.446,1.246-2.899,1.73-4.403c0.161-0.399,0.316-0.801,0.476-1.205C112.216,130.311,113.146,128.729,113.665,126.949"/>
	<path fill-rule="evenodd" clip-rule="evenodd" fill="#A1D5D3" d="M111.509,91.555c0.286-1.203,0.917-2.295,1.233-3.451
		c0.392-1.423,1.096-2.729,1.377-4.175c0.491-1.076,1.424-1.024,2.404-1.02c2.572,0.023,2.605-0.003,2.58,2.569
		c-0.038,3.606-0.104,7.214-0.122,10.819v-0.01c-0.116,1.624-0.116,1.626-1.772,1.573c-2.366-0.077-4.735-0.156-7.109,0.011
		c-0.834-1.12,0.026-2.051,0.347-3.045C111.132,93.844,111.425,92.732,111.509,91.555"/>
	<path fill-rule="evenodd" clip-rule="evenodd" fill="#A1D5D3" d="M90.818,100.972c1.492-0.266,3.011,0.272,4.516-0.204
		c0.621-0.195,0.543,0.447,0.527,0.84c-0.085,1.877-0.183,3.75-0.276,5.628c-0.576,1.355-1.767,0.517-2.659,0.746
		c-2.715,0.063-5.434-0.047-8.153,0.115c-0.483-0.154-0.984-0.07-1.474-0.07c-1.985,0.002-1.985,0.009-1.498-1.96
		c0.295-1.339,0.588-2.678,0.878-4.02c0.105-1.011,0.689-1.404,1.659-1.24c0.589,0.098,1.177-0.039,1.764,0.027h-0.035
		C87.648,100.933,89.238,100.828,90.818,100.972"/>
	<path fill-rule="evenodd" clip-rule="evenodd" fill="#A1D5D3" d="M107.667,57.238c0.824-0.005,1.449,0.614,2.24,0.703
		c1.202,0.234,2.364,0.655,3.582,0.819c1.342,0.317,2.677,0.632,4.013,0.946c1.88,0.515,1.904,0.515,1.854,2.441
		c-0.028,1.098-0.062,2.193-0.028,3.287c-0.227,2.113-0.229,2.116-2.229,1.132c-3.163-1.552-6.398-2.956-9.533-4.564
		c-0.513-0.257-1.196-0.391-1-1.232c0.058-0.8,0.163-1.603,0.129-2.408C106.664,57.658,106.967,57.286,107.667,57.238"/>
	<path fill-rule="evenodd" clip-rule="evenodd" fill="#A1D5D3" d="M84.55,93.765c0.416-1.578,0.835-3.157,1.252-4.737
		c0.151-1.01,0.573-1.951,0.761-2.952l-0.003,0.008c0.162-0.575,0.296-1.153,0.418-1.734c0.135-0.611,0.441-0.771,1.065-0.776
		c1.64-0.008,1.652-0.048,1.604,1.621c-0.065,2.145-0.059,4.294-0.261,6.43c-0.026,0.271-0.103,0.554,0.213,0.723
		c-0.011,0.206-0.023,0.411-0.037,0.615c-0.388,0.871-0.278,1.799-0.29,2.711c-0.021,1.766-0.148,1.908-1.841,1.89
		c-0.358,0-0.733,0.072-1.083-0.089c-0.738,0.081-1.476,0.161-2.209,0.241c-0.481-0.253-0.369-0.623-0.273-1.05
		C84.092,95.695,84.334,94.733,84.55,93.765"/>
	<path fill-rule="evenodd" clip-rule="evenodd" fill="#A1D5D3" d="M142.913,73.565l-0.725,0.726c0,0-0.974,0.812-1.592,0.068
		c-2.163-2.604-2.022-2.922-3.341-7.679c-0.186-0.667,0.047-1.615-0.305-2.106c0.164-0.048,0.15-0.438,0.314-0.485
		c0.784,0.538,1.734,0.534,2.601,0.797c0.31,0.22,0.583,0.497,0.558,0.887c-0.211,2.705,0.992,4.847,2.659,6.813
		C143.167,72.938,143.092,73.262,142.913,73.565"/>
	<path fill-rule="evenodd" clip-rule="evenodd" fill="#A1D5D3" d="M104.637,102.981c-0.042,0.101-0.086,0.203-0.13,0.309
		c-0.783,0.99-0.981,2.242-1.295,3.388c-0.325,1.18-0.92,1.416-1.943,1.26c-0.262-0.04-0.545-0.105-0.714,0.206
		c-0.206-0.006-0.412-0.015-0.618-0.021c-1.793-0.229-1.114-1.573-1.163-2.588v0.008c0.178-1.175,0.04-2.365,0.154-3.549
		c0.084-0.833,0.484-1.114,1.238-1.058c1.136,0.095,2.279,0.095,3.417,0.077c1.085-0.021,1.596,0.295,1.018,1.433
		C104.514,102.611,104.586,102.804,104.637,102.981"/>
	<path fill-rule="evenodd" clip-rule="evenodd" fill="#A1D5D3" d="M152.861,67.949c0.749,0.298,0.848,0.819,0.742,1.553
		c-0.479,3.28-4.02,6.286-7.449,6.351c-0.985,0.019-0.747-0.612-0.856-1.1c0.081-0.28,0.166-0.553,0.251-0.831
		c0.52-0.689,1.254-1.059,2.07-1.342c1.876-0.658,3.067-1.843,3.229-3.875c0.086-1.037,0.41-1.127,2.007-0.749L152.861,67.949z"/>
	<path fill-rule="evenodd" clip-rule="evenodd" fill="#A1D5D3" d="M143.954,70.239c-1.379-0.141-1.69-1.258-1.929-2.292
		c-0.214-0.939-0.396-2.007,0.786-2.585c0.646,0.156,1.29,0.312,1.936,0.469c0.526,0.816-0.416,1.608-0.049,2.424
		C144.45,68.914,144.202,69.579,143.954,70.239"/>
	<path fill-rule="evenodd" clip-rule="evenodd" fill="#A1D5D3" d="M149.9,67.289c0.035,1.167-0.403,2.196-1.022,3.14
		c-0.527,0.803-1.211,1.107-1.941,0.161c0.282-0.808,0.555-1.624,0.861-2.425C148.188,67.159,148.818,66.665,149.9,67.289"/>
	<path fill-rule="evenodd" clip-rule="evenodd" fill="#A1D5D3" d="M136.16,85.786c-0.225-0.764-0.801-1.28-1.292-1.858
		c-0.199-0.181-0.369-0.392-0.524-0.612c-0.353-0.488-0.407-0.76,0.367-0.816c0.808-0.054,1.62,0.028,2.417-0.147
		c1.53,0.105,1.532,0.105,0.899,1.438c-0.256,0.536-0.531,1.063-0.783,1.602C137.008,85.898,136.678,86.086,136.16,85.786"/>
	<path fill-rule="evenodd" clip-rule="evenodd" fill="#A1D5D3" d="M151.365,60.8c1.402,0.211,1.377,0.426,1.9,1.873
		c-1.237,0.521-2.25-0.255-3.34-0.585c0.081-0.539,0.033-1.496,0.615-1.611"/>
	<path fill-rule="evenodd" clip-rule="evenodd" fill="#A1D5D3" d="M145.756,59.285c3.362,0.316-0.14,3.125-1.879,1.372
		C143.359,60.135,144.467,59.285,145.756,59.285"/>
	<path fill-rule="evenodd" clip-rule="evenodd" fill="#A1D5D3" d="M191.937,63.1c0.107,1.235-0.874,1.582-1.692,2.064
		C190.605,64.307,191.385,63.798,191.937,63.1"/>
	<path fill-rule="evenodd" clip-rule="evenodd" fill="#A1D5D3" d="M179.314,113.857c0.594,0.754,0.874,1.729,1.64,2.362
		c1.529,3.285,3.714,6.188,5.503,9.319c0.931,1.628,1.935,3.215,2.944,4.798c0.524,0.819,0.493,1.388-0.444,1.872
		c-1.299,0.673-2.553,1.434-3.824,2.154c-2.019,1.247-4.035,2.496-6.054,3.741c-0.436-0.176-0.718,0.013-0.998,0.349
		c-0.76,0.883-1.785,0.803-2.365,0.045c-0.569-0.754-1.381-1.033-2.017-1.597c-0.55-0.091-0.566-0.66-0.875-0.97
		c-0.8-1.332-1.637-2.641-2.461-3.959c-0.818-1.212-1.486-2.519-2.351-3.695c-0.438-0.592-0.391-1.202-0.174-1.815
		c0.302-0.856,0.544-1.738,0.896-2.578c1.175-2.646,1.517-5.562,2.703-8.198c0.972-1.445,1.289-3.148,1.876-4.747l-0.007,0.023
		c0.295-1.091,1.021-2.044,0.957-3.24c0.149-0.436,0.3-0.874,0.449-1.312C176.249,108.894,177.78,111.376,179.314,113.857"/>
</g>
</svg>
