<?xml version="1.0" encoding="utf-8"?>
<!-- Generator: Adobe Illustrator 16.0.3, SVG Export Plug-In . SVG Version: 6.00 Build 0)  -->
<!DOCTYPE svg PUBLIC "-//W3C//DTD SVG 1.1//EN" "http://www.w3.org/Graphics/SVG/1.1/DTD/svg11.dtd">
<svg version="1.1" id="Ebene_1" xmlns="http://www.w3.org/2000/svg" xmlns:xlink="http://www.w3.org/1999/xlink" x="0px" y="0px"
	 width="320px" height="180px" viewBox="0 0 320 180" enable-background="new 0 0 320 180" xml:space="preserve">
<g>
	<rect x="102.904" y="43.296" fill="none" width="86.75" height="12.75"/>
	<text transform="matrix(1 0 0 1 102.9043 52.2959)" fill="#A1D5D3" font-family="'Roboto-Regular'" font-size="12">Entry 1</text>
	<rect x="84.189" y="41.574" fill="#A1D5D3" width="16.195" height="16.193"/>
</g>
<g>
	<rect x="102.904" y="70.627" fill="none" width="86.75" height="12.75"/>
	<text transform="matrix(1 0 0 1 102.9043 79.6279)" fill="#A1D5D3" font-family="'Roboto-Regular'" font-size="12">Entry 2</text>
	<rect x="84.189" y="68.905" fill="#A1D5D3" width="16.195" height="16.193"/>
</g>
<g>
	<rect x="102.904" y="97.959" fill="none" width="86.75" height="12.75"/>
	<text transform="matrix(1 0 0 1 102.9043 106.958)" fill="#A1D5D3" font-family="'Roboto-Regular'" font-size="12">Entry 3</text>
	<rect x="84.189" y="96.242" fill="#A1D5D3" width="16.195" height="16.184"/>
</g>
<g>
	<rect x="102.904" y="125.29" fill="none" width="86.75" height="12.75"/>
	<text transform="matrix(1 0 0 1 102.9043 134.291)" fill="#A1D5D3" font-family="'Roboto-Regular'" font-size="12">Entry 4</text>
	<rect x="84.189" y="123.567" fill="#A1D5D3" width="16.195" height="16.195"/>
</g>
<g>
	<rect x="199.629" y="41.574" fill="#A1D5D3" width="36.176" height="20.83"/>
	<rect x="198.938" y="63.421" fill="none" width="37.559" height="12.75"/>
	<text transform="matrix(1 0 0 1 198.9375 72.4209)" fill="#A1D5D3" font-family="'Roboto-Regular'" font-size="12">Entry 1</text>
</g>
<g>
	<rect x="199.629" y="80.451" fill="#A1D5D3" width="36.176" height="20.83"/>
	<rect x="198.938" y="102.297" fill="none" width="37.559" height="12.75"/>
	<text transform="matrix(1 0 0 1 198.9375 111.2969)" fill="#A1D5D3" font-family="'Roboto-Regular'" font-size="12">Entry 2</text>
</g>
<g>
	<rect x="199.629" y="119.327" fill="#A1D5D3" width="36.176" height="20.83"/>
	<rect x="198.938" y="141.174" fill="none" width="37.559" height="12.75"/>
	<text transform="matrix(1 0 0 1 198.9375 150.1738)" fill="#A1D5D3" font-family="'Roboto-Regular'" font-size="12">Entry 3</text>
</g>
</svg>
