<?xml version="1.0" encoding="utf-8"?>
<!-- Generator: Adobe Illustrator 16.0.3, SVG Export Plug-In . SVG Version: 6.00 Build 0)  -->
<!DOCTYPE svg PUBLIC "-//W3C//DTD SVG 1.1//EN" "http://www.w3.org/Graphics/SVG/1.1/DTD/svg11.dtd">
<svg version="1.1" id="Ebene_1" xmlns="http://www.w3.org/2000/svg" xmlns:xlink="http://www.w3.org/1999/xlink" x="0px" y="0px"
	 width="320px" height="180px" viewBox="0 0 320 180" enable-background="new 0 0 320 180" xml:space="preserve">
<rect x="48.769" y="47.808" fill="none" stroke="#A1D5D3" stroke-width="2" stroke-miterlimit="10" width="63.044" height="34.306"/>
<rect x="57.237" y="64.642" fill="#A1D5D3" width="4.646" height="12.778"/>
<rect x="61.652" y="58.907" fill="#A1D5D3" width="4.647" height="18.513"/>
<rect x="66.069" y="71.035" fill="#A1D5D3" width="4.643" height="6.386"/>
<rect x="70.484" y="52.928" fill="#A1D5D3" width="4.645" height="24.492"/>
<rect x="74.9" y="64.645" fill="#A1D5D3" width="4.643" height="12.775"/>
<rect x="79.314" y="64.642" fill="#A1D5D3" width="4.645" height="12.778"/>
<rect x="83.729" y="58.907" fill="#A1D5D3" width="4.646" height="18.514"/>
<rect x="88.146" y="71.034" fill="#A1D5D3" width="4.642" height="6.387"/>
<rect x="92.56" y="52.927" fill="#A1D5D3" width="4.646" height="24.493"/>
<rect x="96.976" y="64.645" fill="#A1D5D3" width="4.644" height="12.776"/>
<rect x="129.196" y="47.808" fill="none" stroke="#A1D5D3" stroke-width="2" stroke-miterlimit="10" width="63.047" height="34.306"/>
<rect x="137.668" y="64.642" fill="#A1D5D3" width="4.646" height="12.778"/>
<rect x="142.083" y="58.907" fill="#A1D5D3" width="4.646" height="18.513"/>
<rect x="146.498" y="71.035" fill="#A1D5D3" width="4.646" height="6.386"/>
<rect x="150.914" y="52.928" fill="#A1D5D3" width="4.645" height="24.492"/>
<rect x="155.328" y="64.645" fill="#A1D5D3" width="4.646" height="12.775"/>
<rect x="159.743" y="64.642" fill="#A1D5D3" width="4.646" height="12.778"/>
<rect x="164.155" y="58.907" fill="#A1D5D3" width="4.651" height="18.514"/>
<rect x="168.576" y="71.034" fill="#A1D5D3" width="4.64" height="6.387"/>
<rect x="172.988" y="64.645" fill="#A1D5D3" width="4.646" height="12.776"/>
<rect x="177.406" y="64.645" fill="#A1D5D3" width="4.64" height="12.776"/>
<rect x="209.626" y="47.808" fill="none" stroke="#A1D5D3" stroke-width="2" stroke-miterlimit="10" width="63.044" height="34.306"/>
<rect x="218.095" y="64.642" fill="#A1D5D3" width="4.645" height="12.778"/>
<rect x="222.51" y="58.907" fill="#A1D5D3" width="4.645" height="18.513"/>
<rect x="226.925" y="71.035" fill="#A1D5D3" width="4.646" height="6.386"/>
<rect x="231.34" y="71.035" fill="#A1D5D3" width="4.645" height="6.386"/>
<rect x="235.756" y="64.645" fill="#A1D5D3" width="4.645" height="12.775"/>
<rect x="240.17" y="64.642" fill="#A1D5D3" width="4.646" height="12.778"/>
<rect x="244.582" y="58.907" fill="#A1D5D3" width="4.651" height="18.514"/>
<rect x="249.003" y="71.034" fill="#A1D5D3" width="4.64" height="6.387"/>
<rect x="253.416" y="52.927" fill="#A1D5D3" width="4.645" height="24.493"/>
<rect x="257.833" y="64.645" fill="#A1D5D3" width="4.641" height="12.776"/>
<rect x="48.769" y="98.199" fill="none" stroke="#A1D5D3" stroke-width="2" stroke-miterlimit="10" width="63.044" height="34.306"/>
<rect x="57.237" y="115.034" fill="#A1D5D3" width="4.646" height="12.778"/>
<rect x="61.652" y="109.299" fill="#A1D5D3" width="4.647" height="18.513"/>
<rect x="66.069" y="121.425" fill="#A1D5D3" width="4.643" height="6.387"/>
<rect x="70.484" y="122.789" fill="#A1D5D3" width="4.645" height="5.023"/>
<rect x="74.9" y="115.036" fill="#A1D5D3" width="4.643" height="12.776"/>
<rect x="79.314" y="115.034" fill="#A1D5D3" width="4.645" height="12.778"/>
<rect x="83.729" y="109.299" fill="#A1D5D3" width="4.646" height="18.513"/>
<rect x="88.146" y="121.425" fill="#A1D5D3" width="4.642" height="6.387"/>
<rect x="92.56" y="103.319" fill="#A1D5D3" width="4.646" height="24.493"/>
<rect x="96.976" y="115.036" fill="#A1D5D3" width="4.644" height="12.776"/>
<rect x="129.196" y="98.199" fill="none" stroke="#A1D5D3" stroke-width="2" stroke-miterlimit="10" width="63.047" height="34.306"/>
<rect x="137.668" y="115.034" fill="#A1D5D3" width="4.646" height="12.778"/>
<rect x="142.083" y="109.299" fill="#A1D5D3" width="4.646" height="18.513"/>
<rect x="146.498" y="121.425" fill="#A1D5D3" width="4.646" height="6.387"/>
<rect x="150.914" y="103.32" fill="#A1D5D3" width="4.645" height="24.492"/>
<rect x="155.328" y="115.036" fill="#A1D5D3" width="4.646" height="12.776"/>
<rect x="159.743" y="115.034" fill="#A1D5D3" width="4.646" height="12.778"/>
<rect x="164.155" y="109.299" fill="#A1D5D3" width="4.651" height="18.513"/>
<rect x="168.576" y="121.425" fill="#A1D5D3" width="4.64" height="6.387"/>
<rect x="172.988" y="103.319" fill="#A1D5D3" width="4.646" height="24.493"/>
<rect x="177.406" y="115.036" fill="#A1D5D3" width="4.64" height="12.776"/>
<rect x="209.626" y="98.199" fill="none" stroke="#A1D5D3" stroke-width="2" stroke-miterlimit="10" width="63.044" height="34.306"/>
<rect x="218.095" y="115.034" fill="#A1D5D3" width="4.645" height="12.778"/>
<rect x="222.51" y="109.299" fill="#A1D5D3" width="4.645" height="18.513"/>
<rect x="226.925" y="121.425" fill="#A1D5D3" width="4.646" height="6.387"/>
<rect x="231.34" y="103.32" fill="#A1D5D3" width="4.645" height="24.492"/>
<rect x="235.756" y="115.036" fill="#A1D5D3" width="4.645" height="12.776"/>
<rect x="240.17" y="115.034" fill="#A1D5D3" width="4.646" height="12.778"/>
<rect x="244.582" y="109.299" fill="#A1D5D3" width="4.651" height="18.513"/>
<rect x="249.003" y="121.425" fill="#A1D5D3" width="4.64" height="6.387"/>
<rect x="253.416" y="121.011" fill="#A1D5D3" width="4.645" height="6.801"/>
<rect x="257.833" y="115.036" fill="#A1D5D3" width="4.641" height="12.776"/>
</svg>
