<?xml version="1.0" encoding="utf-8"?>
<!-- Generator: Adobe Illustrator 16.0.3, SVG Export Plug-In . SVG Version: 6.00 Build 0)  -->
<!DOCTYPE svg PUBLIC "-//W3C//DTD SVG 1.1//EN" "http://www.w3.org/Graphics/SVG/1.1/DTD/svg11.dtd">
<svg version="1.1" id="Ebene_1" xmlns="http://www.w3.org/2000/svg" xmlns:xlink="http://www.w3.org/1999/xlink" x="0px" y="0px"
	 width="320px" height="180px" viewBox="0 0 320 180" enable-background="new 0 0 320 180" xml:space="preserve">
<rect x="142.01" y="52.327" fill="none" width="86.75" height="12.75"/>
<text transform="matrix(1 0 0 1 142.0098 61.3271)" fill="#A1D5D3" font-family="'Roboto-Regular'" font-size="12">Entry 1</text>
<rect x="142.01" y="65.077" fill="none" width="86.75" height="12.75"/>
<text transform="matrix(1 0 0 1 142.0098 74.0771)" fill="#A1D5D3" font-family="'Roboto-Regular'" font-size="12">Entry 2</text>
<rect x="142.01" y="77.827" fill="none" width="86.75" height="12.75"/>
<text transform="matrix(1 0 0 1 142.0098 86.8271)" fill="#A1D5D3" font-family="'Roboto-Regular'" font-size="12">Entry 3</text>
<rect x="142.01" y="90.577" fill="none" width="86.75" height="12.75"/>
<text transform="matrix(1 0 0 1 142.0098 99.5771)" fill="#A1D5D3" font-family="'Roboto-Regular'" font-size="12">Entry 4</text>
<rect x="142.01" y="103.327" fill="none" width="86.75" height="12.75"/>
<text transform="matrix(1 0 0 1 142.0098 112.3271)" fill="#A1D5D3" font-family="'Roboto-Regular'" font-size="12">Entry 5</text>
<rect x="142.01" y="116.077" fill="none" width="86.75" height="12.75"/>
<text transform="matrix(1 0 0 1 142.0098 125.0771)" fill="#A1D5D3" font-family="'Roboto-Regular'" font-size="12">...</text>
</svg>
