<?xml version="1.0" encoding="utf-8"?>
<!-- Generator: Adobe Illustrator 16.0.3, SVG Export Plug-In . SVG Version: 6.00 Build 0)  -->
<!DOCTYPE svg PUBLIC "-//W3C//DTD SVG 1.1//EN" "http://www.w3.org/Graphics/SVG/1.1/DTD/svg11.dtd">
<svg version="1.1" id="Ebene_1" xmlns="http://www.w3.org/2000/svg" xmlns:xlink="http://www.w3.org/1999/xlink" x="0px" y="0px"
	 width="320px" height="180px" viewBox="0 0 320 180" enable-background="new 0 0 320 180" xml:space="preserve">
<rect x="171.895" y="30.99" fill="#A1D5D3" width="16.195" height="16.19"/>
<rect x="191.881" y="30.99" fill="#A1D5D3" width="16.197" height="16.19"/>
<rect x="212.541" y="30.99" fill="#A1D5D3" width="16.197" height="16.19"/>
<rect x="171.895" y="51.792" fill="#A1D5D3" width="16.195" height="16.191"/>
<rect x="171.895" y="72.455" fill="#A1D5D3" width="16.195" height="16.19"/>
<rect x="171.895" y="92.28" fill="#A1D5D3" width="16.195" height="16.191"/>
<rect x="191.881" y="92.28" fill="#A1D5D3" width="16.197" height="16.191"/>
<rect x="212.541" y="92.28" fill="#A1D5D3" width="16.197" height="16.191"/>
<rect x="171.895" y="111.928" fill="#A1D5D3" width="16.195" height="16.199"/>
<rect x="171.895" y="132.007" fill="#A1D5D3" width="16.195" height="16.2"/>
<rect x="191.881" y="111.928" fill="#A1D5D3" width="16.197" height="16.199"/>
<rect x="191.881" y="132.007" fill="#A1D5D3" width="16.197" height="16.2"/>
<rect x="130.892" y="30.99" fill="#A1D5D3" width="16.195" height="16.19"/>
<rect x="150.877" y="30.99" fill="#A1D5D3" width="16.191" height="16.19"/>
<rect x="130.893" y="51.789" fill="#A1D5D3" width="16.194" height="16.198"/>
<rect x="150.877" y="51.789" fill="#A1D5D3" width="16.191" height="16.198"/>
<rect x="130.893" y="72.452" fill="#A1D5D3" width="16.194" height="16.193"/>
<rect x="150.877" y="72.452" fill="#A1D5D3" width="16.191" height="16.193"/>
<rect x="130.892" y="132.009" fill="#A1D5D3" width="16.195" height="16.195"/>
<rect x="150.877" y="132.009" fill="#A1D5D3" width="16.191" height="16.195"/>
<rect x="90.188" y="30.99" fill="#A1D5D3" width="36.176" height="36.993"/>
<rect x="191.881" y="51.792" fill="#A1D5D3" width="36.858" height="36.854"/>
<rect x="130.892" y="92.278" fill="#A1D5D3" width="36.177" height="35.841"/>
<rect x="90.188" y="72.452" fill="#A1D5D3" width="16.195" height="16.193"/>
<rect x="110.173" y="72.452" fill="#A1D5D3" width="16.191" height="16.193"/>
<rect x="90.188" y="92.278" fill="#A1D5D3" width="16.195" height="16.193"/>
<rect x="110.173" y="92.278" fill="#A1D5D3" width="16.191" height="16.193"/>
<rect x="90.188" y="111.936" fill="#A1D5D3" width="16.195" height="16.184"/>
<rect x="90.188" y="132.009" fill="#A1D5D3" width="16.195" height="16.195"/>
<rect x="110.173" y="111.936" fill="#A1D5D3" width="16.191" height="16.184"/>
<rect x="110.173" y="132.009" fill="#A1D5D3" width="16.19" height="16.195"/>
</svg>
