<?xml version="1.0" encoding="utf-8"?>
<!-- Generator: Adobe Illustrator 16.0.3, SVG Export Plug-In . SVG Version: 6.00 Build 0)  -->
<!DOCTYPE svg PUBLIC "-//W3C//DTD SVG 1.1//EN" "http://www.w3.org/Graphics/SVG/1.1/DTD/svg11.dtd">
<svg version="1.1" id="Ebene_1" xmlns="http://www.w3.org/2000/svg" xmlns:xlink="http://www.w3.org/1999/xlink" x="0px" y="0px"
	 width="320px" height="180px" viewBox="0 0 320 180" enable-background="new 0 0 320 180" xml:space="preserve">
<rect x="159.544" y="47.617" fill="#A1D5D3" width="70.366" height="10.024"/>
<line fill="none" stroke="#A1D5D3" stroke-width="2.131" stroke-miterlimit="10" x1="162.604" y1="61.768" x2="220.316" y2="61.768"/>
<line fill="none" stroke="#A1D5D3" stroke-width="2.131" stroke-miterlimit="10" x1="162.604" y1="67.128" x2="217.833" y2="67.128"/>
<line fill="none" stroke="#A1D5D3" stroke-width="2.131" stroke-miterlimit="10" x1="162.604" y1="72.487" x2="197.784" y2="72.487"/>
<path fill="#A1D5D3" stroke="#A1D5D3" stroke-width="1.598" stroke-miterlimit="10" d="M123.297,55.852
	c0.242-4.604,0.693-9.292,0.388-13.829c-7.56,1.768-13.487,7.032-15.386,13.708C113.301,55.94,118.298,55.949,123.297,55.852z"/>
<path fill="#A1D5D3" stroke="#A1D5D3" stroke-width="0.533" stroke-miterlimit="10" d="M97.292,57.213
	c4.08,13.134,14.117,23.433,26.756,27.348V57.46C115.126,57.661,106.208,57.643,97.292,57.213z"/>
<path fill="#A1D5D3" d="M124.82,56.426c3.135-0.134,6.268-0.289,9.402-0.397c-1.306-4.251-4.805-7.583-9.231-8.766
	C125.185,50.26,124.985,53.361,124.82,56.426z"/>
<path fill="#A1D5D3" stroke="#A1D5D3" stroke-width="1.598" stroke-miterlimit="10" d="M125.947,58.136v21.892
	c10.194-2.821,18.275-11.637,21.067-22.922C139.992,57.382,132.968,57.783,125.947,58.136z"/>
<rect x="159.544" y="101.215" fill="#A1D5D3" width="70.366" height="10.025"/>
<line fill="none" stroke="#A1D5D3" stroke-width="2.131" stroke-miterlimit="10" x1="162.604" y1="115.366" x2="220.316" y2="115.366"/>
<line fill="none" stroke="#A1D5D3" stroke-width="2.131" stroke-miterlimit="10" x1="162.604" y1="120.727" x2="217.833" y2="120.727"/>
<line fill="none" stroke="#A1D5D3" stroke-width="2.131" stroke-miterlimit="10" x1="162.604" y1="126.085" x2="197.784" y2="126.085"/>
<path fill="#A1D5D3" stroke="#A1D5D3" stroke-width="1.598" stroke-miterlimit="10" d="M123.297,109.449
	c0.242-4.604,0.693-9.292,0.388-13.828c-7.56,1.768-13.487,7.032-15.386,13.707C113.301,109.539,118.298,109.548,123.297,109.449z"
	/>
<path fill="#A1D5D3" stroke="#A1D5D3" stroke-width="0.533" stroke-miterlimit="10" d="M97.292,110.811
	c4.08,13.135,14.117,23.434,26.756,27.348v-27.1C115.126,111.26,106.208,111.241,97.292,110.811z"/>
<path fill="#A1D5D3" d="M124.82,110.023c3.135-0.133,6.268-0.289,9.402-0.397c-1.306-4.251-4.805-7.582-9.231-8.765
	C125.185,103.857,124.985,106.959,124.82,110.023z"/>
<path fill="#A1D5D3" stroke="#A1D5D3" stroke-width="1.598" stroke-miterlimit="10" d="M125.947,111.734v21.891
	c10.194-2.82,18.275-11.636,21.067-22.921C139.992,110.98,132.968,111.381,125.947,111.734z"/>
</svg>
