<?xml version="1.0" encoding="utf-8"?>
<!-- Generator: Adobe Illustrator 16.0.3, SVG Export Plug-In . SVG Version: 6.00 Build 0)  -->
<!DOCTYPE svg PUBLIC "-//W3C//DTD SVG 1.1//EN" "http://www.w3.org/Graphics/SVG/1.1/DTD/svg11.dtd">
<svg version="1.1" id="Ebene_1" xmlns="http://www.w3.org/2000/svg" xmlns:xlink="http://www.w3.org/1999/xlink" x="0px" y="0px"
	 width="320px" height="180px" viewBox="0 0 320 180" enable-background="new 0 0 320 180" xml:space="preserve">
<defs>
	<filter id="Adobe_OpacityMaskFilter" filterUnits="userSpaceOnUse" x="53.259" y="33.944" width="213.493" height="111.401">
		
			<feColorMatrix  type="matrix" values="-1 0 0 0 1  0 -1 0 0 1  0 0 -1 0 1  0 0 0 1 0" color-interpolation-filters="sRGB" result="source"/>
		<feFlood  style="flood-color:white;flood-opacity:1" result="back"/>
		<feBlend  in="source" in2="back" mode="normal"/>
	</filter>
</defs>
<mask maskUnits="userSpaceOnUse" x="53.259" y="33.944" width="213.493" height="111.401" id="SVGID_2_">
	<g filter="url(#Adobe_OpacityMaskFilter)">
		<path fill="#FFFFFF" d="M67.322,96.583c-2.255,0-4.083,1.828-4.083,4.083c0,0.632,0.143,1.232,0.4,1.766
			c0.014,0.03,3.683,7.221,3.683,7.221l3.641-7.131c0.285-0.557,0.444-1.188,0.444-1.855C71.407,98.411,69.578,96.583,67.322,96.583
			 M67.322,103.117c-1.353,0-2.45-1.098-2.45-2.451c0-1.353,1.098-2.449,2.45-2.449c1.354,0,2.452,1.097,2.452,2.449
			C69.774,102.02,68.676,103.117,67.322,103.117"/>
		<path fill="#FFFFFF" d="M129.07,64.737c-2.255,0-4.083,1.827-4.083,4.083c0,0.632,0.143,1.232,0.4,1.766
			c0.014,0.03,3.683,7.221,3.683,7.221l3.641-7.131c0.285-0.557,0.444-1.188,0.444-1.855
			C133.155,66.564,131.326,64.737,129.07,64.737 M129.07,71.271c-1.353,0-2.45-1.098-2.45-2.451c0-1.353,1.097-2.449,2.45-2.449
			c1.354,0,2.452,1.097,2.452,2.449C131.522,70.174,130.424,71.271,129.07,71.271"/>
		<path fill="#FFFFFF" d="M209.956,94.19c-2.255,0-4.083,1.828-4.083,4.084c0,0.632,0.143,1.231,0.4,1.765
			c0.014,0.03,3.683,7.221,3.683,7.221l3.641-7.131c0.285-0.556,0.444-1.187,0.444-1.854
			C214.041,96.019,212.211,94.19,209.956,94.19 M209.956,100.725c-1.353,0-2.45-1.097-2.45-2.45c0-1.353,1.097-2.45,2.45-2.45
			c1.354,0,2.452,1.098,2.452,2.45C212.407,99.628,211.309,100.725,209.956,100.725"/>
		<path fill="#FFFFFF" d="M155.914,108.244c-2.255,0-4.083,1.828-4.083,4.084c0,0.632,0.143,1.232,0.4,1.765
			c0.014,0.03,3.683,7.222,3.683,7.222l3.642-7.132c0.285-0.556,0.444-1.187,0.444-1.854
			C159.999,110.072,158.169,108.244,155.914,108.244 M155.914,114.778c-1.353,0-2.45-1.097-2.45-2.45
			c0-1.353,1.097-2.449,2.45-2.449c1.354,0,2.452,1.097,2.452,2.449C158.365,113.682,157.268,114.778,155.914,114.778"/>
		<path fill="#FFFFFF" d="M112.406,39.619c-2.255,0-4.083,1.828-4.083,4.084c0,0.632,0.143,1.231,0.4,1.765
			c0.014,0.03,3.683,7.221,3.683,7.221l3.641-7.131c0.285-0.556,0.444-1.187,0.444-1.854
			C116.491,41.447,114.662,39.619,112.406,39.619 M112.406,46.153c-1.353,0-2.45-1.097-2.45-2.45s1.097-2.45,2.45-2.45
			c1.354,0,2.452,1.097,2.452,2.45S113.76,46.153,112.406,46.153"/>
		<path fill="#FFFFFF" d="M232.912,52.688c-2.255,0-4.083,1.828-4.083,4.083c0,0.633,0.143,1.232,0.4,1.766
			c0.014,0.03,3.683,7.221,3.683,7.221l3.642-7.131c0.285-0.556,0.444-1.187,0.444-1.855
			C236.997,54.517,235.167,52.688,232.912,52.688 M232.912,59.223c-1.353,0-2.45-1.097-2.45-2.451c0-1.352,1.097-2.449,2.45-2.449
			c1.354,0,2.452,1.098,2.452,2.449C235.363,58.126,234.266,59.223,232.912,59.223"/>
	</g>
</mask>
<g mask="url(#SVGID_2_)">
	<path fill-rule="evenodd" clip-rule="evenodd" fill="#A1D5D3" d="M72.969,49.805c0.616-0.088,1.194,0.072,1.763,0.268
		c2.05,0.443,4.078,0.994,6.136,1.422c0.493,0.109,0.98,0.229,1.47,0.343c1.768,0.285,3.46,0.916,5.241,1.143
		c0.559,0.128,1.164-0.138,1.698,0.193c0.064,0.188,0.151,0.36,0.232,0.539c0.037,0.122,0.05,0.252,0.045,0.382
		c-0.718,1.273-0.941,2.688-1.175,4.103c-0.279,0.843-0.556,1.684,0.021,2.518c0.019,0.362-0.127,0.659-0.379,0.904
		c-0.208,0.166-0.486,0.183-0.69,0.353c-0.838,1.444-1.249,3.042-1.636,4.644c-0.428,0.751-0.333,1.524-0.098,2.305
		c-0.213,0.943-1.36,1.423-1.271,2.522c-0.924,2.9-1.862,5.799-2.463,8.793c-0.366,1.51-0.772,3.007-1.125,4.521
		c-0.232,1.352-0.616,2.675-0.793,4.04c-0.92,3.611-2.454,7.13-1.608,11c-0.154,0.549-0.281,1.115-0.853,1.406
		c-0.93,0.727-1.002,1.782-1.107,2.837c-0.051,0.546-0.013,1.102-0.168,1.637c-0.053,0.118-0.092,0.238-0.129,0.363
		c-0.624,1.085-0.43,2.348-0.767,3.494c-0.139,0.558-0.324,1.111-0.373,1.69c-0.193,1.238-0.396,2.472-0.725,3.681
		c-0.227,1.378-0.551,2.73-0.692,4.125c-0.931,5.034-0.87,10.147-1.218,15.231c-0.039,0.561,0.242,1.064,0.25,1.616
		c0.002,0.145-0.005,0.292-0.015,0.433c0.076,0.906,0.024,1.808,0.188,2.72c0.272,1.543-0.342,2.177-1.91,2.328
		c-2.171,0.214-4.351,0.209-6.523,0.383c-2.505,0.11-5.014,0.194-7.503,0.498c-2.859,0.351-3.384,0.031-3.394-2.782
		c-0.001-1.324-0.246-2.638-0.085-3.953c0.114-0.55,0.15-1.105,0.151-1.662c-0.122-1.387,0.207-2.75,0.194-4.136
		c0.125-2.394,0.584-4.752,0.912-7.114c0.801-5.733,2.122-11.377,3.212-17.063c0.371-1.924,0.825-3.833,1.112-5.775
		c0.389-1.347,0.917-2.672,0.898-4.108c0.776-1.133,0.305-2.558,0.888-3.737c0.624-2.522,1.104-5.079,1.787-7.586
		c0.373-1.133,0.608-2.299,0.811-3.476c0.848-3.196,1.57-6.427,2.547-9.589c0.338-1.094,0.127-2.347,0.975-3.288
		c0.716-0.97,0.293-2.245,0.841-3.264c1.064-3.151,1.971-6.353,2.919-9.542c0.45-1.498,0.991-2.968,1.372-4.488
		C72.053,50.194,72.352,49.768,72.969,49.805"/>
	<path fill-rule="evenodd" clip-rule="evenodd" fill="#A1D5D3" d="M223.908,113.746c-1.085,0.561-2.166,1.124-3.253,1.687
		c-1.858,0.54-3.347,1.808-5.08,2.596c-0.293,0.131-0.556,0.315-0.838,0.465c-0.833,0.458-1.433,0.371-1.819-0.611
		c-0.394-1.024-0.935-1.985-1.494-2.928c-1.33-2.604-2.582-5.255-4.339-7.618c-0.366-0.577-0.732-1.16-1.102-1.738
		c-0.458-1.711-1.662-2.997-2.598-4.414c-1.852-2.799-3.915-5.453-6.07-8.027l0.014,0.01c-1.091-1.181-1.993-2.543-3.268-3.555
		l0.013,0.011c-1.511-1.692-3.083-3.318-4.894-4.693c-0.545-0.414-1.144-0.771-1.623-1.248c-2.335-2.348-5.296-3.825-7.927-5.763
		c0.417-1.328,1.447-2.117,2.517-2.879c0.709,0.145,1.42,0.289,2.132,0.438c1.458,0.277,2.843,0.967,4.379,0.83
		c0.442,0.12,0.885,0.244,1.326,0.365c0.85,0.645,1.946,0.43,2.871,0.82l-0.013-0.002c1.133,0.223,2.22,0.698,3.409,0.591
		c0.219,0.067,0.435,0.138,0.651,0.205c1.674,0.736,3.465,0.983,5.243,1.266c2.84,0.313,5.557,1.179,8.315,1.837
		c1.081,0.769,2.407,0.659,3.61,0.993c0.782,0.223,1.568,0.616,2.436,0.411c0.325,0.082,0.644,0.16,0.968,0.235
		c1.543,0.818,3.275,0.884,4.932,1.236c2.658,0.196,5.172,1.061,7.73,1.705c1.521,0.883,3.276,0.834,4.917,1.247
		c0.932-0.043,1.82,0.183,2.682,0.509c0.921,0.566,1.926,0.811,3.006,0.743c0.685,0.144,1.37,0.29,2.057,0.438
		c1.624,0.603,3.294,1,5.014,1.214c0.762,0.637,1.794,0.029,2.584,0.551c0.433,0.511,0.072,0.945-0.138,1.388
		c-0.719,1.531-1.521,3.024-2.215,4.568c-0.002,0.075-0.036,0.132-0.103,0.172c-1.261,1.464-2.275,3.16-3.928,4.267l0.022-0.016
		c-1.575,1.653-3.583,2.714-5.426,4.011c-1.278,0.565-2.292,1.604-3.653,2.009c-0.106,0.146-0.215,0.288-0.32,0.433
		c-3.536,1.841-6.905,3.98-10.47,5.784C224,113.375,223.953,113.566,223.908,113.746"/>
	<path fill-rule="evenodd" clip-rule="evenodd" fill="#A1D5D3" d="M258.926,77.684c-1.122,1.166-1.358,2.785-2.11,4.144
		c-0.486,0.879-1.014,1.704-1.794,2.348c-1.082-0.777-2.261-1.35-3.533-1.756c-0.196-0.034-9.087-5.856-10.497-6.095
		c-0.965-0.521-1.855-1.143-2.634-1.918c-1.139-1.738-2.878-2.742-4.62-3.742c-0.305-0.252-0.596-0.517-0.917-0.747
		c-0.82-0.733-1.233-1.902-2.416-2.253c-0.728-0.857-2.008-1.072-2.538-2.166c-0.821-1.084-1.169-2.505-2.402-3.286
		c-0.844-1.512-1.365-3.155-1.995-4.754c-0.366-0.93-1.003-1.725-1.352-2.668c-0.342-0.911-0.185-1.404,0.825-1.733
		c3.065-0.995,15.297-3.985,17.213-4.365c1.562-0.309,3.072-0.865,4.627-1.223c0.562-0.134,1.151-0.357,1.744-0.063l-0.014-0.006
		c1.602,1.774,3.367,3.387,5.19,4.931l-0.003-0.002c1.236,1.17,2.557,2.236,3.836,3.356c0.211,0.177,0.375,0.397,0.69,0.309
		c0.115,0.115,0.222,0.231,0.338,0.343c1.305,1.414,2.898,2.471,4.439,3.591l-0.008-0.009c0.992,0.887,2.1,1.621,3.165,2.419
		l-0.007-0.006c0.818,0.876,2.198,1.152,2.6,2.464c-1.121,1.012-1.413,2.601-2.507,3.636c-1.805,2.764-3.392,5.657-5.121,8.468
		C258.987,77.123,258.958,77.413,258.926,77.684"/>
	<path fill-rule="evenodd" clip-rule="evenodd" fill="#A1D5D3" d="M110.306,36.473c2.258,0.7,4.556,1.2,6.924,1.331
		c1.586,0.844,3.397,0.757,5.072,1.231h-0.009c1.261,0.304,2.565,0.383,3.815,0.743c1.43,0.284,2.861,0.572,4.292,0.852
		c1.115,0.199,2.215,0.49,3.351,0.563c0.651,0.173,1.296,0.351,1.95,0.524c0.982,0.261,2.072,0.123,2.958,0.761
		c1.459-0.236,2.777,0.552,4.202,0.574c0.92,0.277,1.863,0.425,2.821,0.505c0.407,0.204,0.839,0.221,1.279,0.196
		c0.931,0.514,1.971,0.575,2.993,0.674c0.849,0.083,1.107,0.441,0.822,1.231c-0.034,2.237-0.922,4.313-1.23,6.5
		c-0.692,0.986-0.916,4.97-1.806,5.717c-0.814,0.681-3.201,0.609-4.719,1.521c-0.811,0.488-1.683,0.844-2.596,1.086
		c-2.1-0.994-4.461-0.843-6.641-1.544c-1.854-0.598-3.777-0.983-5.672-1.462c-1.099-0.227-2.188-0.517-3.308-0.648
		c-1.654-0.382-3.309-0.768-4.966-1.148c-1.433-0.455-6.508-1.516-7.591-1.747c-1.684-0.54-3.405-0.93-5.148-1.236
		c-2.498-0.554-4.998-1.109-7.494-1.668c-0.458-0.308-0.971-0.446-1.509-0.502c-0.513-0.056-0.883-0.222-0.745-0.843
		c0.626-0.559,0.165-1.505,0.738-2.084c0.924-1.456,1.338-3.124,1.917-4.721l-0.004,0.006c0.548-1.412,1.373-2.735,1.415-4.314
		c0.458-1.225,0.99-2.411,1.752-3.483c0.371,0.339,0.837,0.386,1.304,0.441C106.427,35.793,108.295,36.57,110.306,36.473"/>
	<path fill-rule="evenodd" clip-rule="evenodd" fill="#A1D5D3" d="M160.818,127.996c-0.795,2.033-1.59,4.063-2.385,6.099
		c-0.537,0.833-0.759,1.779-1.156,2.659c-0.542,2.361-2.067,4.439-2.517,6.831c-0.129,0.683-0.587,1.233-1.06,1.761
		c-1.558-0.553-3.087-1.177-4.795-1.272c-1.736-0.223-3.132-1.327-4.887-1.492c-1.12-0.456-2.322-0.679-3.483-1.028
		c-0.92-0.341-1.982-0.238-2.875-0.67c-1.015-0.521-2.18-0.666-3.26-1.017l0.014,0.002c-0.802-0.322-1.659-0.481-2.484-0.727
		c-1.684-0.301-3.365-0.604-4.958-1.196c-0.219-0.319-0.598-0.322-0.946-0.412c-1.183-0.295-1.181-0.3-0.62-1.332
		c0.314-0.47,0.638-0.944,1.142-1.268c0.779-0.537,1.32-1.272,1.881-1.992c1.599-1.741,3.206-3.48,4.811-5.214
		c1.138-1.231,2.384-2.395,3.496-3.66c1.239-0.697,1.89-1.96,2.988-2.792c0.311-0.24,0.498-0.678,1.007-0.6
		c3.019,1.209,6.265,1.819,9.356,2.841c0.753,0.571,1.696,0.701,2.611,0.898c1.651,0.475,3.34,0.874,4.823,1.731
		c1.134,0.063,2.109,0.549,3.13,0.921C161.179,127.256,160.721,127.69,160.818,127.996"/>
	<path fill-rule="evenodd" clip-rule="evenodd" fill="#A1D5D3" d="M154.962,45.309c1.533,0.596,3.15,0.804,4.764,1.008
		c1.749,0.444,3.531,0.747,5.297,1.115c1.005,0.21,1.198,0.633,0.805,1.487c-0.303,1.065-0.603,2.136-0.903,3.205
		c-0.291,0.946,0.098,0.988,0.874,0.72c3.926-1.364,7.865-2.7,11.798-4.052c0.339-0.116,0.654-0.352,1.044-0.209
		c0.677,0.267,1.122,0.799,1.562,1.348c0.699,0.865,1.514,1.607,2.469,2.196c1.146,1.21,2.481,2.2,3.762,3.247
		c0.896,1.173,1.998,2.099,3.288,2.811c0.246,0.793,0.046,1.485-0.641,1.913c-0.891,0.551-1.442,1.365-1.993,2.203
		c-1.297,1.111-2.487,2.322-3.381,3.796c-0.685,0.834-1.612,1.449-2.142,2.427c-0.904,0.377-1.617,1.325-2.782,0.946
		c-3.38-0.925-6.753-1.89-10.215-2.474c-1.647-0.439-3.239-1.126-4.993-1.037c-2.164-0.607-4.327-1.212-6.489-1.82
		c-0.751-0.266-1.36-0.71-1.782-1.399c-0.807-1.322-1.917-2.333-3.262-3.082c-0.57-0.326-0.952-0.716-0.783-1.431
		c0.232-1.043,0.471-2.089,0.708-3.133c0.683-1.97,0.972-4.035,1.445-6.05c0.061-0.417,0.121-0.828,0.178-1.24
		c0.367-0.529,0.365-1.174,0.496-1.768C154.203,45.509,154.409,45.24,154.962,45.309"/>
	<path fill-rule="evenodd" clip-rule="evenodd" fill="#A1D5D3" d="M160.667,124.967c-1.075-0.396-2.15-0.784-3.229-1.177
		c-1.016-0.436-2.045-0.839-3.136-1.044c-3.141-1.108-6.379-1.942-9.427-3.31c-0.719-0.373-1.431-0.737-2.224-0.96
		c-1.014-0.292-1.019-0.523-0.282-1.366c0.548-0.634,1.384-1.035,1.608-1.935c0.405-0.577,0.824-1.14,1.576-1.287
		c0.489-1.015,1.699-1.46,2.047-2.586c0.424-0.851,1.413-1.084,1.971-1.792c1.021-1.209,2.271-2.2,3.246-3.456l-0.008,0.011
		c0.801-0.983,1.768-1.808,2.614-2.749c0.287-0.321,0.772-0.521,0.719-1.073c0.512-0.54,1.021-1.076,1.531-1.613
		c1.171-0.866,2.283-1.788,2.97-3.117c1.836-1.159,2.62-3.312,4.318-4.603c1.252-0.883,1.252-0.883,2.243,0.671l-0.026-0.023
		c1.139,1.851,2.239,3.726,3.38,5.575l-0.015-0.027c0.814,1.428,1.695,2.82,2.608,4.182c0.476,0.706,0.727,1.427,0.754,2.255
		c-1.023,2.66-2.04,5.319-3.064,7.976c-0.557,1.591-1.194,3.152-1.584,4.799c-1.086,2.506-1.81,5.139-2.6,7.746
		c-0.283,0.937-0.725,1.213-1.56,0.603C163.701,125.879,162.177,125.441,160.667,124.967"/>
	<path fill-rule="evenodd" clip-rule="evenodd" fill="#A1D5D3" d="M170.243,87.252c1.871-1.642,3.24-3.769,5.202-5.328
		c0.32-0.252,0.737-0.519,0.855-0.869c0.53-1.542,1.281-1.205,2.317-0.479c1.972,1.387,3.862,2.871,5.719,4.395
		c1.584,1.424,3.238,2.77,4.774,4.253c1.613,1.696,3.351,3.271,4.843,5.089l-0.009-0.014c1.066,1.162,1.962,2.466,3.003,3.648
		l-0.01-0.011c1.003,0.912,0.437,1.489-0.433,1.997c-3.601,2.037-7.175,4.121-10.744,6.224l0.014-0.009
		c-1.305,0.788-2.67,1.468-3.95,2.302c-0.551,0.358-1.188,0.773-1.723-0.075l0.009,0.005c-3.426-5.664-6.91-11.296-10.334-16.964
		c-1.157-1.916-1.178-1.904,0.267-3.666C170.162,87.598,170.23,87.441,170.243,87.252"/>
	<path fill-rule="evenodd" clip-rule="evenodd" fill="#A1D5D3" d="M193.114,130.14c-0.03-0.09-0.063-0.185-0.097-0.274
		c-0.225-1.364-1.226-2.317-1.887-3.43c-1.96-3.296-3.942-6.578-6.005-9.813c-0.079-0.125-0.158-0.208-0.3-0.224
		c-0.124-0.174-0.248-0.342-0.374-0.513c-0.116-1.099-0.885-1.89-1.441-2.737c-0.646-0.977-0.379-1.416,0.511-1.904
		c2.676-1.472,5.286-3.063,7.937-4.575c1.063-0.608,2.139-1.211,3.146-1.914c0.945-0.461,1.902-0.919,2.754-1.547
		c0.125-0.054,0.244-0.112,0.36-0.183c1.837-1.172,1.837-1.172,3.235,0.259c0.304,0.484,0.606,0.973,0.911,1.459
		c1.072,2.063,2.467,3.938,3.495,6.034c0.053,0.104,0.235,0.128,0.368,0.156c0.098,0.27,0.195,0.544,0.292,0.815
		c1.329,2.579,2.738,5.116,4.004,7.729c0.41,0.85,0.342,1.423-0.44,1.916c-3.319,1.615-6.485,3.504-9.739,5.244
		c-2.083,1.117-4.178,2.213-6.201,3.446C193.483,130.179,193.299,130.189,193.114,130.14"/>
	<path fill-rule="evenodd" clip-rule="evenodd" fill="#A1D5D3" d="M145.539,106.927c-0.274,0.25-0.541,0.5-0.813,0.75
		c-1.309,1.537-2.979,2.74-4.112,4.443c-0.438,0.381-0.875,0.761-1.312,1.143c-1.291,1.537-2.749,2.92-4.057,4.439
		c-0.856,0.962-1.712,1.919-2.564,2.88c-0.958,0.854-1.915,1.708-2.714,2.72c-0.583,0.838-1.396,1.464-2.076,2.214
		c-0.377,0.696-0.854,0.932-1.592,0.448c-0.361-0.235-0.753-0.479-1.225-0.476c-2.29-1.156-4.587-2.293-6.861-3.477
		c-0.909-0.477-0.896-1.354,0.152-2.462c1.08-1.146,1.882-2.468,2.714-3.783c1.257-1.521,2.414-3.114,3.415-4.814
		c0.285-0.532,0.644-1.007,1.115-1.397c1.259-1.492,2.595-2.934,3.459-4.726c0.582-0.619,1.265-1.151,1.583-1.981
		c1.046-1.056,1.658-2.445,2.677-3.52c0.775-2.149,2.395-3.809,3.406-5.814c0.578-0.832,1.131-0.926,1.687,0.028
		c0.201,0.351,0.395,0.73,0.849,0.824c0.272,0.318,0.544,0.638,0.816,0.955c0.591,1.514,1.95,2.46,2.796,3.789
		c0.266,0.415,0.601,0.805,0.92,1.191c0.895,1.118,1.781,2.238,2.747,3.289c0.804,0.849,0.756,1.589-0.2,2.306
		C146.007,106.151,145.654,106.467,145.539,106.927"/>
	<path fill-rule="evenodd" clip-rule="evenodd" fill="#A1D5D3" d="M230.597,81.478c-2.77-1.014-5.697-1.351-8.552-1.984
		c-1.534-0.751-3.263-0.812-4.848-1.361c-3.249-0.747-6.477-1.544-9.739-2.212c-2.168-0.441-4.31-1.042-6.54-1.161
		c-0.136,0-0.273-0.012-0.405-0.04c-1.466-0.771-0.596-1.733-0.224-2.658c0.207-0.275,0.464-0.505,0.69-0.757
		c1.017-0.651,1.654-1.638,2.245-2.651c0.211-0.255,0.369-0.552,0.633-0.755c1.312-0.693,2.182-1.808,2.921-3.051
		c0.554-0.591,1.057-1.227,1.538-1.881c1.213-0.878,2.287-2.093,4.043-1.635c2.613,0.918,5.189,1.946,7.708,3.12
		c0.791,0.706,1.754,1.059,2.755,1.344c1.665,0.496,2.61,1.921,3.855,2.958c0.799,0.968,1.678,1.85,2.784,2.473
		c0.183,0.179,2.114,2.013,3.143,2.414c1.749,1.271,3.406,2.649,5.146,3.93c0.89,1.227,2.139,1.962,3.496,2.551
		c1.518,0.933,2.903,2.063,4.456,2.941c0.909,1.071,0.928,1.231,0.305,1.883c-0.77-0.395-1.636-0.355-2.452-0.559
		c-1.967-0.758-4.085-0.935-6.096-1.53c-0.804-0.182-1.609-0.364-2.416-0.546C233.563,82.018,232.146,81.402,230.597,81.478"/>
	<path fill-rule="evenodd" clip-rule="evenodd" fill="#A1D5D3" d="M221.073,51.402c-0.698,0.26-1.146,0.08-1.27-0.663
		c-0.632-1.813-1.854-3.273-3.067-4.719c-0.424-0.51-1.988-1.954-2.333-2.18c0.009-0.089-1.826-1.874-1.383-2.729
		c0.092-0.116,1.833-1.619,2.458-1.813c5.125-1.609,10.332-2.955,15.391-4.781c2.505-0.904,2.595-0.907,3.833,1.237
		c1.728,2.993,3.725,5.798,5.988,8.425l-0.013-0.01c0.179,0.109,0.246,0.306,0.382,0.448c0.582,0.591,0.529,0.986-0.364,1.25
		c-0.627,0.186-1.289,0.313-1.836,0.71c-0.907,0.346-2.6,0.515-2.464,0.496c-3.501,1.022-7.05,2.018-10.615,2.956
		C224.203,50.447,222.591,50.774,221.073,51.402"/>
	<path fill-rule="evenodd" clip-rule="evenodd" fill="#A1D5D3" d="M169.79,80.8c-0.966,1.178-1.93,2.353-2.893,3.529
		c-1.035,0.389-1.375,1.612-2.424,1.983c-0.904,0.021-1.618-0.861-2.584-0.535c-1.954-0.588-3.905-1.174-5.857-1.763
		c-1.499-0.928-3.202-1.19-4.885-1.547c-0.39-0.357-0.854-0.49-1.373-0.474c-1.705-0.893-3.564-1.26-5.436-1.575
		c-0.63-0.149-0.867-0.527-0.496-1.081c0.783-1.178-0.129-3.082,1.213-2.733c6.782,1.754,9.455-2.87,10.235-6.282
		c0.165-0.734-0.313-0.871,0.075-1.569c1.899,0.028,7.985,1.836,8.633,2.009c1.732,0.433,3.442,0.977,5.236,1.136
		c0.238,0.021,2.499,0.556,3.362,0.883h-0.01c1.014,0.215,2,0.559,3.027,0.724c0.406,0.063,0.703,0.169,0.65,0.652l-1.052,1.222
		c-1.179,0.589-1.783,1.755-2.663,2.638C171.629,78.945,170.709,79.873,169.79,80.8"/>
	<path fill-rule="evenodd" clip-rule="evenodd" fill="#A1D5D3" d="M101.107,111.542c1.198,0.135,2.39,0,3.533-0.305
		c1.297-0.349,1.313-1.705,1.832-2.663c0.675-2.028,1.333-4.054,1.958-6.094c0.276-0.964,0.953-1.207,1.881-1.125
		c0.533,0.047,1.078,0.054,1.618,0.071l-0.031,0.002c1.095,0.021,2.189-0.108,3.282-0.005c0.954,0.099,1.91,0.016,2.862,0.014
		c0.988-0.005,1.244,0.418,1.207,1.334c-0.129,3.053-0.071,6.106-0.101,9.162c0.123,1.591-1.333,2.443-1.77,3.775
		c-0.512,0.716-1.021,1.434-1.533,2.153c-1.215,3.299-3.977,3.173-6.746,3.039c-2.228,0.255-4.468,0.26-6.705,0.402h0.019
		c-0.992,0.106-1.99,0.058-2.981,0.182c-0.722,0.089-1.051-0.077-1.009-0.959c0.135-2.718,0.313-5.434,0.398-8.156
		c0.018-0.615,0.239-0.929,0.917-0.83C100.19,111.6,100.651,111.558,101.107,111.542"/>
	<path fill-rule="evenodd" clip-rule="evenodd" fill="#A1D5D3" d="M107.875,65.812c0.438-0.014,0.758,0.22,1.056,0.493
		c0.913,1.064,2.301,1.268,3.471,1.847c2.117,1.04,4.147,2.288,6.442,2.942c0.621,0.152,1.063,0.441,0.895,1.188
		c-0.344,1.374-0.189,2.773-0.221,4.162c-0.021,0.768-0.089,1.535-0.083,2.31c0.158,0.875-0.14,1.275-1.086,1.146
		c-0.524-0.065-1.058,0.052-1.591,0.07c-0.472,0.051-0.941,0.098-1.412,0.147c-1.096-0.385-2.222,0.106-3.321-0.114
		c-1.869,0.299-3.78-0.094-5.641,0.338c-0.292-0.014-0.585-0.027-0.88-0.042c-2.592-0.061-5.183-0.029-7.768,0.164
		c-2.6-0.171-5.196,0.124-7.794,0.104c-1.435-0.008-1.44,0.011-1.098-1.38c0.045-0.181,0.087-0.356,0.168-0.523
		c0.083-0.718-0.021-1.477,0.369-2.145c0.179-0.152,0.348-0.346,0.366-0.563c0.091-1.156,0.871-1.331,1.818-1.37
		c2.322-0.092,4.612-0.38,6.83-1.138c1.091-0.37,2.103-0.86,3.012-1.563c1.787-1.196,3.038-2.854,3.976-4.754
		C106.205,65.457,106.179,65.442,107.875,65.812"/>
	<path fill-rule="evenodd" clip-rule="evenodd" fill="#A1D5D3" d="M125.507,61.92c1.133,0.254,2.266,0.509,3.394,0.766
		c1.41,0.447,2.95,0.403,4.264,1.185c1.311-0.112,1.279,0.035,2.506,0.375c1.027,0.31,1.076,7.979,3.023,10.04
		c0.491,0.521,0.709,1.42,1.906,1.532c0.439,0.041,1.05-0.157,1.41,0.519c-0.755,1.808-0.493,1.185-1.248,2.993
		c-1.167-0.063-2.324,0.086-3.49,0.135c-1.607-0.078-3.212-0.021-4.809,0.194c-2.69,0.02-5.39-0.234-8.062,0.289
		c-1.634,0.049-1.634,0.049-1.604-1.923c0.049-1.212,0.031-2.426-0.05-3.637c0.16-1.748-0.085-3.512,0.224-5.252
		c-0.162-2.36,0.01-4.714-0.006-7.073c-0.005-0.572,0.129-0.748,0.689-0.589C124.264,61.647,124.917,61.649,125.507,61.92"/>
	<path fill-rule="evenodd" clip-rule="evenodd" fill="#A1D5D3" d="M93.271,91.275c-0.004-0.311-0.007-0.622-0.01-0.93
		c-0.097-1.11,0.05-2.219,0-3.328c0.168-1.018-0.309-2.325,0.393-2.995c0.687-0.648,1.981-0.245,2.998-0.377
		c0.321-0.172,0.664-0.187,1.014-0.111c1.792,0.436,3.603,0.078,5.395,0.042c2.489-0.055,4.99,0.014,7.47-0.206
		c1.037-0.092,0.561,0.687,0.78,1.061c-0.714,2.103-1.428,4.209-2.145,6.316c-0.91,1.552-1.26,3.311-1.824,4.986l0.011-0.015
		c-0.885,2.284-0.885,2.235-3.378,2.249c-3.267,0.018-6.53-0.033-9.794-0.119c-0.421-0.008-0.766,0.292-1.183,0.176
		c-0.044-0.661-0.087-1.323-0.131-1.988C93.173,94.467,92.785,92.833,93.271,91.275"/>
	<path fill-rule="evenodd" clip-rule="evenodd" fill="#A1D5D3" d="M148.601,84.787c1.135,0.711,2.551,0.424,3.708,1.046
		c1.891,1.066,4.004,1.448,6.059,2.015c0.894,0.357,1.816,0.628,2.771,0.766c0.522,0.414,0.76,0.765,0.155,1.402
		c-0.935,0.981-1.831,2.005-2.819,2.939c-0.387,0.371-0.854,0.698-0.953,1.293c-0.464,0.19-0.783,0.536-1.038,0.956
		c-1.5,1.652-3.225,3.094-4.543,4.906c-0.133,0.096-0.266,0.187-0.395,0.276c-1.77,1.905-1.77,1.905-3.393-0.036
		c-0.44-0.524-0.847-1.072-1.331-1.554l0.008,0.012c-2.16-2.782-4.392-5.501-6.617-8.234c-0.648-0.797-0.861-1.435-0.252-2.425
		c0.756-1.245,1.417-2.569,1.884-3.972c0.248-1.502,1.23-0.866,2.047-0.705C145.439,84,146.996,84.48,148.601,84.787"/>
	<path fill-rule="evenodd" clip-rule="evenodd" fill="#A1D5D3" d="M99.285,139.848c-0.696,0.343-1.433,0.076-2.15,0.133
		c-1.275-0.166-2.544,0.033-3.816,0.086c-1.1,0.046-1.286-0.275-0.854-1.302c0.261-0.625,0.688-1.196,0.696-1.912
		c0.46-2.268,1.701-4.229,2.476-6.373c0.577-1.591,1.304-3.123,1.916-4.702c0.324-0.832,0.771-1.099,1.741-1.114
		c2.45-0.033,4.918,0.061,7.343-0.419c1.212,0.368,2.427,0.057,3.636,0c1.615-0.079,1.613-0.121,0.999,1.32
		c-0.089,0.21-0.19,0.416-0.159,0.655c-0.561,1.165-1.124,2.329-1.688,3.491c-1.173,1.624-1.845,3.462-2.313,5.392
		c-0.52,1.477-0.852,3.023-1.66,4.392C103.383,139.412,101.337,139.668,99.285,139.848"/>
	<path fill-rule="evenodd" clip-rule="evenodd" fill="#A1D5D3" d="M78.125,140.432c-0.059-1.586-0.137-3.168,0.063-4.748
		c0.428-1.458,0.476-2.939,0.24-4.436c0.058-0.615,0.116-1.229,0.172-1.847c0.316-0.896,0.298-1.849,0.445-2.771
		c0.083-0.532,0.298-0.762,0.858-0.812c1.025-0.088,2.061-0.037,3.085-0.219c1.026-0.077,2.054-0.159,3.081-0.239
		c2.018,0.216,4.012-0.165,6.02-0.224c2.501,0.016,2.478,0.008,1.507,2.397c-1.499,3.688-3.021,7.37-4.398,11.104
		c-0.494,1.338-1.127,2.142-2.618,2.021c-2.396-0.27-4.773,0.196-7.165,0.201C78.9,140.865,78.423,140.98,78.125,140.432"/>
	<path fill-rule="evenodd" clip-rule="evenodd" fill="#A1D5D3" d="M127.907,101.357c-0.387,0.568-0.775,1.136-1.161,1.699
		c-0.959,0.603-1.408,1.625-2.074,2.471l0.008-0.014c-0.467,0.51-0.843,1.077-1.231,1.645c-0.146,0.22-0.353,0.624-0.753,0.397
		c-0.269-0.147-0.269-0.462-0.245-0.736c0.035-0.319,0.053-0.64,0.056-0.96c0.069-1.497-0.047-2.998,0.024-4.496
		c-0.033-1.159,0.319-2.337-0.161-3.475c-0.101-0.711-0.061-1.42,0.063-2.121c0.403-2.422,0.11-4.866,0.252-7.301
		c0.042-0.717,0.083-1.442,0.018-2.168c0.048-0.757,0.035-1.514-0.013-2.27c-0.044-0.689,0.225-1.01,0.912-0.996
		c1.576,0.133,3.153-0.146,4.73-0.039l-0.026-0.003c1.138-0.175,1.919,0.22,2.613,1.201c1.051,1.476,2.129,2.957,3.407,4.249
		c0.775,0.785,0.991,1.568,0.532,2.549c-0.863,1.885-2.333,3.385-3.327,5.188C130.147,97.783,128.99,99.547,127.907,101.357"/>
	<path fill-rule="evenodd" clip-rule="evenodd" fill="#A1D5D3" d="M199.199,69.768c-0.283,0.298-0.564,0.594-0.846,0.892
		c-0.78,0.255-1.076,1.003-1.592,1.532c-0.393,0.395-0.682,0.963-1.341,1.032c-1.668-0.571-3.413-0.843-5.109-1.307
		c-0.489-0.064-0.987-0.127-1.48-0.191c-0.675-0.373-1.441-0.405-2.159-0.623c-0.617-0.186-0.729-0.551-0.472-1.096l0.438-0.544
		c0.891-0.563,1.662-1.239,2.07-2.252c0.446-0.681,1.408-0.851,1.692-1.691c0.59-0.668,1.481-1.082,1.691-2.059
		c1.036-0.794,1.75-1.868,2.55-2.871c0.951-0.322,1.409-1.163,1.987-1.875c0.419-0.54,0.833-1.08,1.249-1.617
		c0.517-0.473,0.996-0.611,1.702-0.228c0.706,0.388,1.456,0.761,2.259,0.944v-0.004c1.381,0.577,2.749,1.197,4.137,1.769
		c1.428,0.593,1.438,0.649,0.363,1.818c-1.481,1.622-2.908,3.288-4.368,4.932c-0.847,0.917-1.712,1.821-2.507,2.783
		C199.314,69.3,198.983,69.43,199.199,69.768"/>
	<path fill-rule="evenodd" clip-rule="evenodd" fill="#A1D5D3" d="M183.407,48.692c-0.397-0.447-0.786-0.89-1.176-1.339
		c0.361-0.398,0.889-0.443,1.355-0.604c7.277-2.506,14.56-4.994,21.842-7.487c1.161-0.261,0.602,0.432,0.377,0.774
		c-0.848,1.283-1.829,2.472-2.657,3.766c-1.719,2.007-3.441,4.014-5.157,6.019c-1.12,1.216-2.277,2.407-3.121,3.846
		c-0.283,0.329-0.574,0.657-0.861,0.985c-0.424,0.1-0.69,0.427-0.909,0.742c-0.569,0.822-1.125,0.707-1.723,0.066
		c-0.419-0.409-0.843-0.818-1.263-1.229c-0.823-0.406-1.286-1.351-2.262-1.532c-0.701-0.631-1.408-1.267-2.11-1.897
		C185.083,49.971,184.354,49.211,183.407,48.692"/>
	<path fill-rule="evenodd" clip-rule="evenodd" fill="#A1D5D3" d="M85.708,111.576c2.142-0.033,4.279-0.066,6.422-0.099
		c0.675,0.179,1.364,0.112,2.041,0.063c1.093-0.077,1.424,0.411,1.337,1.446c-0.244,2.73-0.228,5.471-0.415,8.202l0.002-0.011
		c-0.125,0.601-0.551,0.571-1.041,0.571c-1.489-0.005-2.968,0.18-4.453,0.271c-1.189-0.048-2.387,0.361-3.57-0.071
		c-1.816,0.783-3.76,0.396-5.641,0.575c-0.738,0.072-0.87-0.664-0.81-1.194c0.158-1.349,0.13-2.742,0.744-4.009
		c0.057-1.593,0.357-3.144,0.622-4.707c0.142-0.85,0.592-1.063,1.401-1.063C83.468,111.554,84.586,111.686,85.708,111.576"/>
	<path fill-rule="evenodd" clip-rule="evenodd" fill="#A1D5D3" d="M218.978,61.566c-3.002-1.222-6.07-2.302-8.982-3.712
		c-2.218-1.074-4.524-1.882-6.796-2.806c-0.337-0.384-0.787-0.585-1.249-0.745c-0.863-0.304-0.869-0.771-0.318-1.382
		c0.133-0.125,0.265-0.25,0.403-0.375c0.795-0.853,1.419-1.864,2.344-2.603c1.145-1.824,2.643-3.378,3.968-5.06
		c0.45-0.565,0.953-0.678,1.521-0.17c1.204,1.076,2.423,2.137,3.358,3.476c0.95,1.158,1.458,2.607,2.448,3.739
		c0.77,1.082,1.411,2.234,1.899,3.468c0.475,1.817,1.397,3.44,2.214,5.111C220.229,61.413,219.987,61.784,218.978,61.566"/>
	<path fill-rule="evenodd" clip-rule="evenodd" fill="#A1D5D3" d="M103.421,62.184c-0.398,2.994-1.54,5.556-4.234,7.202
		c-1.165,0.769-2.519,1.04-3.818,1.455c-0.83,0.288-1.707,0.257-2.561,0.347c-1.521,0.156-1.523,0.135-1.602-1.363
		c0.241-1.594,1.394-2.922,1.48-4.518c0.087-1.656,0.876-3.115,1.024-4.742c0.109-1.169,0.563-2.284,1.038-3.368
		c0.083-0.105,0.159-0.215,0.206-0.343c0.707-2.029,0.707-2.029,2.736-1.387c1.164,0.15,2.273,0.535,3.433,0.731
		c0.703,0.205,1.397,0.463,2.15,0.435c0.393,0.211,0.577,0.498,0.542,0.981C103.703,59.138,103.769,60.68,103.421,62.184"/>
	<path fill-rule="evenodd" clip-rule="evenodd" fill="#A1D5D3" d="M113.987,127.174c0.018-0.089,0.013-0.189,0.053-0.269
		c1.921-3.556,1.044-3.177,4.366-1.569c1.979,0.967,3.908,2.032,5.883,3.011c0.809,0.398,0.875,0.839,0.274,1.45
		c-0.543,0.559-1.093,1.112-1.641,1.664c-1.176,1.061-2.115,2.316-2.932,3.663c-0.622,0.773-1.249,1.554-1.873,2.331
		c-0.962,1.502-2.642,1.263-4.055,1.68c-1.262,0.068-2.532,0.136-3.796,0.206c-1.099-0.128-1.237-0.691-0.825-1.628
		c0.635-1.443,1.241-2.893,1.726-4.394c0.16-0.398,0.315-0.799,0.474-1.202C112.541,130.528,113.468,128.949,113.987,127.174"/>
	<path fill-rule="evenodd" clip-rule="evenodd" fill="#A1D5D3" d="M111.836,91.854c0.285-1.201,0.914-2.289,1.231-3.443
		c0.389-1.421,1.092-2.723,1.373-4.167c0.491-1.073,1.419-1.021,2.399-1.017c2.567,0.023,2.6-0.003,2.574,2.563
		c-0.037,3.599-0.103,7.199-0.121,10.797v-0.01c-0.116,1.62-0.116,1.622-1.768,1.57c-2.363-0.077-4.727-0.156-7.095,0.01
		c-0.833-1.117,0.026-2.046,0.345-3.038C111.459,94.139,111.751,93.029,111.836,91.854"/>
	<path fill-rule="evenodd" clip-rule="evenodd" fill="#A1D5D3" d="M91.189,101.252c1.489-0.266,3.003,0.271,4.506-0.204
		c0.62-0.194,0.543,0.446,0.526,0.838c-0.083,1.874-0.182,3.742-0.276,5.616c-0.574,1.353-1.762,0.516-2.653,0.745
		c-2.709,0.063-5.423-0.047-8.136,0.114c-0.483-0.154-0.983-0.07-1.471-0.07c-1.98,0.003-1.98,0.01-1.494-1.955
		c0.293-1.336,0.585-2.673,0.875-4.011c0.105-1.01,0.688-1.402,1.657-1.238c0.587,0.098,1.173-0.039,1.758,0.028h-0.034
		C88.026,101.213,89.611,101.109,91.189,101.252"/>
	<path fill-rule="evenodd" clip-rule="evenodd" fill="#A1D5D3" d="M108.002,57.61c0.822-0.004,1.446,0.613,2.236,0.702
		c1.199,0.233,2.359,0.654,3.573,0.818c1.339,0.316,2.672,0.63,4.005,0.943c1.876,0.514,1.9,0.514,1.85,2.437
		c-0.028,1.096-0.061,2.188-0.028,3.28c-0.225,2.109-0.228,2.111-2.224,1.129c-3.156-1.548-6.385-2.949-9.512-4.554
		c-0.511-0.257-1.194-0.391-0.998-1.23c0.057-0.798,0.163-1.599,0.128-2.402C107.001,58.03,107.303,57.658,108.002,57.61"/>
	<path fill-rule="evenodd" clip-rule="evenodd" fill="#A1D5D3" d="M84.934,94.06c0.414-1.574,0.833-3.15,1.249-4.727
		c0.151-1.009,0.572-1.947,0.76-2.946l-0.002,0.008c0.16-0.574,0.294-1.151,0.417-1.73c0.134-0.609,0.441-0.77,1.063-0.774
		c1.637-0.009,1.649-0.048,1.6,1.618c-0.065,2.14-0.058,4.284-0.26,6.416c-0.026,0.27-0.103,0.552,0.213,0.721
		c-0.011,0.205-0.024,0.409-0.038,0.614c-0.387,0.869-0.279,1.794-0.29,2.705c-0.021,1.761-0.148,1.903-1.837,1.885
		c-0.358,0-0.732,0.073-1.081-0.089c-0.736,0.081-1.472,0.162-2.205,0.241c-0.479-0.253-0.369-0.622-0.271-1.048
		C84.476,95.987,84.718,95.027,84.934,94.06"/>
	<path fill-rule="evenodd" clip-rule="evenodd" fill="#A1D5D3" d="M143.173,73.904l-0.723,0.724c0,0-0.972,0.81-1.589,0.067
		c-2.158-2.598-2.018-2.915-3.334-7.662c-0.185-0.666,0.047-1.611-0.303-2.102c0.164-0.048,0.15-0.437,0.313-0.484
		c0.782,0.537,1.73,0.533,2.596,0.796c0.308,0.218,0.582,0.495,0.556,0.884c-0.21,2.699,0.991,4.837,2.653,6.799
		C143.427,73.276,143.353,73.601,143.173,73.904"/>
	<path fill-rule="evenodd" clip-rule="evenodd" fill="#A1D5D3" d="M104.978,103.257c-0.042,0.101-0.085,0.203-0.129,0.309
		c-0.782,0.988-0.979,2.237-1.293,3.38c-0.324,1.178-0.917,1.414-1.938,1.257c-0.263-0.039-0.544-0.104-0.714,0.206
		c-0.205-0.006-0.411-0.014-0.616-0.021c-1.79-0.229-1.113-1.569-1.162-2.582v0.008c0.178-1.173,0.04-2.36,0.155-3.541
		c0.084-0.832,0.483-1.112,1.236-1.057c1.133,0.095,2.273,0.095,3.409,0.077c1.083-0.02,1.592,0.295,1.014,1.43
		C104.854,102.888,104.928,103.079,104.978,103.257"/>
	<path fill-rule="evenodd" clip-rule="evenodd" fill="#A1D5D3" d="M153.101,68.3c0.746,0.296,0.844,0.817,0.739,1.549
		c-0.477,3.273-4.01,6.273-7.433,6.338c-0.983,0.019-0.745-0.611-0.855-1.099c0.083-0.279,0.167-0.551,0.251-0.829
		c0.519-0.688,1.25-1.056,2.065-1.339c1.873-0.656,3.061-1.838,3.223-3.866c0.085-1.034,0.408-1.124,2.003-0.747L153.101,68.3z"/>
	<path fill-rule="evenodd" clip-rule="evenodd" fill="#A1D5D3" d="M144.211,70.584c-1.375-0.14-1.687-1.254-1.923-2.287
		c-0.214-0.937-0.395-2.002,0.785-2.579c0.644,0.155,1.286,0.312,1.932,0.468c0.524,0.815-0.416,1.604-0.05,2.419
		C144.706,69.262,144.458,69.926,144.211,70.584"/>
	<path fill-rule="evenodd" clip-rule="evenodd" fill="#A1D5D3" d="M150.146,67.641c0.035,1.165-0.403,2.191-1.021,3.133
		c-0.526,0.801-1.209,1.105-1.938,0.161c0.282-0.806,0.554-1.621,0.861-2.42C148.437,67.511,149.066,67.019,150.146,67.641"/>
	<path fill-rule="evenodd" clip-rule="evenodd" fill="#A1D5D3" d="M136.434,86.099c-0.224-0.762-0.798-1.278-1.289-1.855
		c-0.2-0.18-0.368-0.39-0.523-0.61c-0.352-0.487-0.407-0.758,0.366-0.814c0.806-0.054,1.617,0.028,2.413-0.147
		c1.526,0.105,1.529,0.105,0.897,1.435c-0.256,0.535-0.53,1.061-0.782,1.598C137.28,86.211,136.951,86.397,136.434,86.099"/>
	<path fill-rule="evenodd" clip-rule="evenodd" fill="#A1D5D3" d="M151.607,61.165c1.4,0.21,1.375,0.425,1.896,1.869
		c-1.235,0.521-2.245-0.255-3.333-0.584c0.081-0.538,0.034-1.493,0.615-1.607"/>
	<path fill-rule="evenodd" clip-rule="evenodd" fill="#A1D5D3" d="M146.011,59.653c3.354,0.315-0.141,3.119-1.876,1.369
		C143.619,60.502,144.724,59.653,146.011,59.653"/>
	<path fill-rule="evenodd" clip-rule="evenodd" fill="#A1D5D3" d="M192.092,63.46c0.107,1.232-0.873,1.578-1.689,2.06
		C190.764,64.664,191.542,64.156,192.092,63.46"/>
	<path fill-rule="evenodd" clip-rule="evenodd" fill="#A1D5D3" d="M179.497,114.11c0.593,0.753,0.872,1.725,1.636,2.357
		c1.526,3.277,3.707,6.174,5.491,9.299c0.929,1.625,1.931,3.209,2.938,4.788c0.523,0.817,0.493,1.385-0.443,1.869
		c-1.296,0.67-2.547,1.43-3.815,2.148c-2.016,1.244-4.029,2.49-6.042,3.733c-0.434-0.175-0.716,0.013-0.997,0.348
		c-0.758,0.881-1.781,0.802-2.359,0.045c-0.569-0.753-1.378-1.03-2.013-1.594c-0.549-0.09-0.565-0.658-0.873-0.967
		c-0.798-1.329-1.633-2.635-2.456-3.95c-0.816-1.21-1.483-2.514-2.344-3.688c-0.438-0.591-0.39-1.2-0.174-1.812
		c0.301-0.855,0.543-1.735,0.894-2.573c1.172-2.641,1.513-5.55,2.698-8.182c0.97-1.441,1.286-3.141,1.871-4.736l-0.007,0.023
		c0.294-1.089,1.019-2.039,0.956-3.233c0.151-0.435,0.3-0.872,0.449-1.31C176.438,109.157,177.966,111.635,179.497,114.11"/>
</g>
</svg>
