<?xml version="1.0" encoding="utf-8"?>
<!-- Generator: Adobe Illustrator 16.0.3, SVG Export Plug-In . SVG Version: 6.00 Build 0)  -->
<!DOCTYPE svg PUBLIC "-//W3C//DTD SVG 1.1//EN" "http://www.w3.org/Graphics/SVG/1.1/DTD/svg11.dtd">
<svg version="1.1" id="Ebene_1" xmlns="http://www.w3.org/2000/svg" xmlns:xlink="http://www.w3.org/1999/xlink" x="0px" y="0px"
	 width="320px" height="180px" viewBox="0 0 320 180" enable-background="new 0 0 320 180" xml:space="preserve">
<g>
	
		<line fill="#A1D5D3" stroke="#A1D5D3" stroke-width="1.032" stroke-miterlimit="10" stroke-dasharray="2.064,2.064" x1="106.785" y1="71.37" x2="213.215" y2="71.37"/>
	
		<line fill="#A1D5D3" stroke="#A1D5D3" stroke-width="1.032" stroke-miterlimit="10" stroke-dasharray="2.064,2.064" x1="106.785" y1="106.481" x2="213.215" y2="106.481"/>
	
		<line fill="#A1D5D3" stroke="#A1D5D3" stroke-width="1.032" stroke-miterlimit="10" stroke-dasharray="2.064,2.064" x1="176.948" y1="138.809" x2="176.948" y2="41.191"/>
	
		<line fill="#A1D5D3" stroke="#A1D5D3" stroke-width="1.032" stroke-miterlimit="10" stroke-dasharray="2.064,2.064" x1="142.059" y1="138.809" x2="142.059" y2="41.191"/>
	<g>
		<g>
			<path fill="none" stroke="#A1D5D3" stroke-miterlimit="10" d="M154.895,89.07c-0.346,0.35-0.684,0.809-1.043,1.609
				c-0.348,0.775-0.836,2.115-0.992,2.859c-1.514-2.396,1.287-4.84,1.971-6.68c-2.553,0.453-4.875,1.406-5.164,4.273
				c-1.201-2.227,0.563-4.537,2.801-4.902c-1.496-0.311-2.828-0.34-4.076-0.006c-0.301,1.059-0.475,2.172-0.475,3.33
				c0,4.846,2.861,9.014,6.979,10.938V89.07z"/>
			<path fill="none" stroke="#A1D5D3" stroke-miterlimit="10" d="M160,77.473c-4.969,0-9.232,3.002-11.088,7.287
				c1.732-0.652,3.799-0.715,5.137-0.338c0,0-0.295-0.031,0.211-0.91c0.494-0.857,1.006-1.301,2.852-2.027
				c-0.797,0.863-0.744,2.143-0.568,3.17c2.871-2.105,6.883-1.047,8.846,1.834c-1.863-1.176-5.291-0.73-5.926-0.699
				c1.627,0.363,2.9,0.707,3.971,1.459c0.738,0.518,1.049,1.408,1.658,3.023c-2.111-1.611-4.311-3.115-7.26-3.07
				c1.648,0.898,2.168,1.879,2.672,3.021c0.699,1.584,0.898,1.24,0.99,3.678c-1.207-1.031-1.715-2.367-2.906-3.594
				c-0.742-0.766-1.4-1.408-1.932-2.213v13.064c1.063,0.305,2.18,0.479,3.344,0.479c6.67,0,12.08-5.41,12.08-12.082
				C172.08,82.881,166.67,77.473,160,77.473z"/>
			<line fill="none" stroke="#A1D5D3" stroke-miterlimit="10" x1="151.676" y1="98.309" x2="154.895" y2="98.365"/>
			<line fill="none" stroke="#A1D5D3" stroke-miterlimit="10" x1="156.656" y1="98.369" x2="167.631" y2="98.922"/>
			<polyline fill="none" stroke="#A1D5D3" stroke-miterlimit="10" points="157.633,93.279 159.998,96.52 169.195,97.387 			"/>
			<line fill="none" stroke="#A1D5D3" stroke-miterlimit="10" x1="161.4" y1="96.652" x2="160.781" y2="98.725"/>
			<ellipse fill="none" stroke="#A1D5D3" stroke-miterlimit="10" cx="159.962" cy="89.555" rx="12.044" ry="12.08"/>
		</g>
		<g>
			<path fill="none" stroke="#A1D5D3" stroke-miterlimit="10" d="M154.895,55.204c-0.346,0.349-0.684,0.808-1.043,1.608
				c-0.348,0.776-0.836,2.116-0.992,2.859c-1.514-2.396,1.287-4.84,1.971-6.68c-2.553,0.454-4.875,1.407-5.164,4.274
				c-1.201-2.227,0.563-4.538,2.801-4.902c-1.496-0.312-2.828-0.341-4.076-0.007c-0.301,1.059-0.475,2.173-0.475,3.33
				c0,4.846,2.861,9.014,6.979,10.938V55.204z"/>
			<path fill="none" stroke="#A1D5D3" stroke-miterlimit="10" d="M160,43.606c-4.969,0-9.232,3.002-11.088,7.287
				c1.732-0.653,3.799-0.716,5.137-0.339c0,0-0.295-0.03,0.211-0.909c0.494-0.858,1.006-1.301,2.852-2.028
				c-0.797,0.863-0.744,2.144-0.568,3.171c2.871-2.106,6.883-1.048,8.846,1.833c-1.863-1.176-5.291-0.729-5.926-0.699
				c1.627,0.363,2.9,0.708,3.971,1.459c0.738,0.518,1.049,1.408,1.658,3.023c-2.111-1.61-4.311-3.114-7.26-3.069
				c1.648,0.897,2.168,1.879,2.672,3.021c0.699,1.583,0.898,1.239,0.99,3.677c-1.207-1.031-1.715-2.367-2.906-3.594
				c-0.742-0.766-1.4-1.407-1.932-2.212v13.063c1.063,0.305,2.18,0.479,3.344,0.479c6.67,0,12.08-5.409,12.08-12.081
				C172.08,49.014,166.67,43.606,160,43.606z"/>
			<line fill="none" stroke="#A1D5D3" stroke-miterlimit="10" x1="151.676" y1="64.441" x2="154.895" y2="64.498"/>
			<line fill="none" stroke="#A1D5D3" stroke-miterlimit="10" x1="156.656" y1="64.502" x2="167.631" y2="65.055"/>
			<polyline fill="none" stroke="#A1D5D3" stroke-miterlimit="10" points="157.633,59.412 159.998,62.653 169.195,63.52 			"/>
			<line fill="none" stroke="#A1D5D3" stroke-miterlimit="10" x1="161.4" y1="62.786" x2="160.781" y2="64.857"/>
			<ellipse fill="none" stroke="#A1D5D3" stroke-miterlimit="10" cx="159.962" cy="55.688" rx="12.044" ry="12.08"/>
		</g>
		<g>
			<path fill="none" stroke="#A1D5D3" stroke-miterlimit="10" d="M154.895,122.938c-0.346,0.349-0.684,0.808-1.043,1.608
				c-0.348,0.776-0.836,2.116-0.992,2.859c-1.514-2.396,1.287-4.84,1.971-6.68c-2.553,0.454-4.875,1.407-5.164,4.274
				c-1.201-2.227,0.563-4.538,2.801-4.902c-1.496-0.312-2.828-0.341-4.076-0.007c-0.301,1.059-0.475,2.173-0.475,3.33
				c0,4.846,2.861,9.014,6.979,10.938V122.938z"/>
			<path fill="none" stroke="#A1D5D3" stroke-miterlimit="10" d="M160,111.34c-4.969,0-9.232,3.002-11.088,7.287
				c1.732-0.653,3.799-0.716,5.137-0.339c0,0-0.295-0.03,0.211-0.909c0.494-0.858,1.006-1.301,2.852-2.028
				c-0.797,0.863-0.744,2.144-0.568,3.171c2.871-2.106,6.883-1.048,8.846,1.833c-1.863-1.176-5.291-0.729-5.926-0.699
				c1.627,0.363,2.9,0.708,3.971,1.459c0.738,0.518,1.049,1.408,1.658,3.023c-2.111-1.61-4.311-3.114-7.26-3.069
				c1.648,0.897,2.168,1.879,2.672,3.021c0.699,1.583,0.898,1.239,0.99,3.677c-1.207-1.031-1.715-2.367-2.906-3.594
				c-0.742-0.766-1.4-1.407-1.932-2.212v13.063c1.063,0.305,2.18,0.479,3.344,0.479c6.67,0,12.08-5.409,12.08-12.081
				C172.08,116.747,166.67,111.34,160,111.34z"/>
			<line fill="none" stroke="#A1D5D3" stroke-miterlimit="10" x1="151.676" y1="132.175" x2="154.895" y2="132.231"/>
			<line fill="none" stroke="#A1D5D3" stroke-miterlimit="10" x1="156.656" y1="132.235" x2="167.631" y2="132.788"/>
			<polyline fill="none" stroke="#A1D5D3" stroke-miterlimit="10" points="157.633,127.146 159.998,130.387 169.195,131.253 			"/>
			<line fill="none" stroke="#A1D5D3" stroke-miterlimit="10" x1="161.4" y1="130.52" x2="160.781" y2="132.591"/>
			<ellipse fill="none" stroke="#A1D5D3" stroke-miterlimit="10" cx="159.962" cy="123.422" rx="12.044" ry="12.08"/>
		</g>
	</g>
	<g>
		<g>
			<path fill="none" stroke="#A1D5D3" stroke-miterlimit="10" d="M189.157,89.07c-0.347,0.35-0.684,0.809-1.043,1.609
				c-0.348,0.775-0.836,2.115-0.992,2.859c-1.514-2.396,1.286-4.84,1.97-6.68c-2.552,0.453-4.874,1.406-5.164,4.273
				c-1.201-2.227,0.563-4.537,2.801-4.902c-1.496-0.311-2.827-0.34-4.075-0.006c-0.302,1.059-0.475,2.172-0.475,3.33
				c0,4.846,2.86,9.014,6.979,10.938V89.07z"/>
			<path fill="none" stroke="#A1D5D3" stroke-miterlimit="10" d="M194.262,77.473c-4.968,0-9.232,3.002-11.087,7.287
				c1.731-0.652,3.799-0.715,5.136-0.338c0,0-0.294-0.031,0.211-0.91c0.495-0.857,1.006-1.301,2.853-2.027
				c-0.798,0.863-0.744,2.143-0.569,3.17c2.872-2.105,6.883-1.047,8.847,1.834c-1.864-1.176-5.292-0.73-5.927-0.699
				c1.628,0.363,2.9,0.707,3.972,1.459c0.737,0.518,1.048,1.408,1.658,3.023c-2.111-1.611-4.311-3.115-7.261-3.07
				c1.649,0.898,2.168,1.879,2.672,3.021c0.699,1.584,0.899,1.24,0.99,3.678c-1.207-1.031-1.715-2.367-2.905-3.594
				c-0.743-0.766-1.4-1.408-1.932-2.213v13.064c1.062,0.305,2.18,0.479,3.343,0.479c6.671,0,12.081-5.41,12.081-12.082
				C206.343,82.881,200.933,77.473,194.262,77.473z"/>
			<line fill="none" stroke="#A1D5D3" stroke-miterlimit="10" x1="185.938" y1="98.309" x2="189.157" y2="98.365"/>
			<line fill="none" stroke="#A1D5D3" stroke-miterlimit="10" x1="190.919" y1="98.369" x2="201.893" y2="98.922"/>
			<polyline fill="none" stroke="#A1D5D3" stroke-miterlimit="10" points="191.896,93.279 194.261,96.52 203.457,97.387 			"/>
			<line fill="none" stroke="#A1D5D3" stroke-miterlimit="10" x1="195.663" y1="96.652" x2="195.044" y2="98.725"/>
			<ellipse fill="none" stroke="#A1D5D3" stroke-miterlimit="10" cx="194.224" cy="89.555" rx="12.044" ry="12.08"/>
		</g>
		<g>
			<path fill="none" stroke="#A1D5D3" stroke-miterlimit="10" d="M189.157,55.204c-0.347,0.349-0.684,0.808-1.043,1.608
				c-0.348,0.776-0.836,2.116-0.992,2.859c-1.514-2.396,1.286-4.84,1.97-6.68c-2.552,0.454-4.874,1.407-5.164,4.274
				c-1.201-2.227,0.563-4.538,2.801-4.902c-1.496-0.312-2.827-0.341-4.075-0.007c-0.302,1.059-0.475,2.173-0.475,3.33
				c0,4.846,2.86,9.014,6.979,10.938V55.204z"/>
			<path fill="none" stroke="#A1D5D3" stroke-miterlimit="10" d="M194.262,43.606c-4.968,0-9.232,3.002-11.087,7.287
				c1.731-0.653,3.799-0.716,5.136-0.339c0,0-0.294-0.03,0.211-0.909c0.495-0.858,1.006-1.301,2.853-2.028
				c-0.798,0.863-0.744,2.144-0.569,3.171c2.872-2.106,6.883-1.048,8.847,1.833c-1.864-1.176-5.292-0.729-5.927-0.699
				c1.628,0.363,2.9,0.708,3.972,1.459c0.737,0.518,1.048,1.408,1.658,3.023c-2.111-1.61-4.311-3.114-7.261-3.069
				c1.649,0.897,2.168,1.879,2.672,3.021c0.699,1.583,0.899,1.239,0.99,3.677c-1.207-1.031-1.715-2.367-2.905-3.594
				c-0.743-0.766-1.4-1.407-1.932-2.212v13.063c1.062,0.305,2.18,0.479,3.343,0.479c6.671,0,12.081-5.409,12.081-12.081
				C206.343,49.014,200.933,43.606,194.262,43.606z"/>
			<line fill="none" stroke="#A1D5D3" stroke-miterlimit="10" x1="185.938" y1="64.441" x2="189.157" y2="64.498"/>
			<line fill="none" stroke="#A1D5D3" stroke-miterlimit="10" x1="190.919" y1="64.502" x2="201.893" y2="65.055"/>
			<polyline fill="none" stroke="#A1D5D3" stroke-miterlimit="10" points="191.896,59.412 194.261,62.653 203.457,63.52 			"/>
			<line fill="none" stroke="#A1D5D3" stroke-miterlimit="10" x1="195.663" y1="62.786" x2="195.044" y2="64.857"/>
			<ellipse fill="none" stroke="#A1D5D3" stroke-miterlimit="10" cx="194.224" cy="55.688" rx="12.044" ry="12.08"/>
		</g>
		<g>
			<path fill="none" stroke="#A1D5D3" stroke-miterlimit="10" d="M189.157,122.938c-0.347,0.349-0.684,0.808-1.043,1.608
				c-0.348,0.776-0.836,2.116-0.992,2.859c-1.514-2.396,1.286-4.84,1.97-6.68c-2.552,0.454-4.874,1.407-5.164,4.274
				c-1.201-2.227,0.563-4.538,2.801-4.902c-1.496-0.312-2.827-0.341-4.075-0.007c-0.302,1.059-0.475,2.173-0.475,3.33
				c0,4.846,2.86,9.014,6.979,10.938V122.938z"/>
			<path fill="none" stroke="#A1D5D3" stroke-miterlimit="10" d="M194.262,111.34c-4.968,0-9.232,3.002-11.087,7.287
				c1.731-0.653,3.799-0.716,5.136-0.339c0,0-0.294-0.03,0.211-0.909c0.495-0.858,1.006-1.301,2.853-2.028
				c-0.798,0.863-0.744,2.144-0.569,3.171c2.872-2.106,6.883-1.048,8.847,1.833c-1.864-1.176-5.292-0.729-5.927-0.699
				c1.628,0.363,2.9,0.708,3.972,1.459c0.737,0.518,1.048,1.408,1.658,3.023c-2.111-1.61-4.311-3.114-7.261-3.069
				c1.649,0.897,2.168,1.879,2.672,3.021c0.699,1.583,0.899,1.239,0.99,3.677c-1.207-1.031-1.715-2.367-2.905-3.594
				c-0.743-0.766-1.4-1.407-1.932-2.212v13.063c1.062,0.305,2.18,0.479,3.343,0.479c6.671,0,12.081-5.409,12.081-12.081
				C206.343,116.747,200.933,111.34,194.262,111.34z"/>
			<line fill="none" stroke="#A1D5D3" stroke-miterlimit="10" x1="185.938" y1="132.175" x2="189.157" y2="132.231"/>
			<line fill="none" stroke="#A1D5D3" stroke-miterlimit="10" x1="190.919" y1="132.235" x2="201.893" y2="132.788"/>
			<polyline fill="none" stroke="#A1D5D3" stroke-miterlimit="10" points="191.896,127.146 194.261,130.387 203.457,131.253 			"/>
			<line fill="none" stroke="#A1D5D3" stroke-miterlimit="10" x1="195.663" y1="130.52" x2="195.044" y2="132.591"/>
			<ellipse fill="none" stroke="#A1D5D3" stroke-miterlimit="10" cx="194.224" cy="123.422" rx="12.044" ry="12.08"/>
		</g>
	</g>
	<g>
		<g>
			<path fill="none" stroke="#A1D5D3" stroke-miterlimit="10" d="M120.633,89.07c-0.347,0.35-0.684,0.809-1.043,1.609
				c-0.348,0.775-0.836,2.115-0.992,2.859c-1.514-2.396,1.286-4.84,1.97-6.68c-2.552,0.453-4.874,1.406-5.164,4.273
				c-1.201-2.227,0.563-4.537,2.801-4.902c-1.496-0.311-2.827-0.34-4.075-0.006c-0.302,1.059-0.475,2.172-0.475,3.33
				c0,4.846,2.86,9.014,6.979,10.938V89.07z"/>
			<path fill="none" stroke="#A1D5D3" stroke-miterlimit="10" d="M125.737,77.473c-4.968,0-9.232,3.002-11.087,7.287
				c1.731-0.652,3.799-0.715,5.136-0.338c0,0-0.294-0.031,0.211-0.91c0.495-0.857,1.006-1.301,2.853-2.027
				c-0.798,0.863-0.744,2.143-0.569,3.17c2.872-2.105,6.883-1.047,8.847,1.834c-1.864-1.176-5.292-0.73-5.927-0.699
				c1.628,0.363,2.9,0.707,3.972,1.459c0.737,0.518,1.048,1.408,1.658,3.023c-2.111-1.611-4.311-3.115-7.261-3.07
				c1.649,0.898,2.168,1.879,2.672,3.021c0.699,1.584,0.899,1.24,0.99,3.678c-1.207-1.031-1.715-2.367-2.905-3.594
				c-0.743-0.766-1.4-1.408-1.932-2.213v13.064c1.062,0.305,2.18,0.479,3.343,0.479c6.671,0,12.081-5.41,12.081-12.082
				C137.818,82.881,132.408,77.473,125.737,77.473z"/>
			<line fill="none" stroke="#A1D5D3" stroke-miterlimit="10" x1="117.413" y1="98.309" x2="120.633" y2="98.365"/>
			<line fill="none" stroke="#A1D5D3" stroke-miterlimit="10" x1="122.395" y1="98.369" x2="133.368" y2="98.922"/>
			<polyline fill="none" stroke="#A1D5D3" stroke-miterlimit="10" points="123.371,93.279 125.736,96.52 134.933,97.387 			"/>
			<line fill="none" stroke="#A1D5D3" stroke-miterlimit="10" x1="127.139" y1="96.652" x2="126.52" y2="98.725"/>
			<ellipse fill="none" stroke="#A1D5D3" stroke-miterlimit="10" cx="125.699" cy="89.555" rx="12.044" ry="12.08"/>
		</g>
		<g>
			<path fill="none" stroke="#A1D5D3" stroke-miterlimit="10" d="M120.633,55.204c-0.347,0.349-0.684,0.808-1.043,1.608
				c-0.348,0.776-0.836,2.116-0.992,2.859c-1.514-2.396,1.286-4.84,1.97-6.68c-2.552,0.454-4.874,1.407-5.164,4.274
				c-1.201-2.227,0.563-4.538,2.801-4.902c-1.496-0.312-2.827-0.341-4.075-0.007c-0.302,1.059-0.475,2.173-0.475,3.33
				c0,4.846,2.86,9.014,6.979,10.938V55.204z"/>
			<path fill="none" stroke="#A1D5D3" stroke-miterlimit="10" d="M125.737,43.606c-4.968,0-9.232,3.002-11.087,7.287
				c1.731-0.653,3.799-0.716,5.136-0.339c0,0-0.294-0.03,0.211-0.909c0.495-0.858,1.006-1.301,2.853-2.028
				c-0.798,0.863-0.744,2.144-0.569,3.171c2.872-2.106,6.883-1.048,8.847,1.833c-1.864-1.176-5.292-0.729-5.927-0.699
				c1.628,0.363,2.9,0.708,3.972,1.459c0.737,0.518,1.048,1.408,1.658,3.023c-2.111-1.61-4.311-3.114-7.261-3.069
				c1.649,0.897,2.168,1.879,2.672,3.021c0.699,1.583,0.899,1.239,0.99,3.677c-1.207-1.031-1.715-2.367-2.905-3.594
				c-0.743-0.766-1.4-1.407-1.932-2.212v13.063c1.062,0.305,2.18,0.479,3.343,0.479c6.671,0,12.081-5.409,12.081-12.081
				C137.818,49.014,132.408,43.606,125.737,43.606z"/>
			<line fill="none" stroke="#A1D5D3" stroke-miterlimit="10" x1="117.413" y1="64.441" x2="120.633" y2="64.498"/>
			<line fill="none" stroke="#A1D5D3" stroke-miterlimit="10" x1="122.395" y1="64.502" x2="133.368" y2="65.055"/>
			<polyline fill="none" stroke="#A1D5D3" stroke-miterlimit="10" points="123.371,59.412 125.736,62.653 134.933,63.52 			"/>
			<line fill="none" stroke="#A1D5D3" stroke-miterlimit="10" x1="127.139" y1="62.786" x2="126.52" y2="64.857"/>
			<ellipse fill="none" stroke="#A1D5D3" stroke-miterlimit="10" cx="125.699" cy="55.688" rx="12.044" ry="12.08"/>
		</g>
		<g>
			<path fill="none" stroke="#A1D5D3" stroke-miterlimit="10" d="M120.633,122.938c-0.347,0.349-0.684,0.808-1.043,1.608
				c-0.348,0.776-0.836,2.116-0.992,2.859c-1.514-2.396,1.286-4.84,1.97-6.68c-2.552,0.454-4.874,1.407-5.164,4.274
				c-1.201-2.227,0.563-4.538,2.801-4.902c-1.496-0.312-2.827-0.341-4.075-0.007c-0.302,1.059-0.475,2.173-0.475,3.33
				c0,4.846,2.86,9.014,6.979,10.938V122.938z"/>
			<path fill="none" stroke="#A1D5D3" stroke-miterlimit="10" d="M125.737,111.34c-4.968,0-9.232,3.002-11.087,7.287
				c1.731-0.653,3.799-0.716,5.136-0.339c0,0-0.294-0.03,0.211-0.909c0.495-0.858,1.006-1.301,2.853-2.028
				c-0.798,0.863-0.744,2.144-0.569,3.171c2.872-2.106,6.883-1.048,8.847,1.833c-1.864-1.176-5.292-0.729-5.927-0.699
				c1.628,0.363,2.9,0.708,3.972,1.459c0.737,0.518,1.048,1.408,1.658,3.023c-2.111-1.61-4.311-3.114-7.261-3.069
				c1.649,0.897,2.168,1.879,2.672,3.021c0.699,1.583,0.899,1.239,0.99,3.677c-1.207-1.031-1.715-2.367-2.905-3.594
				c-0.743-0.766-1.4-1.407-1.932-2.212v13.063c1.062,0.305,2.18,0.479,3.343,0.479c6.671,0,12.081-5.409,12.081-12.081
				C137.818,116.747,132.408,111.34,125.737,111.34z"/>
			<line fill="none" stroke="#A1D5D3" stroke-miterlimit="10" x1="117.413" y1="132.175" x2="120.633" y2="132.231"/>
			<line fill="none" stroke="#A1D5D3" stroke-miterlimit="10" x1="122.395" y1="132.235" x2="133.368" y2="132.788"/>
			<polyline fill="none" stroke="#A1D5D3" stroke-miterlimit="10" points="123.371,127.146 125.736,130.387 134.933,131.253 			"/>
			<line fill="none" stroke="#A1D5D3" stroke-miterlimit="10" x1="127.139" y1="130.52" x2="126.52" y2="132.591"/>
			<ellipse fill="none" stroke="#A1D5D3" stroke-miterlimit="10" cx="125.699" cy="123.422" rx="12.044" ry="12.08"/>
		</g>
	</g>
</g>
</svg>
