<?xml version="1.0" encoding="utf-8"?>
<!-- Generator: Adobe Illustrator 16.0.3, SVG Export Plug-In . SVG Version: 6.00 Build 0)  -->
<!DOCTYPE svg PUBLIC "-//W3C//DTD SVG 1.1//EN" "http://www.w3.org/Graphics/SVG/1.1/DTD/svg11.dtd">
<svg version="1.1" id="Ebene_1" xmlns="http://www.w3.org/2000/svg" xmlns:xlink="http://www.w3.org/1999/xlink" x="0px" y="0px"
	 width="320px" height="180px" viewBox="0 0 320 180" enable-background="new 0 0 320 180" xml:space="preserve">
<g>
	<g>
		<path fill="none" d="M123.016,96.302c1.461,9.234,6.214,17.134,12.88,22.705 M155.514,127.481c3.367,0.4,6.846,0.349,10.361-0.208
			c5.338-0.846,10.233-2.775,14.496-5.525 M194.357,105.373c2.792-6.322,3.856-13.485,2.697-20.808
			c-1.896-11.963-9.312-21.686-19.256-27.008"/>
		<g>
			<g>
				<g>
					<polygon fill="#A1D5D3" points="195.912,103.097 194.809,102.702 193.836,105.143 194.908,105.616 					"/>
					<path fill="#A1D5D3" d="M197.049,99.224l-1.14-0.275c0,0-0.156,0.638-0.313,1.276c-0.198,0.626-0.396,1.253-0.396,1.253
						l1.117,0.356c0,0,0.204-0.646,0.407-1.293C196.888,99.882,197.049,99.224,197.049,99.224z"/>
					<path fill="#A1D5D3" d="M197.801,95.258l-1.162-0.151c-0.001,0-0.012,0.164-0.059,0.406c-0.041,0.243-0.097,0.567-0.152,0.89
						c-0.11,0.648-0.221,1.295-0.221,1.295l1.148,0.234c0,0,0.114-0.668,0.229-1.336c0.057-0.334,0.114-0.668,0.156-0.919
						C197.789,95.428,197.801,95.258,197.801,95.258z"/>
					<path fill="#A1D5D3" d="M198.087,91.231l-1.173-0.025c0,0-0.017,0.656-0.033,1.313c-0.043,0.655-0.117,1.308-0.117,1.308
						l1.167,0.11c0,0,0.077-0.674,0.121-1.35C198.069,91.909,198.087,91.231,198.087,91.231z"/>
					<polygon fill="#A1D5D3" points="197.979,87.196 196.812,87.296 196.939,89.921 198.112,89.905 					"/>
					<path fill="#A1D5D3" d="M197.409,83.2l-1.151,0.222c0,0,0.12,0.646,0.24,1.292c0.079,0.652,0.158,1.304,0.158,1.304l1.164-0.14
						c0,0-0.082-0.673-0.163-1.346C197.533,83.866,197.409,83.2,197.409,83.2z"/>
					<path fill="#A1D5D3" d="M196.437,79.284l-1.121,0.344c0,0,0.22,0.62,0.364,1.262c0.16,0.637,0.32,1.274,0.32,1.274l1.144-0.263
						c0,0-0.166-0.657-0.331-1.314C196.663,79.924,196.437,79.284,196.437,79.284z"/>
				</g>
			</g>
			<g>
				<g>
					<path fill="#A1D5D3" d="M195.054,75.491l-1.078,0.462c0,0,0.066,0.15,0.166,0.375c0.088,0.23,0.205,0.537,0.323,0.843
						c0.117,0.307,0.234,0.614,0.322,0.844c0.093,0.229,0.14,0.386,0.14,0.386l1.108-0.383c0,0-0.049-0.162-0.144-0.398
						c-0.091-0.237-0.212-0.554-0.333-0.871c-0.122-0.317-0.243-0.633-0.334-0.871C195.122,75.646,195.054,75.491,195.054,75.491z"
						/>
					<path fill="#A1D5D3" d="M193.273,71.867l-1.022,0.575c0,0,0.306,0.582,0.611,1.163c0.317,0.576,0.583,1.176,0.584,1.176
						l1.061-0.5c0,0-0.275-0.62-0.603-1.214C193.589,72.467,193.273,71.867,193.273,71.867z"/>
					<path fill="#A1D5D3" d="M191.101,68.464l-0.954,0.681c0,0,0.37,0.542,0.741,1.085c0.19,0.268,0.368,0.544,0.489,0.759
						c0.127,0.211,0.212,0.352,0.212,0.352l1.001-0.611c0,0-0.088-0.145-0.219-0.363c-0.126-0.222-0.31-0.506-0.506-0.783
						C191.483,69.024,191.101,68.464,191.101,68.464z"/>
					<path fill="#A1D5D3" d="M188.579,65.312l-0.876,0.779c0,0,0.43,0.497,0.859,0.993c0.421,0.504,0.813,1.033,0.812,1.033
						l0.931-0.715c0,0-0.404-0.545-0.838-1.065C189.022,65.824,188.579,65.312,188.579,65.312z"/>
					<path fill="#A1D5D3" d="M185.739,62.445l-0.789,0.868c0,0,0.482,0.446,0.966,0.891c0.457,0.472,0.915,0.943,0.915,0.943
						l0.848-0.81c0,0-0.472-0.486-0.944-0.973C186.236,62.905,185.739,62.445,185.739,62.445z"/>
					<path fill="#A1D5D3" d="M182.612,59.894l-0.692,0.946c0,0,0.539,0.375,1.051,0.788c0.508,0.417,1.015,0.834,1.015,0.834
						l0.758-0.895c0,0-0.523-0.431-1.047-0.861C183.169,60.281,182.612,59.893,182.612,59.894z"/>
					<path fill="#A1D5D3" d="M179.235,57.686l-0.589,1.014c0,0,0.143,0.082,0.356,0.204c0.218,0.117,0.496,0.291,0.769,0.473
						c0.552,0.358,1.103,0.715,1.103,0.715l0.659-0.97c0,0-0.568-0.369-1.137-0.738c-0.282-0.188-0.569-0.367-0.793-0.488
						C179.383,57.77,179.235,57.686,179.235,57.686z"/>
				</g>
			</g>
		</g>
		<g>
			<g>
				<polygon fill="#A1D5D3" points="157.969,128.293 158.029,127.122 155.581,126.915 155.442,128.08 				"/>
				<path fill="#A1D5D3" d="M161.742,128.281l-0.055-1.171c0,0-0.613,0.044-1.228,0.054c-0.614-0.01-1.229-0.02-1.229-0.02
					l-0.022,1.172c0,0,0.634,0.01,1.268,0.02C161.11,128.326,161.742,128.281,161.742,128.281z"/>
				<path fill="#A1D5D3" d="M165.498,127.926l-0.169-1.161c0,0-0.61,0.075-1.22,0.15c-0.305,0.038-0.61,0.075-0.839,0.104
					c-0.229,0.023-0.383,0.026-0.383,0.026l0.093,1.169c0,0,0.159-0.003,0.396-0.027c0.235-0.029,0.55-0.067,0.864-0.106
					C164.869,128.004,165.498,127.926,165.498,127.926z"/>
				<polygon fill="#A1D5D3" points="169.198,127.182 168.916,126.043 166.513,126.555 166.719,127.709 				"/>
				<polygon fill="#A1D5D3" points="172.809,126.091 172.416,124.986 170.08,125.747 170.398,126.875 				"/>
				<polygon fill="#A1D5D3" points="176.296,124.651 175.796,123.59 173.551,124.59 173.979,125.682 				"/>
				<polygon fill="#A1D5D3" points="179.622,122.874 179.019,121.868 176.889,123.093 177.424,124.136 				"/>
			</g>
		</g>
		<g>
			<g>
				<polygon fill="#A1D5D3" points="122.944,98.942 124.087,98.68 123.579,96.213 122.421,96.396 				"/>
				<polygon fill="#A1D5D3" points="123.988,102.667 125.099,102.29 124.365,99.88 123.231,100.18 				"/>
				<polygon fill="#A1D5D3" points="125.404,106.268 126.47,105.778 125.52,103.446 124.423,103.86 				"/>
				<path fill="#A1D5D3" d="M127.211,109.69l1.01-0.597c0,0-0.084-0.133-0.211-0.332c-0.109-0.209-0.255-0.489-0.399-0.768
					c-0.29-0.559-0.579-1.118-0.579-1.118l-1.048,0.525c0,0,0.299,0.577,0.598,1.154c0.149,0.288,0.3,0.576,0.412,0.792
					C127.124,109.553,127.211,109.69,127.211,109.69z"/>
				<path fill="#A1D5D3" d="M129.36,112.907l0.943-0.698c0,0-0.097-0.125-0.24-0.312c-0.144-0.188-0.345-0.431-0.504-0.703
					c-0.338-0.531-0.677-1.063-0.677-1.063l-0.988,0.631c0,0,0.35,0.548,0.699,1.096c0.165,0.281,0.371,0.532,0.52,0.726
					C129.262,112.778,129.36,112.907,129.36,112.907z"/>
				<path fill="#A1D5D3" d="M131.822,115.891l0.867-0.791c0,0-0.427-0.463-0.854-0.926c-0.408-0.478-0.78-0.987-0.78-0.988
					l-0.919,0.729c0,0,0.385,0.525,0.806,1.019C131.383,115.412,131.822,115.891,131.822,115.891z"/>
				<path fill="#A1D5D3" d="M134.568,118.612l0.782-0.874c0,0-1.874-1.684-1.827-1.731l-0.84,0.819
					C132.637,116.874,134.569,118.612,134.568,118.612z"/>
			</g>
		</g>
	</g>
</g>
<g>
	<g>
		<path fill="none" d="M106.282,98.938c2.117,13.383,9.007,24.831,18.666,32.903 M153.38,144.124
			c4.879,0.58,9.92,0.506,15.015-0.302c7.736-1.225,14.83-4.021,21.008-8.008 M209.672,112.084
			c4.046-9.162,5.589-19.542,3.907-30.154c-2.748-17.336-13.494-31.427-27.904-39.141"/>
		<g>
			<g>
				<g>
					<polygon fill="#A1D5D3" points="211.192,109.907 210.099,109.485 209.15,111.854 210.223,112.327 					"/>
					<polygon fill="#A1D5D3" points="212.46,106.239 211.338,105.896 210.558,108.325 211.661,108.721 					"/>
					<polygon fill="#A1D5D3" points="213.461,102.49 212.318,102.228 211.711,104.706 212.84,105.022 					"/>
					<polygon fill="#A1D5D3" points="214.191,98.678 213.032,98.499 212.603,101.013 213.752,101.247 					"/>
					<polygon fill="#A1D5D3" points="214.646,94.823 213.477,94.728 213.229,97.267 214.392,97.418 					"/>
					<polygon fill="#A1D5D3" points="214.821,90.945 213.648,90.934 213.584,93.484 214.755,93.552 					"/>
					<polygon fill="#A1D5D3" points="214.719,87.067 213.548,87.139 213.67,89.687 214.842,89.671 					"/>
				</g>
			</g>
			<g>
				<g>
					<polygon fill="#A1D5D3" points="214.34,83.205 213.178,83.359 213.485,85.892 214.653,85.792 					"/>
					<polygon fill="#A1D5D3" points="213.709,79.376 212.56,79.612 213.028,82.12 214.187,81.938 					"/>
					<polygon fill="#A1D5D3" points="212.807,75.601 211.678,75.917 212.301,78.392 213.443,78.129 					"/>
					<path fill="#A1D5D3" d="M211.619,71.905l-1.104,0.396c0,0,0.058,0.149,0.143,0.372c0.073,0.228,0.171,0.531,0.268,0.835
						c0.192,0.608,0.385,1.216,0.385,1.216l1.122-0.343c0,0-0.197-0.621-0.394-1.243c-0.1-0.31-0.199-0.62-0.273-0.853
						C211.678,72.057,211.619,71.905,211.619,71.905z"/>
					<path fill="#A1D5D3" d="M210.168,68.305l-1.072,0.475c0,0,0.271,0.578,0.518,1.166c0.229,0.596,0.456,1.191,0.456,1.191
						l1.094-0.422c0,0-0.233-0.608-0.466-1.217C210.445,68.896,210.168,68.305,210.168,68.305z"/>
					<path fill="#A1D5D3" d="M208.47,64.814l-1.035,0.55c0,0,0.296,0.564,0.593,1.129c0.312,0.558,0.554,1.148,0.554,1.148
						l1.062-0.5c0,0-0.249-0.604-0.566-1.173C208.772,65.391,208.47,64.814,208.47,64.814z"/>
					<polygon fill="#A1D5D3" points="206.535,61.45 205.541,62.073 206.854,64.259 207.877,63.685 					"/>
				</g>
			</g>
			<g>
				<g>
					<path fill="#A1D5D3" d="M204.361,58.233l-0.946,0.692c0,0,0.103,0.122,0.234,0.322c0.135,0.198,0.314,0.461,0.494,0.724
						c0.359,0.527,0.72,1.053,0.72,1.053l0.979-0.646c0,0-0.368-0.539-0.735-1.077c-0.185-0.269-0.368-0.538-0.506-0.74
						C204.467,58.357,204.361,58.233,204.361,58.233z"/>
					<path fill="#A1D5D3" d="M201.948,55.192l-0.895,0.758c0,0,0.432,0.471,0.82,0.976c0.39,0.505,0.778,1.011,0.778,1.011
						l0.931-0.715c0,0-0.398-0.516-0.796-1.032C202.389,55.674,201.948,55.192,201.948,55.192z"/>
					<path fill="#A1D5D3" d="M199.333,52.325l-0.838,0.82c0,0,0.444,0.458,0.888,0.916c0.228,0.224,0.439,0.462,0.593,0.646
						c0.156,0.181,0.261,0.301,0.261,0.301l0.877-0.779c0,0-0.106-0.124-0.267-0.308c-0.157-0.188-0.374-0.431-0.605-0.66
						C199.787,52.792,199.333,52.325,199.333,52.325z"/>
					<polygon fill="#A1D5D3" points="196.529,49.641 195.751,50.518 197.625,52.248 198.444,51.409 					"/>
					<path fill="#A1D5D3" d="M193.542,47.163l-0.715,0.93c0,0,0.135,0.087,0.316,0.243c0.185,0.152,0.431,0.354,0.678,0.557
						c0.492,0.405,0.985,0.81,0.985,0.81l0.758-0.895c0,0-0.504-0.414-1.007-0.828c-0.252-0.207-0.504-0.414-0.692-0.569
						C193.68,47.252,193.542,47.163,193.542,47.163z"/>
					<path fill="#A1D5D3" d="M190.376,44.917l-0.647,0.978c0,0,0.544,0.335,1.062,0.707c0.515,0.377,1.029,0.753,1.029,0.753
						l0.693-0.946c0,0-0.526-0.385-1.052-0.77C190.932,45.26,190.376,44.917,190.376,44.917z"/>
					<path fill="#A1D5D3" d="M187.067,42.892l-0.577,1.021c0,0,0.553,0.317,1.106,0.633c0.279,0.155,0.554,0.318,0.751,0.453
						c0.2,0.13,0.334,0.217,0.334,0.217l0.625-0.993c0,0-0.137-0.088-0.342-0.222c-0.202-0.138-0.481-0.305-0.767-0.463
						C187.633,43.215,187.067,42.892,187.067,42.892z"/>
				</g>
			</g>
		</g>
		<g>
			<g>
				<polygon fill="#A1D5D3" points="156.953,145.029 157.014,143.858 153.447,143.557 153.309,144.722 				"/>
				<path fill="#A1D5D3" d="M162.396,145.011l-0.055-1.171c0,0-0.894,0.065-1.788,0.079c-0.895-0.014-1.789-0.028-1.789-0.028
					l-0.022,1.173c0,0,0.914,0.014,1.829,0.028C161.483,145.077,162.396,145.012,162.396,145.011z"/>
				<path fill="#A1D5D3" d="M167.813,144.5l-0.169-1.16c0,0-0.889,0.109-1.777,0.219c-0.443,0.055-0.888,0.11-1.221,0.151
					c-0.334,0.034-0.558,0.038-0.558,0.038l0.093,1.169c0,0,0.229-0.004,0.57-0.039c0.34-0.042,0.794-0.098,1.247-0.153
					C166.906,144.612,167.813,144.5,167.813,144.5z"/>
				<path fill="#A1D5D3" d="M173.154,143.454l-0.281-1.138c0,0-0.87,0.208-1.74,0.417c-0.88,0.163-1.76,0.326-1.76,0.326
					l0.207,1.154c0,0,0.898-0.167,1.797-0.333C172.266,143.667,173.154,143.454,173.154,143.454z"/>
				<path fill="#A1D5D3" d="M178.366,141.888l-0.393-1.105c0.001,0-0.837,0.318-1.692,0.58c-0.857,0.254-1.715,0.509-1.715,0.509
					l0.318,1.129c0,0,0.876-0.26,1.752-0.521C177.511,142.212,178.366,141.889,178.366,141.888z"/>
				<path fill="#A1D5D3" d="M183.399,139.814l-0.5-1.061c0,0-0.202,0.097-0.505,0.241c-0.3,0.15-0.707,0.336-1.123,0.5
					c-0.826,0.342-1.653,0.685-1.653,0.685l0.429,1.092c0,0,0.845-0.35,1.689-0.7c0.425-0.168,0.841-0.358,1.147-0.511
					C183.193,139.913,183.399,139.814,183.399,139.814z"/>
				<path fill="#A1D5D3" d="M188.2,137.252l-0.604-1.006c0.001,0-0.751,0.487-1.548,0.896c-0.786,0.426-1.572,0.852-1.572,0.852
					l0.534,1.043c0,0,0.804-0.435,1.607-0.871C187.433,137.749,188.2,137.252,188.2,137.252z"/>
			</g>
		</g>
		<g>
			<g>
				<polygon fill="#A1D5D3" points="106.442,102.703 107.586,102.441 106.846,98.849 105.688,99.032 				"/>
				<polygon fill="#A1D5D3" points="107.947,108.074 109.059,107.697 107.99,104.188 106.857,104.488 				"/>
				<polygon fill="#A1D5D3" points="109.989,113.267 111.055,112.777 109.672,109.381 108.574,109.795 				"/>
				<path fill="#A1D5D3" d="M112.596,118.202l1.01-0.597c0,0-0.123-0.193-0.309-0.483c-0.158-0.305-0.369-0.711-0.581-1.118
					c-0.421-0.814-0.843-1.628-0.843-1.628l-1.048,0.525c0,0,0.431,0.832,0.861,1.664c0.217,0.416,0.433,0.831,0.595,1.143
					C112.471,118.004,112.596,118.202,112.596,118.202z"/>
				<path fill="#A1D5D3" d="M115.695,122.84l0.943-0.698c0,0-0.141-0.182-0.351-0.454c-0.208-0.273-0.501-0.627-0.732-1.024
					c-0.493-0.773-0.985-1.547-0.985-1.547l-0.988,0.631c0,0,0.503,0.79,1.007,1.581c0.238,0.405,0.536,0.768,0.749,1.047
					C115.553,122.654,115.695,122.84,115.695,122.84z"/>
				<path fill="#A1D5D3" d="M119.246,127.143l0.866-0.79c0,0-0.621-0.675-1.242-1.349c-0.315-0.333-0.569-0.718-0.787-0.984
					c-0.21-0.272-0.35-0.454-0.35-0.454l-0.918,0.729c0,0,0.143,0.186,0.356,0.464c0.223,0.271,0.483,0.665,0.805,1.005
					C118.611,126.453,119.246,127.143,119.246,127.143z"/>
				<path fill="#A1D5D3" d="M123.206,131.067l0.781-0.875c0.001,0-2.729-2.452-2.66-2.52l-0.84,0.819
					C120.419,128.561,123.206,131.067,123.206,131.067z"/>
			</g>
		</g>
	</g>
</g>
<g>
	<g>
		<path fill="none" d="M114.273,97.68c1.806,11.401,7.673,21.154,15.903,28.033 M154.398,136.176
			c4.157,0.494,8.452,0.431,12.793-0.258c6.59-1.044,12.635-3.426,17.898-6.821 M202.356,108.879
			c3.448-7.806,4.763-16.65,3.331-25.691c-2.341-14.77-11.496-26.774-23.775-33.345"/>
		<g>
			<g>
				<g>
					<polygon fill="#A1D5D3" points="204.144,106.021 203.039,105.625 201.835,108.648 202.907,109.122 					"/>
					<path fill="#A1D5D3" d="M205.543,101.253l-1.14-0.275c0,0-0.194,0.79-0.388,1.58c-0.244,0.775-0.489,1.551-0.489,1.551
						l1.117,0.357c0,0,0.251-0.796,0.501-1.592C205.344,102.064,205.543,101.253,205.543,101.253z"/>
					<path fill="#A1D5D3" d="M206.469,96.372l-1.163-0.151c0,0-0.013,0.203-0.071,0.503c-0.052,0.301-0.12,0.702-0.188,1.103
						c-0.138,0.802-0.274,1.604-0.274,1.604l1.149,0.235c0,0,0.141-0.823,0.281-1.646c0.07-0.411,0.141-0.823,0.193-1.131
						C206.455,96.581,206.469,96.372,206.469,96.372z"/>
					<path fill="#A1D5D3" d="M206.82,91.416l-1.172-0.025c0,0-0.021,0.813-0.041,1.626c-0.054,0.811-0.146,1.62-0.146,1.62
						l1.168,0.11c0,0,0.095-0.83,0.148-1.662C206.799,92.25,206.82,91.416,206.82,91.416z"/>
					<polygon fill="#A1D5D3" points="206.688,86.448 205.521,86.548 205.68,89.798 206.852,89.783 					"/>
					<path fill="#A1D5D3" d="M205.986,81.529l-1.151,0.222c0,0,0.149,0.8,0.298,1.6c0.098,0.808,0.195,1.616,0.195,1.616
						l1.164-0.141c0,0-0.1-0.828-0.2-1.657C206.139,82.349,205.986,81.529,205.986,81.529z"/>
					<path fill="#A1D5D3" d="M204.789,76.709l-1.121,0.344c0,0,0.062,0.194,0.153,0.485c0.101,0.288,0.201,0.682,0.298,1.078
						c0.198,0.789,0.397,1.577,0.397,1.577l1.143-0.262c0,0-0.204-0.809-0.407-1.618c-0.1-0.405-0.203-0.81-0.306-1.105
						C204.852,76.908,204.789,76.709,204.789,76.709z"/>
				</g>
			</g>
			<g>
				<g>
					<path fill="#A1D5D3" d="M203.088,72.04l-1.078,0.462c0,0,0.082,0.186,0.205,0.465c0.109,0.285,0.254,0.665,0.399,1.044
						s0.291,0.76,0.4,1.044c0.114,0.283,0.173,0.478,0.173,0.478l1.108-0.383c0,0-0.061-0.2-0.177-0.49
						c-0.112-0.292-0.262-0.682-0.411-1.072s-0.298-0.779-0.41-1.072C203.172,72.23,203.088,72.04,203.088,72.04z"/>
					<path fill="#A1D5D3" d="M200.896,67.579l-1.021,0.575c0,0,0.378,0.72,0.756,1.44c0.187,0.361,0.385,0.717,0.515,0.993
						c0.125,0.278,0.209,0.463,0.209,0.463l1.061-0.5c0,0-0.086-0.19-0.215-0.475c-0.133-0.283-0.336-0.648-0.527-1.02
						C201.284,68.318,200.896,67.579,200.896,67.579z"/>
					<path fill="#A1D5D3" d="M198.222,63.39l-0.954,0.682c0,0,0.459,0.672,0.917,1.344c0.235,0.332,0.456,0.673,0.606,0.939
						c0.157,0.262,0.263,0.436,0.263,0.436l1.001-0.611c0,0-0.107-0.179-0.27-0.447c-0.154-0.272-0.381-0.623-0.622-0.964
						C198.692,64.08,198.222,63.39,198.222,63.39z"/>
					<path fill="#A1D5D3" d="M195.117,59.51l-0.876,0.779c0,0,0.532,0.615,1.065,1.23c0.521,0.625,1.005,1.278,1.005,1.278
						l0.93-0.714c0,0-0.497-0.671-1.031-1.312C195.664,60.141,195.117,59.51,195.117,59.51z"/>
					<path fill="#A1D5D3" d="M191.621,55.981l-0.789,0.868c0,0,0.598,0.552,1.196,1.104c0.566,0.584,1.133,1.168,1.133,1.168
						l0.849-0.81c0,0-0.582-0.599-1.163-1.198C192.234,56.547,191.621,55.981,191.621,55.981z"/>
					<path fill="#A1D5D3" d="M187.771,52.84l-0.692,0.946c0,0,0.669,0.465,1.302,0.976c0.628,0.517,1.257,1.033,1.257,1.033
						l0.758-0.895c0,0-0.645-0.53-1.289-1.06C188.457,53.318,187.771,52.84,187.771,52.84z"/>
					<path fill="#A1D5D3" d="M183.615,50.123l-0.589,1.014c0,0,0.177,0.101,0.441,0.252c0.269,0.145,0.613,0.36,0.952,0.586
						c0.683,0.443,1.365,0.886,1.365,0.886l0.658-0.97c0,0-0.699-0.454-1.399-0.908c-0.347-0.231-0.7-0.452-0.977-0.601
						C183.796,50.226,183.615,50.123,183.615,50.123z"/>
				</g>
			</g>
		</g>
		<g>
			<g>
				<polygon fill="#A1D5D3" points="157.438,137.036 157.498,135.865 154.466,135.609 154.327,136.774 				"/>
				<path fill="#A1D5D3" d="M162.083,137.021l-0.056-1.171c0,0-0.76,0.055-1.52,0.067c-0.761-0.012-1.521-0.024-1.521-0.024
					l-0.022,1.173c0,0,0.78,0.012,1.561,0.024C161.304,137.077,162.083,137.021,162.083,137.021z"/>
				<path fill="#A1D5D3" d="M166.706,136.584l-0.169-1.16c0,0-0.756,0.093-1.511,0.186c-0.378,0.046-0.755,0.093-1.038,0.128
					c-0.284,0.028-0.475,0.032-0.475,0.032l0.094,1.169c0,0,0.195-0.004,0.486-0.033c0.29-0.036,0.677-0.083,1.064-0.131
					C165.932,136.68,166.706,136.584,166.706,136.584z"/>
				<polygon fill="#A1D5D3" points="171.26,135.668 170.979,134.529 168.002,135.163 168.209,136.317 				"/>
				<polygon fill="#A1D5D3" points="175.705,134.326 175.313,133.221 172.42,134.163 172.737,135.291 				"/>
				<polygon fill="#A1D5D3" points="179.998,132.553 179.498,131.492 176.719,132.729 177.146,133.821 				"/>
				<polygon fill="#A1D5D3" points="184.092,130.365 183.488,129.359 180.852,130.876 181.387,131.919 				"/>
			</g>
		</g>
		<g>
			<g>
				<polygon fill="#A1D5D3" points="114.323,100.908 115.467,100.646 114.837,97.59 113.679,97.774 				"/>
				<polygon fill="#A1D5D3" points="115.608,105.492 116.719,105.115 115.812,102.131 114.678,102.431 				"/>
				<polygon fill="#A1D5D3" points="117.352,109.925 118.418,109.435 117.241,106.547 116.145,106.961 				"/>
				<path fill="#A1D5D3" d="M119.577,114.137l1.009-0.597c0,0-0.104-0.165-0.262-0.411c-0.135-0.26-0.314-0.605-0.494-0.951
					c-0.358-0.692-0.717-1.384-0.717-1.384l-1.049,0.525c0,0,0.368,0.71,0.736,1.42c0.185,0.355,0.369,0.709,0.508,0.976
					C119.47,113.968,119.577,114.137,119.577,114.137z"/>
				<path fill="#A1D5D3" d="M122.223,118.097l0.942-0.698c0,0-0.119-0.154-0.298-0.386c-0.177-0.232-0.426-0.534-0.623-0.871
					c-0.419-0.658-0.838-1.315-0.838-1.315l-0.988,0.631c0,0,0.43,0.674,0.86,1.349c0.203,0.346,0.457,0.655,0.64,0.894
					C122.101,117.938,122.223,118.097,122.223,118.097z"/>
				<path fill="#A1D5D3" d="M125.253,121.769l0.866-0.79c0,0-0.528-0.574-1.057-1.147c-0.269-0.283-0.483-0.611-0.669-0.837
					c-0.178-0.232-0.297-0.386-0.297-0.386l-0.919,0.729c0,0,0.122,0.158,0.305,0.396c0.19,0.232,0.412,0.567,0.688,0.858
					C124.711,121.181,125.253,121.769,125.253,121.769z"/>
				<path fill="#A1D5D3" d="M128.633,125.119l0.782-0.874c0,0-2.321-2.085-2.263-2.144l-0.84,0.819
					C126.254,122.979,128.633,125.119,128.633,125.119z"/>
			</g>
		</g>
	</g>
</g>
<g>
	<g>
		<g>
			<g>
				<g>
					<polygon fill="#A1D5D3" points="161.856,52.172 161.785,53.343 164.401,53.593 164.556,52.43 					"/>
					<path fill="#A1D5D3" d="M157.819,52.165l0.056,1.171c0,0,0.656-0.029,1.313-0.057c0.656,0.014,1.313,0.028,1.313,0.028
						l0.03-1.172c0,0-0.678-0.015-1.355-0.029C158.497,52.136,157.819,52.165,157.819,52.165z"/>
					<path fill="#A1D5D3" d="M153.802,52.553l0.181,1.159c0,0,0.161-0.036,0.406-0.058c0.245-0.028,0.571-0.065,0.897-0.103
						c0.652-0.075,1.305-0.15,1.305-0.15l-0.096-1.169c0,0-0.674,0.077-1.348,0.154c-0.337,0.039-0.674,0.078-0.926,0.107
						C153.968,52.517,153.802,52.553,153.802,52.553z"/>
					<path fill="#A1D5D3" d="M149.856,53.407l0.304,1.132c0,0,0.635-0.168,1.27-0.336c0.641-0.142,1.289-0.253,1.289-0.253
						l-0.222-1.151c0,0-0.669,0.115-1.33,0.262C150.512,53.233,149.856,53.407,149.856,53.407z"/>
					<polygon fill="#A1D5D3" points="146.013,54.639 146.436,55.733 148.919,54.875 148.575,53.753 					"/>
					<path fill="#A1D5D3" d="M142.336,56.306l0.536,1.043c0,0,0.586-0.296,1.173-0.593c0.604-0.258,1.208-0.517,1.208-0.517
						l-0.461-1.078c0,0-0.623,0.267-1.246,0.534C142.94,56,142.336,56.306,142.336,56.306z"/>
					<path fill="#A1D5D3" d="M138.85,58.336l0.644,0.98c0,0,0.533-0.385,1.109-0.703c0.566-0.333,1.133-0.665,1.133-0.665
						l-0.572-1.024c0,0-0.584,0.343-1.169,0.686C139.4,57.939,138.85,58.336,138.85,58.336z"/>
				</g>
			</g>
			<g>
				<g>
					<path fill="#A1D5D3" d="M135.595,60.726l0.745,0.905c0,0,0.126-0.105,0.314-0.264c0.196-0.149,0.458-0.347,0.72-0.546
						c0.261-0.199,0.522-0.397,0.719-0.546c0.194-0.152,0.332-0.242,0.332-0.242l-0.679-0.957c0,0-0.142,0.093-0.342,0.25
						c-0.203,0.154-0.473,0.359-0.742,0.563c-0.271,0.206-0.54,0.411-0.743,0.564C135.725,60.617,135.595,60.726,135.595,60.726z"/>
					<path fill="#A1D5D3" d="M132.614,63.45l0.839,0.82c0,0,0.473-0.456,0.945-0.912c0.464-0.466,0.966-0.89,0.966-0.89
						l-0.777-0.878c0,0-0.518,0.438-0.996,0.918C133.103,62.979,132.614,63.45,132.614,63.45z"/>
					<path fill="#A1D5D3" d="M129.956,66.488l0.922,0.726c0,0,0.417-0.507,0.834-1.015c0.204-0.258,0.419-0.506,0.591-0.683
						c0.167-0.181,0.278-0.302,0.278-0.302l-0.866-0.79c0,0-0.115,0.125-0.288,0.312c-0.177,0.183-0.399,0.438-0.61,0.704
						C130.387,65.964,129.956,66.488,129.956,66.488z"/>
					<path fill="#A1D5D3" d="M127.636,69.792l0.994,0.623c0,0,0.356-0.552,0.712-1.104c0.367-0.544,0.765-1.068,0.765-1.068
						l-0.946-0.693c0,0-0.41,0.541-0.789,1.103C128.004,69.222,127.636,69.792,127.636,69.792z"/>
					<path fill="#A1D5D3" d="M125.68,73.321l1.054,0.514c0,0,0.292-0.588,0.585-1.176c0.324-0.571,0.649-1.143,0.649-1.143
						l-1.015-0.588c0,0-0.335,0.589-0.67,1.179C125.981,72.714,125.68,73.321,125.68,73.321z"/>
					<path fill="#A1D5D3" d="M124.105,77.037l1.103,0.4c0,0,0.209-0.624,0.462-1.229c0.259-0.604,0.517-1.208,0.517-1.208
						l-1.071-0.477c0,0-0.267,0.623-0.533,1.247C124.321,76.395,124.105,77.037,124.105,77.037z"/>
					<path fill="#A1D5D3" d="M122.932,80.897l1.138,0.281c0,0,0.039-0.16,0.097-0.399c0.051-0.241,0.14-0.558,0.238-0.871
						c0.189-0.629,0.378-1.258,0.378-1.258l-1.115-0.361c0,0-0.195,0.649-0.39,1.298c-0.103,0.323-0.193,0.649-0.247,0.898
						C122.971,80.732,122.932,80.897,122.932,80.897z"/>
				</g>
			</g>
		</g>
	</g>
</g>
<g>
	<g>
		<g>
			<g>
				<g>
					<polygon fill="#A1D5D3" points="164.115,35.596 164.017,36.764 166.556,37.012 166.71,35.849 					"/>
					<polygon fill="#A1D5D3" points="160.239,35.406 160.224,36.579 162.774,36.648 162.846,35.478 					"/>
					<polygon fill="#A1D5D3" points="156.359,35.494 156.428,36.665 158.977,36.554 158.965,35.382 					"/>
					<polygon fill="#A1D5D3" points="152.495,35.861 152.648,37.023 155.182,36.732 155.085,35.563 					"/>
					<polygon fill="#A1D5D3" points="148.668,36.504 148.903,37.653 151.41,37.181 151.23,36.022 					"/>
					<polygon fill="#A1D5D3" points="144.896,37.421 145.214,38.55 147.68,37.898 147.417,36.755 					"/>
					<polygon fill="#A1D5D3" points="141.201,38.606 141.599,39.71 144.011,38.88 143.666,37.759 					"/>
				</g>
			</g>
			<g>
				<g>
					<polygon fill="#A1D5D3" points="137.6,40.051 138.073,41.124 140.419,40.12 139.996,39.025 					"/>
					<polygon fill="#A1D5D3" points="134.102,41.729 134.649,42.767 136.926,41.615 136.428,40.554 					"/>
					<polygon fill="#A1D5D3" points="130.729,43.652 131.35,44.648 133.551,43.357 132.979,42.333 					"/>
					<path fill="#A1D5D3" d="M127.514,45.827l0.689,0.948c0,0,0.127-0.096,0.317-0.241c0.198-0.134,0.463-0.312,0.727-0.49
						c0.53-0.355,1.06-0.71,1.06-0.71l-0.644-0.98c0,0-0.541,0.363-1.083,0.726c-0.27,0.182-0.539,0.365-0.742,0.501
						C127.644,45.729,127.514,45.827,127.514,45.827z"/>
					<path fill="#A1D5D3" d="M124.464,48.229l0.756,0.896c0,0,0.479-0.422,0.974-0.823c0.509-0.386,1.017-0.771,1.017-0.771
						l-0.712-0.932c0,0-0.52,0.394-1.038,0.789C124.953,47.797,124.464,48.228,124.464,48.229z"/>
					<path fill="#A1D5D3" d="M121.588,50.836l0.818,0.84c0,0,0.459-0.443,0.918-0.885c0.448-0.455,0.947-0.854,0.947-0.854
						l-0.776-0.878c0,0-0.51,0.408-0.968,0.872C122.058,50.384,121.588,50.836,121.588,50.836z"/>
					<polygon fill="#A1D5D3" points="118.9,53.636 119.777,54.415 121.508,52.542 120.67,51.721 					"/>
				</g>
			</g>
			<g>
				<g>
					<path fill="#A1D5D3" d="M116.421,56.623l0.93,0.714c0,0,0.089-0.133,0.244-0.315c0.151-0.185,0.354-0.431,0.557-0.678
						c0.405-0.493,0.81-0.985,0.81-0.985l-0.895-0.758c0,0-0.414,0.503-0.827,1.007c-0.207,0.252-0.414,0.503-0.569,0.692
						C116.512,56.487,116.421,56.623,116.421,56.623z"/>
					<path fill="#A1D5D3" d="M114.178,59.791l0.979,0.646c0,0,0.331-0.546,0.707-1.062s0.752-1.03,0.752-1.03l-0.946-0.692
						c0,0-0.385,0.526-0.769,1.053C114.517,59.233,114.178,59.791,114.178,59.791z"/>
					<path fill="#A1D5D3" d="M112.156,63.104l1.022,0.575c0,0,0.314-0.554,0.63-1.109c0.152-0.281,0.32-0.551,0.454-0.75
						c0.13-0.201,0.217-0.334,0.217-0.334l-0.993-0.624c0,0-0.089,0.137-0.222,0.342c-0.136,0.203-0.309,0.479-0.464,0.766
						C112.479,62.537,112.156,63.104,112.156,63.104z"/>
					<polygon fill="#A1D5D3" points="110.365,66.547 111.425,67.049 112.562,64.765 111.526,64.213 					"/>
					<path fill="#A1D5D3" d="M108.822,70.108l1.093,0.426c0,0,0.046-0.153,0.145-0.371c0.095-0.22,0.22-0.513,0.346-0.806
						c0.25-0.587,0.501-1.173,0.501-1.173l-1.071-0.477c0,0-0.256,0.599-0.513,1.199c-0.128,0.299-0.256,0.599-0.352,0.824
						C108.87,69.952,108.822,70.108,108.822,70.108z"/>
					<path fill="#A1D5D3" d="M107.554,73.777l1.119,0.348c0,0,0.17-0.615,0.382-1.217c0.217-0.6,0.435-1.199,0.435-1.199l-1.102-0.4
						c0,0-0.223,0.613-0.444,1.225C107.727,73.148,107.553,73.776,107.554,73.777z"/>
					<path fill="#A1D5D3" d="M106.535,77.521l1.142,0.269c0,0,0.148-0.62,0.298-1.24c0.07-0.311,0.149-0.62,0.225-0.847
						c0.068-0.229,0.115-0.382,0.115-0.382l-1.128-0.322c0,0-0.047,0.156-0.117,0.39c-0.076,0.232-0.158,0.548-0.229,0.866
						C106.688,76.887,106.535,77.521,106.535,77.521z"/>
				</g>
			</g>
		</g>
	</g>
</g>
<g>
	<g>
		<g>
			<g>
				<g>
					<polygon fill="#A1D5D3" points="162.358,43.451 162.287,44.622 165.526,44.932 165.681,43.769 					"/>
					<path fill="#A1D5D3" d="M157.389,43.442l0.056,1.171c0,0,0.813-0.036,1.625-0.071c0.813,0.018,1.626,0.036,1.626,0.036
						l0.03-1.172c0,0-0.835-0.018-1.669-0.036C158.223,43.406,157.389,43.442,157.389,43.442z"/>
					<path fill="#A1D5D3" d="M152.443,43.92l0.181,1.159c0,0,0.199-0.044,0.503-0.072c0.304-0.035,0.707-0.081,1.111-0.127
						c0.809-0.093,1.616-0.186,1.616-0.186l-0.096-1.169c0,0-0.829,0.095-1.659,0.19c-0.414,0.048-0.829,0.095-1.14,0.131
						C152.648,43.875,152.443,43.92,152.443,43.92z"/>
					<path fill="#A1D5D3" d="M147.587,44.971l0.304,1.133c0,0,0.786-0.208,1.572-0.416c0.794-0.176,1.596-0.314,1.596-0.314
						l-0.221-1.151c0,0-0.823,0.142-1.638,0.322C148.394,44.758,147.587,44.971,147.587,44.971z"/>
					<polygon fill="#A1D5D3" points="142.855,46.488 143.278,47.582 146.354,46.519 146.011,45.397 					"/>
					<path fill="#A1D5D3" d="M138.33,48.539l0.535,1.043c0,0,0.727-0.367,1.452-0.734c0.748-0.32,1.496-0.64,1.496-0.64l-0.46-1.078
						c0,0-0.768,0.328-1.534,0.657C139.074,48.163,138.33,48.539,138.33,48.539z"/>
					<path fill="#A1D5D3" d="M134.038,51.039l0.644,0.98c0,0,0.169-0.113,0.422-0.283c0.249-0.177,0.6-0.384,0.951-0.587
						c0.702-0.412,1.403-0.823,1.403-0.823l-0.571-1.024c0,0-0.72,0.422-1.439,0.844c-0.361,0.209-0.721,0.421-0.977,0.603
						C134.211,50.922,134.038,51.039,134.038,51.039z"/>
				</g>
			</g>
			<g>
				<g>
					<path fill="#A1D5D3" d="M130.031,53.979l0.746,0.905c0,0,0.155-0.131,0.389-0.327c0.243-0.185,0.566-0.43,0.891-0.676
						s0.648-0.492,0.891-0.677c0.24-0.188,0.411-0.299,0.411-0.299l-0.679-0.957c0,0-0.175,0.114-0.421,0.307
						c-0.249,0.189-0.582,0.442-0.914,0.694s-0.665,0.505-0.914,0.694C130.191,53.845,130.031,53.979,130.031,53.979z"/>
					<path fill="#A1D5D3" d="M126.363,57.333l0.838,0.82c0,0,0.586-0.564,1.172-1.129c0.294-0.28,0.58-0.57,0.809-0.771
						c0.232-0.198,0.387-0.331,0.387-0.331l-0.777-0.878c0,0-0.158,0.136-0.396,0.339c-0.234,0.207-0.528,0.504-0.831,0.792
						C126.964,56.753,126.363,57.333,126.363,57.333z"/>
					<path fill="#A1D5D3" d="M123.091,61.072l0.922,0.726c0,0,0.516-0.628,1.032-1.257c0.253-0.319,0.52-0.626,0.732-0.845
						c0.207-0.224,0.345-0.374,0.345-0.374l-0.867-0.79c0,0-0.142,0.153-0.354,0.383c-0.218,0.225-0.491,0.54-0.751,0.867
						C123.621,60.428,123.091,61.072,123.091,61.072z"/>
					<path fill="#A1D5D3" d="M120.235,65.139l0.993,0.623c0,0,0.441-0.683,0.883-1.367c0.453-0.675,0.945-1.323,0.945-1.323
						l-0.946-0.692c0,0-0.505,0.665-0.97,1.357C120.688,64.438,120.235,65.139,120.235,65.139z"/>
					<path fill="#A1D5D3" d="M117.826,69.483l1.055,0.514c0,0,0.362-0.729,0.725-1.457c0.401-0.707,0.804-1.415,0.804-1.415
						l-1.015-0.588c0,0-0.412,0.726-0.824,1.451C118.198,68.736,117.826,69.483,117.826,69.483z"/>
					<path fill="#A1D5D3" d="M115.889,74.058l1.103,0.4c0,0,0.26-0.772,0.572-1.522c0.32-0.748,0.64-1.496,0.64-1.496l-1.071-0.477
						c0,0-0.327,0.767-0.655,1.534C116.155,73.267,115.889,74.058,115.889,74.058z"/>
					<path fill="#A1D5D3" d="M114.443,78.81l1.139,0.281c0,0,0.047-0.198,0.118-0.495c0.063-0.298,0.174-0.69,0.296-1.078
						c0.234-0.779,0.469-1.558,0.469-1.558l-1.116-0.361c0,0-0.239,0.799-0.479,1.598c-0.125,0.398-0.238,0.799-0.304,1.105
						C114.492,78.606,114.443,78.81,114.443,78.81z"/>
				</g>
			</g>
		</g>
	</g>
</g>
<circle fill="#A1D5D3" cx="122.96" cy="88.579" r="4.331"/>
<circle fill="#A1D5D3" cx="171.539" cy="54.687" r="4.331"/>
<circle fill="#A1D5D3" cx="198.653" cy="115.692" r="4.331"/>
<circle fill="#A1D5D3" cx="131.999" cy="137.157" r="4.331"/>
<circle fill="#A1D5D3" cx="141.036" cy="123.6" r="4.331"/>
<circle fill="#A1D5D3" cx="106.015" cy="84.06" r="4.331"/>
<circle fill="#A1D5D3" cx="176.058" cy="38.87" r="5.46"/>
<circle fill="#A1D5D3" cx="196.393" cy="131.508" r="5.46"/>
<circle fill="#A1D5D3" cx="145.555" cy="134.897" r="5.46"/>
<circle fill="#A1D5D3" cx="106.015" cy="93.097" r="2.919"/>
<circle fill="#A1D5D3" cx="178.318" cy="47.908" r="2.919"/>
<circle fill="#A1D5D3" cx="205.432" cy="121.341" r="2.919"/>
<circle fill="#A1D5D3" cx="194.134" cy="122.47" r="2.919"/>
<circle fill="#A1D5D3" cx="187.355" cy="115.692" r="5.461"/>
<path fill="none" stroke="#A1D5D3" stroke-miterlimit="10" d="M100.083,81.518c1.507-2.542,5.743-6.213,14.875,0.376
	c3.57,2.576,14.969-3.012,14.498,6.873c-0.753,11.015-8.097,2.918-15.816,6.401c-7.72,3.484-11.103,3.812-13.18-1.506
	C98.953,89.802,98.576,84.06,100.083,81.518z"/>
<path fill="none" stroke="#A1D5D3" stroke-miterlimit="10" d="M184.437,36.328c2.062,2.118,0.943,7.01-0.753,10.356
	c-6.496,12.804-10.073,15.628-14.97,13.839c-7.908-2.73,0.629-11.023-0.658-19.394c-0.565-3.672-0.309-9.173,5.366-9.792
	C177.541,30.89,182.376,34.21,184.437,36.328z"/>
<path fill="none" stroke="#A1D5D3" stroke-miterlimit="10" d="M148.215,124.165c0.935,4.882,6.461,5.366,4.625,11.721
	c-1.906,6.598-7.025,6.317-12.074,6.708c-5.504,0.426-10.967,1.127-13.106-0.799c-7.193-7.356,5.939-12.157,6.693-16.97
	c0.574-3.67,2.145-8.458,7.755-7.402C146.179,118.189,147.579,120.846,148.215,124.165z"/>
<path fill="none" stroke="#A1D5D3" stroke-miterlimit="10" d="M189.768,128.648c0.848-4.448-13.733-7.484-8.261-16.875
	c3.039-5.215,11.722-4.492,16.451-2.683c5.157,1.971,11.968,5.189,11.757,11.438c-0.201,5.93-4.343,4.942-5.613,7.096
	c-1.888,3.199,1.129,10.608-7.768,10.662C190.438,138.321,188.673,134.394,189.768,128.648z"/>
</svg>
