<?xml version="1.0" encoding="utf-8"?>
<!-- Generator: Adobe Illustrator 16.0.3, SVG Export Plug-In . SVG Version: 6.00 Build 0)  -->
<!DOCTYPE svg PUBLIC "-//W3C//DTD SVG 1.1//EN" "http://www.w3.org/Graphics/SVG/1.1/DTD/svg11.dtd">
<svg version="1.1" id="Ebene_1" xmlns="http://www.w3.org/2000/svg" xmlns:xlink="http://www.w3.org/1999/xlink" x="0px" y="0px"
	 width="320px" height="180px" viewBox="0 0 320 180" enable-background="new 0 0 320 180" xml:space="preserve">
<g>
	<path fill="#A1D5D3" d="M169.121,51.258c6.775,6.771,6.775,17.747,0.004,24.516c-6.771,6.771-17.748,6.773-24.52,0
		c-6.771-6.77-6.768-17.747,0-24.516C151.377,44.486,162.354,44.486,169.121,51.258z"/>
	<path fill="#A1D5D3" d="M210.694,99.228c8.538,8.538,8.542,22.375,0.004,30.916c-8.534,8.532-22.382,8.536-30.916,0
		c-8.538-8.537-8.53-22.382,0-30.916C188.324,90.689,202.16,90.692,210.694,99.228z"/>
	<path fill="#A1D5D3" d="M200.307,52.055c4.567,4.564,4.563,11.965,0,16.525c-4.565,4.569-11.963,4.564-16.525,0.001
		c-4.563-4.564-4.57-11.963-0.003-16.528C188.341,47.493,195.744,47.493,200.307,52.055z"/>
	<path fill="#A1D5D3" d="M171.525,87.231c4.566,4.566,4.563,11.966,0,16.527c-4.566,4.568-11.963,4.568-16.528,0
		c-4.567-4.563-4.567-11.961,0.003-16.527C159.558,82.67,166.959,82.667,171.525,87.231z"/>
	<path fill="#A1D5D3" d="M140.344,80.037c8.538,8.541,8.538,22.378,0,30.918c-8.535,8.532-22.378,8.539-30.921,0
		c-8.533-8.538-8.53-22.382,0.005-30.916C117.966,71.501,131.806,71.501,140.344,80.037z"/>
	<path fill="none" stroke="#A1D5D3" stroke-width="2" stroke-miterlimit="10" d="M168.387,125.344
		c-10.192-14.993-60.022,17.679-71.153-24.385c-5.515-20.841,20.467-45.897,38.974-54.164c20.181-9.021,52.038-14.087,65.664-0.901
		c17.069,16.517,1.696,26.283,4.195,35.977c3.713,14.399,31.949,29.826,8.193,52.17
		C199.813,147.629,181.554,144.708,168.387,125.344z"/>
</g>
</svg>
