<?xml version="1.0" encoding="utf-8"?>
<!-- Generator: Adobe Illustrator 16.0.3, SVG Export Plug-In . SVG Version: 6.00 Build 0)  -->
<!DOCTYPE svg PUBLIC "-//W3C//DTD SVG 1.1//EN" "http://www.w3.org/Graphics/SVG/1.1/DTD/svg11.dtd">
<svg version="1.1" id="Ebene_1" xmlns="http://www.w3.org/2000/svg" xmlns:xlink="http://www.w3.org/1999/xlink" x="0px" y="0px"
	 width="320px" height="180px" viewBox="0 0 320 180" enable-background="new 0 0 320 180" xml:space="preserve">
<g>
	<defs>
		<rect id="SVGID_6_" x="102.293" y="24.167" width="115.474" height="131.031"/>
	</defs>
	<clipPath id="SVGID_2_">
		<use xlink:href="#SVGID_6_"  overflow="visible"/>
	</clipPath>
	<path clip-path="url(#SVGID_2_)" fill="none" stroke="#A1D5D3" stroke-width="2.184" stroke-miterlimit="10" d="M190.083,83.625
		c-9.537,8.804-0.615,26.997-11.657,37.192"/>
	<path clip-path="url(#SVGID_2_)" fill="none" stroke="#A1D5D3" stroke-width="2.184" stroke-miterlimit="10" d="M135.906,88.844
		c0.755,10.645,21.268,13.014,22.142,25.334"/>
	<path clip-path="url(#SVGID_2_)" fill="none" stroke="#A1D5D3" stroke-width="2.184" stroke-miterlimit="10" d="M119.868,31.094
		c8.816,7.724,0.568,23.686,10.775,32.634"/>
	<path clip-path="url(#SVGID_2_)" fill="none" stroke="#A1D5D3" stroke-width="2.184" stroke-miterlimit="10" d="M193.174,22.775
		c6.217,9.934-6.271,22.847,0.928,34.352"/>
	
		<circle clip-path="url(#SVGID_2_)" fill="none" stroke="#A1D5D3" stroke-width="0.546" stroke-miterlimit="10" cx="131.751" cy="78.748" r="9.178"/>
	<path clip-path="url(#SVGID_2_)" fill="none" stroke="#A1D5D3" stroke-width="0.5" stroke-miterlimit="10" d="M128.263,95.241"/>
	<path clip-path="url(#SVGID_2_)" fill="none" stroke="#A1D5D3" stroke-width="0.5" stroke-miterlimit="10" d="M148.246,82.239"/>
	<path clip-path="url(#SVGID_2_)" fill="none" stroke="#A1D5D3" stroke-width="0.546" stroke-miterlimit="10" d="M135.123,69.52"/>
	
		<rect x="126.322" y="89.166" transform="matrix(0.9614 0.2753 -0.2753 0.9614 30.5129 -31.4837)" clip-path="url(#SVGID_2_)" fill="#A1D5D3" width="2.157" height="7.556"/>
	
		<rect x="129.133" y="89.731" transform="matrix(0.989 0.1479 -0.1479 0.989 15.0213 -18.2491)" clip-path="url(#SVGID_2_)" fill="#A1D5D3" width="2.159" height="4.288"/>
	<polygon clip-path="url(#SVGID_2_)" fill="#A1D5D3" points="134.04,96.398 131.884,96.465 131.669,89.802 133.832,89.735 	"/>
	
		<rect x="134.637" y="89.383" transform="matrix(0.9841 -0.1775 0.1775 0.9841 -14.4081 25.5766)" clip-path="url(#SVGID_2_)" fill="#A1D5D3" width="2.162" height="7.835"/>
	
		<rect x="136.418" y="88.087" transform="matrix(0.9206 -0.3905 0.3905 0.9206 -24.1201 60.8134)" clip-path="url(#SVGID_2_)" fill="#A1D5D3" width="2.161" height="3.277"/>
	
		<rect x="116.463" y="79.738" transform="matrix(0.3368 0.9416 -0.9416 0.3368 156.5957 -55.2848)" clip-path="url(#SVGID_2_)" fill="#A1D5D3" width="2.159" height="7.56"/>
	
		<rect x="118.933" y="82.787" transform="matrix(0.4545 0.8907 -0.8907 0.4545 141.1148 -60.5732)" clip-path="url(#SVGID_2_)" fill="#A1D5D3" width="2.16" height="4.285"/>
	
		<rect x="119.391" y="84.479" transform="matrix(0.6079 0.794 -0.794 0.6079 116.969 -61.2236)" clip-path="url(#SVGID_2_)" fill="#A1D5D3" width="2.158" height="6.669"/>
	
		<rect x="120.937" y="86.079" transform="matrix(0.7156 0.6985 -0.6985 0.7156 97.5533 -59.6346)" clip-path="url(#SVGID_2_)" fill="#A1D5D3" width="2.16" height="7.829"/>
	
		<rect x="124.611" y="88.18" transform="matrix(0.8529 0.5222 -0.5222 0.8529 65.3939 -52.4135)" clip-path="url(#SVGID_2_)" fill="#A1D5D3" width="2.16" height="3.276"/>
	
		<rect x="143.781" y="81.841" transform="matrix(0.4842 -0.875 0.875 0.4842 -0.1912 170.9164)" clip-path="url(#SVGID_2_)" fill="#A1D5D3" width="2.16" height="7.558"/>
	
		<rect x="143.254" y="80.62" transform="matrix(0.3672 -0.9301 0.9301 0.3672 14.351 186.6215)" clip-path="url(#SVGID_2_)" fill="#A1D5D3" width="2.161" height="4.286"/>
	
		<rect x="139.849" y="86.629" transform="matrix(0.8415 -0.5402 0.5402 0.8415 -26.5801 90.4791)" clip-path="url(#SVGID_2_)" fill="#A1D5D3" width="2.158" height="7.831"/>
	
		<rect x="140.474" y="85.1" transform="matrix(0.7001 -0.7141 0.7141 0.7001 -19.4812 127.0974)" clip-path="url(#SVGID_2_)" fill="#A1D5D3" width="2.158" height="3.277"/>
	
		<rect x="145.154" y="77.4" transform="matrix(0.1934 -0.9811 0.9811 0.1934 38.3101 208.9544)" clip-path="url(#SVGID_2_)" fill="#A1D5D3" width="2.161" height="7.557"/>
	
		<rect x="143.781" y="76.383" transform="matrix(0.076 -0.9971 0.9971 0.076 55.5575 217.0008)" clip-path="url(#SVGID_2_)" fill="#A1D5D3" width="2.16" height="4.283"/>
	
		<rect x="117.423" y="78.773" transform="matrix(-0.285 -0.9585 0.9585 -0.285 74.7173 217.5646)" clip-path="url(#SVGID_2_)" fill="#A1D5D3" width="2.16" height="4.285"/>
	
		<rect x="144.88" y="72.912" transform="matrix(-0.1165 -0.9932 0.9932 -0.1165 87.468 229.8265)" clip-path="url(#SVGID_2_)" fill="#A1D5D3" width="2.159" height="6.191"/>
	<polygon clip-path="url(#SVGID_2_)" fill="#A1D5D3" points="120.322,77.354 120.566,79.499 115.928,80.067 115.684,77.918 	"/>
	<path clip-path="url(#SVGID_2_)" fill="none" stroke="#A1D5D3" stroke-miterlimit="10" d="M142.414,75.424
		c0.623,2.011,0.684,4.22,0.054,6.394c-1.712,5.919-7.899,9.329-13.814,7.615c-5.314-1.538-8.603-6.678-7.986-11.994"/>
	<path clip-path="url(#SVGID_2_)" fill="#A1D5D3" d="M123.996,71.427c-1.282,1.323-2.256,2.994-2.765,4.924l-5.919,0.712
		c0.058-0.463,0.134-0.928,0.232-1.393c0.762-3.616,2.647-6.7,5.211-8.962L123.996,71.427z M135.848,68.993
		c-0.424-0.179-0.864-0.333-1.318-0.46c-3.762-1.044-7.598,0.072-10.249,2.611l-3.252-4.671c3.729-3.148,8.809-4.599,13.943-3.507
		c1.062,0.226,2.078,0.55,3.039,0.961L135.848,68.993z M138.62,64.201c3.989,1.904,6.985,5.337,8.415,9.41l-5.353,1.316
		c-1.014-2.45-2.875-4.508-5.314-5.698L138.62,64.201z"/>
	<path clip-path="url(#SVGID_2_)" fill="none" stroke="#A1D5D3" stroke-width="0.546" stroke-miterlimit="10" d="M156.801,132.936
		c2.505,4.409,8.159,5.948,12.626,3.437c4.47-2.512,6.061-8.121,3.559-12.53c-2.506-4.411-8.159-5.947-12.63-3.436
		C155.887,122.917,154.294,128.526,156.801,132.936z"/>
	<path clip-path="url(#SVGID_2_)" fill="none" stroke="#A1D5D3" stroke-width="0.5" stroke-miterlimit="10" d="M150.026,136.742"/>
	<path clip-path="url(#SVGID_2_)" fill="none" stroke="#A1D5D3" stroke-width="0.546" stroke-miterlimit="10" d="M158.863,120.616"
		/>
	<polygon clip-path="url(#SVGID_2_)" fill="#A1D5D3" points="174.549,144.349 176.371,143.151 172.179,136.856 170.354,138.055 	"/>
	<polygon clip-path="url(#SVGID_2_)" fill="#A1D5D3" points="170.292,142.841 172.257,141.887 170.364,138.037 168.4,138.994 	"/>
	<polygon clip-path="url(#SVGID_2_)" fill="#A1D5D3" points="167.997,145.918 170.097,145.326 168.299,138.906 166.192,139.5 	"/>
	<polygon clip-path="url(#SVGID_2_)" fill="#A1D5D3" points="164.856,147.503 167.025,147.222 166.034,139.447 163.869,139.733 	"/>
	<polygon clip-path="url(#SVGID_2_)" fill="#A1D5D3" points="161.401,142.142 163.575,142.34 163.901,139.074 161.729,138.875 	"/>
	<polygon clip-path="url(#SVGID_2_)" fill="#A1D5D3" points="183.813,129.818 183.903,127.658 176.268,127.405 176.182,129.567 	"/>
	<polygon clip-path="url(#SVGID_2_)" fill="#A1D5D3" points="180.031,132.124 180.399,129.989 176.13,129.297 175.761,131.429 	"/>
	<polygon clip-path="url(#SVGID_2_)" fill="#A1D5D3" points="181.297,135.743 182.048,133.709 175.718,131.457 174.965,133.494 	"/>
	<polygon clip-path="url(#SVGID_2_)" fill="#A1D5D3" points="180.632,138.946 181.669,137.037 174.71,133.352 173.668,135.26 	"/>
	<polygon clip-path="url(#SVGID_2_)" fill="#A1D5D3" points="174.597,138.993 176.035,137.356 173.549,135.208 172.106,136.843 	"/>
	<polygon clip-path="url(#SVGID_2_)" fill="#A1D5D3" points="150.886,140.949 152.463,142.433 157.735,136.922 156.16,135.442 	"/>
	<polygon clip-path="url(#SVGID_2_)" fill="#A1D5D3" points="151.59,136.573 152.96,138.249 156.329,135.527 154.959,133.855 	"/>
	<polygon clip-path="url(#SVGID_2_)" fill="#A1D5D3" points="157.483,145.939 159.587,146.499 161.692,138.927 159.587,138.365 	"/>
	<polygon clip-path="url(#SVGID_2_)" fill="#A1D5D3" points="156.095,139.939 158.016,140.949 159.584,138.049 157.663,137.04 	"/>
	<polygon clip-path="url(#SVGID_2_)" fill="#A1D5D3" points="147.77,135.996 148.812,137.891 155.527,134.239 154.483,132.345 	"/>
	
		<rect x="151.096" y="130.001" transform="matrix(-0.3732 -0.9277 0.9277 -0.3732 86.3534 322.6764)" clip-path="url(#SVGID_2_)" fill="#A1D5D3" width="2.16" height="4.334"/>
	<polygon clip-path="url(#SVGID_2_)" fill="#A1D5D3" points="176.15,125.384 176.179,127.546 180.51,127.46 180.481,125.297 	"/>
	<polygon clip-path="url(#SVGID_2_)" fill="#A1D5D3" points="147.08,129.633 147.483,131.754 153.635,130.573 153.23,128.448 	"/>
	<polygon clip-path="url(#SVGID_2_)" fill="#A1D5D3" points="175.503,123.579 175.913,125.7 180.56,124.829 180.149,122.705 	"/>
	<path clip-path="url(#SVGID_2_)" fill="none" stroke="#A1D5D3" stroke-miterlimit="10" d="M153.604,128.466
		c0.003,2.107,0.609,4.232,1.871,6.114c3.434,5.124,10.431,6.491,15.623,3.056c4.665-3.085,6.292-8.988,4.097-13.87"/>
	<path clip-path="url(#SVGID_2_)" fill="#A1D5D3" d="M170.174,119.046c1.635,0.871,3.078,2.168,4.15,3.854l5.926-1.123
		c-0.195-0.424-0.409-0.844-0.643-1.258c-1.823-3.216-4.57-5.583-7.726-6.96L170.174,119.046z M158.004,120.334
		c0.355-0.3,0.734-0.582,1.134-0.84c3.316-2.141,7.354-2.245,10.676-0.631l1.732-5.445c-4.545-1.867-9.884-1.704-14.51,0.901
		c-0.957,0.539-1.839,1.157-2.643,1.842L158.004,120.334z M153.888,116.608c-3.276,3.03-5.134,7.216-5.288,11.536l5.561-0.375
		c0.242-2.645,1.417-5.174,3.414-7.052L153.888,116.608z"/>
	<path clip-path="url(#SVGID_2_)" fill="none" stroke="#A1D5D3" stroke-width="0.546" stroke-miterlimit="10" d="M184.776,74.807
		c1.132,4.943,6.105,8.043,11.105,6.922c5.003-1.121,8.139-6.036,7.01-10.979c-1.132-4.945-6.105-8.041-11.11-6.921
		C186.781,64.948,183.644,69.862,184.776,74.807z"/>
	<path clip-path="url(#SVGID_2_)" fill="none" stroke="#A1D5D3" stroke-width="0.5" stroke-miterlimit="10" d="M177.194,76.504"/>
	<polygon clip-path="url(#SVGID_2_)" fill="#A1D5D3" points="198.495,90.84 200.584,90.216 198.379,82.982 196.285,83.606 	"/>
	<polygon clip-path="url(#SVGID_2_)" fill="#A1D5D3" points="194.851,88.172 197.007,87.823 196.301,83.592 194.145,83.943 	"/>
	<polygon clip-path="url(#SVGID_2_)" fill="#A1D5D3" points="191.768,90.46 193.949,90.496 194.073,83.83 191.884,83.794 	"/>
	<polygon clip-path="url(#SVGID_2_)" fill="#A1D5D3" points="188.304,91.075 190.462,91.429 191.748,83.697 189.592,83.349 	"/>
	<polygon clip-path="url(#SVGID_2_)" fill="#A1D5D3" points="186.536,84.946 188.561,85.761 189.813,82.727 187.789,81.912 	"/>
	<polygon clip-path="url(#SVGID_2_)" fill="#A1D5D3" points="211.545,79.586 212.252,77.542 205.011,75.105 204.308,77.152 	"/>
	<polygon clip-path="url(#SVGID_2_)" fill="#A1D5D3" points="207.259,80.707 208.226,78.768 204.335,76.877 203.37,78.813 	"/>
	<polygon clip-path="url(#SVGID_2_)" fill="#A1D5D3" points="207.432,84.537 208.735,82.805 203.32,78.828 202.013,80.563 	"/>
	<polygon clip-path="url(#SVGID_2_)" fill="#A1D5D3" points="205.874,87.414 207.417,85.883 201.81,80.353 200.264,81.882 	"/>
	<polygon clip-path="url(#SVGID_2_)" fill="#A1D5D3" points="200.08,85.724 201.928,84.57 200.165,81.797 198.313,82.948 	"/>
	<polygon clip-path="url(#SVGID_2_)" fill="#A1D5D3" points="176.808,80.781 177.892,82.656 184.525,78.893 183.442,77.023 	"/>
	<polygon clip-path="url(#SVGID_2_)" fill="#A1D5D3" points="178.74,76.793 179.571,78.791 183.579,77.153 182.748,75.158 	"/>
	<polygon clip-path="url(#SVGID_2_)" fill="#A1D5D3" points="181.692,87.458 183.546,88.598 187.739,81.951 185.884,80.807 	"/>
	<polygon clip-path="url(#SVGID_2_)" fill="#A1D5D3" points="182.087,81.312 183.637,82.831 185.973,80.504 184.422,78.985 	"/>
	<polygon clip-path="url(#SVGID_2_)" fill="#A1D5D3" points="175.247,75.141 175.7,77.256 183.182,75.689 182.727,73.574 	"/>
	
		<rect x="179.487" y="70.575" transform="matrix(-0.0909 -0.9959 0.9959 -0.0909 124.5366 259.1733)" clip-path="url(#SVGID_2_)" fill="#A1D5D3" width="2.16" height="4.334"/>
	<polygon clip-path="url(#SVGID_2_)" fill="#A1D5D3" points="205.479,73.135 204.886,75.215 209.059,76.378 209.653,74.298 	"/>
	<polygon clip-path="url(#SVGID_2_)" fill="#A1D5D3" points="176.416,68.849 176.191,70.997 182.423,71.634 182.646,69.481 	"/>
	<polygon clip-path="url(#SVGID_2_)" fill="#A1D5D3" points="205.379,71.221 205.162,73.37 209.863,73.872 210.08,71.719 	"/>
	<path clip-path="url(#SVGID_2_)" fill="none" stroke="#A1D5D3" stroke-miterlimit="10" d="M183,69.606
		c-0.603,2.02-0.633,4.229,0.035,6.394c1.816,5.895,8.125,9.216,14.084,7.417c5.355-1.614,8.611-6.799,7.912-12.107"/>
	<path clip-path="url(#SVGID_2_)" fill="#A1D5D3" d="M201.578,65.347c1.316,1.304,2.325,2.962,2.867,4.884l5.999,0.628
		c-0.065-0.462-0.149-0.926-0.254-1.39c-0.821-3.604-2.772-6.662-5.399-8.887L201.578,65.347z M189.551,63.083
		c0.427-0.186,0.87-0.346,1.328-0.479c3.792-1.097,7.688-0.036,10.407,2.465l3.225-4.717c-3.817-3.095-8.977-4.473-14.157-3.309
		c-1.071,0.241-2.094,0.58-3.061,1.005L189.551,63.083z M186.68,58.331c-4.009,1.96-6.992,5.436-8.381,9.529l5.434,1.24
		c0.992-2.464,2.845-4.549,5.296-5.773L186.68,58.331z"/>
</g>
</svg>
