<?xml version="1.0" encoding="utf-8"?>
<!-- Generator: Adobe Illustrator 16.0.3, SVG Export Plug-In . SVG Version: 6.00 Build 0)  -->
<!DOCTYPE svg PUBLIC "-//W3C//DTD SVG 1.1//EN" "http://www.w3.org/Graphics/SVG/1.1/DTD/svg11.dtd">
<svg version="1.1" id="Ebene_1" xmlns="http://www.w3.org/2000/svg" xmlns:xlink="http://www.w3.org/1999/xlink" x="0px" y="0px"
	 width="320px" height="180px" viewBox="0 0 320 180" enable-background="new 0 0 320 180" xml:space="preserve">
<g>
	<polygon fill="#A1D5D3" points="203.756,71.137 205.617,77.479 193.042,81.166 191.178,74.824 	"/>
	<polygon fill="none" points="203.756,71.137 205.617,77.479 193.042,81.166 191.178,74.824 	"/>
	<path fill="none" stroke="#A1D5D3" stroke-width="4" stroke-miterlimit="10" d="M191.349,99.845
		c-5.033,17.539-23.327,27.681-40.865,22.654c-17.543-5.031-27.681-23.324-22.656-40.861c5.028-17.54,23.327-27.683,40.866-22.655
		C186.23,64.013,196.373,82.306,191.349,99.845z"/>
	<path fill="none" stroke="#A1D5D3" stroke-width="2" stroke-miterlimit="10" d="M186.58,98.481
		c-4.27,14.905-19.823,23.528-34.729,19.249c-14.91-4.27-23.531-19.819-19.261-34.73c4.275-14.906,19.829-23.529,34.734-19.255
		C182.235,68.019,190.855,83.57,186.58,98.481z"/>
	<polygon fill="#A1D5D3" points="146.265,146.206 139.917,144.38 146.287,122.157 152.643,123.976 	"/>
	<polygon fill="none" points="146.265,146.206 139.917,144.38 146.287,122.157 152.643,123.976 	"/>
	<polygon fill="#A1D5D3" points="156.982,138.742 150.446,137.759 152.406,124.792 158.937,125.78 	"/>
	<polygon fill="none" points="156.982,138.742 150.446,137.759 152.406,124.792 158.937,125.78 	"/>
	
		<rect x="159.665" y="124.451" transform="matrix(0.9995 -0.032 0.032 0.9995 -4.2239 5.2818)" fill="#A1D5D3" width="6.61" height="20.414"/>
	
		<rect x="159.665" y="124.451" transform="matrix(0.9995 -0.032 0.032 0.9995 -4.2239 5.2818)" fill="none" width="6.61" height="20.414"/>
	<polygon fill="#A1D5D3" points="177.086,146.491 170.581,147.657 166.361,124.065 172.865,122.899 	"/>
	<polygon fill="none" points="177.086,146.491 170.581,147.657 166.361,124.065 172.865,122.899 	"/>
	<polygon fill="#A1D5D3" points="182.175,127.656 176.09,130.238 172.167,121.004 178.254,118.425 	"/>
	<polygon fill="none" points="182.175,127.656 176.09,130.238 172.167,121.004 178.254,118.425 	"/>
	<polygon fill="#A1D5D3" points="106.33,112.336 104.105,106.112 125.896,98.35 128.111,104.571 	"/>
	<polygon fill="none" points="106.33,112.336 104.105,106.112 125.896,98.35 128.111,104.571 	"/>
	
		<rect x="120.366" y="103.101" transform="matrix(0.4548 0.8906 -0.8906 0.4548 165.0901 -50.3535)" fill="#A1D5D3" width="6.608" height="13.111"/>
	
		<rect x="120.366" y="103.101" transform="matrix(0.4548 0.8906 -0.8906 0.4548 165.0901 -50.3535)" fill="none" width="6.608" height="13.111"/>
	
		<rect x="121.765" y="108.276" transform="matrix(0.6077 0.7942 -0.7942 0.6077 143.1677 -52.8442)" fill="#A1D5D3" width="6.607" height="20.412"/>
	
		<rect x="121.765" y="108.276" transform="matrix(0.6077 0.7942 -0.7942 0.6077 143.1677 -52.8442)" fill="none" width="6.607" height="20.412"/>
	
		<rect x="126.498" y="113.167" transform="matrix(0.7166 0.6975 -0.6975 0.7166 124.0851 -55.0674)" fill="#A1D5D3" width="6.61" height="23.97"/>
	
		<rect x="126.498" y="113.167" transform="matrix(0.7166 0.6975 -0.6975 0.7166 124.0851 -55.0674)" fill="none" width="6.61" height="23.97"/>
	<polygon fill="#A1D5D3" points="140.873,131.093 135.233,127.647 140.458,119.087 146.096,122.528 	"/>
	<polygon fill="none" points="140.873,131.093 135.233,127.647 140.458,119.087 146.096,122.528 	"/>
	<polygon fill="#A1D5D3" points="211.418,114.493 208.207,120.271 187.98,109.053 191.19,103.273 	"/>
	<polygon fill="none" points="211.418,114.493 208.207,120.271 187.98,109.053 191.19,103.273 	"/>
	<polygon fill="#A1D5D3" points="205.398,102.371 202.97,108.516 190.781,103.686 193.209,97.543 	"/>
	<polygon fill="none" points="205.398,102.371 202.97,108.516 190.781,103.686 193.209,97.543 	"/>
	
		<rect x="183.886" y="113.8" transform="matrix(0.8411 -0.5409 0.5409 0.8411 -38.2898 121.2329)" fill="#A1D5D3" width="6.611" height="23.971"/>
	
		<rect x="183.886" y="113.8" transform="matrix(0.8411 -0.5409 0.5409 0.8411 -38.2898 121.2329)" fill="none" width="6.611" height="23.971"/>
	
		<rect x="186.276" y="110.175" transform="matrix(0.7002 -0.7139 0.7139 0.7002 -25.4061 169.8723)" fill="#A1D5D3" width="6.609" height="10.029"/>
	
		<rect x="186.276" y="110.175" transform="matrix(0.7002 -0.7139 0.7139 0.7002 -25.4061 169.8723)" fill="none" width="6.609" height="10.029"/>
	<polygon fill="#A1D5D3" points="215.894,97.17 214.614,103.655 191.92,99.188 193.2,92.705 	"/>
	<polygon fill="none" points="215.894,97.17 214.614,103.655 191.92,99.188 193.2,92.705 	"/>
	<polygon fill="#A1D5D3" points="206.487,87.266 205.984,93.856 192.912,92.849 193.415,86.26 	"/>
	<polygon fill="none" points="206.487,87.266 205.984,93.856 192.912,92.849 193.415,86.26 	"/>
	<polygon fill="#A1D5D3" points="124.772,90.52 126.656,96.853 114.086,100.589 112.199,94.253 	"/>
	<polygon fill="none" points="124.772,90.52 126.656,96.853 114.086,100.589 112.199,94.253 	"/>
	
		<rect x="113.953" y="79.244" transform="matrix(-0.013 -0.9999 0.9999 -0.013 30.6508 206.532)" fill="#A1D5D3" width="6.607" height="17.789"/>
	
		<rect x="113.953" y="79.244" transform="matrix(-0.013 -0.9999 0.9999 -0.013 30.6508 206.532)" fill="none" width="6.607" height="17.789"/>
	<polygon fill="#A1D5D3" points="212.018,79.458 212.107,86.065 192.042,86.318 191.958,79.715 	"/>
	<polygon fill="none" points="212.018,79.458 212.107,86.065 192.042,86.318 191.958,79.715 	"/>
	<polygon fill="#A1D5D3" points="181.76,37.705 187.757,40.493 178.006,61.458 172.015,58.676 	"/>
	<polygon fill="none" points="181.76,37.705 187.757,40.493 178.006,61.458 172.015,58.676 	"/>
	
		<rect x="167.604" y="45.819" transform="matrix(-0.9537 -0.3007 0.3007 -0.9537 318.1623 153.7141)" fill="#A1D5D3" width="6.61" height="13.112"/>
	
		<rect x="167.604" y="45.819" transform="matrix(-0.9537 -0.3007 0.3007 -0.9537 318.1623 153.7141)" fill="none" width="6.61" height="13.112"/>
	
		<rect x="160.112" y="36.626" transform="matrix(-0.9924 -0.1233 0.1233 -0.9924 319.8133 113.4553)" fill="#A1D5D3" width="6.61" height="20.414"/>
	
		<rect x="160.112" y="36.626" transform="matrix(-0.9924 -0.1233 0.1233 -0.9924 319.8133 113.4553)" fill="none" width="6.61" height="20.414"/>
	<polygon fill="#A1D5D3" points="150.66,33.372 157.257,32.963 158.724,56.89 152.128,57.294 	"/>
	<polygon fill="none" points="150.66,33.372 157.257,32.963 158.724,56.89 152.128,57.294 	"/>
	
		<rect x="144.533" y="49.504" transform="matrix(-0.9699 0.2434 -0.2434 -0.9699 304.4956 71.4125)" fill="#A1D5D3" width="6.606" height="10.029"/>
	
		<rect x="144.533" y="49.504" transform="matrix(-0.9699 0.2434 -0.2434 -0.9699 304.4956 71.4125)" fill="none" width="6.606" height="10.029"/>
	<polygon fill="#A1D5D3" points="205.789,60.611 208.943,66.417 191.004,76.151 187.851,70.348 	"/>
	<polygon fill="none" points="205.789,60.611 208.943,66.417 191.004,76.151 187.851,70.348 	"/>
	
		<rect x="191.45" y="49.076" transform="matrix(-0.5996 -0.8003 0.8003 -0.5996 262.6742 253.53)" fill="#A1D5D3" width="6.612" height="23.966"/>
	
		<rect x="191.45" y="49.076" transform="matrix(-0.5996 -0.8003 0.8003 -0.5996 262.6742 253.53)" fill="none" width="6.612" height="23.966"/>
	
		<rect x="180.711" y="54.421" transform="matrix(-0.7628 -0.6467 0.6467 -0.7628 285.9459 223.7639)" fill="#A1D5D3" width="6.61" height="10.027"/>
	
		<rect x="180.711" y="54.421" transform="matrix(-0.7628 -0.6467 0.6467 -0.7628 285.9459 223.7639)" fill="none" width="6.61" height="10.027"/>
	
		<rect x="120.327" y="51.864" transform="matrix(-0.615 0.7885 -0.7885 -0.615 249.6778 4.9527)" fill="#A1D5D3" width="6.605" height="23.126"/>
	
		<rect x="120.327" y="51.864" transform="matrix(-0.615 0.7885 -0.7885 -0.615 249.6778 4.9527)" fill="none" width="6.605" height="23.126"/>
	
		<rect x="117.268" y="72.901" transform="matrix(-0.2484 0.9687 -0.9687 -0.2484 227.4921 -17.5957)" fill="#A1D5D3" width="6.608" height="13.113"/>
	
		<rect x="117.268" y="72.901" transform="matrix(-0.2484 0.9687 -0.9687 -0.2484 227.4921 -17.5957)" fill="none" width="6.608" height="13.113"/>
	<polygon fill="#A1D5D3" points="130.302,41.894 136.35,39.225 146.018,61.154 139.979,63.822 	"/>
	<polygon fill="none" points="130.302,41.894 136.35,39.225 146.018,61.154 139.979,63.822 	"/>
	
		<rect x="130.859" y="56.607" transform="matrix(-0.8025 0.5967 -0.5967 -0.8025 278.5887 31.0235)" fill="#A1D5D3" width="6.602" height="10.028"/>
	
		<rect x="130.859" y="56.607" transform="matrix(-0.8025 0.5967 -0.5967 -0.8025 278.5887 31.0235)" fill="none" width="6.602" height="10.028"/>
	
		<rect x="121.762" y="69.097" transform="matrix(-0.5317 0.8469 -0.8469 -0.5317 253.5153 6.1139)" fill="#A1D5D3" width="6.612" height="8.093"/>
	
		<rect x="121.762" y="69.097" transform="matrix(-0.5317 0.8469 -0.8469 -0.5317 253.5153 6.1139)" fill="none" width="6.612" height="8.093"/>
</g>
<g>
	
		<rect x="142.21" y="93.126" transform="matrix(0.2815 0.9596 -0.9596 0.2815 195.2282 -68.8939)" fill="#A1D5D3" width="2.82" height="5.591"/>
	
		<rect x="142.21" y="93.126" transform="matrix(0.2815 0.9596 -0.9596 0.2815 195.2282 -68.8939)" fill="none" width="2.82" height="5.591"/>
	<circle fill="none" stroke="#A1D5D3" stroke-width="4" stroke-miterlimit="10" cx="160.177" cy="89.697" r="14.094"/>
	<path fill="none" stroke="#A1D5D3" stroke-miterlimit="10" d="M151.228,87.131c1.415-4.942,6.573-7.801,11.513-6.383
		c4.945,1.416,7.805,6.571,6.387,11.515c-1.418,4.942-6.572,7.801-11.516,6.384C152.668,97.23,149.811,92.075,151.228,87.131z"/>
	
		<rect x="164.445" y="66.235" transform="matrix(-0.961 -0.2767 0.2767 -0.961 305.5404 185.4471)" fill="#A1D5D3" width="2.818" height="9.862"/>
	
		<rect x="164.445" y="66.235" transform="matrix(-0.961 -0.2767 0.2767 -0.961 305.5404 185.4471)" fill="none" width="2.818" height="9.862"/>
	
		<rect x="160.854" y="69.399" transform="matrix(-0.9889 -0.1488 0.1488 -0.9889 311.9766 167.7364)" fill="#A1D5D3" width="2.818" height="5.595"/>
	
		<rect x="160.854" y="69.399" transform="matrix(-0.9889 -0.1488 0.1488 -0.9889 311.9766 167.7364)" fill="none" width="2.818" height="5.595"/>
	
		<rect x="157.322" y="66.609" transform="matrix(-0.9995 0.0318 -0.0318 -0.9995 319.6438 136.8353)" fill="#A1D5D3" width="2.822" height="8.708"/>
	
		<rect x="157.322" y="66.609" transform="matrix(-0.9995 0.0318 -0.0318 -0.9995 319.6438 136.8353)" fill="none" width="2.822" height="8.708"/>
	
		<rect x="153.59" y="65.586" transform="matrix(-0.9843 0.1765 -0.1765 -0.9843 320.0439 112.9255)" fill="#A1D5D3" width="2.819" height="10.224"/>
	
		<rect x="153.59" y="65.586" transform="matrix(-0.9843 0.1765 -0.1765 -0.9843 320.0439 112.9255)" fill="none" width="2.819" height="10.224"/>
	
		<rect x="151.265" y="73.229" transform="matrix(-0.9204 0.3909 -0.3909 -0.9204 322.6649 85.0509)" fill="#A1D5D3" width="2.82" height="4.279"/>
	
		<rect x="151.265" y="73.229" transform="matrix(-0.9204 0.3909 -0.3909 -0.9204 322.6649 85.0509)" fill="none" width="2.82" height="4.279"/>
	<polygon fill="#A1D5D3" points="182.896,80.485 183.845,83.14 174.548,86.452 173.605,83.797 	"/>
	<polygon fill="none" points="182.896,80.485 183.845,83.14 174.548,86.452 173.605,83.797 	"/>
	
		<rect x="174.087" y="78.832" transform="matrix(-0.4544 -0.8908 0.8908 -0.4544 182.5294 275.0524)" fill="#A1D5D3" width="2.82" height="5.593"/>
	
		<rect x="174.087" y="78.832" transform="matrix(-0.4544 -0.8908 0.8908 -0.4544 182.5294 275.0524)" fill="none" width="2.82" height="5.593"/>
	
		<rect x="173.491" y="73.51" transform="matrix(-0.6078 -0.7941 0.7941 -0.6078 219.3715 264.0765)" fill="#A1D5D3" width="2.82" height="8.707"/>
	
		<rect x="173.491" y="73.51" transform="matrix(-0.6078 -0.7941 0.7941 -0.6078 219.3715 264.0765)" fill="none" width="2.82" height="8.707"/>
	
		<rect x="171.471" y="69.904" transform="matrix(-0.7167 -0.6973 0.6973 -0.7167 244.4782 249.3438)" fill="#A1D5D3" width="2.82" height="10.227"/>
	
		<rect x="171.471" y="69.904" transform="matrix(-0.7167 -0.6973 0.6973 -0.7167 244.4782 249.3438)" fill="none" width="2.82" height="10.227"/>
	
		<rect x="166.838" y="72.906" transform="matrix(-0.8533 -0.5214 0.5214 -0.8533 272.6854 226.8069)" fill="#A1D5D3" width="2.819" height="4.279"/>
	
		<rect x="166.838" y="72.906" transform="matrix(-0.8533 -0.5214 0.5214 -0.8533 272.6854 226.8069)" fill="none" width="2.819" height="4.279"/>
	
		<rect x="141.657" y="75.791" transform="matrix(-0.4856 0.8742 -0.8742 -0.4856 283.106 -5.1437)" fill="#A1D5D3" width="2.82" height="9.867"/>
	
		<rect x="141.657" y="75.791" transform="matrix(-0.4856 0.8742 -0.8742 -0.4856 283.106 -5.1437)" fill="none" width="2.82" height="9.867"/>
	<polygon fill="#A1D5D3" points="140.634,84.736 141.67,82.114 146.868,84.175 145.835,86.795 	"/>
	<polygon fill="none" points="140.634,84.736 141.67,82.114 146.868,84.175 145.835,86.795 	"/>
	
		<rect x="146.99" y="69.635" transform="matrix(-0.8413 0.5406 -0.5406 -0.8413 313.6552 57.4059)" fill="#A1D5D3" width="2.821" height="10.226"/>
	
		<rect x="146.99" y="69.635" transform="matrix(-0.8413 0.5406 -0.5406 -0.8413 313.6552 57.4059)" fill="none" width="2.821" height="10.226"/>
	
		<rect x="145.972" y="77.129" transform="matrix(-0.7003 0.7138 -0.7138 -0.7003 307.1798 29.575)" fill="#A1D5D3" width="2.82" height="4.277"/>
	
		<rect x="145.972" y="77.129" transform="matrix(-0.7003 0.7138 -0.7138 -0.7003 307.1798 29.575)" fill="none" width="2.82" height="4.277"/>
	
		<rect x="139.859" y="81.592" transform="matrix(-0.1939 0.981 -0.981 -0.1939 253.5426 -35.288)" fill="#A1D5D3" width="2.821" height="9.866"/>
	
		<rect x="139.859" y="81.592" transform="matrix(-0.1939 0.981 -0.981 -0.1939 253.5426 -35.288)" fill="none" width="2.821" height="9.866"/>
	
		<rect x="141.655" y="87.192" transform="matrix(-0.0762 0.9971 -0.9971 -0.0762 243.6922 -45.8033)" fill="#A1D5D3" width="2.82" height="5.593"/>
	
		<rect x="141.655" y="87.192" transform="matrix(-0.0762 0.9971 -0.9971 -0.0762 243.6922 -45.8033)" fill="none" width="2.82" height="5.593"/>
	
		<rect x="175.898" y="84.847" transform="matrix(0.2845 0.9587 -0.9587 0.2845 210.8949 -107.2692)" fill="#A1D5D3" width="2.819" height="5.593"/>
	
		<rect x="175.898" y="84.847" transform="matrix(0.2845 0.9587 -0.9587 0.2845 210.8949 -107.2692)" fill="none" width="2.819" height="5.593"/>
	
		<rect x="176.825" y="87.014" transform="matrix(0.0128 0.9999 -0.9999 0.0128 266.7488 -88.5759)" fill="#A1D5D3" width="2.818" height="7.587"/>
	
		<rect x="176.825" y="87.014" transform="matrix(0.0128 0.9999 -0.9999 0.0128 266.7488 -88.5759)" fill="none" width="2.818" height="7.587"/>
	
		<rect x="140.66" y="88.768" transform="matrix(0.0135 0.9999 -0.9999 0.0135 233.1896 -50.2663)" fill="#A1D5D3" width="2.819" height="8.559"/>
	
		<rect x="140.66" y="88.768" transform="matrix(0.0135 0.9999 -0.9999 0.0135 233.1896 -50.2663)" fill="none" width="2.819" height="8.559"/>
	
		<rect x="150.108" y="102.324" transform="matrix(0.9069 0.4213 -0.4213 0.9069 59.2873 -53.8501)" fill="#A1D5D3" width="2.822" height="9.863"/>
	
		<rect x="150.108" y="102.324" transform="matrix(0.9069 0.4213 -0.4213 0.9069 59.2873 -53.8501)" fill="none" width="2.822" height="9.863"/>
	
		<rect x="153.937" y="103.266" transform="matrix(0.9538 0.3004 -0.3004 0.9538 39.0431 -41.7729)" fill="#A1D5D3" width="2.82" height="5.594"/>
	
		<rect x="153.937" y="103.266" transform="matrix(0.9538 0.3004 -0.3004 0.9538 39.0431 -41.7729)" fill="none" width="2.82" height="5.594"/>
	
		<rect x="157.133" y="104.074" transform="matrix(0.9924 0.1233 -0.1233 0.9924 14.5748 -18.7163)" fill="#A1D5D3" width="2.82" height="8.708"/>
	
		<rect x="157.133" y="104.074" transform="matrix(0.9924 0.1233 -0.1233 0.9924 14.5748 -18.7163)" fill="none" width="2.82" height="8.708"/>
	
		<rect x="160.856" y="104.04" transform="matrix(0.9981 -0.062 0.062 0.9981 -6.4586 10.276)" fill="#A1D5D3" width="2.818" height="10.227"/>
	
		<rect x="160.856" y="104.04" transform="matrix(0.9981 -0.062 0.062 0.9981 -6.4586 10.276)" fill="none" width="2.818" height="10.227"/>
	
		<rect x="163.781" y="103.011" transform="matrix(0.9699 -0.2435 0.2435 0.9699 -20.6327 43.3914)" fill="#A1D5D3" width="2.819" height="4.278"/>
	
		<rect x="163.781" y="103.011" transform="matrix(0.9699 -0.2435 0.2435 0.9699 -20.6327 43.3914)" fill="none" width="2.819" height="4.278"/>
	
		<rect x="142.212" y="94.882" transform="matrix(0.4775 0.8786 -0.8786 0.4775 162.2303 -74.3398)" fill="#A1D5D3" width="2.818" height="8.708"/>
	
		<rect x="142.212" y="94.882" transform="matrix(0.4775 0.8786 -0.8786 0.4775 162.2303 -74.3398)" fill="none" width="2.818" height="8.708"/>
	
		<rect x="143.763" y="97.248" transform="matrix(0.5996 0.8003 -0.8003 0.5996 140.0371 -75.1975)" fill="#A1D5D3" width="2.821" height="10.224"/>
	
		<rect x="143.763" y="97.248" transform="matrix(0.5996 0.8003 -0.8003 0.5996 140.0371 -75.1975)" fill="none" width="2.821" height="10.224"/>
	
		<rect x="148.345" y="100.914" transform="matrix(0.763 0.6464 -0.6464 0.763 102.1039 -72.3784)" fill="#A1D5D3" width="2.822" height="4.278"/>
	
		<rect x="148.345" y="100.914" transform="matrix(0.763 0.6464 -0.6464 0.763 102.1039 -72.3784)" fill="none" width="2.822" height="4.278"/>
	
		<rect x="174.106" y="96.416" transform="matrix(0.615 -0.7885 0.7885 0.615 -12.3445 177.4157)" fill="#A1D5D3" width="2.817" height="9.867"/>
	
		<rect x="174.106" y="96.416" transform="matrix(0.615 -0.7885 0.7885 0.615 -12.3445 177.4157)" fill="none" width="2.817" height="9.867"/>
	
		<rect x="175.411" y="91.714" transform="matrix(0.2484 -0.9687 0.9687 0.2484 41.3561 242.3182)" fill="#A1D5D3" width="2.819" height="5.593"/>
	
		<rect x="175.411" y="91.714" transform="matrix(0.2484 -0.9687 0.9687 0.2484 41.3561 242.3182)" fill="none" width="2.819" height="5.593"/>
	
		<rect x="167.907" y="101.315" transform="matrix(0.9147 -0.404 0.404 0.9147 -28.5646 77.4829)" fill="#A1D5D3" width="2.819" height="10.224"/>
	
		<rect x="167.907" y="101.315" transform="matrix(0.9147 -0.404 0.404 0.9147 -28.5646 77.4829)" fill="none" width="2.819" height="10.224"/>
	
		<rect x="169.617" y="99.982" transform="matrix(0.8026 -0.5965 0.5965 0.8026 -27.157 122.1721)" fill="#A1D5D3" width="2.814" height="4.277"/>
	
		<rect x="169.617" y="99.982" transform="matrix(0.8026 -0.5965 0.5965 0.8026 -27.157 122.1721)" fill="none" width="2.814" height="4.277"/>
	
		<rect x="173.492" y="95.479" transform="matrix(0.5321 -0.8467 0.8467 0.5321 -0.4585 193.5791)" fill="#A1D5D3" width="2.821" height="3.452"/>
	
		<rect x="173.492" y="95.479" transform="matrix(0.5321 -0.8467 0.8467 0.5321 -0.4585 193.5791)" fill="none" width="2.821" height="3.452"/>
</g>
</svg>
