<?xml version="1.0" encoding="utf-8"?>
<!-- Generator: Adobe Illustrator 16.0.3, SVG Export Plug-In . SVG Version: 6.00 Build 0)  -->
<!DOCTYPE svg PUBLIC "-//W3C//DTD SVG 1.1//EN" "http://www.w3.org/Graphics/SVG/1.1/DTD/svg11.dtd">
<svg version="1.1" id="Ebene_1" xmlns="http://www.w3.org/2000/svg" xmlns:xlink="http://www.w3.org/1999/xlink" x="0px" y="0px"
	 width="320px" height="180px" viewBox="0 0 320 180" enable-background="new 0 0 320 180" xml:space="preserve">
<path fill="#A1D5D3" d="M173.66,80.977c4.235-1.935,6.092-6.932,4.157-11.161c-1.934-4.229-6.935-6.088-11.159-4.152
	c-4.227,1.935-6.088,6.932-4.15,11.159C164.439,81.051,169.434,82.91,173.66,80.977"/>
<path fill="#A1D5D3" d="M183.568,102.617c4.231-1.938,6.084-6.935,4.146-11.159c-1.932-4.23-6.928-6.088-11.152-4.154
	c-4.235,1.933-6.088,6.93-4.155,11.158C174.347,102.691,179.337,104.55,183.568,102.617"/>
<path fill="#A1D5D3" d="M149.824,82.697c4.23-1.935,6.084-6.934,4.151-11.159c-1.933-4.23-6.93-6.088-11.163-4.154
	c-4.226,1.933-6.083,6.93-4.146,11.159C140.598,82.771,145.592,84.63,149.824,82.697"/>
<path fill="#A1D5D3" d="M144.14,105.677c4.341-1.987,6.252-7.121,4.266-11.463c-1.991-4.339-7.119-6.252-11.465-4.265
	c-4.342,1.989-6.248,7.121-4.266,11.463C134.663,105.757,139.799,107.662,144.14,105.677"/>
<path fill="#A1D5D3" d="M164.868,117.917c4.318-1.977,6.207-7.074,4.234-11.391c-1.975-4.315-7.072-6.215-11.389-4.239
	c-4.315,1.975-6.214,7.072-4.239,11.391C155.449,117.993,160.548,119.892,164.868,117.917"/>
<g>
	<path fill="#A1D5D3" d="M141.642,132.493c4.168-0.947,5.639-5.321,5.639-5.321c-3.082-0.884-11.195-5.784-13.141-7.656
		c0,0-2.729,2.958-1.781,7.135C133.308,130.827,137.458,133.443,141.642,132.493"/>
	<path fill="none" stroke="#A1D5D3" stroke-width="1.027" stroke-miterlimit="10" stroke-dasharray="2.065,2.065" d="
		M147.667,126.653c0.257-0.67,0.425-1.389,0.489-2.141c0.362-4.267-2.805-8.021-7.07-8.377c-2.673-0.226-5.133,0.927-6.698,2.865"/>
</g>
<path fill="none" stroke="#A1D5D3" stroke-width="1.027" stroke-miterlimit="10" stroke-dasharray="2.042,2.042" d="M199.581,90.237
	c0,21.859-17.718,39.579-39.577,39.579c-21.861,0-39.583-17.72-39.583-39.579c0-21.859,17.722-39.581,39.583-39.581
	C181.863,50.656,199.581,68.378,199.581,90.237z"/>
<g>
	<path fill="#A1D5D3" d="M114.06,87.261c2.318,3.59,6.932,3.472,6.932,3.472c-0.227-3.197,1.595-12.499,2.687-14.968
		c0,0-3.715-1.55-7.313,0.773C112.767,78.86,111.732,83.655,114.06,87.261"/>
	<path fill="none" stroke="#A1D5D3" stroke-width="1.027" stroke-miterlimit="10" stroke-dasharray="2.065,2.065" d="
		M121.413,91.063c0.717,0.01,1.45-0.081,2.178-0.28c4.13-1.131,6.562-5.398,5.425-9.525c-0.709-2.586-2.641-4.498-5-5.298"/>
</g>
<g>
	<path fill="#A1D5D3" d="M184.479,51.16c-4.264,0.301-6.382,4.401-6.382,4.401c2.91,1.342,10.184,7.419,11.822,9.566
		c0,0,3.148-2.509,2.846-6.782C192.463,54.075,188.76,50.858,184.479,51.16"/>
	<path fill="none" stroke="#A1D5D3" stroke-width="1.027" stroke-miterlimit="10" stroke-dasharray="2.065,2.065" d="
		M177.604,55.771c-0.354,0.624-0.628,1.31-0.804,2.043c-0.999,4.164,1.568,8.351,5.733,9.343c2.608,0.625,5.213-0.146,7.052-1.828"
		/>
</g>
<g>
	<path fill="#A1D5D3" d="M202.047,109.128c-0.895-4.179-5.251-5.704-5.251-5.704c-0.921,3.07-5.922,11.122-7.819,13.044
		c0,0,2.925,2.766,7.113,1.869C200.278,117.442,202.945,113.327,202.047,109.128"/>
	<path fill="none" stroke="#A1D5D3" stroke-width="1.027" stroke-miterlimit="10" stroke-dasharray="2.065,2.065" d="
		M196.521,102.967c-0.668-0.264-1.385-0.438-2.136-0.51c-4.263-0.407-8.05,2.72-8.451,6.982c-0.253,2.67,0.874,5.143,2.796,6.728"/>
</g>
</svg>
