<?xml version="1.0" encoding="utf-8"?>
<!-- Generator: Adobe Illustrator 16.0.3, SVG Export Plug-In . SVG Version: 6.00 Build 0)  -->
<!DOCTYPE svg PUBLIC "-//W3C//DTD SVG 1.1//EN" "http://www.w3.org/Graphics/SVG/1.1/DTD/svg11.dtd">
<svg version="1.1" id="Ebene_1" xmlns="http://www.w3.org/2000/svg" xmlns:xlink="http://www.w3.org/1999/xlink" x="0px" y="0px"
	 width="320px" height="180px" viewBox="0 0 320 180" enable-background="new 0 0 320 180" xml:space="preserve">
<path fill="#A1D5D3" d="M92.274,72.66c0-3.547,4.978-6.421,0-6.421C87.298,66.239,92.274,69.113,92.274,72.66"/>
<path fill="#A1D5D3" d="M92.274,72.66c0-3.547,4.978-6.421,0-6.421C87.298,66.239,92.274,69.113,92.274,72.66"/>
<path fill="#A1D5D3" d="M92.146,72.59c2.273,3.398,0.408,8.63,4.114,6.156C99.968,76.271,94.419,75.989,92.146,72.59"/>
<path fill="#A1D5D3" d="M92.146,72.59c2.273,3.398,0.408,8.63,4.114,6.156C99.968,76.271,94.419,75.989,92.146,72.59"/>
<path fill="#A1D5D3" d="M92.328,72.756c4.778-1.519,10.042,1.61,8.655-2.752C99.6,65.649,97.106,71.238,92.328,72.756"/>
<path fill="#A1D5D3" d="M92.328,72.756c4.778-1.519,10.042,1.61,8.655-2.752C99.6,65.649,97.106,71.238,92.328,72.756"/>
<path fill="#A1D5D3" d="M92.274,72.66c-5.917-1.938-9.204-8.09-10.706-3.515C80.062,73.718,86.358,70.722,92.274,72.66"/>
<path fill="#A1D5D3" d="M92.274,72.66c-5.917-1.938-9.204-8.09-10.706-3.515C80.062,73.718,86.358,70.722,92.274,72.66"/>
<path fill="#A1D5D3" d="M92.274,72.66c-2.073,2.883-7.797,2.313-3.755,5.225C92.569,80.792,90.201,75.543,92.274,72.66"/>
<path fill="#A1D5D3" d="M92.274,72.66c-2.073,2.883-7.797,2.313-3.755,5.225C92.569,80.792,90.201,75.543,92.274,72.66"/>
<path fill="#A1D5D3" d="M113.629,103.304c0-4.606,4.486-8.341,0-8.341C109.149,94.963,113.629,98.697,113.629,103.304"/>
<path fill="#A1D5D3" d="M113.629,103.304c0-4.606,4.486-8.341,0-8.341C109.149,94.963,113.629,98.697,113.629,103.304"/>
<path fill="#A1D5D3" d="M113.513,103.241c2.044,3.063,0.368,7.763,3.699,5.533C120.542,106.553,115.557,106.304,113.513,103.241"/>
<path fill="#A1D5D3" d="M113.513,103.241c2.044,3.063,0.368,7.763,3.699,5.533C120.542,106.553,115.557,106.304,113.513,103.241"/>
<path fill="#A1D5D3" d="M113.676,103.39c4.297-1.366,9.03,1.448,7.785-2.472C120.217,97,117.973,102.024,113.676,103.39"/>
<path fill="#A1D5D3" d="M113.676,103.39c4.297-1.366,9.03,1.448,7.785-2.472C120.217,97,117.973,102.024,113.676,103.39"/>
<path fill="#A1D5D3" d="M113.629,103.304c-5.315-1.74-8.278-7.27-9.63-3.16C102.646,104.259,108.313,101.563,113.629,103.304"/>
<path fill="#A1D5D3" d="M113.629,103.304c-5.315-1.74-8.278-7.27-9.63-3.16C102.646,104.259,108.313,101.563,113.629,103.304"/>
<path fill="#A1D5D3" d="M113.629,103.304c-3.132,4.357-9.303,5.277-5.673,7.89C111.596,113.809,110.497,107.661,113.629,103.304"/>
<path fill="#A1D5D3" d="M113.629,103.304c-3.132,4.357-9.303,5.277-5.673,7.89C111.596,113.809,110.497,107.661,113.629,103.304"/>
<path fill="#A1D5D3" d="M83.464,91.307c0-3.195,4.477-5.781,0-5.781C78.984,85.525,83.464,88.112,83.464,91.307"/>
<path fill="#A1D5D3" d="M83.464,91.307c0-3.195,4.477-5.781,0-5.781C78.984,85.525,83.464,88.112,83.464,91.307"/>
<path fill="#A1D5D3" d="M83.349,91.24c2.044,3.06,0.367,7.762,3.704,5.537C90.378,94.547,85.393,94.299,83.349,91.24"/>
<path fill="#A1D5D3" d="M83.349,91.24c2.044,3.06,0.367,7.762,3.704,5.537C90.378,94.547,85.393,94.299,83.349,91.24"/>
<path fill="#A1D5D3" d="M83.506,91.387c4.302-1.366,9.035,1.446,7.79-2.473C90.052,84.998,87.809,90.021,83.506,91.387"/>
<path fill="#A1D5D3" d="M83.506,91.387c4.302-1.366,9.035,1.446,7.79-2.473C90.052,84.998,87.809,90.021,83.506,91.387"/>
<path fill="#A1D5D3" d="M83.464,91.307c-5.321-1.747-8.277-7.278-9.633-3.163C72.481,92.257,78.143,89.56,83.464,91.307"/>
<path fill="#A1D5D3" d="M83.464,91.307c-5.321-1.747-8.277-7.278-9.633-3.163C72.481,92.257,78.143,89.56,83.464,91.307"/>
<path fill="#A1D5D3" d="M83.464,91.307c-3.13,4.352-9.307,5.274-5.672,7.884C81.433,101.806,80.334,95.658,83.464,91.307"/>
<path fill="#A1D5D3" d="M83.464,91.307c-3.13,4.352-9.307,5.274-5.672,7.884C81.433,101.806,80.334,95.658,83.464,91.307"/>
<path fill="#A1D5D3" d="M173.726,64.635c0-3.06,4.293-5.539,0-5.539C169.434,59.096,173.726,61.575,173.726,64.635"/>
<path fill="#A1D5D3" d="M173.726,64.635c0-3.06,4.293-5.539,0-5.539C169.434,59.096,173.726,61.575,173.726,64.635"/>
<path fill="#A1D5D3" d="M173.61,64.569c1.961,2.93,0.356,7.442,3.552,5.309C180.348,67.749,175.571,67.499,173.61,64.569"/>
<path fill="#A1D5D3" d="M173.61,64.569c1.961,2.93,0.356,7.442,3.552,5.309C180.348,67.749,175.571,67.499,173.61,64.569"/>
<path fill="#A1D5D3" d="M173.771,64.712c2.983-0.946,6.599,2.042,5.405-1.713C177.983,59.242,176.754,63.766,173.771,64.712"/>
<path fill="#A1D5D3" d="M173.771,64.712c2.983-0.946,6.599,2.042,5.405-1.713C177.983,59.242,176.754,63.766,173.771,64.712"/>
<path fill="#A1D5D3" d="M173.726,64.635c-5.097-1.674-7.935-6.965-9.224-3.03C163.204,65.546,168.629,62.961,173.726,64.635"/>
<path fill="#A1D5D3" d="M173.726,64.635c-5.097-1.674-7.935-6.965-9.224-3.03C163.204,65.546,168.629,62.961,173.726,64.635"/>
<path fill="#A1D5D3" d="M173.726,64.635c-3,4.174-8.917,5.055-5.434,7.557C171.778,74.695,170.726,68.809,173.726,64.635"/>
<path fill="#A1D5D3" d="M173.726,64.635c-3,4.174-8.917,5.055-5.434,7.557C171.778,74.695,170.726,68.809,173.726,64.635"/>
<path fill="#A1D5D3" d="M235.697,78.291c0-3.219,4.516-5.828,0-5.828C231.179,72.463,235.697,75.072,235.697,78.291"/>
<path fill="#A1D5D3" d="M235.697,78.291c0-3.219,4.516-5.828,0-5.828C231.179,72.463,235.697,75.072,235.697,78.291"/>
<path fill="#A1D5D3" d="M235.58,78.225c2.054,3.079,0.369,7.827,3.733,5.584C242.672,81.559,237.634,81.304,235.58,78.225"/>
<path fill="#A1D5D3" d="M235.58,78.225c2.054,3.079,0.369,7.827,3.733,5.584C242.672,81.559,237.634,81.304,235.58,78.225"/>
<path fill="#A1D5D3" d="M235.739,78.373c5.254-1.666,10.766,0.936,9.506-3.018C243.996,71.407,240.993,76.707,235.739,78.373"/>
<path fill="#A1D5D3" d="M235.739,78.373c5.254-1.666,10.766,0.936,9.506-3.018C243.996,71.407,240.993,76.707,235.739,78.373"/>
<path fill="#A1D5D3" d="M235.697,78.291c-5.367-1.761-8.348-7.333-9.709-3.193C224.623,79.25,230.33,76.53,235.697,78.291"/>
<path fill="#A1D5D3" d="M235.697,78.291c-5.367-1.761-8.348-7.333-9.709-3.193C224.623,79.25,230.33,76.53,235.697,78.291"/>
<path fill="#A1D5D3" d="M235.697,78.291c-3.158,4.391-9.385,5.314-5.721,7.951C233.646,88.877,232.539,82.682,235.697,78.291"/>
<path fill="#A1D5D3" d="M235.697,78.291c-3.158,4.391-9.385,5.314-5.721,7.951C233.646,88.877,232.539,82.682,235.697,78.291"/>
<path fill="#A1D5D3" d="M150.281,91.667c0-3.417,4.801-6.181,0-6.181C145.494,85.485,150.281,88.25,150.281,91.667"/>
<path fill="#A1D5D3" d="M150.281,91.667c0-3.417,4.801-6.181,0-6.181C145.494,85.485,150.281,88.25,150.281,91.667"/>
<path fill="#A1D5D3" d="M150.163,91.6c2.18,3.271,0.39,8.303,3.958,5.924C157.684,95.14,152.343,94.871,150.163,91.6"/>
<path fill="#A1D5D3" d="M150.163,91.6c2.18,3.271,0.39,8.303,3.958,5.924C157.684,95.14,152.343,94.871,150.163,91.6"/>
<path fill="#A1D5D3" d="M150.332,91.755c4.604-1.465,9.661,1.544,8.328-2.646C157.333,84.916,154.936,90.291,150.332,91.755"/>
<path fill="#A1D5D3" d="M150.332,91.755c4.604-1.465,9.661,1.544,8.328-2.646C157.333,84.916,154.936,90.291,150.332,91.755"/>
<path fill="#A1D5D3" d="M150.281,91.667c-5.687-1.873-8.857-7.785-10.303-3.384C138.535,92.685,144.594,89.794,150.281,91.667"/>
<path fill="#A1D5D3" d="M150.281,91.667c-5.687-1.873-8.857-7.785-10.303-3.384C138.535,92.685,144.594,89.794,150.281,91.667"/>
<path fill="#A1D5D3" d="M150.281,91.667c-1.99,2.776-7.497,2.226-3.609,5.024C150.568,99.493,148.291,94.442,150.281,91.667"/>
<path fill="#A1D5D3" d="M150.281,91.667c-1.99,2.776-7.497,2.226-3.609,5.024C150.568,99.493,148.291,94.442,150.281,91.667"/>
<path fill="#A1D5D3" d="M227.977,108.485c0-4.54,4.412-8.221,0-8.221C223.558,100.265,227.977,103.946,227.977,108.485"/>
<path fill="#A1D5D3" d="M227.977,108.485c0-4.54,4.412-8.221,0-8.221C223.558,100.265,227.977,103.946,227.977,108.485"/>
<path fill="#A1D5D3" d="M227.858,108.426c2.013,3.01,0.361,7.651,3.645,5.456C234.785,111.69,229.871,111.436,227.858,108.426"/>
<path fill="#A1D5D3" d="M227.858,108.426c2.013,3.01,0.361,7.651,3.645,5.456C234.785,111.69,229.871,111.436,227.858,108.426"/>
<path fill="#A1D5D3" d="M228.013,108.571c4.246-1.349,8.904,1.427,7.671-2.435C234.465,102.273,232.259,107.222,228.013,108.571"/>
<path fill="#A1D5D3" d="M228.013,108.571c4.246-1.349,8.904,1.427,7.671-2.435C234.465,102.273,232.259,107.222,228.013,108.571"/>
<path fill="#A1D5D3" d="M227.977,108.485c-5.247-1.717-8.16-7.164-9.492-3.109C217.149,109.43,222.729,106.769,227.977,108.485"/>
<path fill="#A1D5D3" d="M227.977,108.485c-5.247-1.717-8.16-7.164-9.492-3.109C217.149,109.43,222.729,106.769,227.977,108.485"/>
<path fill="#A1D5D3" d="M227.977,108.485c-3.089,4.295-9.177,5.2-5.592,7.778C225.971,118.841,224.888,112.781,227.977,108.485"/>
<path fill="#A1D5D3" d="M227.977,108.485c-3.089,4.295-9.177,5.2-5.592,7.778C225.971,118.841,224.888,112.781,227.977,108.485"/>
<path fill="#A1D5D3" d="M166.59,118.21c0-3.221,4.521-5.837,0-5.837C162.062,112.373,166.59,114.989,166.59,118.21"/>
<path fill="#A1D5D3" d="M166.59,118.21c0-3.221,4.521-5.837,0-5.837C162.062,112.373,166.59,114.989,166.59,118.21"/>
<path fill="#A1D5D3" d="M166.467,118.15c2.066,3.086,0.371,7.839,3.738,5.587C173.576,121.487,168.533,121.236,166.467,118.15"/>
<path fill="#A1D5D3" d="M166.467,118.15c2.066,3.086,0.371,7.839,3.738,5.587C173.576,121.487,168.533,121.236,166.467,118.15"/>
<path fill="#A1D5D3" d="M166.632,118.293c4.343-1.374,9.12,1.461,7.862-2.498C173.247,111.837,170.975,116.919,166.632,118.293"/>
<path fill="#A1D5D3" d="M166.632,118.293c4.343-1.374,9.12,1.461,7.862-2.498C173.247,111.837,170.975,116.919,166.632,118.293"/>
<path fill="#A1D5D3" d="M166.59,118.21c-5.383-1.762-8.371-7.349-9.74-3.195C155.491,119.171,161.207,116.448,166.59,118.21"/>
<path fill="#A1D5D3" d="M166.59,118.21c-5.383-1.762-8.371-7.349-9.74-3.195C155.491,119.171,161.207,116.448,166.59,118.21"/>
<path fill="#A1D5D3" d="M166.59,118.21c-3.164,4.405-9.412,5.333-5.732,7.973C164.531,128.824,163.426,122.616,166.59,118.21"/>
<path fill="#A1D5D3" d="M166.59,118.21c-3.164,4.405-9.412,5.333-5.732,7.973C164.531,128.824,163.426,122.616,166.59,118.21"/>
<path fill="#A1D5D3" d="M98.457,127.857c0-3.417,4.794-6.182,0-6.182C93.669,121.675,98.457,124.44,98.457,127.857"/>
<path fill="#A1D5D3" d="M98.457,127.857c0-3.417,4.794-6.182,0-6.182C93.669,121.675,98.457,124.44,98.457,127.857"/>
<path fill="#A1D5D3" d="M98.334,127.787c2.186,3.272,0.391,8.305,3.957,5.925C105.859,131.33,100.52,131.059,98.334,127.787"/>
<path fill="#A1D5D3" d="M98.334,127.787c2.186,3.272,0.391,8.305,3.957,5.925C105.859,131.33,100.52,131.059,98.334,127.787"/>
<path fill="#A1D5D3" d="M98.501,127.947c4.605-1.464,9.663,1.545,8.335-2.65C105.505,121.107,103.106,126.482,98.501,127.947"/>
<path fill="#A1D5D3" d="M98.501,127.947c4.605-1.464,9.663,1.545,8.335-2.65C105.505,121.107,103.106,126.482,98.501,127.947"/>
<path fill="#A1D5D3" d="M98.457,127.857c-5.693-1.868-8.863-7.785-10.307-3.386C86.706,128.875,92.764,125.989,98.457,127.857"/>
<path fill="#A1D5D3" d="M98.457,127.857c-5.693-1.868-8.863-7.785-10.307-3.386C86.706,128.875,92.764,125.989,98.457,127.857"/>
<path fill="#A1D5D3" d="M98.457,127.857c-2.001,2.774-7.503,2.222-3.615,5.025C98.733,135.681,96.456,130.631,98.457,127.857"/>
<path fill="#A1D5D3" d="M98.457,127.857c-2.001,2.774-7.503,2.222-3.615,5.025C98.733,135.681,96.456,130.631,98.457,127.857"/>
<path fill="#A1D5D3" d="M195.569,93.926c0-3.146,4.411-5.698,0-5.698C191.15,88.228,195.569,90.781,195.569,93.926"/>
<path fill="#A1D5D3" d="M195.569,93.926c0-3.146,4.411-5.698,0-5.698C191.15,88.228,195.569,90.781,195.569,93.926"/>
<path fill="#A1D5D3" d="M195.449,93.867c2.016,3.011,0.368,7.653,3.652,5.456C202.387,97.125,197.465,96.878,195.449,93.867"/>
<path fill="#A1D5D3" d="M195.449,93.867c2.016,3.011,0.368,7.653,3.652,5.456C202.387,97.125,197.465,96.878,195.449,93.867"/>
<path fill="#A1D5D3" d="M195.616,94.006c4.237-1.34,8.899,1.426,7.674-2.437C202.063,87.707,199.854,92.666,195.616,94.006"/>
<path fill="#A1D5D3" d="M195.616,94.006c4.237-1.34,8.899,1.426,7.674-2.437C202.063,87.707,199.854,92.666,195.616,94.006"/>
<path fill="#A1D5D3" d="M195.569,93.926c-5.248-1.722-8.168-7.173-9.499-3.118C184.739,94.865,190.321,92.205,195.569,93.926"/>
<path fill="#A1D5D3" d="M195.569,93.926c-5.248-1.722-8.168-7.173-9.499-3.118C184.739,94.865,190.321,92.205,195.569,93.926"/>
<path fill="#A1D5D3" d="M195.569,93.926c-3.092,4.298-9.184,5.205-5.594,7.783C193.565,104.282,192.478,98.225,195.569,93.926"/>
<path fill="#A1D5D3" d="M195.569,93.926c-3.092,4.298-9.184,5.205-5.594,7.783C193.565,104.282,192.478,98.225,195.569,93.926"/>
<path fill="#A1D5D3" d="M136.467,121.527c0-3.452,4.843-6.245,0-6.245C131.626,115.282,136.467,118.075,136.467,121.527"/>
<path fill="#A1D5D3" d="M136.467,121.527c0-3.452,4.843-6.245,0-6.245C131.626,115.282,136.467,118.075,136.467,121.527"/>
<path fill="#A1D5D3" d="M136.341,121.458c2.209,3.303,0.396,8.393,3.999,5.984C143.946,125.034,138.55,124.761,136.341,121.458"/>
<path fill="#A1D5D3" d="M136.341,121.458c2.209,3.303,0.396,8.393,3.999,5.984C143.946,125.034,138.55,124.761,136.341,121.458"/>
<path fill="#A1D5D3" d="M136.518,121.615c3.368-1.068,7.439,2.306,6.095-1.937C141.271,115.438,139.885,120.547,136.518,121.615"/>
<path fill="#A1D5D3" d="M136.518,121.615c3.368-1.068,7.439,2.306,6.095-1.937C141.271,115.438,139.885,120.547,136.518,121.615"/>
<path fill="#A1D5D3" d="M136.467,121.527c-5.749-1.886-8.952-7.867-10.412-3.419C124.59,122.556,130.718,119.642,136.467,121.527"/>
<path fill="#A1D5D3" d="M136.467,121.527c-5.749-1.886-8.952-7.867-10.412-3.419C124.59,122.556,130.718,119.642,136.467,121.527"/>
<path fill="#A1D5D3" d="M136.467,121.527c-3.386,4.709-10.059,5.705-6.129,8.528C134.268,132.883,133.081,126.236,136.467,121.527"
	/>
<path fill="#A1D5D3" d="M136.467,121.527c-3.386,4.709-10.059,5.705-6.129,8.528C134.268,132.883,133.081,126.236,136.467,121.527"
	/>
<path fill="#A1D5D3" d="M202.57,56.725c0-4.405,4.281-7.976,0-7.976C198.287,48.75,202.57,52.32,202.57,56.725"/>
<path fill="#A1D5D3" d="M202.57,56.725c0-4.405,4.281-7.976,0-7.976C198.287,48.75,202.57,52.32,202.57,56.725"/>
<path fill="#A1D5D3" d="M202.454,56.667c1.952,2.924,0.35,7.421,3.539,5.287C209.172,59.828,204.406,59.591,202.454,56.667"/>
<path fill="#A1D5D3" d="M202.454,56.667c1.952,2.924,0.35,7.421,3.539,5.287C209.172,59.828,204.406,59.591,202.454,56.667"/>
<path fill="#A1D5D3" d="M202.61,56.803c4.106-1.303,8.625,1.386,7.438-2.359C208.859,50.705,206.717,55.5,202.61,56.803"/>
<path fill="#A1D5D3" d="M202.61,56.803c4.106-1.303,8.625,1.386,7.438-2.359C208.859,50.705,206.717,55.5,202.61,56.803"/>
<path fill="#A1D5D3" d="M202.57,56.725c-5.086-1.667-7.917-6.951-9.207-3.022C192.067,57.638,197.484,55.058,202.57,56.725"/>
<path fill="#A1D5D3" d="M202.57,56.725c-5.086-1.667-7.917-6.951-9.207-3.022C192.067,57.638,197.484,55.058,202.57,56.725"/>
<path fill="#A1D5D3" d="M202.57,56.725c-2.998,4.165-8.897,5.043-5.426,7.54C200.623,66.765,199.572,60.89,202.57,56.725"/>
<path fill="#A1D5D3" d="M202.57,56.725c-2.998,4.165-8.897,5.043-5.426,7.54C200.623,66.765,199.572,60.89,202.57,56.725"/>
<path fill="#A1D5D3" d="M235.317,50.755c0-3.057,4.293-5.537,0-5.537C231.025,45.219,235.317,47.698,235.317,50.755"/>
<path fill="#A1D5D3" d="M235.317,50.755c0-3.057,4.293-5.537,0-5.537C231.025,45.219,235.317,47.698,235.317,50.755"/>
<path fill="#A1D5D3" d="M235.202,50.695c1.962,2.93,0.356,7.438,3.548,5.302C241.941,53.866,237.164,53.625,235.202,50.695"/>
<path fill="#A1D5D3" d="M235.202,50.695c1.962,2.93,0.356,7.438,3.548,5.302C241.941,53.866,237.164,53.625,235.202,50.695"/>
<path fill="#A1D5D3" d="M235.363,50.833c2.984-0.948,6.592,2.042,5.398-1.716C239.575,45.363,238.348,49.886,235.363,50.833"/>
<path fill="#A1D5D3" d="M235.363,50.833c2.984-0.948,6.592,2.042,5.398-1.716C239.575,45.363,238.348,49.886,235.363,50.833"/>
<path fill="#A1D5D3" d="M235.317,50.755c-5.092-1.674-7.936-6.97-9.229-3.031C224.801,51.667,230.226,49.082,235.317,50.755"/>
<path fill="#A1D5D3" d="M235.317,50.755c-5.092-1.674-7.936-6.97-9.229-3.031C224.801,51.667,230.226,49.082,235.317,50.755"/>
<path fill="#A1D5D3" d="M235.317,50.755c-3.004,4.175-8.916,5.05-5.43,7.559C233.372,60.816,232.313,54.93,235.317,50.755"/>
<path fill="#A1D5D3" d="M235.317,50.755c-3.004,4.175-8.916,5.05-5.43,7.559C233.372,60.816,232.313,54.93,235.317,50.755"/>
<path fill="#A1D5D3" d="M202.37,127.318c0-4.542,4.42-8.229,0-8.229C197.959,119.089,202.37,122.776,202.37,127.318"/>
<path fill="#A1D5D3" d="M202.37,127.318c0-4.542,4.42-8.229,0-8.229C197.959,119.089,202.37,122.776,202.37,127.318"/>
<path fill="#A1D5D3" d="M202.262,127.252c2.007,3.015,0.356,7.648,3.644,5.453C209.191,130.516,204.269,130.267,202.262,127.252"/>
<path fill="#A1D5D3" d="M202.262,127.252c2.007,3.015,0.356,7.648,3.644,5.453C209.191,130.516,204.269,130.267,202.262,127.252"/>
<path fill="#A1D5D3" d="M202.421,127.397c4.229-1.346,8.898,1.425,7.67-2.437C208.86,121.103,206.65,126.052,202.421,127.397"/>
<path fill="#A1D5D3" d="M202.421,127.397c4.229-1.346,8.898,1.425,7.67-2.437C208.86,121.103,206.65,126.052,202.421,127.397"/>
<path fill="#A1D5D3" d="M202.37,127.318c-5.239-1.722-8.157-7.169-9.48-3.119C191.552,128.254,197.131,125.596,202.37,127.318"/>
<path fill="#A1D5D3" d="M202.37,127.318c-5.239-1.722-8.157-7.169-9.48-3.119C191.552,128.254,197.131,125.596,202.37,127.318"/>
<path fill="#A1D5D3" d="M202.37,127.318c-3.081,4.288-9.168,5.19-5.585,7.768C200.371,137.666,199.289,131.606,202.37,127.318"/>
<path fill="#A1D5D3" d="M202.37,127.318c-3.081,4.288-9.168,5.19-5.585,7.768C200.371,137.666,199.289,131.606,202.37,127.318"/>
</svg>
