<?xml version="1.0" encoding="utf-8"?>
<!-- Generator: Adobe Illustrator 16.0.3, SVG Export Plug-In . SVG Version: 6.00 Build 0)  -->
<!DOCTYPE svg PUBLIC "-//W3C//DTD SVG 1.1//EN" "http://www.w3.org/Graphics/SVG/1.1/DTD/svg11.dtd">
<svg version="1.1" id="Ebene_1" xmlns="http://www.w3.org/2000/svg" xmlns:xlink="http://www.w3.org/1999/xlink" x="0px" y="0px"
	 width="320px" height="180px" viewBox="0 0 320 180" enable-background="new 0 0 320 180" xml:space="preserve">
<path fill="#A1D5D3" d="M87.071,65.103c0.562,1.363-0.086,2.924-1.45,3.485c-1.361,0.56-2.921-0.089-3.482-1.449
	c-0.56-1.363,0.088-2.924,1.449-3.486C84.949,63.092,86.511,63.739,87.071,65.103"/>
<path fill="#A1D5D3" d="M93.575,66.51c0.564,1.361-0.089,2.918-1.447,3.481c-1.366,0.561-2.924-0.088-3.487-1.445
	c-0.562-1.367,0.086-2.924,1.451-3.489C91.453,64.495,93.014,65.144,93.575,66.51"/>
<path fill="#A1D5D3" d="M84.642,71.678c0.562,1.364-0.086,2.922-1.452,3.481c-1.361,0.564-2.919-0.085-3.481-1.449
	c-0.561-1.359,0.087-2.921,1.448-3.482C82.52,69.666,84.08,70.314,84.642,71.678"/>
<path fill="#A1D5D3" d="M88.833,55.847c0.562,1.363-0.089,2.926-1.452,3.485c-1.361,0.561-2.921-0.088-3.481-1.447
	c-0.561-1.362,0.087-2.922,1.448-3.486C86.708,53.84,88.272,54.486,88.833,55.847"/>
<path fill="#A1D5D3" d="M98.904,72.068c0.562,1.361-0.092,2.921-1.45,3.483c-1.363,0.561-2.921-0.088-3.483-1.451
	c-0.559-1.36,0.087-2.921,1.45-3.482C96.78,70.057,98.344,70.705,98.904,72.068"/>
<path fill="#A1D5D3" d="M106.434,65.454c0.562,1.363-0.086,2.924-1.448,3.485c-1.363,0.563-2.921-0.089-3.487-1.453
	c-0.559-1.359,0.089-2.92,1.452-3.482C104.312,63.442,105.872,64.091,106.434,65.454"/>
<path fill="#A1D5D3" d="M96.691,61.07c0.559,1.361-0.09,2.922-1.452,3.483c-1.359,0.56-2.921-0.087-3.481-1.45
	c-0.563-1.365,0.087-2.923,1.446-3.483C94.569,59.058,96.129,59.705,96.691,61.07"/>
<path fill="#A1D5D3" d="M112.008,77.317c0.562,1.361-0.091,2.921-1.452,3.485c-1.363,0.559-2.921-0.09-3.483-1.453
	c-0.564-1.363,0.087-2.921,1.448-3.48C109.884,75.306,111.444,75.953,112.008,77.317"/>
<path fill="#A1D5D3" d="M111.313,57.051c0.677,1.308,0.161,2.922-1.148,3.593c-1.31,0.676-2.92,0.161-3.594-1.146
	c-0.678-1.311-0.163-2.922,1.149-3.596C109.029,55.228,110.639,55.743,111.313,57.051"/>
<path fill="#A1D5D3" d="M112.812,63.569c0.388,1.418-0.447,2.889-1.871,3.278c-1.421,0.388-2.887-0.448-3.278-1.868
	c-0.388-1.425,0.449-2.887,1.87-3.281C110.956,61.313,112.422,62.147,112.812,63.569"/>
<path fill="#A1D5D3" d="M103.065,54.982c0.559,1.361-0.09,2.922-1.452,3.485c-1.361,0.56-2.921-0.089-3.483-1.452
	c-0.561-1.36,0.089-2.921,1.45-3.48C100.941,52.973,102.501,53.621,103.065,54.982"/>
<path fill="#A1D5D3" d="M96.661,53.818c0.56,1.361-0.086,2.919-1.45,3.481c-1.363,0.562-2.925-0.085-3.485-1.447
	c-0.561-1.365,0.087-2.926,1.45-3.487C94.539,51.804,96.099,52.452,96.661,53.818"/>
<path fill="#A1D5D3" d="M90.658,79.273c0.564,1.363-0.086,2.922-1.448,3.483c-1.363,0.564-2.921-0.087-3.482-1.448
	c-0.564-1.362,0.086-2.924,1.447-3.483C88.538,77.26,90.096,77.911,90.658,79.273"/>
<path fill="#A1D5D3" d="M100.314,79.596c0.564,1.365-0.085,2.926-1.448,3.485c-1.361,0.562-2.921-0.087-3.483-1.453
	c-0.561-1.356,0.089-2.917,1.45-3.48C98.194,77.587,99.754,78.235,100.314,79.596"/>
<path fill="#A1D5D3" d="M166.799,49.664c-1.35,0.594-2.924-0.02-3.519-1.367c-0.586-1.353,0.024-2.926,1.371-3.519
	c1.353-0.594,2.928,0.026,3.519,1.37C168.765,47.499,168.149,49.075,166.799,49.664"/>
<path fill="#A1D5D3" d="M146.324,60.841c-1.346,0.589-2.922-0.023-3.512-1.373c-0.593-1.351,0.02-2.926,1.366-3.518
	c1.355-0.591,2.928,0.022,3.519,1.373C148.292,58.672,147.677,60.246,146.324,60.841"/>
<path fill="#A1D5D3" d="M174.605,55.34c-1.348,0.596-2.922-0.019-3.518-1.371c-0.59-1.347,0.025-2.922,1.372-3.513
	c1.354-0.594,2.926,0.024,3.519,1.371C176.57,53.175,175.958,54.751,174.605,55.34"/>
<path fill="#A1D5D3" d="M191.276,53.587c-1.354,0.589-2.922-0.025-3.52-1.371c-0.589-1.351,0.026-2.926,1.373-3.517
	c1.354-0.594,2.926,0.018,3.516,1.372C193.244,51.42,192.628,52.992,191.276,53.587"/>
<path fill="#A1D5D3" d="M158.625,58.947c-1.346,0.589-2.922-0.026-3.51-1.371c-0.593-1.351,0.021-2.924,1.368-3.52
	c1.351-0.589,2.924,0.023,3.513,1.374C160.591,56.782,159.973,58.353,158.625,58.947"/>
<path fill="#A1D5D3" d="M164.94,64.573c-1.348,0.596-2.924-0.02-3.515-1.369c-0.591-1.351,0.022-2.926,1.371-3.517
	c1.351-0.592,2.926,0.024,3.512,1.373C166.905,62.406,166.29,63.981,164.94,64.573"/>
<path fill="#A1D5D3" d="M170.701,61.479c-1.35,0.589-2.926-0.025-3.519-1.371c-0.589-1.353,0.024-2.926,1.373-3.515
	c1.353-0.594,2.922,0.021,3.515,1.368C172.659,59.311,172.049,60.886,170.701,61.479"/>
<path fill="#A1D5D3" d="M157.94,66.788c-1.348,0.596-2.924-0.02-3.517-1.371c-0.589-1.346,0.024-2.922,1.373-3.513
	c1.351-0.592,2.924,0.024,3.514,1.373C159.904,64.625,159.292,66.201,157.94,66.788"/>
<path fill="#A1D5D3" d="M202.714,65.225c-1.353,0.591-2.925-0.022-3.518-1.371c-0.59-1.351,0.025-2.922,1.373-3.517
	c1.348-0.59,2.926,0.024,3.514,1.371C204.678,63.058,204.062,64.632,202.714,65.225"/>
<path fill="#A1D5D3" d="M186.138,67.114c-1.348,0.591-2.927-0.023-3.519-1.373c-0.59-1.349,0.026-2.92,1.373-3.515
	c1.348-0.59,2.921,0.024,3.514,1.374C188.101,64.949,187.481,66.523,186.138,67.114"/>
<path fill="#A1D5D3" d="M179.681,65.132c-1.353,0.593-2.926-0.019-3.514-1.367c-0.594-1.348,0.017-2.924,1.368-3.519
	c1.354-0.592,2.926,0.026,3.519,1.372C181.645,62.965,181.029,64.541,179.681,65.132"/>
<path fill="#A1D5D3" d="M195.342,60.867c-1.348,0.594-2.926-0.019-3.515-1.373c-0.594-1.349,0.022-2.922,1.373-3.513
	c1.349-0.592,2.922,0.024,3.51,1.373C197.306,58.7,196.69,60.276,195.342,60.867"/>
<path fill="#A1D5D3" d="M152.71,53.566c-1.353,0.598-2.925-0.017-3.516-1.371c-0.589-1.347,0.025-2.92,1.373-3.51
	c1.349-0.595,2.922,0.021,3.516,1.367C154.674,51.403,154.058,52.977,152.71,53.566"/>
<path fill="#A1D5D3" d="M152.603,63.229c-1.348,0.596-2.922-0.019-3.516-1.369c-0.589-1.351,0.023-2.924,1.372-3.515
	c1.351-0.592,2.924,0.024,3.515,1.371C154.566,61.063,153.95,62.637,152.603,63.229"/>
<path fill="#A1D5D3" d="M198.487,68.018c-0.292,1.441-1.704,2.374-3.149,2.075c-1.441-0.297-2.376-1.705-2.073-3.151
	c0.297-1.441,1.704-2.371,3.15-2.075C197.856,65.166,198.784,66.574,198.487,68.018"/>
<path fill="#A1D5D3" d="M213.164,57.726c-0.296,1.439-1.709,2.374-3.148,2.073c-1.442-0.295-2.375-1.704-2.079-3.15
	c0.303-1.446,1.71-2.372,3.151-2.073C212.533,54.87,213.462,56.282,213.164,57.726"/>
<path fill="#A1D5D3" d="M210.57,65.854c-0.297,1.444-1.704,2.374-3.149,2.075c-1.442-0.292-2.37-1.706-2.078-3.147
	c0.298-1.445,1.709-2.375,3.15-2.078C209.939,63,210.867,64.414,210.57,65.854"/>
<path fill="#A1D5D3" d="M226.452,74.201c-0.297,1.444-1.714,2.37-3.154,2.075c-1.441-0.294-2.371-1.707-2.074-3.149
	c0.294-1.447,1.705-2.373,3.151-2.08C225.812,71.348,226.745,72.758,226.452,74.201"/>
<path fill="#A1D5D3" d="M218.371,70.05c-0.301,1.444-1.71,2.374-3.153,2.075c-1.442-0.292-2.371-1.704-2.074-3.147
	c0.293-1.445,1.705-2.375,3.151-2.078C217.731,67.192,218.669,68.606,218.371,70.05"/>
<path fill="#A1D5D3" d="M221.457,58.618c-0.297,1.439-1.703,2.37-3.153,2.071c-1.438-0.295-2.366-1.703-2.074-3.148
	c0.298-1.446,1.71-2.374,3.151-2.077C220.826,55.758,221.759,57.169,221.457,58.618"/>
<path fill="#A1D5D3" d="M139.006,124.628c0.308,1.444-0.612,2.859-2.054,3.164c-1.443,0.31-2.859-0.612-3.165-2.052
	c-0.31-1.442,0.615-2.857,2.057-3.166C137.283,122.27,138.701,123.188,139.006,124.628"/>
<path fill="#A1D5D3" d="M152.726,115.788c0.303,1.44-0.62,2.858-2.058,3.163c-1.441,0.309-2.861-0.609-3.166-2.054
	c-0.307-1.438,0.614-2.855,2.055-3.163C150.999,113.427,152.417,114.345,152.726,115.788"/>
<path fill="#A1D5D3" d="M146.962,122.125c0.305,1.443-0.613,2.857-2.055,3.164c-1.442,0.308-2.859-0.614-3.165-2.054
	c-0.31-1.44,0.613-2.861,2.055-3.166C145.239,119.763,146.654,120.681,146.962,122.125"/>
<path fill="#A1D5D3" d="M154.604,120.49c1.35,0.582,1.975,2.149,1.391,3.507c-0.579,1.352-2.151,1.978-3.506,1.392
	c-1.35-0.581-1.979-2.151-1.393-3.504C151.675,120.531,153.247,119.907,154.604,120.49"/>
<path fill="#A1D5D3" d="M147.494,104.034c1.355,0.583,1.977,2.153,1.393,3.502c-0.582,1.357-2.152,1.983-3.505,1.399
	c-1.354-0.584-1.978-2.153-1.392-3.506C144.57,104.079,146.139,103.451,147.494,104.034"/>
<path fill="#A1D5D3" d="M154.932,108.224c1.353,0.581,1.975,2.151,1.395,3.504c-0.583,1.352-2.154,1.976-3.506,1.395
	c-1.352-0.583-1.978-2.153-1.393-3.504C152.008,108.264,153.577,107.639,154.932,108.224"/>
<path fill="#A1D5D3" d="M167.812,111.827c1.152,0.925,1.33,2.601,0.41,3.748c-0.924,1.149-2.603,1.331-3.754,0.408
	c-1.149-0.924-1.327-2.6-0.406-3.753C164.981,111.085,166.666,110.902,167.812,111.827"/>
<path fill="#A1D5D3" d="M160.618,101.433c1.352,0.585,1.979,2.155,1.395,3.506c-0.584,1.352-2.153,1.981-3.504,1.395
	c-1.353-0.581-1.979-2.151-1.398-3.506C157.694,101.476,159.265,100.852,160.618,101.433"/>
<path fill="#A1D5D3" d="M140.202,112.106c1.355,0.585,1.979,2.157,1.397,3.508c-0.585,1.354-2.154,1.978-3.505,1.399
	c-1.353-0.587-1.977-2.157-1.398-3.508C137.277,112.149,138.852,111.525,140.202,112.106"/>
<path fill="#A1D5D3" d="M179.659,80.806c0.152,1.469-0.907,2.779-2.369,2.933c-1.468,0.158-2.782-0.903-2.939-2.371
	c-0.156-1.465,0.907-2.78,2.371-2.932C178.184,78.276,179.503,79.338,179.659,80.806"/>
<path fill="#A1D5D3" d="M197.08,122.506c0.156,1.465-0.903,2.777-2.374,2.933c-1.463,0.158-2.777-0.907-2.931-2.372
	c-0.155-1.462,0.903-2.777,2.371-2.933C195.609,119.977,196.928,121.039,197.08,122.506"/>
<path fill="#A1D5D3" d="M163.852,84.321c0.156,1.462-0.907,2.777-2.372,2.929c-1.467,0.157-2.779-0.905-2.932-2.368
	c-0.16-1.469,0.905-2.783,2.369-2.935C162.385,81.792,163.696,82.854,163.852,84.321"/>
<path fill="#A1D5D3" d="M173.894,124.949c1.288,0.723,1.747,2.347,1.026,3.631c-0.717,1.287-2.345,1.747-3.633,1.026
	c-1.285-0.723-1.743-2.344-1.027-3.629C170.985,124.689,172.609,124.23,173.894,124.949"/>
<path fill="#A1D5D3" d="M209.447,92.147c1.284,0.721,1.743,2.342,1.021,3.629c-0.716,1.284-2.344,1.747-3.628,1.026
	c-1.289-0.721-1.747-2.345-1.026-3.629C206.534,91.882,208.158,91.424,209.447,92.147"/>
<path fill="#A1D5D3" d="M208.073,131.263c1.288,0.716,1.743,2.343,1.026,3.632c-0.721,1.282-2.35,1.737-3.633,1.021
	c-1.285-0.718-1.743-2.349-1.026-3.634C205.16,130.999,206.789,130.538,208.073,131.263"/>
<path fill="#A1D5D3" d="M216.667,123.116c1.284,0.721,1.742,2.345,1.021,3.628c-0.719,1.289-2.343,1.746-3.628,1.03
	c-1.284-0.723-1.742-2.349-1.026-3.637C213.754,122.854,215.378,122.395,216.667,123.116"/>
<path fill="#A1D5D3" d="M199.878,128.908c1.284,0.718,1.743,2.347,1.021,3.631c-0.716,1.288-2.345,1.745-3.628,1.022
	c-1.285-0.716-1.743-2.343-1.026-3.63C196.966,128.648,198.594,128.19,199.878,128.908"/>
<path fill="#A1D5D3" d="M186.439,100.339c1.284,0.721,1.742,2.347,1.02,3.632c-0.719,1.287-2.343,1.744-3.628,1.026
	c-1.288-0.723-1.742-2.347-1.026-3.635C183.522,100.077,185.154,99.622,186.439,100.339"/>
<path fill="#A1D5D3" d="M225.507,64.458c1.288,0.723,1.746,2.347,1.025,3.631c-0.721,1.286-2.345,1.745-3.629,1.026
	c-1.289-0.722-1.747-2.347-1.026-3.631C222.595,64.196,224.223,63.74,225.507,64.458"/>
<path fill="#A1D5D3" d="M233.362,73.062c1.289,0.721,1.747,2.347,1.025,3.634c-0.72,1.287-2.344,1.744-3.629,1.024
	c-1.288-0.719-1.747-2.346-1.025-3.634C230.45,72.804,232.078,72.343,233.362,73.062"/>
<path fill="#A1D5D3" d="M239.294,69.253c1.284,0.72,1.747,2.345,1.026,3.631c-0.722,1.288-2.35,1.745-3.635,1.026
	c-1.283-0.718-1.741-2.347-1.021-3.631C236.385,68.993,238.009,68.535,239.294,69.253"/>
<path fill="#A1D5D3" d="M183.806,44.888c0.56,1.363-0.089,2.924-1.45,3.485c-1.36,0.559-2.925-0.087-3.484-1.449
	c-0.565-1.365,0.088-2.926,1.445-3.486C181.682,42.876,183.243,43.525,183.806,44.888"/>
</svg>
