<?xml version="1.0" encoding="utf-8"?>
<!-- Generator: Adobe Illustrator 16.0.3, SVG Export Plug-In . SVG Version: 6.00 Build 0)  -->
<!DOCTYPE svg PUBLIC "-//W3C//DTD SVG 1.1//EN" "http://www.w3.org/Graphics/SVG/1.1/DTD/svg11.dtd">
<svg version="1.1" id="Ebene_1" xmlns="http://www.w3.org/2000/svg" xmlns:xlink="http://www.w3.org/1999/xlink" x="0px" y="0px"
	 width="320px" height="180px" viewBox="0 0 320 180" enable-background="new 0 0 320 180" xml:space="preserve">
<g>
	<rect x="111.179" y="54.942" fill="#A1D5D3" width="4.239" height="11.658"/>
	<rect x="115.426" y="49.705" fill="#A1D5D3" width="4.244" height="16.896"/>
	<rect x="119.67" y="60.773" fill="#A1D5D3" width="4.232" height="5.827"/>
	<rect x="123.902" y="44.25" fill="#A1D5D3" width="4.241" height="22.351"/>
	<rect x="127.99" y="54.942" fill="#A1D5D3" width="4.233" height="11.658"/>
	<rect x="149.38" y="54.942" fill="#A1D5D3" width="4.237" height="11.658"/>
	<rect x="153.633" y="49.705" fill="#A1D5D3" width="4.24" height="16.896"/>
	<rect x="157.873" y="60.773" fill="#A1D5D3" width="4.233" height="5.827"/>
	<rect x="162.104" y="44.25" fill="#A1D5D3" width="4.239" height="22.351"/>
	<rect x="166.19" y="54.942" fill="#A1D5D3" width="4.232" height="11.658"/>
	<rect x="184.687" y="54.942" fill="#A1D5D3" width="4.24" height="11.658"/>
	<rect x="188.933" y="49.705" fill="#A1D5D3" width="4.239" height="16.896"/>
	<rect x="193.172" y="60.773" fill="#A1D5D3" width="4.24" height="5.827"/>
	<rect x="197.409" y="44.25" fill="#A1D5D3" width="4.24" height="22.351"/>
	<rect x="201.498" y="54.942" fill="#A1D5D3" width="4.233" height="11.658"/>
	<rect x="111.179" y="88.166" fill="#A1D5D3" width="4.239" height="11.658"/>
	<rect x="115.426" y="82.928" fill="#A1D5D3" width="4.244" height="16.896"/>
	<rect x="119.67" y="93.997" fill="#A1D5D3" width="4.232" height="5.828"/>
	<rect x="123.902" y="77.473" fill="#A1D5D3" width="4.241" height="22.351"/>
	<rect x="127.99" y="88.166" fill="#A1D5D3" width="4.233" height="11.658"/>
	<rect x="149.38" y="88.166" fill="#A1D5D3" width="4.237" height="11.658"/>
	<rect x="153.633" y="82.928" fill="#A1D5D3" width="4.24" height="16.896"/>
	<rect x="157.873" y="93.997" fill="#A1D5D3" width="4.233" height="5.828"/>
	<rect x="162.104" y="77.473" fill="#A1D5D3" width="4.239" height="22.351"/>
	<rect x="166.19" y="88.166" fill="#A1D5D3" width="4.232" height="11.658"/>
	<rect x="111.179" y="124.237" fill="#A1D5D3" width="4.239" height="11.655"/>
	<rect x="115.426" y="118.994" fill="#A1D5D3" width="4.244" height="16.898"/>
	<rect x="119.67" y="130.062" fill="#A1D5D3" width="4.232" height="5.831"/>
	<rect x="123.902" y="113.538" fill="#A1D5D3" width="4.241" height="22.354"/>
	<rect x="127.99" y="124.231" fill="#A1D5D3" width="4.233" height="11.661"/>
	<rect x="149.38" y="124.237" fill="#A1D5D3" width="4.237" height="11.655"/>
	<rect x="153.633" y="118.994" fill="#A1D5D3" width="4.24" height="16.898"/>
	<rect x="157.873" y="130.062" fill="#A1D5D3" width="4.233" height="5.831"/>
	<rect x="162.104" y="113.538" fill="#A1D5D3" width="4.239" height="22.354"/>
	<rect x="166.19" y="124.231" fill="#A1D5D3" width="4.232" height="11.661"/>
	<rect x="184.687" y="88.166" fill="#A1D5D3" width="4.24" height="11.658"/>
	<rect x="188.933" y="82.928" fill="#A1D5D3" width="4.239" height="16.896"/>
	<rect x="193.172" y="93.997" fill="#A1D5D3" width="4.24" height="5.828"/>
	<rect x="197.409" y="77.473" fill="#A1D5D3" width="4.24" height="22.351"/>
	<rect x="201.498" y="88.166" fill="#A1D5D3" width="4.233" height="11.658"/>
	<rect x="184.687" y="124.237" fill="#A1D5D3" width="4.24" height="11.655"/>
	<rect x="188.933" y="118.994" fill="#A1D5D3" width="4.239" height="16.898"/>
	<rect x="193.172" y="130.062" fill="#A1D5D3" width="4.24" height="5.831"/>
	<rect x="197.409" y="113.538" fill="#A1D5D3" width="4.24" height="22.354"/>
	<rect x="201.498" y="124.231" fill="#A1D5D3" width="4.233" height="11.661"/>
	
		<line fill="#A1D5D3" stroke="#A1D5D3" stroke-width="1.032" stroke-miterlimit="10" stroke-dasharray="2.064,2.064" x1="107.052" y1="71.558" x2="213.606" y2="71.558"/>
	
		<line fill="#A1D5D3" stroke="#A1D5D3" stroke-width="1.032" stroke-miterlimit="10" stroke-dasharray="2.064,2.064" x1="107.052" y1="106.669" x2="213.606" y2="106.669"/>
	
		<line fill="#A1D5D3" stroke="#A1D5D3" stroke-width="1.032" stroke-miterlimit="10" stroke-dasharray="2.064,2.064" x1="177.34" y1="138.997" x2="177.34" y2="41.378"/>
	
		<line fill="#A1D5D3" stroke="#A1D5D3" stroke-width="1.032" stroke-miterlimit="10" stroke-dasharray="2.064,2.064" x1="142.45" y1="138.997" x2="142.45" y2="41.378"/>
</g>
</svg>
