<?xml version="1.0" encoding="utf-8"?>
<!-- Generator: Adobe Illustrator 16.0.3, SVG Export Plug-In . SVG Version: 6.00 Build 0)  -->
<!DOCTYPE svg PUBLIC "-//W3C//DTD SVG 1.1//EN" "http://www.w3.org/Graphics/SVG/1.1/DTD/svg11.dtd">
<svg version="1.1" id="Ebene_1" xmlns="http://www.w3.org/2000/svg" xmlns:xlink="http://www.w3.org/1999/xlink" x="0px" y="0px"
	 width="320px" height="180px" viewBox="0 0 320 180" enable-background="new 0 0 320 180" xml:space="preserve">
<g>
	<rect x="62.383" y="114.341" fill="#A1D5D3" stroke="#A1D5D3" stroke-miterlimit="10" width="30.125" height="8.607"/>
	<rect x="227.489" y="48.444" fill="#A1D5D3" stroke="#A1D5D3" stroke-miterlimit="10" width="30.127" height="8.607"/>
	<rect x="144.447" y="68.038" fill="#A1D5D3" stroke="#A1D5D3" stroke-miterlimit="10" width="30.122" height="8.606"/>
	<rect x="144.447" y="90.002" fill="#A1D5D3" stroke="#A1D5D3" stroke-miterlimit="10" width="30.122" height="8.606"/>
	<path fill="#58A0B5" stroke="#A1D5D3" stroke-miterlimit="10" d="M108.231,73.526h21.521H108.231z"/>
	
		<line fill="none" stroke="#A1D5D3" stroke-width="1.942" stroke-miterlimit="10" x1="115.127" y1="73.526" x2="129.751" y2="73.526"/>
	<polygon fill="#A1D5D3" stroke="#A1D5D3" stroke-miterlimit="10" points="116.197,65.56 116.197,81.494 108.232,73.529 	"/>
	<path fill="#58A0B5" stroke="#A1D5D3" stroke-miterlimit="10" d="M190.158,73.526h21.519H190.158z"/>
	
		<line fill="none" stroke="#A1D5D3" stroke-width="1.942" stroke-miterlimit="10" x1="204.778" y1="73.526" x2="190.159" y2="73.526"/>
	<polygon fill="#A1D5D3" stroke="#A1D5D3" stroke-miterlimit="10" points="203.71,81.494 203.71,65.56 211.674,73.525 	"/>
	
		<line fill="none" stroke="#A1D5D3" stroke-width="1.942" stroke-miterlimit="10" x1="135.246" y1="40.58" x2="135.246" y2="43.204"/>
	
		<line fill="none" stroke="#A1D5D3" stroke-width="1.942" stroke-miterlimit="10" stroke-dasharray="4.077,4.077" x1="135.246" y1="48.708" x2="135.246" y2="134.043"/>
	
		<line fill="none" stroke="#A1D5D3" stroke-width="1.942" stroke-miterlimit="10" x1="135.246" y1="136.796" x2="135.246" y2="139.42"/>
	
		<line fill="none" stroke="#A1D5D3" stroke-width="1.942" stroke-miterlimit="10" x1="184.212" y1="40.58" x2="184.212" y2="43.204"/>
	
		<line fill="none" stroke="#A1D5D3" stroke-width="1.942" stroke-miterlimit="10" stroke-dasharray="4.077,4.077" x1="184.212" y1="48.706" x2="184.212" y2="134.041"/>
	
		<line fill="none" stroke="#A1D5D3" stroke-width="1.942" stroke-miterlimit="10" x1="184.212" y1="136.796" x2="184.212" y2="139.42"/>
</g>
</svg>
