<?xml version="1.0" encoding="utf-8"?>
<!-- Generator: Adobe Illustrator 16.0.3, SVG Export Plug-In . SVG Version: 6.00 Build 0)  -->
<!DOCTYPE svg PUBLIC "-//W3C//DTD SVG 1.1//EN" "http://www.w3.org/Graphics/SVG/1.1/DTD/svg11.dtd">
<svg version="1.1" id="Ebene_1" xmlns="http://www.w3.org/2000/svg" xmlns:xlink="http://www.w3.org/1999/xlink" x="0px" y="0px"
	 width="320px" height="180px" viewBox="0 0 320 180" enable-background="new 0 0 320 180" xml:space="preserve">
<rect x="172.229" y="31.99" fill="#A1D5D3" width="16.195" height="16.19"/>
<rect x="192.215" y="31.99" fill="#A1D5D3" width="16.198" height="16.19"/>
<rect x="212.875" y="31.99" fill="#A1D5D3" width="16.198" height="16.19"/>
<rect x="172.229" y="52.792" fill="#A1D5D3" width="16.195" height="16.191"/>
<rect x="192.215" y="52.792" fill="#A1D5D3" width="16.198" height="16.191"/>
<rect x="212.875" y="52.793" fill="#A1D5D3" width="16.198" height="16.19"/>
<rect x="172.229" y="73.455" fill="#A1D5D3" width="16.195" height="16.19"/>
<rect x="192.215" y="73.455" fill="#A1D5D3" width="16.198" height="16.19"/>
<rect x="212.875" y="73.456" fill="#A1D5D3" width="16.198" height="16.189"/>
<rect x="172.229" y="93.28" fill="#A1D5D3" width="16.195" height="16.191"/>
<rect x="192.215" y="93.28" fill="#A1D5D3" width="16.198" height="16.191"/>
<rect x="212.875" y="93.28" fill="#A1D5D3" width="16.198" height="16.191"/>
<rect x="172.229" y="112.928" fill="#A1D5D3" width="16.195" height="16.199"/>
<rect x="172.229" y="133.007" fill="#A1D5D3" width="16.195" height="16.2"/>
<rect x="192.215" y="112.928" fill="#A1D5D3" width="16.198" height="16.199"/>
<rect x="192.215" y="133.007" fill="#A1D5D3" width="16.198" height="16.2"/>
<rect x="131.226" y="31.99" fill="#A1D5D3" width="16.195" height="16.19"/>
<rect x="151.211" y="31.99" fill="#A1D5D3" width="16.191" height="16.19"/>
<rect x="131.227" y="52.789" fill="#A1D5D3" width="16.194" height="16.198"/>
<rect x="151.211" y="52.789" fill="#A1D5D3" width="16.191" height="16.198"/>
<rect x="131.227" y="73.452" fill="#A1D5D3" width="16.194" height="16.193"/>
<rect x="151.211" y="73.452" fill="#A1D5D3" width="16.191" height="16.193"/>
<rect x="131.227" y="93.278" fill="#A1D5D3" width="16.194" height="16.193"/>
<rect x="151.211" y="93.278" fill="#A1D5D3" width="16.191" height="16.193"/>
<rect x="131.227" y="112.936" fill="#A1D5D3" width="16.194" height="16.184"/>
<rect x="131.226" y="133.009" fill="#A1D5D3" width="16.195" height="16.195"/>
<rect x="151.211" y="112.936" fill="#A1D5D3" width="16.191" height="16.184"/>
<rect x="151.211" y="133.009" fill="#A1D5D3" width="16.191" height="16.195"/>
<rect x="90.522" y="31.99" fill="#A1D5D3" width="16.195" height="16.19"/>
<rect x="110.507" y="31.99" fill="#A1D5D3" width="16.19" height="16.19"/>
<rect x="90.522" y="52.789" fill="#A1D5D3" width="16.195" height="16.198"/>
<rect x="110.507" y="52.789" fill="#A1D5D3" width="16.191" height="16.198"/>
<rect x="90.522" y="73.452" fill="#A1D5D3" width="16.195" height="16.193"/>
<rect x="110.507" y="73.452" fill="#A1D5D3" width="16.191" height="16.193"/>
<rect x="90.522" y="93.278" fill="#A1D5D3" width="16.195" height="16.193"/>
<rect x="110.507" y="93.278" fill="#A1D5D3" width="16.191" height="16.193"/>
<rect x="90.522" y="112.936" fill="#A1D5D3" width="16.195" height="16.184"/>
<rect x="90.522" y="133.009" fill="#A1D5D3" width="16.195" height="16.195"/>
<rect x="110.507" y="112.936" fill="#A1D5D3" width="16.191" height="16.184"/>
<rect x="110.507" y="133.009" fill="#A1D5D3" width="16.19" height="16.195"/>
</svg>
