<?xml version="1.0" encoding="utf-8"?>
<!-- Generator: Adobe Illustrator 16.0.3, SVG Export Plug-In . SVG Version: 6.00 Build 0)  -->
<!DOCTYPE svg PUBLIC "-//W3C//DTD SVG 1.1//EN" "http://www.w3.org/Graphics/SVG/1.1/DTD/svg11.dtd">
<svg version="1.1" id="Ebene_1" xmlns="http://www.w3.org/2000/svg" xmlns:xlink="http://www.w3.org/1999/xlink" x="0px" y="0px"
	 width="320px" height="180px" viewBox="0 0 320 180" enable-background="new 0 0 320 180" xml:space="preserve">
<rect x="90.401" y="45.444" fill="#A1D5D3" width="51.915" height="47.631"/>
<path fill="none" stroke="#A1D5D3" stroke-miterlimit="10" d="M155.937,50.083h68.11H155.937z"/>
<line fill="none" stroke="#A1D5D3" stroke-width="0.709" stroke-miterlimit="10" x1="155.937" y1="50.083" x2="224.047" y2="50.083"/>
<path fill="none" stroke="#A1D5D3" stroke-miterlimit="10" d="M155.937,63.422h68.11H155.937z"/>
<line fill="none" stroke="#A1D5D3" stroke-width="0.709" stroke-miterlimit="10" x1="155.937" y1="63.42" x2="224.047" y2="63.42"/>
<path fill="none" stroke="#A1D5D3" stroke-miterlimit="10" d="M155.937,76.762h68.11H155.937z"/>
<line fill="none" stroke="#A1D5D3" stroke-width="0.709" stroke-miterlimit="10" x1="155.937" y1="76.761" x2="224.047" y2="76.761"/>
<path fill="none" stroke="#A1D5D3" stroke-miterlimit="10" d="M155.937,90.099h68.11H155.937z"/>
<line fill="none" stroke="#A1D5D3" stroke-width="0.709" stroke-miterlimit="10" x1="155.937" y1="90.099" x2="224.047" y2="90.099"/>
<path fill="none" stroke="#A1D5D3" stroke-miterlimit="10" d="M90.402,113.938h137.928H90.402z"/>
<line fill="none" stroke="#A1D5D3" stroke-width="0.709" stroke-miterlimit="10" x1="90.401" y1="113.938" x2="228.333" y2="113.938"/>
<path fill="none" stroke="#A1D5D3" stroke-miterlimit="10" d="M90.402,125.433h90.246H90.402z"/>
<line fill="none" stroke="#A1D5D3" stroke-width="0.709" stroke-miterlimit="10" x1="90.401" y1="125.433" x2="180.646" y2="125.433"/>
<path fill="none" stroke="#A1D5D3" stroke-miterlimit="10" d="M90.402,136.927h120.903H90.402z"/>
<line fill="none" stroke="#A1D5D3" stroke-width="0.709" stroke-miterlimit="10" x1="90.401" y1="136.928" x2="211.305" y2="136.928"/>
<rect x="75.905" y="30.5" fill="none" stroke="#A1D5D3" stroke-width="0.709" stroke-miterlimit="10" width="166.875" height="117.496"/>
</svg>
