<?xml version="1.0" encoding="utf-8"?>
<!-- Generator: Adobe Illustrator 16.0.3, SVG Export Plug-In . SVG Version: 6.00 Build 0)  -->
<!DOCTYPE svg PUBLIC "-//W3C//DTD SVG 1.1//EN" "http://www.w3.org/Graphics/SVG/1.1/DTD/svg11.dtd">
<svg version="1.1" id="Ebene_1" xmlns="http://www.w3.org/2000/svg" xmlns:xlink="http://www.w3.org/1999/xlink" x="0px" y="0px"
	 width="320px" height="180px" viewBox="0 0 320 180" enable-background="new 0 0 320 180" xml:space="preserve">
<path fill="#A1D5D3" d="M220.538,119.355c-1.537-5.352-7.114-8.441-12.462-6.907c-5.342,1.532-8.439,7.107-6.901,12.459
	c1.531,5.345,7.104,8.438,12.457,6.909C218.979,130.281,222.069,124.699,220.538,119.355"/>
<path fill="#A1D5D3" d="M220.538,119.355c-1.537-5.352-7.114-8.441-12.462-6.907c-5.342,1.532-8.439,7.107-6.901,12.459
	c1.531,5.345,7.104,8.438,12.457,6.909C218.979,130.281,222.069,124.699,220.538,119.355z"/>
<path fill="none" stroke="#A1D5D3" stroke-miterlimit="10" d="M222.251,118.862c-1.809-6.292-8.369-9.931-14.668-8.121
	c-6.287,1.799-9.929,8.364-8.124,14.651c1.809,6.297,8.365,9.935,14.664,8.134C220.414,131.72,224.054,125.154,222.251,118.862z"/>
<path fill="#A1D5D3" d="M217.949,83.715c-1.123-3.927-5.208-6.193-9.123-5.069c-3.924,1.127-6.195,5.213-5.069,9.138
	c1.127,3.917,5.216,6.186,9.14,5.067C216.813,91.719,219.078,87.632,217.949,83.715"/>
<path fill="#A1D5D3" d="M217.949,83.715c-1.123-3.927-5.208-6.193-9.123-5.069c-3.924,1.127-6.195,5.213-5.069,9.138
	c1.127,3.917,5.216,6.186,9.14,5.067C216.813,91.719,219.078,87.632,217.949,83.715z"/>
<path fill="none" stroke="#A1D5D3" stroke-miterlimit="10" d="M219.209,83.353c-1.327-4.614-6.135-7.278-10.748-5.956
	c-4.61,1.318-7.278,6.135-5.958,10.745c1.318,4.612,6.135,7.28,10.742,5.955C217.868,92.776,220.528,87.963,219.209,83.353z"/>
<path fill="#A1D5D3" d="M220.538,46.586c-1.537-5.346-7.114-8.437-12.462-6.905c-5.342,1.53-8.439,7.11-6.901,12.46
	c1.531,5.347,7.104,8.438,12.457,6.906C218.979,57.515,222.069,51.935,220.538,46.586"/>
<path fill="#A1D5D3" d="M220.538,46.586c-1.537-5.346-7.114-8.437-12.462-6.905c-5.342,1.53-8.439,7.11-6.901,12.46
	c1.531,5.347,7.104,8.438,12.457,6.906C218.979,57.515,222.069,51.935,220.538,46.586z"/>
<path fill="none" stroke="#A1D5D3" stroke-miterlimit="10" d="M222.251,46.097c-1.809-6.291-8.369-9.93-14.668-8.12
	c-6.287,1.794-9.929,8.358-8.124,14.655c1.809,6.29,8.365,9.929,14.664,8.126C220.414,58.95,224.054,52.387,222.251,46.097z"/>
<path fill="#A1D5D3" d="M176.945,131.583c-2.358,8.237-10.959,13.002-19.196,10.645c-8.238-2.362-13.005-10.958-10.64-19.201
	c2.362-8.233,10.962-12.997,19.196-10.638C174.539,114.753,179.308,123.344,176.945,131.583"/>
<path fill="#A1D5D3" d="M176.945,131.583c-2.358,8.237-10.959,13.002-19.196,10.645c-8.238-2.362-13.005-10.958-10.64-19.201
	c2.362-8.233,10.962-12.997,19.196-10.638C174.539,114.753,179.308,123.344,176.945,131.583z"/>
<path fill="none" stroke="#A1D5D3" stroke-miterlimit="10" d="M178.745,132.099c-2.649,9.237-12.276,14.575-21.511,11.925
	c-9.232-2.642-14.579-12.277-11.926-21.51c2.643-9.232,12.28-14.576,21.512-11.926C176.054,113.235,181.396,122.871,178.745,132.099
	z"/>
<path fill="#A1D5D3" d="M170.672,49.949c-1.364,4.782-6.345,7.544-11.122,6.172c-4.773-1.369-7.538-6.35-6.17-11.132
	c1.367-4.774,6.351-7.537,11.125-6.165C169.286,40.192,172.051,45.175,170.672,49.949"/>
<path fill="#A1D5D3" d="M170.672,49.949c-1.364,4.782-6.345,7.544-11.122,6.172c-4.773-1.369-7.538-6.35-6.17-11.132
	c1.367-4.774,6.351-7.537,11.125-6.165C169.286,40.192,172.051,45.175,170.672,49.949z"/>
<path fill="none" stroke="#A1D5D3" stroke-miterlimit="10" d="M172.199,50.391c-1.608,5.615-7.471,8.863-13.091,7.258
	c-5.615-1.614-8.866-7.476-7.257-13.094c1.605-5.616,7.472-8.872,13.094-7.258C170.565,38.911,173.815,44.773,172.199,50.391z"/>
<path fill="#A1D5D3" d="M169.126,89.425c-1.122,3.918-5.211,6.188-9.132,5.065c-3.919-1.125-6.192-5.214-5.063-9.136
	c1.122-3.921,5.212-6.187,9.133-5.065C167.982,81.419,170.253,85.504,169.126,89.425"/>
<path fill="#A1D5D3" d="M169.126,89.425c-1.122,3.918-5.211,6.188-9.132,5.065c-3.919-1.125-6.192-5.214-5.063-9.136
	c1.122-3.921,5.212-6.187,9.133-5.065C167.982,81.419,170.253,85.504,169.126,89.425z"/>
<path fill="none" stroke="#A1D5D3" stroke-miterlimit="10" d="M170.38,89.785c-1.32,4.611-6.138,7.277-10.745,5.955
	c-4.614-1.322-7.282-6.133-5.957-10.744c1.318-4.612,6.134-7.28,10.745-5.955C169.034,80.363,171.704,85.174,170.38,89.785z"/>
<path fill="#A1D5D3" d="M120.332,70.863c-1.708,5.967-7.935,9.417-13.903,7.71c-5.964-1.713-9.41-7.934-7.704-13.905
	c1.712-5.963,7.933-9.415,13.903-7.705C118.595,58.67,122.045,64.897,120.332,70.863"/>
<path fill="#A1D5D3" d="M120.332,70.863c-1.708,5.967-7.935,9.417-13.903,7.71c-5.964-1.713-9.41-7.934-7.704-13.905
	c1.712-5.963,7.933-9.415,13.903-7.705C118.595,58.67,122.045,64.897,120.332,70.863z"/>
<path fill="none" stroke="#A1D5D3" stroke-miterlimit="10" d="M122.247,71.411c-2.017,7.017-9.339,11.081-16.362,9.069
	c-7.021-2.014-11.078-9.336-9.071-16.357c2.021-7.02,9.339-11.079,16.357-9.066C120.19,57.072,124.251,64.394,122.247,71.411z"/>
<path fill="#A1D5D3" d="M116.631,108.404c-1.129,3.919-5.215,6.188-9.137,5.064c-3.918-1.123-6.191-5.217-5.061-9.135
	c1.126-3.914,5.207-6.187,9.133-5.063C115.487,100.392,117.76,104.482,116.631,108.404"/>
<path fill="#A1D5D3" d="M116.631,108.404c-1.129,3.919-5.215,6.188-9.137,5.064c-3.918-1.123-6.191-5.217-5.061-9.135
	c1.126-3.914,5.207-6.187,9.133-5.063C115.487,100.392,117.76,104.482,116.631,108.404z"/>
<path fill="none" stroke="#A1D5D3" stroke-miterlimit="10" d="M117.882,108.764c-1.325,4.61-6.132,7.282-10.746,5.954
	c-4.61-1.322-7.282-6.129-5.96-10.743c1.324-4.612,6.134-7.28,10.752-5.958C116.535,99.342,119.203,104.149,117.882,108.764z"/>
</svg>
