<?xml version="1.0" encoding="utf-8"?>
<!-- Generator: Adobe Illustrator 16.0.3, SVG Export Plug-In . SVG Version: 6.00 Build 0)  -->
<!DOCTYPE svg PUBLIC "-//W3C//DTD SVG 1.1//EN" "http://www.w3.org/Graphics/SVG/1.1/DTD/svg11.dtd">
<svg version="1.1" id="Ebene_1" xmlns="http://www.w3.org/2000/svg" xmlns:xlink="http://www.w3.org/1999/xlink" x="0px" y="0px"
	 width="320px" height="180px" viewBox="0 0 320 180" enable-background="new 0 0 320 180" xml:space="preserve">
<g>
	<path fill="none" stroke="#A1D5D3" stroke-miterlimit="10" d="M99.527,57.077c27.606,0,37.776-9.618,69.737-9.618"/>
	<path fill="none" stroke="#A1D5D3" stroke-miterlimit="10" d="M96.792,88.155c28.687,0,39.258-29.5,72.472-29.5"/>
	<path fill="none" stroke="#A1D5D3" stroke-miterlimit="10" d="M99.527,113.024c28.464,0,36.269-14.274,69.223-14.274"/>
	<path fill="none" stroke="#A1D5D3" stroke-miterlimit="10" d="M99.055,47.63c29.58,0,35.203-10.63,69.445-10.63"/>
	<path fill="none" stroke="#A1D5D3" stroke-miterlimit="10" d="M99.527,104.285c26.369,0,36.083-16.258,66.616-16.258"/>
	<path fill="none" stroke="#A1D5D3" stroke-miterlimit="10" d="M99.527,95.603c26.369,0,36.083-17.986,66.616-17.986"/>
	<path fill="none" stroke="#A1D5D3" stroke-miterlimit="10" d="M99.527,137.466c27.923,0,38.207-33.146,70.527-33.146"/>
	<path fill="none" stroke="#A1D5D3" stroke-miterlimit="10" d="M96.792,144.843c28.378,0,38.83-13.876,71.697-13.876"/>
	<path fill="none" stroke="#A1D5D3" stroke-miterlimit="10" d="M170.51,78.064c20.417,0,27.931-31.298,51.571-31.298"/>
	<path fill="none" stroke="#A1D5D3" stroke-miterlimit="10" d="M170.51,88.155c19.92,0,27.252,2.26,50.316,2.26"/>
	<path fill="none" stroke="#A1D5D3" stroke-miterlimit="10" d="M171.224,96.841c19.632,0,26.867,37.516,49.603,37.516"/>
	<path fill="none" stroke="#A1D5D3" stroke-miterlimit="10" d="M170.51,104.285c19.913,0,27.252-8.682,50.316-8.682"/>
	<path fill="none" stroke="#A1D5D3" stroke-miterlimit="10" d="M171.224,129.107c19.632,0,26.867-64.164,49.603-64.164"/>
	<path fill="none" stroke="#A1D5D3" stroke-miterlimit="10" d="M170.51,142.044c20.417,0,27.931-2.97,51.571-2.97"/>
	<path fill="none" stroke="#A1D5D3" stroke-miterlimit="10" d="M170.51,47.63c19.913,0,27.252,39.767,50.316,39.767"/>
	<path fill="none" stroke="#A1D5D3" stroke-miterlimit="10" d="M171.224,38.181c20.131,0,27.548-0.674,50.858-0.674"/>
	<path fill="none" stroke="#A1D5D3" stroke-miterlimit="10" d="M171.224,59.173c20.711,0,28.342,61.724,52.334,61.724"/>
</g>
<rect x="94.058" y="43.421" fill="#A1D5D3" width="5.47" height="25.204"/>
<rect x="94.058" y="81.937" fill="#A1D5D3" width="5.47" height="43.671"/>
<rect x="165.752" y="33.227" fill="#A1D5D3" width="5.471" height="30.168"/>
<rect x="165.752" y="70.927" fill="#A1D5D3" width="5.471" height="39.336"/>
<rect x="165.748" y="118.311" fill="#A1D5D3" width="5.476" height="29.144"/>
<rect x="220.826" y="32.254" fill="#A1D5D3" width="5.467" height="38.673"/>
<rect x="220.826" y="84.035" fill="#A1D5D3" width="5.467" height="14.486"/>
<rect x="220.826" y="115.464" fill="#A1D5D3" width="5.467" height="31.016"/>
<rect x="94.058" y="134.357" fill="#A1D5D3" width="5.47" height="12.124"/>
<g>
	<path fill="none" stroke="#A1D5D3" stroke-miterlimit="10" d="M99.527,121.167c26.363,0,36.078,20.605,66.616,20.605"/>
</g>
</svg>
