<?xml version="1.0" encoding="utf-8"?>
<!-- Generator: Adobe Illustrator 16.0.3, SVG Export Plug-In . SVG Version: 6.00 Build 0)  -->
<!DOCTYPE svg PUBLIC "-//W3C//DTD SVG 1.1//EN" "http://www.w3.org/Graphics/SVG/1.1/DTD/svg11.dtd">
<svg version="1.1" id="Ebene_1" xmlns="http://www.w3.org/2000/svg" xmlns:xlink="http://www.w3.org/1999/xlink" x="0px" y="0px"
	 width="320px" height="180px" viewBox="0 0 320 180" enable-background="new 0 0 320 180" xml:space="preserve">
<rect x="93.25" y="39.5" fill="none" width="86.75" height="12.75"/>
<text transform="matrix(1 0 0 1 93.25 48.5)" fill="#A1D5D3" font-family="'Roboto-Bold'" font-size="12">Category I</text>
<rect x="169.01" y="55.75" fill="none" width="86.75" height="12.75"/>
<text transform="matrix(1 0 0 1 169.0098 64.75)" fill="#A1D5D3" font-family="'Roboto-Regular'" font-size="12">Entry 1</text>
<rect x="169.01" y="68.5" fill="none" width="86.75" height="12.75"/>
<text transform="matrix(1 0 0 1 169.0098 77.5)" fill="#A1D5D3" font-family="'Roboto-Regular'" font-size="12">Entry 2</text>
<rect x="93.25" y="100" fill="none" width="86.75" height="12.75"/>
<text transform="matrix(1 0 0 1 93.25 109)" fill="#A1D5D3" font-family="'Roboto-Bold'" font-size="12">Category II</text>
<rect x="169.01" y="116.25" fill="none" width="86.75" height="12.75"/>
<text transform="matrix(1 0 0 1 169.0098 125.25)" fill="#A1D5D3" font-family="'Roboto-Regular'" font-size="12">Entry 1</text>
<rect x="169.01" y="129" fill="none" width="86.75" height="12.75"/>
<text transform="matrix(1 0 0 1 169.0098 138)" fill="#A1D5D3" font-family="'Roboto-Regular'" font-size="12">Entry 2</text>
<rect x="169.01" y="81.25" fill="none" width="86.75" height="12.75"/>
<text transform="matrix(1 0 0 1 169.0098 90.25)" fill="#A1D5D3" font-family="'Roboto-Regular'" font-size="12">Entry 3</text>
</svg>
