<?xml version="1.0" encoding="utf-8"?>
<!-- Generator: Adobe Illustrator 16.0.3, SVG Export Plug-In . SVG Version: 6.00 Build 0)  -->
<!DOCTYPE svg PUBLIC "-//W3C//DTD SVG 1.1//EN" "http://www.w3.org/Graphics/SVG/1.1/DTD/svg11.dtd">
<svg version="1.1" id="Ebene_1" xmlns="http://www.w3.org/2000/svg" xmlns:xlink="http://www.w3.org/1999/xlink" x="0px" y="0px"
	 width="320px" height="180px" viewBox="0 0 320 180" enable-background="new 0 0 320 180" xml:space="preserve">
<path fill="none" stroke="#A1D5D3" stroke-width="0.631" stroke-miterlimit="10" d="M212.045,90.211
	c0,29.398-23.832,53.232-53.229,53.232c-29.402,0-53.235-23.833-53.235-53.232c0-29.4,23.833-53.233,53.235-53.233
	C188.214,36.978,212.045,60.811,212.045,90.211z"/>
<path fill="none" stroke="#A1D5D3" stroke-width="0.631" stroke-miterlimit="10" d="M126.641,58.185
	c8.266-8.292,19.701-13.422,32.333-13.422c25.214,0,45.651,20.441,45.651,45.657c0,25.213-20.437,45.652-45.651,45.652
	c-25.215,0-45.657-20.439-45.657-45.652c0-11.64,4.356-22.262,11.526-30.326"/>
<path fill="none" stroke="#A1D5D3" stroke-width="0.631" stroke-miterlimit="10" d="M131.77,63.437
	c6.935-7.013,16.562-11.357,27.203-11.357c21.127,0,38.256,17.127,38.256,38.257c0,21.127-17.129,38.253-38.256,38.253
	c-21.13,0-38.258-17.126-38.258-38.253c0-9.495,3.459-18.182,9.187-24.87"/>
<path fill="none" stroke="#A1D5D3" stroke-width="0.631" stroke-miterlimit="10" d="M136.738,68.905
	c5.557-5.667,13.298-9.184,21.859-9.184c16.911,0,30.617,13.706,30.617,30.611c0,16.907-13.706,30.614-30.617,30.614
	c-16.901,0-30.61-13.707-30.61-30.614c0-7.415,2.637-14.213,7.023-19.51"/>
<g>
	
		<line fill="none" stroke="#A1D5D3" stroke-width="0.484" stroke-miterlimit="10" x1="207.901" y1="62.118" x2="198.662" y2="67.843"/>
	<path fill="#A1D5D3" d="M207.151,61.035c0.619-0.382,1.429-0.191,1.811,0.427c0.386,0.616,0.194,1.425-0.425,1.808
		c-0.618,0.381-1.427,0.191-1.808-0.426C206.347,62.228,206.537,61.417,207.151,61.035"/>
</g>
<line fill="none" stroke="#A1D5D3" stroke-width="0.484" stroke-miterlimit="10" x1="215.452" y1="90.342" x2="197.229" y2="90.337"/>
<g>
	
		<line fill="none" stroke="#A1D5D3" stroke-width="0.484" stroke-miterlimit="10" x1="207.883" y1="118.607" x2="185.162" y2="105.563"/>
	<path fill="#A1D5D3" d="M208.477,117.435c0.63,0.36,0.848,1.162,0.485,1.792c-0.364,0.63-1.164,0.847-1.792,0.483
		c-0.633-0.358-0.851-1.163-0.488-1.792C207.045,117.29,207.848,117.075,208.477,117.435"/>
</g>
<line fill="none" stroke="#A1D5D3" stroke-width="0.484" stroke-miterlimit="10" x1="186.887" y1="139.043" x2="181.57" y2="129.9"/>
<path fill="none" stroke="#A1D5D3" stroke-miterlimit="10" d="M188.292,138.574c0.368,0.628,0.153,1.433-0.473,1.795
	c-0.629,0.368-1.434,0.153-1.796-0.475c-0.363-0.626-0.153-1.431,0.474-1.795C187.123,137.737,187.929,137.951,188.292,138.574"/>
<path fill="none" stroke="#A1D5D3" stroke-miterlimit="10" d="M161.042,145.534c0,0.726-0.588,1.312-1.313,1.317
	c-0.726,0.002-1.317-0.587-1.317-1.313s0.587-1.315,1.313-1.315S161.042,144.809,161.042,145.534"/>
<line fill="none" stroke="#A1D5D3" stroke-width="0.484" stroke-miterlimit="10" x1="130.666" y1="139.286" x2="143.355" y2="116.886"/>
<path fill="none" stroke="#A1D5D3" stroke-miterlimit="10" d="M131.843,139.875c-0.358,0.633-1.164,0.854-1.792,0.496
	c-0.633-0.358-0.852-1.158-0.498-1.79c0.359-0.63,1.159-0.854,1.791-0.495C131.978,138.444,132.196,139.244,131.843,139.875"/>
<g>
	
		<line fill="none" stroke="#A1D5D3" stroke-width="0.484" stroke-miterlimit="10" x1="110.005" y1="118.633" x2="119.551" y2="113.461"/>
	<path fill="#A1D5D3" d="M110.69,119.756c-0.644,0.343-1.438,0.11-1.783-0.531c-0.349-0.636-0.105-1.432,0.53-1.78
		c0.638-0.344,1.434-0.108,1.778,0.53C111.564,118.611,111.327,119.413,110.69,119.756"/>
</g>
<path fill="none" stroke="#A1D5D3" stroke-miterlimit="10" d="M120.716,90.424l-18.299-0.075L120.716,90.424z"/>
<g>
	<line fill="none" stroke="#A1D5D3" stroke-miterlimit="10" x1="102.417" y1="90.348" x2="120.716" y2="90.424"/>
	<path fill="#A1D5D3" d="M102.473,91.663c-0.721-0.005-1.311-0.596-1.305-1.321c0.004-0.722,0.593-1.31,1.321-1.308
		c0.725,0.004,1.31,0.594,1.305,1.322C103.79,91.079,103.197,91.666,102.473,91.663"/>
</g>
<line fill="none" stroke="#A1D5D3" stroke-miterlimit="10" x1="159.709" y1="33.824" x2="159.746" y2="44.764"/>
<path fill="#A1D5D3" d="M158.414,33.892c-0.005-0.725,0.582-1.315,1.306-1.317c0.726-0.003,1.317,0.584,1.322,1.309
	c0,0.726-0.585,1.316-1.313,1.319C159.004,35.206,158.414,34.617,158.414,33.892"/>
<g>
	<path fill="none" stroke="#A1D5D3" stroke-miterlimit="10" d="M124.458,59.059c-0.005-0.725,0.582-1.315,1.306-1.317
		c0.726-0.003,1.317,0.584,1.322,1.309c0,0.726-0.585,1.316-1.313,1.319C125.048,60.372,124.458,59.784,124.458,59.059"/>
	<path fill="none" stroke="#A1D5D3" stroke-miterlimit="10" d="M129.375,64.309c-0.005-0.725,0.582-1.315,1.306-1.317
		c0.726-0.003,1.317,0.584,1.322,1.309c0,0.726-0.585,1.316-1.313,1.319C129.965,65.622,129.375,65.034,129.375,64.309"/>
	<path fill="none" stroke="#A1D5D3" stroke-miterlimit="10" d="M134.542,69.976c-0.005-0.725,0.582-1.315,1.306-1.317
		c0.726-0.003,1.317,0.584,1.322,1.309c0,0.726-0.585,1.316-1.313,1.319C135.132,71.289,134.542,70.701,134.542,69.976"/>
</g>
<g>
	
		<line fill="none" stroke="#A1D5D3" stroke-width="0.484" stroke-miterlimit="10" x1="187.213" y1="41.997" x2="178.626" y2="57.509"/>
	<path fill="#A1D5D3" d="M186.031,41.416c0.354-0.634,1.154-0.863,1.787-0.511c0.633,0.35,0.866,1.15,0.513,1.787
		c-0.35,0.631-1.15,0.862-1.788,0.511C185.911,42.851,185.681,42.051,186.031,41.416"/>
</g>
<path fill="none" stroke="#A1D5D3" stroke-width="0.631" stroke-miterlimit="10" d="M182.766,90.211
	c0,13.228-10.723,23.953-23.949,23.953c-13.23,0-23.955-10.725-23.955-23.953c0-13.229,10.725-23.955,23.955-23.955
	C172.042,66.257,182.766,76.982,182.766,90.211z"/>
<path fill="none" stroke="#A1D5D3" stroke-width="0.484" stroke-miterlimit="10" stroke-dasharray="2.879,2.879" d="M180.672,90.211
	c0,12.07-9.788,21.854-21.856,21.854c-12.073,0-21.857-9.784-21.857-21.854c0-12.073,9.784-21.858,21.857-21.858
	C170.884,68.354,180.672,78.138,180.672,90.211z"/>
<path fill="#A1D5D3" d="M216.823,88.829c0.79,0,1.427,0.661,1.427,1.477c0,0.813-0.643,1.474-1.427,1.474
	c-0.789,0-1.433-0.664-1.433-1.478C215.39,89.49,216.034,88.829,216.823,88.829"/>
<path fill="none" stroke="#A1D5D3" stroke-miterlimit="10" d="M215.858,101.645l0.983-5.569L215.858,101.645z"/>
<line fill="none" stroke="#A1D5D3" stroke-width="0.316" stroke-miterlimit="10" x1="216.036" y1="100.643" x2="216.84" y2="96.076"/>
<polygon fill="none" stroke="#A1D5D3" stroke-miterlimit="10" points="214.905,100.284 217.22,100.692 215.858,101.645 "/>
<line fill="none" stroke="#A1D5D3" stroke-width="0.484" stroke-miterlimit="10" x1="159.71" y1="136.208" x2="159.746" y2="146.048"/>
</svg>
