<?xml version="1.0" encoding="utf-8"?>
<!-- Generator: Adobe Illustrator 16.0.3, SVG Export Plug-In . SVG Version: 6.00 Build 0)  -->
<!DOCTYPE svg PUBLIC "-//W3C//DTD SVG 1.1//EN" "http://www.w3.org/Graphics/SVG/1.1/DTD/svg11.dtd">
<svg version="1.1" id="Ebene_1" xmlns="http://www.w3.org/2000/svg" xmlns:xlink="http://www.w3.org/1999/xlink" x="0px" y="0px"
	 width="320px" height="180px" viewBox="0 0 320 180" enable-background="new 0 0 320 180" xml:space="preserve">
<g>
	<defs>
		<filter id="Adobe_OpacityMaskFilter" filterUnits="userSpaceOnUse" x="110.524" y="73.636" width="43.723" height="43.721">
			<feFlood  style="flood-color:white;flood-opacity:1" result="back"/>
			<feBlend  in="SourceGraphic" in2="back" mode="normal"/>
		</filter>
	</defs>
	<mask maskUnits="userSpaceOnUse" x="110.524" y="73.636" width="43.723" height="43.721" id="SVGID_2_">
		<g filter="url(#Adobe_OpacityMaskFilter)">
			<circle fill="none" stroke="#000000" stroke-width="2" stroke-miterlimit="10" cx="132.833" cy="96.5" r="13.417"/>
			<line fill="none" stroke="#000000" stroke-width="2" stroke-miterlimit="10" x1="133" y1="83" x2="133" y2="72"/>
			
				<line fill="none" stroke="#000000" stroke-width="2" stroke-miterlimit="10" x1="145.917" y1="94.417" x2="155.751" y2="92.667"/>
			
				<line fill="none" stroke="#000000" stroke-width="2" stroke-miterlimit="10" x1="139.751" y1="108.25" x2="143.417" y2="115.917"/>
			
				<line fill="none" stroke="#000000" stroke-width="2" stroke-miterlimit="10" x1="122.501" y1="105.5" x2="115.751" y2="111.417"/>
			
				<line fill="none" stroke="#000000" stroke-width="2" stroke-miterlimit="10" x1="119.501" y1="93.083" x2="109.834" y2="90.917"/>
		</g>
	</mask>
	<path mask="url(#SVGID_2_)" fill="#A1D5D3" d="M147.844,80.037c8.538,8.541,8.538,22.378,0,30.918
		c-8.535,8.532-22.378,8.539-30.921,0c-8.533-8.538-8.53-22.382,0.005-30.916C125.466,71.501,139.306,71.501,147.844,80.037z"/>
	<defs>
		<filter id="Adobe_OpacityMaskFilter_1_" filterUnits="userSpaceOnUse" x="143.646" y="44.177" width="37.479" height="37.476">
			<feFlood  style="flood-color:white;flood-opacity:1" result="back"/>
			<feBlend  in="SourceGraphic" in2="back" mode="normal"/>
		</filter>
	</defs>
	<mask maskUnits="userSpaceOnUse" x="143.646" y="44.177" width="37.479" height="37.476" id="SVGID_3_">
		<g filter="url(#Adobe_OpacityMaskFilter_1_)">
			<circle fill="none" stroke="#000000" stroke-width="2" stroke-miterlimit="10" cx="162.05" cy="63.794" r="11.499"/>
			<line fill="none" stroke="#000000" stroke-width="2" stroke-miterlimit="10" x1="170.333" y1="55.713" x2="177" y2="49.046"/>
			
				<line fill="none" stroke="#000000" stroke-width="2" stroke-miterlimit="10" x1="171.242" y1="70.462" x2="178.264" y2="75.362"/>
			
				<line fill="none" stroke="#000000" stroke-width="2" stroke-miterlimit="10" x1="159.121" y1="75.109" x2="156.695" y2="81.978"/>
			
				<line fill="none" stroke="#000000" stroke-width="2" stroke-miterlimit="10" x1="150.333" y1="62.987" x2="142.655" y2="62.482"/>
			
				<line fill="none" stroke="#000000" stroke-width="2" stroke-miterlimit="10" x1="156.041" y1="53.643" x2="151.494" y2="46.471"/>
		</g>
	</mask>
	<path mask="url(#SVGID_3_)" fill="#A1D5D3" d="M181.125,62.915c0,10.351-8.388,18.738-18.738,18.738
		c-10.345-0.001-18.738-8.388-18.74-18.741c0.003-10.347,8.395-18.735,18.74-18.735C172.736,44.177,181.125,52.565,181.125,62.915z"
		/>
	<path fill="none" stroke="#A1D5D3" stroke-width="2" stroke-miterlimit="10" d="M175.887,125.344
		c-10.192-14.993-60.022,17.679-71.153-24.385c-5.515-20.841,20.467-45.897,38.974-54.164c20.181-9.021,52.038-14.087,65.664-0.901
		c17.069,16.517,1.696,26.283,4.195,35.977c3.713,14.399,31.949,29.826,8.193,52.17
		C207.313,147.629,189.054,144.708,175.887,125.344z"/>
</g>
<defs>
	<filter id="Adobe_OpacityMaskFilter_2_" filterUnits="userSpaceOnUse" x="180.526" y="93.638" width="43.721" height="43.723">
		<feFlood  style="flood-color:white;flood-opacity:1" result="back"/>
		<feBlend  in="SourceGraphic" in2="back" mode="normal"/>
	</filter>
</defs>
<mask maskUnits="userSpaceOnUse" x="180.526" y="93.638" width="43.721" height="43.723" id="SVGID_4_">
	<g filter="url(#Adobe_OpacityMaskFilter_2_)">
		<circle fill="none" stroke="#000000" stroke-width="2" stroke-miterlimit="10" cx="201.383" cy="115.947" r="13.417"/>
		
			<line fill="none" stroke="#000000" stroke-width="2" stroke-miterlimit="10" x1="214.883" y1="116.113" x2="225.883" y2="116.113"/>
		
			<line fill="none" stroke="#000000" stroke-width="2" stroke-miterlimit="10" x1="203.467" y1="129.03" x2="205.217" y2="138.864"/>
		
			<line fill="none" stroke="#000000" stroke-width="2" stroke-miterlimit="10" x1="189.633" y1="122.864" x2="181.967" y2="126.53"/>
		
			<line fill="none" stroke="#000000" stroke-width="2" stroke-miterlimit="10" x1="192.383" y1="105.614" x2="186.467" y2="98.864"/>
		<line fill="none" stroke="#000000" stroke-width="2" stroke-miterlimit="10" x1="204.8" y1="102.614" x2="206.967" y2="92.947"/>
	</g>
</mask>
<path mask="url(#SVGID_4_)" fill="#A1D5D3" d="M217.846,130.957c-8.54,8.538-22.377,8.538-30.918,0
	c-8.532-8.535-8.539-22.378,0-30.921c8.538-8.533,22.383-8.53,30.916,0.005C226.382,108.579,226.382,122.419,217.846,130.957z"/>
<defs>
	<filter id="Adobe_OpacityMaskFilter_3_" filterUnits="userSpaceOnUse" x="185.601" y="47.546" width="25.572" height="25.573">
		<feFlood  style="flood-color:white;flood-opacity:1" result="back"/>
		<feBlend  in="SourceGraphic" in2="back" mode="normal"/>
	</filter>
</defs>
<mask maskUnits="userSpaceOnUse" x="185.601" y="47.546" width="25.572" height="25.573" id="SVGID_5_">
	<g filter="url(#Adobe_OpacityMaskFilter_3_)">
		<circle fill="none" stroke="#000000" stroke-width="2" stroke-miterlimit="10" cx="197.8" cy="60.595" r="7.847"/>
		<line fill="none" stroke="#000000" stroke-width="2" stroke-miterlimit="10" x1="205.695" y1="60.692" x2="212.129" y2="60.692"/>
		<line fill="none" stroke="#000000" stroke-width="2" stroke-miterlimit="10" x1="199.019" y1="68.247" x2="200.042" y2="73.999"/>
		<line fill="none" stroke="#000000" stroke-width="2" stroke-miterlimit="10" x1="190.927" y1="64.641" x2="186.443" y2="66.785"/>
		<line fill="none" stroke="#000000" stroke-width="2" stroke-miterlimit="10" x1="192.535" y1="54.551" x2="189.075" y2="50.604"/>
		<line fill="none" stroke="#000000" stroke-width="2" stroke-miterlimit="10" x1="199.798" y1="52.796" x2="201.065" y2="47.143"/>
	</g>
</mask>
<path mask="url(#SVGID_5_)" fill="#A1D5D3" d="M207.429,69.374c-4.995,4.994-13.088,4.994-18.084,0
	c-4.99-4.992-4.994-13.089,0-18.085c4.994-4.991,13.092-4.989,18.083,0.003C212.421,56.285,212.421,64.38,207.429,69.374z"/>
<defs>
	<filter id="Adobe_OpacityMaskFilter_4_" filterUnits="userSpaceOnUse" x="157.599" y="82.547" width="25.573" height="25.572">
		<feFlood  style="flood-color:white;flood-opacity:1" result="back"/>
		<feBlend  in="SourceGraphic" in2="back" mode="normal"/>
	</filter>
</defs>
<mask maskUnits="userSpaceOnUse" x="157.599" y="82.547" width="25.573" height="25.572" id="SVGID_6_">
	<g filter="url(#Adobe_OpacityMaskFilter_4_)">
		<circle fill="none" stroke="#000000" stroke-width="2" stroke-miterlimit="10" cx="170.124" cy="94.746" r="7.847"/>
		
			<line fill="none" stroke="#000000" stroke-width="2" stroke-miterlimit="10" x1="170.026" y1="102.642" x2="170.026" y2="109.075"/>
		<line fill="none" stroke="#000000" stroke-width="2" stroke-miterlimit="10" x1="162.472" y1="95.965" x2="156.72" y2="96.988"/>
		<line fill="none" stroke="#000000" stroke-width="2" stroke-miterlimit="10" x1="166.078" y1="87.873" x2="163.934" y2="83.39"/>
		<line fill="none" stroke="#000000" stroke-width="2" stroke-miterlimit="10" x1="176.167" y1="89.481" x2="180.115" y2="86.021"/>
		<line fill="none" stroke="#000000" stroke-width="2" stroke-miterlimit="10" x1="177.922" y1="96.744" x2="183.576" y2="98.012"/>
	</g>
</mask>
<path mask="url(#SVGID_6_)" fill="#A1D5D3" d="M161.345,104.375c-4.994-4.995-4.994-13.088,0-18.084
	c4.992-4.99,13.089-4.994,18.085,0c4.991,4.994,4.989,13.092-0.003,18.083C174.434,109.367,166.339,109.367,161.345,104.375z"/>
</svg>
