<?xml version="1.0" encoding="utf-8"?>
<!-- Generator: Adobe Illustrator 16.0.3, SVG Export Plug-In . SVG Version: 6.00 Build 0)  -->
<!DOCTYPE svg PUBLIC "-//W3C//DTD SVG 1.1//EN" "http://www.w3.org/Graphics/SVG/1.1/DTD/svg11.dtd">
<svg version="1.1" id="Ebene_1" xmlns="http://www.w3.org/2000/svg" xmlns:xlink="http://www.w3.org/1999/xlink" x="0px" y="0px"
	 width="320px" height="180px" viewBox="0 0 320 180" enable-background="new 0 0 320 180" xml:space="preserve">
<rect x="104.818" y="56.341" fill="none" stroke="#A1D5D3" stroke-miterlimit="10" width="4.534" height="20.894"/>
<rect x="104.818" y="56.341" fill="#A1D5D3" stroke="#A1D5D3" stroke-miterlimit="10" width="4.533" height="20.894"/>
<rect x="104.818" y="87.417" fill="none" stroke="#A1D5D3" stroke-miterlimit="10" width="4.534" height="36.213"/>
<rect x="104.818" y="87.417" fill="#A1D5D3" stroke="#A1D5D3" stroke-miterlimit="10" width="4.533" height="36.213"/>
<rect x="158.063" y="49.171" fill="none" stroke="#A1D5D3" stroke-miterlimit="10" width="4.533" height="25.011"/>
<rect x="158.063" y="49.171" fill="#A1D5D3" stroke="#A1D5D3" stroke-miterlimit="10" width="4.533" height="25.011"/>
<rect x="158.063" y="83.913" fill="none" stroke="#A1D5D3" stroke-miterlimit="10" width="4.533" height="33.417"/>
<rect x="158.063" y="83.914" fill="#A1D5D3" stroke="#A1D5D3" stroke-miterlimit="10" width="4.533" height="33.417"/>
<rect x="158.063" y="119.719" fill="none" stroke="#A1D5D3" stroke-miterlimit="10" width="4.533" height="24.162"/>
<rect x="158.063" y="119.718" fill="#A1D5D3" stroke="#A1D5D3" stroke-miterlimit="10" width="4.533" height="24.162"/>
<rect x="209.83" y="41.936" fill="none" stroke="#A1D5D3" stroke-miterlimit="10" width="4.533" height="32.071"/>
<rect x="209.83" y="41.937" fill="#A1D5D3" stroke="#A1D5D3" stroke-miterlimit="10" width="4.533" height="32.071"/>
<rect x="209.83" y="78.449" fill="none" stroke="#A1D5D3" stroke-miterlimit="10" width="4.533" height="12.01"/>
<rect x="209.83" y="78.449" fill="#A1D5D3" stroke="#A1D5D3" stroke-miterlimit="10" width="4.533" height="12.009"/>
<rect x="209.83" y="111.93" fill="none" stroke="#A1D5D3" stroke-miterlimit="10" width="4.533" height="25.718"/>
<rect x="209.83" y="111.929" fill="#A1D5D3" stroke="#A1D5D3" stroke-miterlimit="10" width="4.533" height="25.719"/>
<rect x="104.818" y="126.598" fill="none" stroke="#A1D5D3" stroke-miterlimit="10" width="4.534" height="10.05"/>
<rect x="104.818" y="126.598" fill="#A1D5D3" stroke="#A1D5D3" stroke-miterlimit="10" width="4.533" height="10.05"/>
<rect x="207.347" y="38.725" fill="none" stroke="#A1D5D3" stroke-miterlimit="10" width="9.502" height="55.947"/>
<rect x="155.578" y="81.023" fill="none" stroke="#A1D5D3" stroke-miterlimit="10" width="9.502" height="66.688"/>
<rect x="102.334" y="83.167" fill="none" stroke="#A1D5D3" stroke-miterlimit="10" width="9.501" height="56.659"/>
<rect x="102.334" y="39.583" fill="none" stroke="#A1D5D3" stroke-miterlimit="10" width="9.501" height="40.096"/>
<rect x="104.815" y="41.779" fill="none" stroke="#A1D5D3" stroke-miterlimit="10" width="4.537" height="10.05"/>
<rect x="104.813" y="41.779" fill="#A1D5D3" stroke="#A1D5D3" stroke-miterlimit="10" width="4.538" height="10.05"/>
<rect x="155.578" y="34.441" fill="none" stroke="#A1D5D3" stroke-miterlimit="10" width="9.502" height="43.096"/>
<rect x="158.061" y="36.637" fill="none" stroke="#A1D5D3" stroke-miterlimit="10" width="4.536" height="10.05"/>
<rect x="158.06" y="36.637" fill="#A1D5D3" stroke="#A1D5D3" stroke-miterlimit="10" width="4.537" height="10.05"/>
<rect x="207.347" y="97.286" fill="none" stroke="#A1D5D3" stroke-miterlimit="10" width="9.502" height="44.227"/>
<rect x="209.83" y="100.866" fill="none" stroke="#A1D5D3" stroke-miterlimit="10" width="4.533" height="8.261"/>
<rect x="209.83" y="100.866" fill="#A1D5D3" stroke="#A1D5D3" stroke-miterlimit="10" width="4.533" height="8.261"/>
</svg>
