<?xml version="1.0" encoding="utf-8"?>
<!-- Generator: Adobe Illustrator 16.0.3, SVG Export Plug-In . SVG Version: 6.00 Build 0)  -->
<!DOCTYPE svg PUBLIC "-//W3C//DTD SVG 1.1//EN" "http://www.w3.org/Graphics/SVG/1.1/DTD/svg11.dtd">
<svg version="1.1" id="Ebene_1" xmlns="http://www.w3.org/2000/svg" xmlns:xlink="http://www.w3.org/1999/xlink" x="0px" y="0px"
	 width="320px" height="180px" viewBox="0 0 320 180" enable-background="new 0 0 320 180" xml:space="preserve">
<g>
	<path fill="#A1D5D3" d="M175.084,107.047c3.949,1.449,7.627,1.317,8.22-0.295c0.592-1.611-2.129-4.094-6.079-5.543
		c-3.939-1.446-7.633-1.316-8.224,0.294C168.408,103.117,171.143,105.601,175.084,107.047"/>
	<path fill="#A1D5D3" d="M134.798,120.063c1.314,1.104,3.672,0.456,5.271-1.444c1.598-1.902,1.827-4.335,0.513-5.439
		c-1.313-1.104-3.671-0.457-5.27,1.443C133.715,116.525,133.484,118.96,134.798,120.063"/>
	<path fill="#A1D5D3" d="M187.088,93.245c2.641-0.256,4.645-1.849,4.479-3.557c-0.166-1.711-2.439-2.887-5.08-2.63
		c-2.641,0.256-4.647,1.847-4.481,3.557C182.172,92.324,184.447,93.501,187.088,93.245"/>
	<path fill="#A1D5D3" d="M216.969,80.138c1.717,0,3.107-1.392,3.107-3.107c0-1.717-1.391-3.109-3.107-3.109
		s-3.108,1.393-3.108,3.109C213.86,78.746,215.252,80.138,216.969,80.138"/>
	<path fill="#A1D5D3" d="M154.326,130.984c1.715,0,3.105-1.801,3.105-4.02c0-2.225-1.391-4.028-3.105-4.028
		c-1.719,0-3.108,1.804-3.108,4.028C151.218,129.184,152.607,130.984,154.326,130.984"/>
	<path fill="#A1D5D3" d="M217.833,99.132c1.623,0,2.938-1.314,2.938-2.934c0-1.623-1.314-2.938-2.938-2.938
		c-1.625,0-2.934,1.314-2.934,2.938C214.899,97.817,216.208,99.132,217.833,99.132"/>
	<path fill="#A1D5D3" d="M183.385,122.746c1.159-1.137,0.977-3.199-0.405-4.608c-1.383-1.41-3.438-1.629-4.598-0.492
		c-1.155,1.134-0.977,3.191,0.407,4.604C180.17,123.657,182.229,123.879,183.385,122.746"/>
	<path fill="#A1D5D3" d="M227.02,138.121c1.717,0,3.106-1.391,3.106-3.107c0-1.718-1.39-3.109-3.106-3.109
		c-1.718,0-3.103,1.392-3.103,3.109C223.917,136.73,225.302,138.121,227.02,138.121"/>
	<path fill="#A1D5D3" d="M118.896,131.904c1.714,0,3.105-1.391,3.105-3.107c0-1.719-1.392-3.107-3.105-3.107
		c-1.716,0-3.105,1.389-3.105,3.107C115.791,130.514,117.181,131.904,118.896,131.904"/>
	<path fill="#A1D5D3" d="M212.997,41.807c1.717,0,3.106-1.389,3.106-3.105c0-1.719-1.39-3.111-3.106-3.111
		c-1.718,0-3.108,1.393-3.108,3.111C209.889,40.418,211.279,41.807,212.997,41.807"/>
	<path fill="#A1D5D3" d="M79.012,52.513c1.715,0,3.107-1.391,3.107-3.107c0-1.719-1.393-3.107-3.107-3.107s-3.107,1.389-3.107,3.107
		C75.904,51.122,77.297,52.513,79.012,52.513"/>
	<path fill="#A1D5D3" d="M90.406,109.146c1.717,0,3.107-1.39,3.107-3.109c0-1.717-1.391-3.109-3.107-3.109
		c-1.715,0-3.108,1.393-3.108,3.109C87.298,107.757,88.691,109.146,90.406,109.146"/>
	<path fill="#A1D5D3" d="M233.236,52.513c1.717,0,3.103-1.391,3.103-3.107c0-1.719-1.386-3.107-3.103-3.107
		c-1.718,0-3.108,1.389-3.108,3.107C230.128,51.122,231.519,52.513,233.236,52.513"/>
	<path fill="#A1D5D3" d="M206.78,133.143c1.722,0,3.107-1.39,3.107-3.104c0-1.72-1.386-3.112-3.107-3.112
		c-1.714,0-3.108,1.393-3.108,3.112C203.672,131.753,205.066,133.143,206.78,133.143"/>
	<path fill="#A1D5D3" d="M136.223,100.686c3.318,0,6.014-1.393,6.014-3.107c0-1.719-2.695-3.111-6.014-3.111
		c-3.324,0-6.019,1.393-6.019,3.111C130.204,99.293,132.898,100.686,136.223,100.686"/>
	<path fill="#A1D5D3" d="M199.185,64.25c1.714,0,3.108-1.389,3.108-3.106s-1.395-3.108-3.108-3.108
		c-1.717,0-3.107,1.391-3.107,3.108S197.468,64.25,199.185,64.25"/>
	<path fill="#A1D5D3" d="M81.083,86.353c1.717,0,3.107-1.39,3.107-3.107c0-1.717-1.391-3.107-3.107-3.107s-3.104,1.391-3.104,3.107
		C77.979,84.963,79.366,86.353,81.083,86.353"/>
	<path fill="#A1D5D3" d="M113.022,47.159c1.718,0,3.105-1.39,3.105-3.108c0-1.717-1.388-3.107-3.105-3.107
		c-1.717,0-3.104,1.391-3.104,3.107C109.919,45.77,111.306,47.159,113.022,47.159"/>
	<path fill="#A1D5D3" d="M240.424,112.255c1.717,0,3.107-1.392,3.107-3.107c0-1.717-1.391-3.11-3.107-3.11
		c-1.712,0-3.108,1.394-3.108,3.11C237.315,110.863,238.712,112.255,240.424,112.255"/>
	<path fill="#A1D5D3" d="M242.866,85.663c1.717,0,3.107-1.391,3.107-3.11c0-1.714-1.391-3.105-3.107-3.105
		c-1.712,0-3.108,1.392-3.108,3.105C239.758,84.272,241.154,85.663,242.866,85.663"/>
	<path fill="#A1D5D3" d="M87.298,135.012c1.717,0,3.106-1.389,3.106-3.106s-1.39-3.111-3.106-3.111
		c-1.714,0-3.104,1.394-3.104,3.111S85.584,135.012,87.298,135.012"/>
	<path fill="#A1D5D3" d="M112.287,70.984c1.719,0,3.107-1.393,3.107-3.106c0-1.718-1.389-3.11-3.107-3.11
		c-1.715,0-3.108,1.393-3.108,3.11C109.179,69.592,110.572,70.984,112.287,70.984"/>
	<path fill="#A1D5D3" d="M140.774,57.862c1.717,0,3.107-1.392,3.107-3.107c0-1.717-1.391-3.109-3.107-3.109
		c-1.716,0-3.105,1.393-3.105,3.109C137.669,56.471,139.059,57.862,140.774,57.862"/>
	<path fill="#A1D5D3" d="M143.62,78.096c1.388-0.837,1.626-2.984,0.532-4.796c-1.095-1.813-3.105-2.6-4.492-1.761
		c-1.389,0.837-1.626,2.982-0.531,4.795C140.223,78.145,142.231,78.935,143.62,78.096"/>
	<path fill="#A1D5D3" d="M166.673,63.387c1.717,0,3.107-1.39,3.107-3.109c0-1.717-1.391-3.105-3.107-3.105
		c-1.713,0-3.108,1.389-3.108,3.105C163.564,61.997,164.96,63.387,166.673,63.387"/>
	<path fill="#A1D5D3" d="M157.433,102.158c3.285,0,5.949-2.659,5.949-5.946c0-3.285-2.664-5.946-5.949-5.946
		c-3.281,0-5.948,2.661-5.948,5.946C151.484,99.499,154.151,102.158,157.433,102.158"/>
	<path fill="none" stroke="#A1D5D3" stroke-miterlimit="10" d="M157.433,106.391c5.632,0,10.197-4.56,10.197-10.194
		c0-5.632-4.565-10.194-10.197-10.194c-5.625,0-10.197,4.563-10.197,10.194C147.235,101.831,151.808,106.391,157.433,106.391"/>
	<g>
		<g>
			<g>
				<g>
					<g>
						<g>
							<path fill="none" d="M157.158,115.326c0,0,0.499-0.023,1.247-0.059c0.75-0.008,1.741-0.192,2.727-0.359
								c0.975-0.236,1.945-0.488,2.643-0.776c0.353-0.132,0.646-0.241,0.852-0.318c0.198-0.094,0.312-0.146,0.312-0.146
								l-2.989-6.714c0,0-0.069,0.034-0.19,0.094c-0.127,0.046-0.308,0.11-0.524,0.188c-0.425,0.187-1.025,0.325-1.621,0.481
								c-0.609,0.087-1.213,0.226-1.681,0.217c-0.464,0.025-0.773,0.043-0.773,0.043V115.326z"/>
						</g>
						<polygon fill-rule="evenodd" clip-rule="evenodd" fill="#A1D5D3" points="161.797,110.666 162.021,111.365 163.185,110.94 
							162.906,110.26 						"/>
						<path fill-rule="evenodd" clip-rule="evenodd" fill="#A1D5D3" d="M159.738,111.156l0.125,0.725c0,0,0.308-0.037,0.609-0.104
							c0.3-0.076,0.6-0.153,0.6-0.153l-0.18-0.713c0,0-0.286,0.074-0.572,0.147C160.033,111.122,159.739,111.156,159.738,111.156z"
							/>
						<path fill-rule="evenodd" clip-rule="evenodd" fill="#A1D5D3" d="M157.64,111.367l0.023,0.734c0,0,0.309-0.016,0.618-0.031
							c0.31-0.013,0.617-0.043,0.617-0.043l-0.079-0.73c0,0-0.294,0.028-0.589,0.04C157.935,111.352,157.64,111.367,157.64,111.367z
							"/>
					</g>
				</g>
				<g>
					<g>
						<g>
							<path fill="none" d="M164.938,113.667c0,0,0.451-0.218,1.129-0.544c0.341-0.159,0.704-0.407,1.109-0.645
								s0.828-0.506,1.221-0.816c0.824-0.573,1.558-1.255,2.107-1.766c0.283-0.247,0.475-0.497,0.629-0.652
								c0.147-0.162,0.231-0.255,0.231-0.255l-5.458-4.921c-0.001,0-0.809,0.947-1.831,1.649c-0.238,0.197-0.501,0.359-0.752,0.503
								c-0.252,0.142-0.468,0.309-0.682,0.399c-0.416,0.199-0.693,0.333-0.693,0.333L164.938,113.667z"/>
						</g>
						<path fill-rule="evenodd" clip-rule="evenodd" fill="#A1D5D3" d="M167.273,107.52l0.489,0.548
							c0-0.001,0.917-0.832,0.894-0.855l-0.53-0.509C168.148,106.726,167.272,107.519,167.273,107.52z"/>
						<polygon fill-rule="evenodd" clip-rule="evenodd" fill="#A1D5D3" points="165.609,108.827 166.019,109.438 167.014,108.702 
							166.559,108.125 						"/>
						<path fill-rule="evenodd" clip-rule="evenodd" fill="#A1D5D3" d="M163.771,109.863l0.32,0.661c0,0,0.279-0.134,0.558-0.269
							c0.275-0.141,0.535-0.312,0.535-0.312l-0.371-0.635c0,0.001-0.247,0.163-0.51,0.298
							C164.037,109.735,163.771,109.863,163.771,109.863z"/>
					</g>
				</g>
				<g>
					<g>
						<g>
							<path fill="none" d="M171.364,108.989c0,0,1.383-1.466,2.354-3.229c0.273-0.421,0.477-0.88,0.684-1.302
								c0.2-0.426,0.404-0.814,0.521-1.174c0.258-0.706,0.43-1.178,0.43-1.178l-6.99-2.269c0,0-0.105,0.288-0.265,0.722
								c-0.063,0.223-0.2,0.457-0.322,0.719c-0.129,0.258-0.242,0.546-0.419,0.801c-0.591,1.088-1.451,1.988-1.451,1.988
								L171.364,108.989z"/>
						</g>
						<path fill-rule="evenodd" clip-rule="evenodd" fill="#A1D5D3" d="M171.012,102.43l0.671,0.303c0,0,0.151-0.271,0.246-0.568
							c0.106-0.29,0.213-0.581,0.213-0.581l-0.691-0.249c0,0-0.102,0.277-0.203,0.555
							C171.158,102.172,171.013,102.43,171.012,102.43z"/>
						<path fill-rule="evenodd" clip-rule="evenodd" fill="#A1D5D3" d="M170.008,104.293l0.621,0.393c0,0,0.659-1.051,0.627-1.068
							l-0.65-0.343C170.637,103.292,170.008,104.293,170.008,104.293z"/>
						<path fill-rule="evenodd" clip-rule="evenodd" fill="#A1D5D3" d="M168.767,105.998l0.562,0.475
							c0.027,0.022,0.756-0.979,0.756-0.979l-0.597-0.43C169.488,105.063,168.794,106.021,168.767,105.998z"/>
					</g>
				</g>
				<g>
					<g>
						<g>
							<path fill="none" d="M175.354,102.107c0.001,0,0.051-0.115,0.107-0.327c0.056-0.212,0.135-0.516,0.23-0.879
								c0.219-0.723,0.354-1.717,0.497-2.708c0.198-1.994,0.001-3.991,0.001-3.991l-7.311,0.759c0,0,0.11,1.236,0,2.473
								c-0.105,0.607-0.166,1.224-0.313,1.664c-0.056,0.224-0.103,0.41-0.136,0.541c-0.031,0.131-0.066,0.2-0.067,0.2
								L175.354,102.107z"/>
						</g>
						<path fill-rule="evenodd" clip-rule="evenodd" fill="#A1D5D3" d="M172.356,96.258l0.734,0.003c0,0-0.01-0.309-0.024-0.618
							c-0.016-0.309-0.031-0.618-0.031-0.618l-0.732,0.054c0,0,0.015,0.295,0.029,0.59
							C172.346,95.963,172.356,96.258,172.356,96.258z"/>
						<path fill-rule="evenodd" clip-rule="evenodd" fill="#A1D5D3" d="M172.187,98.368l0.728,0.104c0,0,0.046-0.307,0.093-0.612
							c0.018-0.31,0.035-0.618,0.035-0.618l-0.733-0.048c0,0-0.017,0.295-0.033,0.59C172.23,98.076,172.187,98.368,172.187,98.368z"
							/>
						<polygon fill-rule="evenodd" clip-rule="evenodd" fill="#A1D5D3" points="171.749,100.432 172.455,100.636 172.764,99.436 
							172.044,99.287 						"/>
					</g>
				</g>
				<g>
					<g>
						<g>
							<path fill="none" d="M176.189,94.202c0,0-0.074-0.495-0.186-1.239c-0.049-0.373-0.131-0.803-0.259-1.256
								c-0.124-0.454-0.225-0.947-0.392-1.42c-0.172-0.471-0.345-0.941-0.507-1.383c-0.175-0.437-0.382-0.824-0.54-1.165
								c-0.313-0.686-0.588-1.104-0.588-1.104l-6.361,3.681c0,0,0.177,0.255,0.36,0.68c0.095,0.21,0.23,0.444,0.336,0.713
								c0.099,0.271,0.205,0.56,0.311,0.849c0.106,0.289,0.155,0.596,0.236,0.872c0.085,0.275,0.135,0.54,0.158,0.771
								c0.072,0.456,0.12,0.761,0.12,0.761L176.189,94.202z"/>
						</g>
						<polygon fill-rule="evenodd" clip-rule="evenodd" fill="#A1D5D3" points="171.064,90.074 171.737,89.777 171.199,88.661 
							170.552,89.01 						"/>
						<path fill-rule="evenodd" clip-rule="evenodd" fill="#A1D5D3" d="M171.775,92.066l0.708-0.199c0,0-0.06-0.306-0.174-0.595
							c-0.106-0.29-0.212-0.581-0.212-0.581l-0.69,0.254c0,0,0.103,0.277,0.204,0.555C171.721,91.774,171.776,92.066,171.775,92.066
							z"/>
						<path fill-rule="evenodd" clip-rule="evenodd" fill="#A1D5D3" d="M172.202,94.132l0.729-0.099c0-0.001-0.17-1.229-0.205-1.222
							l-0.718,0.156C172.041,92.961,172.203,94.132,172.202,94.132z"/>
					</g>
				</g>
				<g>
					<g>
						<g>
							<path fill="none" d="M173.719,86.635c0,0-0.262-0.428-0.652-1.069c-0.448-0.6-1.003-1.44-1.701-2.159
								c-0.648-0.766-1.418-1.41-1.972-1.916c-0.589-0.465-0.995-0.757-0.995-0.757l-4.323,5.943c0,0,0.247,0.185,0.617,0.463
								c0.333,0.322,0.82,0.707,1.214,1.187c0.441,0.436,0.765,0.969,1.053,1.329c0.239,0.396,0.398,0.66,0.398,0.66L173.719,86.635
								z"/>
						</g>
						<path fill-rule="evenodd" clip-rule="evenodd" fill="#A1D5D3" d="M167.363,84.957l0.493-0.544c0,0-0.229-0.208-0.458-0.416
							c-0.231-0.206-0.487-0.382-0.487-0.382l-0.45,0.581c0,0,0.244,0.167,0.465,0.363
							C167.145,84.759,167.363,84.957,167.363,84.957z"/>
						<polygon fill-rule="evenodd" clip-rule="evenodd" fill="#A1D5D3" points="168.838,86.476 169.402,86.005 168.569,85.088 
							168.043,85.602 						"/>
						<path fill-rule="evenodd" clip-rule="evenodd" fill="#A1D5D3" d="M170.063,88.193l0.624-0.389c0,0-0.161-0.264-0.323-0.528
							c-0.186-0.248-0.37-0.496-0.37-0.496l-0.593,0.436c0,0,0.178,0.236,0.354,0.473C169.908,87.941,170.063,88.193,170.063,88.193
							z"/>
					</g>
				</g>
				<g>
					<g>
						<g>
							<path fill="none" d="M168.398,80.733c0,0-0.101-0.075-0.276-0.205c-0.172-0.138-0.436-0.306-0.758-0.498
								c-0.322-0.193-0.697-0.42-1.1-0.661c-0.423-0.205-0.874-0.423-1.325-0.642c-0.445-0.231-0.932-0.368-1.369-0.54
								c-0.44-0.166-0.854-0.31-1.222-0.393c-0.729-0.186-1.215-0.31-1.215-0.31l-1.521,7.19c0,0,0.298,0.077,0.744,0.193
								c0.228,0.044,0.48,0.137,0.75,0.242c0.266,0.111,0.571,0.176,0.841,0.329c0.277,0.133,0.556,0.266,0.815,0.391
								c0.247,0.15,0.478,0.291,0.675,0.412c0.2,0.115,0.365,0.216,0.468,0.305c0.107,0.082,0.169,0.129,0.169,0.129L168.398,80.733
								z"/>
						</g>
						<path fill-rule="evenodd" clip-rule="evenodd" fill="#A1D5D3" d="M161.911,81.77l0.23-0.698
							c0.011-0.034-1.192-0.333-1.192-0.333l-0.175,0.714C160.774,81.452,161.922,81.735,161.911,81.77z"/>
						<path fill-rule="evenodd" clip-rule="evenodd" fill="#A1D5D3" d="M163.867,82.577l0.325-0.659c0,0-1.114-0.541-1.128-0.509
							l-0.272,0.683C162.805,82.061,163.867,82.577,163.867,82.577z"/>
						<polygon fill-rule="evenodd" clip-rule="evenodd" fill="#A1D5D3" points="165.697,83.626 166.111,83.019 165.056,82.371 
							164.69,83.009 						"/>
					</g>
				</g>
				<g>
					<g>
						<g>
							<path fill="none" d="M161.134,77.485c0,0-1.973-0.404-3.974-0.419c-2.003,0.014-3.975,0.419-3.975,0.419l1.521,7.19
								c0,0,1.211-0.236,2.453-0.26c1.243,0.023,2.454,0.26,2.454,0.26L161.134,77.485z"/>
						</g>
						<polygon fill-rule="evenodd" clip-rule="evenodd" fill="#A1D5D3" points="155.631,81.078 155.558,80.347 154.333,80.531 
							154.463,81.254 						"/>
						<path fill-rule="evenodd" clip-rule="evenodd" fill="#A1D5D3" d="M157.747,81.031l0.028-0.734c0,0-0.31-0.016-0.618-0.03
							c-0.31,0.015-0.618,0.03-0.618,0.03l0.027,0.734c0,0,0.296-0.015,0.591-0.03C157.452,81.017,157.747,81.031,157.747,81.031z"
							/>
						<polygon fill-rule="evenodd" clip-rule="evenodd" fill="#A1D5D3" points="159.845,81.253 159.974,80.529 158.749,80.347 
							158.677,81.078 						"/>
					</g>
				</g>
				<g>
					<g>
						<g>
							<path fill="none" d="M153.186,77.485c0,0-0.486,0.124-1.215,0.31c-0.368,0.083-0.782,0.227-1.223,0.393
								c-0.437,0.173-0.924,0.309-1.369,0.541c-0.45,0.218-0.901,0.437-1.324,0.641c-0.402,0.242-0.778,0.468-1.1,0.662
								c-0.322,0.192-0.586,0.36-0.758,0.497c-0.176,0.131-0.276,0.205-0.276,0.205l4.323,5.943c0,0,0.062-0.046,0.169-0.128
								c0.103-0.089,0.268-0.189,0.468-0.306c0.197-0.12,0.428-0.261,0.674-0.412c0.261-0.124,0.539-0.257,0.816-0.39
								c0.27-0.154,0.576-0.219,0.842-0.33c0.269-0.105,0.521-0.198,0.749-0.242c0.446-0.116,0.744-0.193,0.744-0.193
								L153.186,77.485z"/>
						</g>
						<path fill-rule="evenodd" clip-rule="evenodd" fill="#A1D5D3" d="M149.618,83.016l-0.365-0.638c0,0-0.265,0.161-0.529,0.321
							c-0.264,0.162-0.525,0.327-0.525,0.327l0.414,0.607c0,0,0.249-0.157,0.501-0.312
							C149.366,83.169,149.618,83.016,149.618,83.016z"/>
						<path fill-rule="evenodd" clip-rule="evenodd" fill="#A1D5D3" d="M151.522,82.094l-0.272-0.683
							c-0.014-0.032-1.128,0.51-1.129,0.509l0.326,0.659C150.447,82.58,151.509,82.063,151.522,82.094z"/>
						<path fill-rule="evenodd" clip-rule="evenodd" fill="#A1D5D3" d="M153.532,81.455l-0.175-0.714c0,0-1.202,0.301-1.191,0.335
							l0.23,0.697C152.386,81.74,153.532,81.455,153.532,81.455z"/>
					</g>
				</g>
				<g>
					<g>
						<g>
							<path fill="none" d="M145.921,80.733c0,0-0.406,0.293-0.995,0.758c-0.554,0.505-1.322,1.149-1.971,1.914
								c-0.699,0.719-1.254,1.56-1.702,2.159c-0.392,0.641-0.653,1.068-0.653,1.068l6.36,3.684c0,0,0.159-0.265,0.397-0.66
								c0.289-0.361,0.613-0.894,1.055-1.329c0.394-0.479,0.881-0.864,1.215-1.187c0.37-0.278,0.617-0.464,0.617-0.464
								L145.921,80.733z"/>
						</g>
						<path fill-rule="evenodd" clip-rule="evenodd" fill="#A1D5D3" d="M144.91,87.226l-0.592-0.436c0,0-0.186,0.248-0.371,0.496
							c-0.161,0.265-0.322,0.529-0.322,0.529l0.624,0.388c0,0,0.153-0.253,0.307-0.505C144.733,87.462,144.91,87.226,144.91,87.226z
							"/>
						<polygon fill-rule="evenodd" clip-rule="evenodd" fill="#A1D5D3" points="146.272,85.605 145.746,85.093 144.912,86.009 
							145.477,86.479 						"/>
						<path fill-rule="evenodd" clip-rule="evenodd" fill="#A1D5D3" d="M147.849,84.204l-0.45-0.58c0-0.001-0.258,0.174-0.487,0.382
							c-0.229,0.208-0.458,0.416-0.458,0.416l0.494,0.544c0,0,0.219-0.199,0.438-0.397S147.849,84.204,147.849,84.204z"/>
					</g>
				</g>
				<g>
					<g>
						<g>
							<path fill="none" d="M140.6,86.633c0.001,0-0.275,0.419-0.588,1.104c-0.159,0.341-0.365,0.729-0.541,1.164
								c-0.162,0.441-0.335,0.912-0.508,1.384c-0.167,0.473-0.268,0.966-0.392,1.419c-0.128,0.454-0.211,0.884-0.259,1.257
								c-0.111,0.743-0.186,1.239-0.186,1.239l7.31,0.761c0,0,0.048-0.305,0.12-0.761c0.023-0.231,0.073-0.495,0.159-0.771
								c0.081-0.276,0.13-0.583,0.236-0.871c0.105-0.289,0.212-0.578,0.311-0.849c0.106-0.269,0.242-0.503,0.336-0.714
								c0.184-0.425,0.361-0.679,0.361-0.679L140.6,86.633z"/>
						</g>
						<path fill-rule="evenodd" clip-rule="evenodd" fill="#A1D5D3" d="M142.306,92.979l-0.719-0.156
							c-0.032-0.006-0.204,1.222-0.204,1.222l0.729,0.099C142.111,94.143,142.273,92.972,142.306,92.979z"/>
						<path fill-rule="evenodd" clip-rule="evenodd" fill="#A1D5D3" d="M142.907,90.949l-0.689-0.254c0,0-0.106,0.29-0.213,0.581
							c-0.113,0.289-0.173,0.595-0.173,0.595l0.707,0.199c0,0,0.057-0.291,0.165-0.566
							C142.806,91.227,142.907,90.949,142.907,90.949z"/>
						<polygon fill-rule="evenodd" clip-rule="evenodd" fill="#A1D5D3" points="143.761,89.02 143.113,88.672 142.574,89.787 
							143.247,90.084 						"/>
					</g>
				</g>
				<g>
					<g>
						<g>
							<path fill="none" d="M138.127,94.2c0,0-0.198,1.997,0,3.992c0.144,0.991,0.278,1.985,0.498,2.708
								c0.095,0.364,0.175,0.667,0.23,0.879c0.056,0.213,0.106,0.328,0.106,0.328l6.99-2.271c-0.001,0-0.036-0.069-0.067-0.2
								c-0.033-0.13-0.08-0.316-0.136-0.54c-0.147-0.44-0.207-1.056-0.313-1.663c-0.11-1.236,0-2.472,0-2.472L138.127,94.2z"/>
						</g>
						<polygon fill-rule="evenodd" clip-rule="evenodd" fill="#A1D5D3" points="142.275,99.298 141.555,99.447 141.863,100.646 
							142.569,100.441 						"/>
						<path fill-rule="evenodd" clip-rule="evenodd" fill="#A1D5D3" d="M142.007,97.198l-0.733,0.048c0,0,0.019,0.309,0.036,0.618
							c0.046,0.306,0.093,0.612,0.093,0.612l0.728-0.104c0,0-0.045-0.292-0.09-0.584C142.023,97.493,142.007,97.198,142.007,97.198z
							"/>
						<path fill-rule="evenodd" clip-rule="evenodd" fill="#A1D5D3" d="M142.013,95.089l-0.733-0.054c0,0-0.016,0.31-0.031,0.619
							c-0.016,0.309-0.023,0.618-0.023,0.618l0.735-0.004c0,0,0.008-0.295,0.022-0.59C141.998,95.384,142.013,95.089,142.013,95.089
							z"/>
					</g>
				</g>
				<g>
					<g>
						<g>
							<path fill="none" d="M138.962,102.107c0,0,0.173,0.471,0.431,1.178c0.117,0.358,0.321,0.748,0.521,1.173
								c0.208,0.422,0.411,0.881,0.685,1.302c0.972,1.763,2.354,3.228,2.354,3.228l5.458-4.921c-0.001,0-0.861-0.9-1.452-1.989
								c-0.178-0.254-0.291-0.542-0.419-0.801c-0.122-0.261-0.259-0.495-0.323-0.719c-0.159-0.433-0.265-0.722-0.265-0.722
								L138.962,102.107z"/>
						</g>
						<path fill-rule="evenodd" clip-rule="evenodd" fill="#A1D5D3" d="M144.836,105.07l-0.596,0.431c0,0,0.729,1.002,0.758,0.979
							l0.561-0.476C145.531,106.027,144.836,105.071,144.836,105.07z"/>
						<path fill-rule="evenodd" clip-rule="evenodd" fill="#A1D5D3" d="M143.713,103.277l-0.649,0.344
							c-0.032,0.018,0.627,1.067,0.627,1.066l0.621-0.393C144.312,104.295,143.682,103.295,143.713,103.277z"/>
						<path fill-rule="evenodd" clip-rule="evenodd" fill="#A1D5D3" d="M142.87,101.344l-0.691,0.25c0,0,0.106,0.29,0.214,0.581
							c0.094,0.296,0.247,0.567,0.247,0.567l0.67-0.303c-0.001,0-0.147-0.258-0.236-0.541
							C142.972,101.621,142.87,101.344,142.87,101.344z"/>
					</g>
				</g>
				<g>
					<g>
						<g>
							<path fill="none" d="M142.953,108.987c0,0.001,0.322,0.385,0.859,0.907c0.551,0.511,1.284,1.192,2.107,1.766
								c0.394,0.31,0.815,0.579,1.221,0.816s0.769,0.485,1.109,0.645c0.677,0.326,1.129,0.544,1.129,0.544l2.991-6.714
								c0,0-0.278-0.133-0.694-0.333c-0.213-0.091-0.43-0.257-0.682-0.399c-0.251-0.143-0.514-0.306-0.752-0.503
								c-1.022-0.702-1.831-1.65-1.831-1.649L142.953,108.987z"/>
						</g>
						<path fill-rule="evenodd" clip-rule="evenodd" fill="#A1D5D3" d="M149.514,109.314l-0.37,0.635c0,0,0.259,0.171,0.535,0.311
							c0.278,0.135,0.558,0.269,0.558,0.269l0.32-0.661c0,0-0.267-0.129-0.532-0.256
							C149.761,109.479,149.514,109.314,149.514,109.314z"/>
						<polygon fill-rule="evenodd" clip-rule="evenodd" fill="#A1D5D3" points="147.763,108.126 147.308,108.703 148.303,109.439 
							148.712,108.828 						"/>
						<path fill-rule="evenodd" clip-rule="evenodd" fill="#A1D5D3" d="M146.199,106.71l-0.529,0.509
							c-0.024,0.023,0.895,0.854,0.894,0.854l0.489-0.548C147.053,107.524,146.177,106.732,146.199,106.71z"/>
					</g>
				</g>
				<g>
					<g>
						<g>
							<path fill="none" d="M149.379,113.665c0,0,0.113,0.053,0.311,0.146c0.206,0.077,0.499,0.187,0.852,0.318
								c0.697,0.288,1.668,0.542,2.643,0.777c0.986,0.168,1.977,0.352,2.727,0.36c0.749,0.035,1.248,0.059,1.248,0.059v-7.35
								c0,0-0.309-0.018-0.772-0.043c-0.468,0.009-1.071-0.13-1.681-0.217c-0.596-0.156-1.195-0.295-1.621-0.481
								c-0.217-0.079-0.397-0.144-0.524-0.189c-0.12-0.06-0.189-0.095-0.189-0.095L149.379,113.665z"/>
						</g>
						<path fill-rule="evenodd" clip-rule="evenodd" fill="#A1D5D3" d="M155.51,111.299l-0.079,0.73c0,0,0.308,0.027,0.617,0.042
							c0.31,0.016,0.618,0.03,0.618,0.03l0.022-0.734c0,0-0.295-0.015-0.59-0.029C155.803,111.324,155.51,111.298,155.51,111.299z"
							/>
						<path fill-rule="evenodd" clip-rule="evenodd" fill="#A1D5D3" d="M153.429,110.911l-0.18,0.713c0,0,0.3,0.076,0.6,0.153
							c0.302,0.067,0.61,0.104,0.61,0.104l0.124-0.724c0,0-0.294-0.035-0.582-0.099
							C153.715,110.984,153.429,110.911,153.429,110.911z"/>
						<polygon fill-rule="evenodd" clip-rule="evenodd" fill="#A1D5D3" points="151.422,110.263 151.144,110.943 152.308,111.369 
							152.531,110.669 						"/>
					</g>
				</g>
			</g>
		</g>
	</g>
</g>
</svg>
