<?xml version="1.0" encoding="utf-8"?>
<!-- Generator: Adobe Illustrator 16.0.3, SVG Export Plug-In . SVG Version: 6.00 Build 0)  -->
<!DOCTYPE svg PUBLIC "-//W3C//DTD SVG 1.1//EN" "http://www.w3.org/Graphics/SVG/1.1/DTD/svg11.dtd">
<svg version="1.1" id="Ebene_1" xmlns="http://www.w3.org/2000/svg" xmlns:xlink="http://www.w3.org/1999/xlink" x="0px" y="0px"
	 width="320px" height="180px" viewBox="0 0 320 180" enable-background="new 0 0 320 180" xml:space="preserve">
<rect x="70.46" y="39.753" fill="#A1D5D3" width="21.08" height="21.079"/>
<rect x="97.354" y="39.753" fill="#A1D5D3" width="21.084" height="21.079"/>
<rect x="124.254" y="39.753" fill="#A1D5D3" width="21.079" height="21.079"/>
<rect x="70.46" y="66.827" fill="#A1D5D3" width="21.08" height="21.076"/>
<rect x="97.354" y="66.827" fill="#A1D5D3" width="21.084" height="21.076"/>
<rect x="124.254" y="66.827" fill="#A1D5D3" width="21.079" height="21.076"/>
<rect x="70.46" y="93.726" fill="#A1D5D3" width="21.08" height="21.076"/>
<rect x="97.354" y="93.726" fill="#A1D5D3" width="21.084" height="21.076"/>
<rect x="124.254" y="93.726" fill="#A1D5D3" width="21.079" height="21.076"/>
<rect x="70.46" y="119.527" fill="#A1D5D3" width="21.08" height="21.08"/>
<rect x="97.354" y="119.527" fill="#A1D5D3" width="21.084" height="21.08"/>
<rect x="124.254" y="119.527" fill="#A1D5D3" width="21.079" height="21.08"/>
<rect x="156.947" y="40.496" fill="#A1D5D3" width="13.738" height="13.734"/>
<rect x="173.901" y="40.496" fill="#A1D5D3" width="13.739" height="13.734"/>
<rect x="191.428" y="40.496" fill="#A1D5D3" width="13.74" height="13.734"/>
<rect x="156.947" y="58.143" fill="#A1D5D3" width="13.738" height="13.732"/>
<rect x="173.901" y="58.143" fill="#A1D5D3" width="13.739" height="13.732"/>
<rect x="191.428" y="58.143" fill="#A1D5D3" width="13.74" height="13.732"/>
<rect x="156.947" y="75.672" fill="#A1D5D3" width="13.738" height="13.733"/>
<rect x="173.901" y="75.672" fill="#A1D5D3" width="13.739" height="13.733"/>
<rect x="191.428" y="75.672" fill="#A1D5D3" width="13.74" height="13.733"/>
<rect x="156.947" y="92.486" fill="#A1D5D3" width="13.738" height="13.732"/>
<rect x="173.901" y="92.486" fill="#A1D5D3" width="13.739" height="13.732"/>
<rect x="191.428" y="92.486" fill="#A1D5D3" width="13.74" height="13.732"/>
<rect x="156.947" y="109.084" fill="#A1D5D3" width="13.738" height="13.738"/>
<rect x="156.947" y="126.115" fill="#A1D5D3" width="13.738" height="13.743"/>
<rect x="173.901" y="109.084" fill="#A1D5D3" width="13.739" height="13.738"/>
<rect x="173.901" y="126.115" fill="#A1D5D3" width="13.739" height="13.743"/>
<rect x="218.613" y="40.876" fill="#A1D5D3" width="13.739" height="13.732"/>
<rect x="235.565" y="40.876" fill="#A1D5D3" width="13.732" height="13.732"/>
<rect x="218.613" y="58.515" fill="#A1D5D3" width="13.739" height="13.739"/>
<rect x="235.565" y="58.515" fill="#A1D5D3" width="13.732" height="13.739"/>
<rect x="218.613" y="76.041" fill="#A1D5D3" width="13.739" height="13.736"/>
<rect x="235.565" y="76.043" fill="#A1D5D3" width="13.732" height="13.737"/>
<rect x="218.613" y="92.861" fill="#A1D5D3" width="13.739" height="13.737"/>
<rect x="235.565" y="92.861" fill="#A1D5D3" width="13.732" height="13.737"/>
<rect x="218.613" y="109.467" fill="#A1D5D3" width="13.739" height="13.728"/>
<rect x="218.613" y="126.494" fill="#A1D5D3" width="13.74" height="13.736"/>
<rect x="235.565" y="109.466" fill="#A1D5D3" width="13.732" height="13.729"/>
<rect x="235.565" y="126.494" fill="#A1D5D3" width="13.732" height="13.736"/>
</svg>
