<?xml version="1.0" encoding="utf-8"?>
<!-- Generator: Adobe Illustrator 16.0.3, SVG Export Plug-In . SVG Version: 6.00 Build 0)  -->
<!DOCTYPE svg PUBLIC "-//W3C//DTD SVG 1.1//EN" "http://www.w3.org/Graphics/SVG/1.1/DTD/svg11.dtd">
<svg version="1.1" id="Ebene_1" xmlns="http://www.w3.org/2000/svg" xmlns:xlink="http://www.w3.org/1999/xlink" x="0px" y="0px"
	 width="320px" height="180px" viewBox="0 0 320 180" enable-background="new 0 0 320 180" xml:space="preserve">
<g>
	<polygon fill="#A1D5D3" points="204.293,70.794 206.157,77.148 193.561,80.84 191.692,74.488 	"/>
	<polygon fill="none" points="204.293,70.794 206.157,77.148 193.561,80.84 191.692,74.488 	"/>
	<path fill="none" stroke="#A1D5D3" stroke-width="4" stroke-miterlimit="10" d="M191.865,99.551
		c-5.043,17.568-23.367,27.728-40.936,22.693c-17.572-5.04-27.727-23.364-22.693-40.931c5.036-17.57,23.366-27.729,40.935-22.693
		C186.737,63.659,196.897,81.982,191.865,99.551z"/>
	<path fill="none" stroke="#A1D5D3" stroke-width="2" stroke-miterlimit="10" d="M187.088,98.185
		c-4.277,14.931-19.857,23.568-34.787,19.282c-14.936-4.277-23.57-19.853-19.294-34.789c4.283-14.931,19.862-23.568,34.794-19.287
		C182.736,67.671,191.371,83.249,187.088,98.185z"/>
	<polygon fill="#A1D5D3" points="146.704,145.991 140.347,144.162 146.727,121.901 153.093,123.722 	"/>
	<polygon fill="none" points="146.704,145.991 140.347,144.162 146.727,121.901 153.093,123.722 	"/>
	<polygon fill="#A1D5D3" points="157.44,138.514 150.894,137.529 152.856,124.54 159.397,125.53 	"/>
	<polygon fill="none" points="157.44,138.514 150.894,137.529 152.856,124.54 159.397,125.53 	"/>
	
		<rect x="160.128" y="124.199" transform="matrix(0.9995 -0.0319 0.0319 0.9995 -4.2094 5.2879)" fill="#A1D5D3" width="6.621" height="20.449"/>
	
		<rect x="160.128" y="124.199" transform="matrix(0.9995 -0.0319 0.0319 0.9995 -4.2094 5.2879)" fill="none" width="6.621" height="20.449"/>
	
		<rect x="168.896" y="123.041" transform="matrix(0.9843 -0.1764 0.1764 0.9843 -21.1233 32.4985)" fill="#A1D5D3" width="6.62" height="24.007"/>
	
		<rect x="168.896" y="123.041" transform="matrix(0.9843 -0.1764 0.1764 0.9843 -21.1233 32.4985)" fill="none" width="6.62" height="24.007"/>
	<polygon fill="#A1D5D3" points="182.676,127.409 176.58,129.996 172.65,120.747 178.747,118.163 	"/>
	<polygon fill="none" points="182.676,127.409 176.58,129.996 172.65,120.747 178.747,118.163 	"/>
	<polygon fill="#A1D5D3" points="106.702,112.063 104.474,105.829 126.302,98.053 128.521,104.285 	"/>
	<polygon fill="none" points="106.702,112.063 104.474,105.829 126.302,98.053 128.521,104.285 	"/>
	
		<rect x="120.762" y="102.812" transform="matrix(0.4548 0.8906 -0.8906 0.4548 165.049 -50.866)" fill="#A1D5D3" width="6.619" height="13.134"/>
	
		<rect x="120.762" y="102.812" transform="matrix(0.4548 0.8906 -0.8906 0.4548 165.049 -50.866)" fill="none" width="6.619" height="13.134"/>
	
		<rect x="122.164" y="107.996" transform="matrix(0.6077 0.7942 -0.7942 0.6077 143.1154 -53.2681)" fill="#A1D5D3" width="6.618" height="20.447"/>
	
		<rect x="122.164" y="107.996" transform="matrix(0.6077 0.7942 -0.7942 0.6077 143.1154 -53.2681)" fill="none" width="6.618" height="20.447"/>
	
		<rect x="126.904" y="112.896" transform="matrix(0.7165 0.6976 -0.6976 0.7165 124.0403 -55.4261)" fill="#A1D5D3" width="6.621" height="24.01"/>
	
		<rect x="126.904" y="112.896" transform="matrix(0.7165 0.6976 -0.6976 0.7165 124.0403 -55.4261)" fill="none" width="6.621" height="24.01"/>
	
		<rect x="137.785" y="119.816" transform="matrix(0.8533 0.5214 -0.5214 0.8533 85.7809 -55.2528)" fill="#A1D5D3" width="6.62" height="10.046"/>
	
		<rect x="137.785" y="119.816" transform="matrix(0.8533 0.5214 -0.5214 0.8533 85.7809 -55.2528)" fill="none" width="6.62" height="10.046"/>
	<polygon fill="#A1D5D3" points="211.968,114.224 208.752,120.011 188.49,108.775 191.706,102.985 	"/>
	<polygon fill="none" points="211.968,114.224 208.752,120.011 188.49,108.775 191.706,102.985 	"/>
	<polygon fill="#A1D5D3" points="205.938,102.082 203.506,108.237 191.296,103.398 193.729,97.246 	"/>
	<polygon fill="none" points="205.938,102.082 203.506,108.237 191.296,103.398 193.729,97.246 	"/>
	
		<rect x="184.389" y="113.529" transform="matrix(0.8411 -0.5408 0.5408 0.8411 -38.0735 121.4562)" fill="#A1D5D3" width="6.622" height="24.012"/>
	
		<rect x="184.389" y="113.529" transform="matrix(0.8411 -0.5408 0.5408 0.8411 -38.0735 121.4562)" fill="none" width="6.622" height="24.012"/>
	
		<rect x="186.783" y="109.899" transform="matrix(0.7002 -0.7139 0.7139 0.7002 -25.0591 170.1656)" fill="#A1D5D3" width="6.62" height="10.046"/>
	
		<rect x="186.783" y="109.899" transform="matrix(0.7002 -0.7139 0.7139 0.7002 -25.0591 170.1656)" fill="none" width="6.62" height="10.046"/>
	<polygon fill="#A1D5D3" points="216.451,96.872 215.169,103.368 192.438,98.892 193.719,92.398 	"/>
	<polygon fill="none" points="216.451,96.872 215.169,103.368 192.438,98.892 193.719,92.398 	"/>
	<polygon fill="#A1D5D3" points="207.029,86.95 206.525,93.552 193.431,92.543 193.935,85.943 	"/>
	<polygon fill="none" points="207.029,86.95 206.525,93.552 193.431,92.543 193.935,85.943 	"/>
	
		<rect x="116.514" y="88.686" transform="matrix(-0.2851 -0.9585 0.9585 -0.2851 62.6783 237.2581)" fill="#A1D5D3" width="6.619" height="13.135"/>
	
		<rect x="116.514" y="88.686" transform="matrix(-0.2851 -0.9585 0.9585 -0.2851 62.6783 237.2581)" fill="none" width="6.619" height="13.135"/>
	
		<rect x="114.339" y="78.916" transform="matrix(-0.0131 -0.9999 0.9999 -0.0131 31.3752 206.6157)" fill="#A1D5D3" width="6.618" height="17.819"/>
	
		<rect x="114.339" y="78.916" transform="matrix(-0.0131 -0.9999 0.9999 -0.0131 31.3752 206.6157)" fill="none" width="6.618" height="17.819"/>
	<polygon fill="#A1D5D3" points="212.569,79.13 212.658,85.748 192.559,86.001 192.476,79.387 	"/>
	<polygon fill="none" points="212.569,79.13 212.658,85.748 192.559,86.001 192.476,79.387 	"/>
	<polygon fill="#A1D5D3" points="182.26,37.305 188.267,40.099 178.5,61.099 172.498,58.313 	"/>
	<polygon fill="none" points="182.26,37.305 188.267,40.099 178.5,61.099 172.498,58.313 	"/>
	
		<rect x="168.08" y="45.434" transform="matrix(-0.9537 -0.3006 0.3006 -0.9537 319.2221 153.1179)" fill="#A1D5D3" width="6.621" height="13.134"/>
	
		<rect x="168.08" y="45.434" transform="matrix(-0.9537 -0.3006 0.3006 -0.9537 319.2221 153.1179)" fill="none" width="6.621" height="13.134"/>
	
		<rect x="160.575" y="36.225" transform="matrix(-0.9924 -0.1233 0.1233 -0.9924 320.7932 112.752)" fill="#A1D5D3" width="6.621" height="20.448"/>
	
		<rect x="160.575" y="36.225" transform="matrix(-0.9924 -0.1233 0.1233 -0.9924 320.7932 112.752)" fill="none" width="6.621" height="20.448"/>
	<polygon fill="#A1D5D3" points="151.107,32.966 157.715,32.556 159.184,56.523 152.577,56.928 	"/>
	<polygon fill="none" points="151.107,32.966 157.715,32.556 159.184,56.523 152.577,56.928 	"/>
	
		<rect x="144.969" y="49.125" transform="matrix(-0.9699 0.2434 -0.2434 -0.9699 305.2769 70.575)" fill="#A1D5D3" width="6.618" height="10.046"/>
	
		<rect x="144.969" y="49.125" transform="matrix(-0.9699 0.2434 -0.2434 -0.9699 305.2769 70.575)" fill="none" width="6.618" height="10.046"/>
	<polygon fill="#A1D5D3" points="206.329,60.25 209.489,66.066 191.52,75.817 188.36,70.004 	"/>
	<polygon fill="none" points="206.329,60.25 209.489,66.066 191.52,75.817 188.36,70.004 	"/>
	
		<rect x="191.967" y="48.696" transform="matrix(-0.5996 -0.8003 0.8003 -0.5996 263.78 253.3784)" fill="#A1D5D3" width="6.623" height="24.006"/>
	
		<rect x="191.967" y="48.696" transform="matrix(-0.5996 -0.8003 0.8003 -0.5996 263.78 253.3784)" fill="none" width="6.623" height="24.006"/>
	
		<rect x="181.209" y="54.05" transform="matrix(-0.7627 -0.6468 0.6468 -0.7627 287.045 223.4648)" fill="#A1D5D3" width="6.621" height="10.043"/>
	
		<rect x="181.209" y="54.05" transform="matrix(-0.7627 -0.6468 0.6468 -0.7627 287.045 223.4648)" fill="none" width="6.621" height="10.043"/>
	<polygon fill="#A1D5D3" points="112.863,58.557 116.932,53.34 135.2,67.586 131.126,72.805 	"/>
	<polygon fill="none" points="112.863,58.557 116.932,53.34 135.2,67.586 131.126,72.805 	"/>
	
		<rect x="117.659" y="72.561" transform="matrix(-0.2484 0.9686 -0.9686 -0.2484 227.6697 -18.3889)" fill="#A1D5D3" width="6.62" height="13.136"/>
	
		<rect x="117.659" y="72.561" transform="matrix(-0.2484 0.9686 -0.9686 -0.2484 227.6697 -18.3889)" fill="none" width="6.62" height="13.136"/>
	<polygon fill="#A1D5D3" points="130.714,41.502 136.772,38.828 146.456,60.794 140.408,63.467 	"/>
	<polygon fill="none" points="130.714,41.502 136.772,38.828 146.456,60.794 140.408,63.467 	"/>
	
		<rect x="131.272" y="56.24" transform="matrix(-0.8026 0.5966 -0.5966 -0.8026 279.1333 30.1431)" fill="#A1D5D3" width="6.613" height="10.045"/>
	
		<rect x="131.272" y="56.24" transform="matrix(-0.8026 0.5966 -0.5966 -0.8026 279.1333 30.1431)" fill="none" width="6.613" height="10.045"/>
	
		<rect x="122.16" y="68.751" transform="matrix(-0.5317 0.8469 -0.8469 -0.5317 253.845 5.2476)" fill="#A1D5D3" width="6.623" height="8.107"/>
	
		<rect x="122.16" y="68.751" transform="matrix(-0.5317 0.8469 -0.8469 -0.5317 253.845 5.2476)" fill="none" width="6.623" height="8.107"/>
</g>
</svg>
