<?xml version="1.0" encoding="utf-8"?>
<!-- Generator: Adobe Illustrator 16.0.3, SVG Export Plug-In . SVG Version: 6.00 Build 0)  -->
<!DOCTYPE svg PUBLIC "-//W3C//DTD SVG 1.1//EN" "http://www.w3.org/Graphics/SVG/1.1/DTD/svg11.dtd">
<svg version="1.1" id="Ebene_1" xmlns="http://www.w3.org/2000/svg" xmlns:xlink="http://www.w3.org/1999/xlink" x="0px" y="0px"
	 width="320px" height="180px" viewBox="0 0 320 180" enable-background="new 0 0 320 180" xml:space="preserve">
<g>
	
		<line fill="#A1D5D3" stroke="#A1D5D3" stroke-width="1.032" stroke-miterlimit="10" stroke-dasharray="2.064,2.064" x1="107.102" y1="71.37" x2="213.531" y2="71.37"/>
	
		<line fill="#A1D5D3" stroke="#A1D5D3" stroke-width="1.032" stroke-miterlimit="10" stroke-dasharray="2.064,2.064" x1="107.102" y1="106.481" x2="213.531" y2="106.481"/>
	
		<line fill="#A1D5D3" stroke="#A1D5D3" stroke-width="1.032" stroke-miterlimit="10" stroke-dasharray="2.064,2.064" x1="177.265" y1="138.809" x2="177.265" y2="41.191"/>
	
		<line fill="#A1D5D3" stroke="#A1D5D3" stroke-width="1.032" stroke-miterlimit="10" stroke-dasharray="2.064,2.064" x1="142.375" y1="138.809" x2="142.375" y2="41.191"/>
</g>
<g>
	<path fill="#A1D5D3" stroke="#A1D5D3" stroke-miterlimit="10" d="M160.001,77.554c6.65,0,12.043,5.41,12.043,12.082"/>
	<path fill="#A1D5D3" stroke="#A1D5D3" stroke-miterlimit="10" d="M147.956,89.636c0-6.672,5.393-12.082,12.045-12.082"/>
	<path fill="#A1D5D3" stroke="#A1D5D3" stroke-miterlimit="10" d="M160.001,101.716c-6.652,0-12.045-5.41-12.045-12.08"/>
	<path fill="#A1D5D3" stroke="#A1D5D3" stroke-miterlimit="10" d="M172.044,89.636c0,6.67-5.393,12.08-12.043,12.08"/>
	<path fill="#A1D5D3" stroke="#A1D5D3" stroke-miterlimit="10" d="M160.001,43.688c6.65,0,12.043,5.41,12.043,12.082"/>
	<path fill="#A1D5D3" stroke="#A1D5D3" stroke-miterlimit="10" d="M147.956,55.77c0-6.672,5.393-12.082,12.045-12.082"/>
	<path fill="#A1D5D3" stroke="#A1D5D3" stroke-miterlimit="10" d="M160.001,67.85c-6.652,0-12.045-5.41-12.045-12.08"/>
	<path fill="#A1D5D3" stroke="#A1D5D3" stroke-miterlimit="10" d="M172.044,55.77c0,6.67-5.393,12.08-12.043,12.08"/>
	<path fill="#A1D5D3" stroke="#A1D5D3" stroke-miterlimit="10" d="M160.001,111.421c6.65,0,12.043,5.41,12.043,12.082"/>
	<path fill="#A1D5D3" stroke="#A1D5D3" stroke-miterlimit="10" d="M147.956,123.503c0-6.672,5.393-12.082,12.045-12.082"/>
	<path fill="#A1D5D3" stroke="#A1D5D3" stroke-miterlimit="10" d="M160.001,135.583c-6.652,0-12.045-5.41-12.045-12.08"/>
	<path fill="#A1D5D3" stroke="#A1D5D3" stroke-miterlimit="10" d="M172.044,123.503c0,6.67-5.393,12.08-12.043,12.08"/>
	<path fill="#A1D5D3" stroke="#A1D5D3" stroke-miterlimit="10" d="M194.264,77.554c6.65,0,12.042,5.41,12.042,12.082"/>
	<path fill="#A1D5D3" stroke="#A1D5D3" stroke-miterlimit="10" d="M182.218,89.636c0-6.672,5.393-12.082,12.046-12.082"/>
	<path fill="#A1D5D3" stroke="#A1D5D3" stroke-miterlimit="10" d="M194.264,101.716c-6.653,0-12.046-5.41-12.046-12.08"/>
	<path fill="#A1D5D3" stroke="#A1D5D3" stroke-miterlimit="10" d="M206.306,89.636c0,6.67-5.392,12.08-12.042,12.08"/>
	<path fill="#A1D5D3" stroke="#A1D5D3" stroke-miterlimit="10" d="M194.264,43.688c6.65,0,12.042,5.41,12.042,12.082"/>
	<path fill="#A1D5D3" stroke="#A1D5D3" stroke-miterlimit="10" d="M182.218,55.77c0-6.672,5.393-12.082,12.046-12.082"/>
	<path fill="#A1D5D3" stroke="#A1D5D3" stroke-miterlimit="10" d="M194.264,67.85c-6.653,0-12.046-5.41-12.046-12.08"/>
	<path fill="#A1D5D3" stroke="#A1D5D3" stroke-miterlimit="10" d="M206.306,55.77c0,6.67-5.392,12.08-12.042,12.08"/>
	<path fill="#A1D5D3" stroke="#A1D5D3" stroke-miterlimit="10" d="M194.264,111.421c6.65,0,12.042,5.41,12.042,12.082"/>
	<path fill="#A1D5D3" stroke="#A1D5D3" stroke-miterlimit="10" d="M182.218,123.503c0-6.672,5.393-12.082,12.046-12.082"/>
	<path fill="#A1D5D3" stroke="#A1D5D3" stroke-miterlimit="10" d="M194.264,135.583c-6.653,0-12.046-5.41-12.046-12.08"/>
	<path fill="#A1D5D3" stroke="#A1D5D3" stroke-miterlimit="10" d="M206.306,123.503c0,6.67-5.392,12.08-12.042,12.08"/>
	<path fill="#A1D5D3" stroke="#A1D5D3" stroke-miterlimit="10" d="M125.739,77.554c6.65,0,12.042,5.41,12.042,12.082"/>
	<path fill="#A1D5D3" stroke="#A1D5D3" stroke-miterlimit="10" d="M113.693,89.636c0-6.672,5.393-12.082,12.046-12.082"/>
	<path fill="#A1D5D3" stroke="#A1D5D3" stroke-miterlimit="10" d="M125.739,101.716c-6.653,0-12.046-5.41-12.046-12.08"/>
	<path fill="#A1D5D3" stroke="#A1D5D3" stroke-miterlimit="10" d="M137.781,89.636c0,6.67-5.392,12.08-12.042,12.08"/>
	<path fill="#A1D5D3" stroke="#A1D5D3" stroke-miterlimit="10" d="M125.739,43.688c6.65,0,12.042,5.41,12.042,12.082"/>
	<path fill="#A1D5D3" stroke="#A1D5D3" stroke-miterlimit="10" d="M113.693,55.77c0-6.672,5.393-12.082,12.046-12.082"/>
	<path fill="#A1D5D3" stroke="#A1D5D3" stroke-miterlimit="10" d="M125.739,67.85c-6.653,0-12.046-5.41-12.046-12.08"/>
	<path fill="#A1D5D3" stroke="#A1D5D3" stroke-miterlimit="10" d="M137.781,55.77c0,6.67-5.392,12.08-12.042,12.08"/>
	<path fill="#A1D5D3" stroke="#A1D5D3" stroke-miterlimit="10" d="M125.739,111.421c6.65,0,12.042,5.41,12.042,12.082"/>
	<path fill="#A1D5D3" stroke="#A1D5D3" stroke-miterlimit="10" d="M113.693,123.503c0-6.672,5.393-12.082,12.046-12.082"/>
	<path fill="#A1D5D3" stroke="#A1D5D3" stroke-miterlimit="10" d="M125.739,135.583c-6.653,0-12.046-5.41-12.046-12.08"/>
	<path fill="#A1D5D3" stroke="#A1D5D3" stroke-miterlimit="10" d="M137.781,123.503c0,6.67-5.392,12.08-12.042,12.08"/>
</g>
</svg>
